# Blender 5.1.0
# www.blender.org
mtllib health.mtl
o Health
v 0.000000 -1.000000 -1.000000
v 0.000000 1.000000 -1.000000
v 0.195090 -1.000000 -0.980785
v 0.195090 1.000000 -0.980785
v 0.382683 -1.000000 -0.923880
v 0.382683 1.000000 -0.923880
v 0.555570 -1.000000 -0.831470
v 0.555570 1.000000 -0.831470
v 0.707107 -1.000000 -0.707107
v 0.707107 1.000000 -0.707107
v 0.831470 -1.000000 -0.555570
v 0.831470 1.000000 -0.555570
v 0.923880 -1.000000 -0.382683
v 0.923880 1.000000 -0.382683
v 0.980785 -1.000000 -0.195090
v 0.980785 1.000000 -0.195090
v 1.000000 -1.000000 0.000000
v 1.000000 1.000000 0.000000
v 0.980785 -1.000000 0.195090
v 0.980785 1.000000 0.195090
v 0.923880 -1.000000 0.382683
v 0.923880 1.000000 0.382683
v 0.831470 -1.000000 0.555570
v 0.831470 1.000000 0.555570
v 0.707107 -1.000000 0.707107
v 0.707107 1.000000 0.707107
v 0.555570 -1.000000 0.831470
v 0.555570 1.000000 0.831470
v 0.382683 -1.000000 0.923880
v 0.382683 1.000000 0.923880
v 0.195090 -1.000000 0.980785
v 0.195090 1.000000 0.980785
v 0.000000 -1.000000 1.000000
v 0.000000 1.000000 1.000000
v -0.195090 -1.000000 0.980785
v -0.195090 1.000000 0.980785
v -0.382683 -1.000000 0.923880
v -0.382683 1.000000 0.923880
v -0.555570 -1.000000 0.831470
v -0.555570 1.000000 0.831470
v -0.707107 -1.000000 0.707107
v -0.707107 1.000000 0.707107
v -0.831470 -1.000000 0.555570
v -0.831470 1.000000 0.555570
v -0.923880 -1.000000 0.382683
v -0.923880 1.000000 0.382683
v -0.980785 -1.000000 0.195090
v -0.980785 1.000000 0.195090
v -1.000000 -1.000000 0.000000
v -1.000000 1.000000 0.000000
v -0.980785 -1.000000 -0.195090
v -0.980785 1.000000 -0.195090
v -0.923880 -1.000000 -0.382683
v -0.923880 1.000000 -0.382683
v -0.831470 -1.000000 -0.555570
v -0.831470 1.000000 -0.555570
v -0.707107 -1.000000 -0.707107
v -0.707107 1.000000 -0.707107
v -0.555570 -1.000000 -0.831470
v -0.555570 1.000000 -0.831470
v -0.382683 -1.000000 -0.923880
v -0.382683 1.000000 -0.923880
v -0.195090 -1.000000 -0.980785
v -0.195090 1.000000 -0.980785
v 0.000000 -0.000000 -1.240933
v 0.000000 -0.649854 -1.031798
v 0.000000 -0.972576 -0.689425
v 0.000000 -1.147232 -0.242094
v 0.000000 -1.169707 0.000000
v 0.000000 -1.147232 0.242094
v 0.000000 -0.972576 0.689425
v 0.000000 0.000000 1.240933
v 0.047230 -0.223814 -1.217089
v 0.092645 -0.439027 -1.146472
v 0.134500 -0.637368 -1.031798
v 0.171186 -0.811215 -0.877472
v 0.201294 -0.953888 -0.689425
v 0.223666 -1.059904 -0.474884
v 0.237442 -1.125188 -0.242094
v 0.242094 -1.147232 0.000000
v 0.237442 -1.125188 0.242094
v 0.223666 -1.059904 0.474885
v 0.201294 -0.953888 0.689425
v 0.171186 -0.811215 0.877472
v 0.134500 -0.637368 1.031798
v 0.092645 -0.439027 1.146472
v 0.047230 -0.223814 1.217089
v 0.092645 -0.210828 -1.217089
v 0.181730 -0.413554 -1.146472
v 0.263832 -0.600387 -1.031798
v 0.335794 -0.764148 -0.877472
v 0.394852 -0.898543 -0.689425
v 0.438736 -0.998407 -0.474884
v 0.465760 -1.059904 -0.242094
v 0.474884 -1.080668 0.000000
v 0.465760 -1.059904 0.242094
v 0.438736 -0.998407 0.474885
v 0.394852 -0.898543 0.689425
v 0.335794 -0.764148 0.877472
v 0.263832 -0.600387 1.031798
v 0.181730 -0.413554 1.146472
v 0.092645 -0.210828 1.217089
v 0.134500 -0.189740 -1.217089
v 0.263832 -0.372189 -1.146472
v 0.383024 -0.540334 -1.031798
v 0.487497 -0.687715 -0.877472
v 0.573236 -0.808667 -0.689425
v 0.636946 -0.898543 -0.474884
v 0.676178 -0.953888 -0.242094
v 0.689425 -0.972576 0.000000
v 0.676178 -0.953888 0.242094
v 0.636946 -0.898543 0.474885
v 0.573236 -0.808667 0.689425
v 0.487497 -0.687715 0.877472
v 0.383024 -0.540334 1.031798
v 0.263832 -0.372189 1.146472
v 0.134500 -0.189740 1.217089
v 0.171186 -0.161361 -1.217089
v 0.335794 -0.316520 -1.146472
v 0.487497 -0.459516 -1.031798
v 0.620466 -0.584854 -0.877472
v 0.729591 -0.687715 -0.689425
v 0.810678 -0.764148 -0.474884
v 0.860612 -0.811215 -0.242094
v 0.877472 -0.827108 0.000000
v 0.860612 -0.811215 0.242094
v 0.810678 -0.764148 0.474885
v 0.729591 -0.687715 0.689425
v 0.620466 -0.584854 0.877472
v 0.487497 -0.459516 1.031798
v 0.335794 -0.316520 1.146472
v 0.171186 -0.161361 1.217089
v 0.201294 -0.126780 -1.217089
v 0.394852 -0.248689 -1.146472
v 0.573236 -0.361040 -1.031798
v 0.729591 -0.459517 -0.877472
v 0.857909 -0.540334 -0.689425
v 0.953257 -0.600387 -0.474884
v 1.011972 -0.637368 -0.242094
v 1.031798 -0.649854 0.000000
v 1.011972 -0.637368 0.242094
v 0.953257 -0.600387 0.474885
v 0.857909 -0.540334 0.689425
v 0.729591 -0.459516 0.877472
v 0.573236 -0.361040 1.031798
v 0.394852 -0.248688 1.146472
v 0.201294 -0.126780 1.217089
v 0.223666 -0.087328 -1.217089
v 0.438736 -0.171300 -1.146472
v 0.636946 -0.248688 -1.031798
v 0.810678 -0.316521 -0.877472
v 0.953257 -0.372189 -0.689425
v 1.059202 -0.413554 -0.474884
v 1.124443 -0.439026 -0.242094
v 1.146472 -0.447627 0.000000
v 1.124443 -0.439026 0.242094
v 1.059202 -0.413554 0.474884
v 0.953257 -0.372189 0.689425
v 0.810678 -0.316520 0.877472
v 0.636946 -0.248688 1.031798
v 0.438736 -0.171300 1.146472
v 0.223666 -0.087328 1.217089
v 0.237442 -0.044519 -1.217089
v 0.465760 -0.087328 -1.146472
v 0.676178 -0.126780 -1.031798
v 0.860612 -0.161361 -0.877472
v 1.011972 -0.189740 -0.689425
v 1.124443 -0.210828 -0.474884
v 1.193702 -0.223814 -0.242094
v 1.217088 -0.228198 0.000000
v 1.193702 -0.223814 0.242094
v 1.124443 -0.210828 0.474884
v 1.011972 -0.189740 0.689425
v 0.860612 -0.161361 0.877472
v 0.676178 -0.126780 1.031798
v 0.465760 -0.087328 1.146472
v 0.237442 -0.044519 1.217089
v 0.242094 -0.000000 -1.217089
v 0.474884 0.000000 -1.146472
v 0.689425 0.000000 -1.031798
v 0.877472 -0.000000 -0.877472
v 1.031798 0.000000 -0.689425
v 1.146472 -0.000000 -0.474884
v 1.217088 0.000000 -0.242094
v 1.240932 0.000000 -0.000000
v 1.217088 0.000000 0.242094
v 1.146472 -0.000000 0.474884
v 1.031798 0.000000 0.689425
v 0.877472 0.000000 0.877472
v 0.689425 0.000000 1.031798
v 0.474884 0.000000 1.146472
v 0.242094 0.000000 1.217089
v 0.237442 0.044519 -1.217089
v 0.465760 0.087328 -1.146472
v 0.676178 0.126780 -1.031798
v 0.860611 0.161361 -0.877472
v 1.011972 0.189740 -0.689425
v 1.124443 0.210828 -0.474884
v 1.193702 0.223814 -0.242094
v 1.217088 0.228199 -0.000000
v 1.193702 0.223814 0.242094
v 1.124443 0.210828 0.474884
v 1.011972 0.189740 0.689425
v 0.860611 0.161361 0.877472
v 0.676178 0.126780 1.031798
v 0.465760 0.087328 1.146472
v 0.237442 0.044519 1.217089
v 0.223666 0.087328 -1.217089
v 0.438736 0.171300 -1.146472
v 0.636946 0.248689 -1.031798
v 0.810678 0.316520 -0.877472
v 0.953257 0.372189 -0.689425
v 1.059202 0.413554 -0.474884
v 1.124443 0.439027 -0.242094
v 1.146472 0.447628 -0.000000
v 1.124443 0.439027 0.242094
v 1.059202 0.413554 0.474884
v 0.953257 0.372189 0.689425
v 0.810678 0.316520 0.877472
v 0.636946 0.248689 1.031798
v 0.438736 0.171300 1.146472
v 0.223666 0.087328 1.217089
v 0.201294 0.126780 -1.217089
v 0.394852 0.248689 -1.146472
v 0.573236 0.361040 -1.031798
v 0.729591 0.459516 -0.877472
v 0.857908 0.540334 -0.689425
v 0.953257 0.600387 -0.474885
v 1.011972 0.637368 -0.242094
v 1.031797 0.649854 -0.000000
v 1.011972 0.637368 0.242094
v 0.953257 0.600387 0.474884
v 0.857908 0.540334 0.689425
v 0.729591 0.459516 0.877472
v 0.573236 0.361040 1.031798
v 0.394852 0.248689 1.146472
v 0.201294 0.126780 1.217089
v 0.171186 0.161361 -1.217089
v 0.335794 0.316520 -1.146472
v 0.487497 0.459516 -1.031798
v 0.620466 0.584854 -0.877472
v 0.729591 0.687715 -0.689425
v 0.810678 0.764148 -0.474885
v 0.860611 0.811215 -0.242094
v 0.877471 0.827108 -0.000000
v 0.860611 0.811215 0.242094
v 0.810678 0.764148 0.474884
v 0.729591 0.687715 0.689425
v 0.620466 0.584854 0.877472
v 0.487497 0.459516 1.031798
v 0.335794 0.316520 1.146472
v 0.171186 0.161361 1.217089
v 0.134500 0.189740 -1.217089
v 0.263832 0.372189 -1.146472
v 0.383024 0.540334 -1.031798
v 0.487497 0.687715 -0.877472
v 0.573236 0.808667 -0.689425
v 0.636946 0.898543 -0.474885
v 0.676178 0.953888 -0.242094
v 0.689425 0.972576 -0.000000
v 0.676178 0.953888 0.242094
v 0.636946 0.898543 0.474884
v 0.573236 0.808667 0.689425
v 0.487497 0.687715 0.877472
v 0.383024 0.540334 1.031798
v 0.263832 0.372189 1.146472
v 0.134500 0.189740 1.217089
v 0.092645 0.210828 -1.217089
v 0.181730 0.413554 -1.146472
v 0.263831 0.600387 -1.031798
v 0.335794 0.764148 -0.877472
v 0.394852 0.898543 -0.689425
v 0.438736 0.998407 -0.474885
v 0.465759 1.059904 -0.242094
v 0.474884 1.080668 -0.000000
v 0.465759 1.059904 0.242094
v 0.438736 0.998407 0.474884
v 0.394852 0.898543 0.689425
v 0.335794 0.764148 0.877472
v 0.263831 0.600387 1.031798
v 0.181730 0.413554 1.146472
v 0.092645 0.210828 1.217089
v 0.047230 0.223814 -1.217089
v 0.092645 0.439026 -1.146472
v 0.134500 0.637367 -1.031798
v 0.171186 0.811215 -0.877472
v 0.201294 0.953888 -0.689425
v 0.223666 1.059904 -0.474885
v 0.237442 1.125188 -0.242094
v 0.242093 1.147231 -0.000000
v 0.237442 1.125188 0.242094
v 0.223666 1.059904 0.474884
v 0.201294 0.953888 0.689425
v 0.171186 0.811215 0.877472
v 0.134500 0.637367 1.031798
v 0.092645 0.439026 1.146472
v 0.047230 0.223814 1.217089
v -0.000000 0.228198 -1.217089
v -0.000000 0.447627 -1.146472
v -0.000000 0.649854 -1.031798
v -0.000000 0.827108 -0.877472
v -0.000000 0.972576 -0.689425
v 0.000000 1.080668 -0.474885
v -0.000000 1.147231 -0.242094
v -0.000000 1.169706 -0.000000
v -0.000000 1.147231 0.242094
v 0.000000 1.080668 0.474884
v -0.000000 0.972576 0.689425
v -0.000000 0.827108 0.877472
v -0.000000 0.649854 1.031798
v -0.000000 0.447627 1.146472
v -0.000000 0.228198 1.217089
v -0.047230 0.223814 -1.217089
v -0.092645 0.439026 -1.146472
v -0.134500 0.637367 -1.031798
v -0.171186 0.811215 -0.877472
v -0.201294 0.953888 -0.689425
v -0.223666 1.059903 -0.474885
v -0.237442 1.125187 -0.242094
v -0.242094 1.147231 -0.000000
v -0.237442 1.125187 0.242094
v -0.223666 1.059903 0.474884
v -0.201294 0.953888 0.689425
v -0.171186 0.811215 0.877472
v -0.134500 0.637367 1.031798
v -0.092645 0.439026 1.146472
v -0.047230 0.223814 1.217089
v -0.092645 0.210828 -1.217089
v -0.181730 0.413554 -1.146472
v -0.263832 0.600387 -1.031798
v -0.335794 0.764148 -0.877472
v -0.394852 0.898543 -0.689425
v -0.438736 0.998407 -0.474885
v -0.465760 1.059903 -0.242094
v -0.474885 1.080668 -0.000000
v -0.465760 1.059903 0.242094
v -0.438736 0.998407 0.474884
v -0.394852 0.898543 0.689425
v -0.335794 0.764148 0.877472
v -0.263832 0.600387 1.031798
v -0.181730 0.413554 1.146472
v -0.092645 0.210828 1.217089
v -0.134500 0.189740 -1.217089
v -0.263832 0.372189 -1.146472
v -0.383024 0.540334 -1.031798
v -0.487497 0.687715 -0.877472
v -0.573236 0.808667 -0.689425
v -0.636946 0.898543 -0.474885
v -0.676178 0.953888 -0.242094
v -0.689425 0.972575 -0.000000
v -0.676178 0.953888 0.242094
v -0.636946 0.898543 0.474884
v -0.573236 0.808667 0.689425
v -0.487497 0.687715 0.877472
v -0.383024 0.540334 1.031798
v -0.263832 0.372189 1.146472
v -0.134500 0.189740 1.217089
v -0.171186 0.161361 -1.217089
v -0.335794 0.316520 -1.146472
v -0.487497 0.459516 -1.031798
v -0.620466 0.584853 -0.877472
v -0.729591 0.687715 -0.689425
v -0.810678 0.764148 -0.474885
v -0.860611 0.811215 -0.242094
v -0.877472 0.827107 -0.000000
v -0.860611 0.811215 0.242094
v -0.810678 0.764148 0.474884
v -0.729591 0.687715 0.689425
v -0.620466 0.584853 0.877472
v -0.487497 0.459516 1.031798
v -0.335794 0.316520 1.146472
v -0.171186 0.161361 1.217089
v -0.201294 0.126780 -1.217089
v -0.394852 0.248688 -1.146472
v -0.573236 0.361039 -1.031798
v -0.729591 0.459516 -0.877472
v -0.857908 0.540334 -0.689425
v -0.953257 0.600387 -0.474885
v -1.011972 0.637367 -0.242094
v -1.031797 0.649854 -0.000000
v -1.011972 0.637367 0.242094
v -0.953257 0.600387 0.474884
v -0.857908 0.540334 0.689425
v -0.729591 0.459516 0.877472
v -0.573236 0.361039 1.031798
v -0.394852 0.248688 1.146472
v -0.201294 0.126780 1.217089
v -0.223665 0.087328 -1.217089
v -0.438736 0.171300 -1.146472
v -0.636946 0.248688 -1.031798
v -0.810678 0.316520 -0.877472
v -0.953257 0.372188 -0.689425
v -1.059202 0.413554 -0.474884
v -1.124443 0.439026 -0.242094
v -1.146472 0.447627 -0.000000
v -1.124443 0.439026 0.242094
v -1.059202 0.413554 0.474884
v -0.953257 0.372188 0.689425
v -0.810678 0.316520 0.877472
v -0.636946 0.248688 1.031798
v -0.438736 0.171300 1.146472
v -0.223665 0.087328 1.217089
v -0.237442 0.044519 -1.217089
v -0.465759 0.087328 -1.146472
v -0.676178 0.126780 -1.031798
v -0.860611 0.161361 -0.877472
v -1.011972 0.189740 -0.689425
v -1.124443 0.210828 -0.474884
v -1.193702 0.223813 -0.242094
v -1.217088 0.228198 -0.000000
v -1.193702 0.223813 0.242094
v -1.124443 0.210828 0.474884
v -1.011972 0.189740 0.689425
v -0.860611 0.161361 0.877472
v -0.676178 0.126780 1.031798
v -0.465759 0.087328 1.146472
v -0.237442 0.044519 1.217089
v -0.242094 -0.000000 -1.217089
v -0.474884 -0.000000 -1.146472
v -0.689425 -0.000000 -1.031798
v -0.877472 -0.000000 -0.877472
v -1.031797 -0.000000 -0.689425
v -1.146472 -0.000000 -0.474884
v -1.217088 -0.000000 -0.242094
v -1.240932 -0.000001 0.000000
v -1.217088 -0.000000 0.242094
v -1.146472 -0.000000 0.474884
v -1.031797 -0.000000 0.689425
v -0.877472 -0.000000 0.877472
v -0.689425 -0.000000 1.031798
v -0.474884 -0.000000 1.146472
v -0.242094 0.000000 1.217089
v -0.237442 -0.044519 -1.217089
v -0.465759 -0.087328 -1.146472
v -0.676178 -0.126780 -1.031798
v -0.860611 -0.161361 -0.877472
v -1.011972 -0.189740 -0.689425
v -1.124443 -0.210828 -0.474884
v -1.193702 -0.223814 -0.242094
v -1.217087 -0.228199 0.000000
v -1.193702 -0.223814 0.242094
v -1.124443 -0.210828 0.474884
v -1.011972 -0.189740 0.689425
v -0.860611 -0.161361 0.877472
v -0.676178 -0.126780 1.031798
v -0.465759 -0.087328 1.146472
v -0.237442 -0.044519 1.217089
v -0.223665 -0.087328 -1.217089
v -0.438736 -0.171300 -1.146472
v -0.636945 -0.248689 -1.031798
v -0.810678 -0.316520 -0.877472
v -0.953256 -0.372189 -0.689425
v -1.059202 -0.413554 -0.474884
v -1.124443 -0.439027 -0.242094
v -1.146471 -0.447628 0.000000
v -1.124443 -0.439027 0.242094
v -1.059202 -0.413554 0.474884
v -0.953256 -0.372189 0.689425
v -0.810678 -0.316520 0.877472
v -0.636945 -0.248688 1.031798
v -0.438736 -0.171300 1.146472
v -0.223665 -0.087328 1.217089
v -0.201294 -0.126780 -1.217089
v -0.394852 -0.248689 -1.146472
v -0.573236 -0.361040 -1.031798
v -0.729591 -0.459516 -0.877472
v -0.857908 -0.540334 -0.689425
v -0.953257 -0.600387 -0.474884
v -1.011971 -0.637368 -0.242094
v -1.031796 -0.649854 0.000000
v -1.011971 -0.637368 0.242094
v -0.953257 -0.600387 0.474885
v -0.857908 -0.540334 0.689425
v -0.729591 -0.459516 0.877472
v -0.573236 -0.361040 1.031798
v -0.394852 -0.248688 1.146472
v -0.201294 -0.126780 1.217089
v -0.171186 -0.161361 -1.217089
v -0.335794 -0.316520 -1.146472
v -0.487497 -0.459516 -1.031798
v -0.620466 -0.584853 -0.877472
v -0.729591 -0.687715 -0.689425
v -0.810678 -0.764148 -0.474884
v -0.860611 -0.811215 -0.242094
v -0.877471 -0.827107 0.000000
v -0.860611 -0.811215 0.242094
v -0.810678 -0.764148 0.474885
v -0.729591 -0.687715 0.689425
v -0.620466 -0.584853 0.877472
v -0.487497 -0.459516 1.031798
v -0.335794 -0.316520 1.146472
v -0.171186 -0.161361 1.217089
v -0.134500 -0.189740 -1.217089
v -0.263831 -0.372189 -1.146472
v -0.383024 -0.540334 -1.031798
v -0.487497 -0.687715 -0.877472
v -0.573236 -0.808667 -0.689425
v -0.636946 -0.898543 -0.474884
v -0.676178 -0.953888 -0.242094
v -0.689424 -0.972575 0.000000
v -0.676178 -0.953888 0.242094
v -0.636946 -0.898543 0.474885
v -0.573236 -0.808667 0.689425
v -0.487497 -0.687715 0.877472
v -0.383024 -0.540334 1.031798
v -0.263831 -0.372189 1.146472
v -0.134500 -0.189740 1.217089
v -0.092645 -0.210828 -1.217089
v -0.181730 -0.413554 -1.146472
v -0.263831 -0.600387 -1.031798
v -0.335794 -0.764148 -0.877472
v -0.394851 -0.898542 -0.689425
v -0.438736 -0.998407 -0.474884
v -0.465759 -1.059903 -0.242094
v -0.474883 -1.080667 0.000000
v -0.465759 -1.059903 0.242094
v -0.438736 -0.998407 0.474885
v -0.394851 -0.898542 0.689425
v -0.335794 -0.764148 0.877472
v -0.263831 -0.600387 1.031798
v -0.181730 -0.413554 1.146472
v -0.092645 -0.210828 1.217089
v -0.047230 -0.223814 -1.217089
v -0.092645 -0.439026 -1.146472
v -0.134500 -0.637367 -1.031798
v -0.171186 -0.811215 -0.877472
v -0.201293 -0.953888 -0.689425
v -0.223665 -1.059903 -0.474884
v -0.237442 -1.125187 -0.242094
v -0.242093 -1.147230 0.000000
v -0.237442 -1.125187 0.242094
v -0.223665 -1.059903 0.474885
v -0.201293 -0.953888 0.689425
v -0.171186 -0.811215 0.877472
v -0.134500 -0.637367 1.031798
v -0.092645 -0.439026 1.146472
v -0.047230 -0.223814 1.217089
v 0.000000 -0.228198 -1.217089
v 0.000000 -0.447627 -1.146472
v 0.000000 -0.827108 -0.877472
v 0.000000 -1.080668 -0.474884
v 0.000000 -1.080668 0.474885
v 0.000000 -0.827108 0.877472
v 0.000000 -0.649854 1.031798
v 0.000000 -0.447627 1.146472
v 0.000000 -0.228198 1.217089
vn 0.0980 -0.0000 -0.9952
vn 0.2903 -0.0000 -0.9569
vn 0.4714 -0.0000 -0.8819
vn 0.6344 -0.0000 -0.7730
vn 0.7730 -0.0000 -0.6344
vn 0.8819 -0.0000 -0.4714
vn 0.9569 -0.0000 -0.2903
vn 0.9952 -0.0000 -0.0980
vn 0.9952 -0.0000 0.0980
vn 0.9569 -0.0000 0.2903
vn 0.8819 -0.0000 0.4714
vn 0.7730 -0.0000 0.6344
vn 0.6344 -0.0000 0.7730
vn 0.4714 -0.0000 0.8819
vn 0.2903 -0.0000 0.9569
vn 0.0980 -0.0000 0.9952
vn -0.0980 -0.0000 0.9952
vn -0.2903 -0.0000 0.9569
vn -0.4714 -0.0000 0.8819
vn -0.6344 -0.0000 0.7730
vn -0.7730 -0.0000 0.6344
vn -0.8819 -0.0000 0.4714
vn -0.9569 -0.0000 0.2903
vn -0.9952 -0.0000 0.0980
vn -0.9952 -0.0000 -0.0980
vn -0.9569 -0.0000 -0.2903
vn -0.8819 -0.0000 -0.4714
vn -0.7730 -0.0000 -0.6344
vn -0.6344 -0.0000 -0.7730
vn -0.4714 -0.0000 -0.8819
vn -0.0000 1.0000 -0.0000
vn -0.2903 -0.0000 -0.9569
vn -0.0980 -0.0000 -0.9952
vn -0.0000 -1.0000 -0.0000
vn 0.0889 -0.9577 -0.2738
vn 0.0284 -0.3062 0.9515
vn 0.0920 -0.9915 -0.0920
vn 0.0096 -0.1039 -0.9945
vn 0.0096 -0.1039 0.9945
vn 0.0920 -0.9915 0.0920
vn 0.0284 -0.3062 -0.9515
vn 0.0889 -0.9577 0.2738
vn 0.0457 -0.4928 -0.8690
vn 0.0826 -0.8900 0.4484
vn 0.0608 -0.6554 -0.7528
vn 0.0732 -0.7888 0.6102
vn 0.0732 -0.7888 -0.6102
vn 0.0608 -0.6554 0.7528
vn 0.0826 -0.8900 -0.4484
vn 0.0457 -0.4928 0.8690
vn 0.1805 -0.6314 0.7542
vn 0.2455 -0.8587 -0.4499
vn 0.1356 -0.4743 0.8699
vn 0.2643 -0.9244 -0.2749
vn 0.0842 -0.2946 0.9519
vn 0.2737 -0.9574 -0.0924
vn 0.0286 -0.0999 -0.9946
vn 0.0286 -0.0999 0.9946
vn 0.2737 -0.9574 0.0924
vn 0.0842 -0.2946 -0.9519
vn 0.2643 -0.9244 0.2749
vn 0.1356 -0.4743 -0.8699
vn 0.2455 -0.8587 0.4499
vn 0.1805 -0.6314 -0.7542
vn 0.2175 -0.7605 0.6118
vn 0.2175 -0.7605 -0.6118
vn 0.4324 -0.8581 0.2769
vn 0.2207 -0.4379 -0.8715
vn 0.4012 -0.7963 0.4527
vn 0.2942 -0.5838 -0.7567
vn 0.3549 -0.7043 0.6148
vn 0.3549 -0.7043 -0.6148
vn 0.2942 -0.5838 0.7567
vn 0.4012 -0.7963 -0.4527
vn 0.2207 -0.4379 0.8715
vn 0.4324 -0.8581 -0.2769
vn 0.1369 -0.2717 0.9526
vn 0.4480 -0.8892 -0.0932
vn 0.0464 -0.0921 -0.9947
vn 0.0464 -0.0921 0.9947
vn 0.4480 -0.8892 0.0932
vn 0.1369 -0.2717 -0.9526
vn 0.2977 -0.3848 0.8737
vn 0.5875 -0.7594 -0.2796
vn 0.1844 -0.2384 0.9535
vn 0.6092 -0.7874 -0.0941
vn 0.0625 -0.0807 -0.9948
vn 0.0625 -0.0807 0.9948
vn 0.6092 -0.7874 0.0941
vn 0.1844 -0.2384 -0.9535
vn 0.5875 -0.7594 0.2796
vn 0.2977 -0.3848 -0.8737
vn 0.5444 -0.7037 0.4565
vn 0.3976 -0.5140 -0.7601
vn 0.4807 -0.6213 0.6188
vn 0.4807 -0.6213 -0.6188
vn 0.3976 -0.5140 0.7601
vn 0.5444 -0.7037 -0.4565
vn 0.3637 -0.3167 -0.8760
vn 0.6694 -0.5828 0.4606
vn 0.4869 -0.4239 -0.7637
vn 0.5898 -0.5135 0.6232
vn 0.5898 -0.5135 -0.6232
vn 0.4869 -0.4239 0.7637
vn 0.6694 -0.5828 -0.4606
vn 0.3637 -0.3167 0.8760
vn 0.7235 -0.6299 -0.2825
vn 0.2249 -0.1958 0.9545
vn 0.7508 -0.6537 -0.0952
vn 0.0761 -0.0663 -0.9949
vn 0.0761 -0.0663 0.9949
vn 0.7508 -0.6537 0.0952
vn 0.2249 -0.1958 -0.9545
vn 0.7235 -0.6299 0.2825
vn 0.8337 -0.4728 -0.2854
vn 0.2568 -0.1456 0.9554
vn 0.8658 -0.4910 -0.0962
vn 0.0868 -0.0492 -0.9950
vn 0.0868 -0.0492 0.9950
vn 0.8658 -0.4910 0.0962
vn 0.2568 -0.1456 -0.9554
vn 0.8337 -0.4728 0.2854
vn 0.4160 -0.2359 -0.8782
vn 0.7703 -0.4368 0.4646
vn 0.5580 -0.3164 -0.7672
vn 0.6774 -0.3841 0.6273
vn 0.6774 -0.3841 -0.6273
vn 0.5580 -0.3164 0.7672
vn 0.7703 -0.4368 -0.4646
vn 0.4160 -0.2359 0.8782
vn 0.8414 -0.2708 0.4677
vn 0.6075 -0.1955 -0.7699
vn 0.7388 -0.2378 0.6306
vn 0.7388 -0.2378 -0.6306
vn 0.6075 -0.1955 0.7699
vn 0.8414 -0.2708 -0.4677
vn 0.4523 -0.1455 0.8799
vn 0.9117 -0.2934 -0.2876
vn 0.2789 -0.0898 0.9561
vn 0.9474 -0.3049 -0.0970
vn 0.0942 -0.0303 -0.9951
vn 0.0942 -0.0303 0.9951
vn 0.9474 -0.3049 0.0970
vn 0.2789 -0.0898 -0.9561
vn 0.9117 -0.2934 0.2876
vn 0.4523 -0.1455 -0.8799
vn 0.2902 -0.0303 0.9565
vn 0.9898 -0.1034 -0.0975
vn 0.0980 -0.0102 -0.9951
vn 0.0980 -0.0102 0.9951
vn 0.9898 -0.1034 0.0975
vn 0.2902 -0.0303 -0.9565
vn 0.9522 -0.0995 0.2888
vn 0.4708 -0.0492 -0.8809
vn 0.8782 -0.0918 0.4694
vn 0.6330 -0.0661 -0.7713
vn 0.7705 -0.0805 0.6323
vn 0.7705 -0.0805 -0.6323
vn 0.6330 -0.0661 0.7713
vn 0.8782 -0.0918 -0.4694
vn 0.4708 -0.0492 0.8809
vn 0.9522 -0.0995 -0.2888
vn 0.6330 0.0661 -0.7713
vn 0.7705 0.0805 0.6323
vn 0.7705 0.0805 -0.6323
vn 0.6330 0.0661 0.7713
vn 0.8782 0.0918 -0.4694
vn 0.4708 0.0492 0.8809
vn 0.9522 0.0995 -0.2888
vn 0.2902 0.0303 0.9565
vn 0.9898 0.1034 -0.0975
vn 0.0980 0.0102 -0.9951
vn 0.0980 0.0102 0.9951
vn 0.9898 0.1034 0.0975
vn 0.2902 0.0303 -0.9565
vn 0.9522 0.0995 0.2888
vn 0.4708 0.0492 -0.8809
vn 0.8782 0.0918 0.4694
vn 0.9474 0.3049 -0.0970
vn 0.0942 0.0303 -0.9951
vn 0.0942 0.0303 0.9951
vn 0.9474 0.3049 0.0970
vn 0.2789 0.0898 -0.9561
vn 0.9117 0.2934 0.2876
vn 0.4523 0.1455 -0.8799
vn 0.8414 0.2708 0.4677
vn 0.6075 0.1955 -0.7699
vn 0.7388 0.2378 0.6306
vn 0.7388 0.2378 -0.6306
vn 0.6075 0.1955 0.7699
vn 0.8414 0.2708 -0.4677
vn 0.4523 0.1455 0.8799
vn 0.9117 0.2934 -0.2876
vn 0.2789 0.0898 0.9561
vn 0.6774 0.3841 0.6273
vn 0.6774 0.3841 -0.6273
vn 0.5580 0.3164 0.7672
vn 0.7703 0.4368 -0.4646
vn 0.4160 0.2359 0.8782
vn 0.8337 0.4728 -0.2854
vn 0.2568 0.1456 0.9554
vn 0.8658 0.4910 -0.0962
vn 0.0868 0.0492 -0.9950
vn 0.0868 0.0492 0.9950
vn 0.8658 0.4910 0.0962
vn 0.2568 0.1456 -0.9554
vn 0.8337 0.4728 0.2854
vn 0.4160 0.2359 -0.8782
vn 0.7703 0.4368 0.4646
vn 0.5580 0.3164 -0.7672
vn 0.0761 0.0663 0.9949
vn 0.7508 0.6537 0.0952
vn 0.2249 0.1958 -0.9545
vn 0.7235 0.6299 0.2825
vn 0.3637 0.3167 -0.8760
vn 0.6694 0.5828 0.4606
vn 0.4869 0.4239 -0.7637
vn 0.5898 0.5135 0.6232
vn 0.5898 0.5135 -0.6232
vn 0.4869 0.4239 0.7637
vn 0.6694 0.5828 -0.4606
vn 0.3637 0.3167 0.8760
vn 0.7235 0.6299 -0.2825
vn 0.2249 0.1958 0.9545
vn 0.7508 0.6537 -0.0952
vn 0.0761 0.0663 -0.9949
vn 0.3976 0.5140 0.7601
vn 0.5444 0.7037 -0.4565
vn 0.2977 0.3848 0.8737
vn 0.5875 0.7594 -0.2796
vn 0.1844 0.2384 0.9535
vn 0.6092 0.7874 -0.0941
vn 0.0625 0.0807 -0.9948
vn 0.0625 0.0807 0.9948
vn 0.6092 0.7875 0.0941
vn 0.1844 0.2384 -0.9535
vn 0.5875 0.7594 0.2796
vn 0.2977 0.3848 -0.8737
vn 0.5444 0.7037 0.4565
vn 0.3976 0.5140 -0.7601
vn 0.4807 0.6213 0.6188
vn 0.4807 0.6213 -0.6188
vn 0.1369 0.2717 -0.9526
vn 0.4324 0.8581 0.2769
vn 0.2207 0.4379 -0.8715
vn 0.4012 0.7963 0.4527
vn 0.2942 0.5838 -0.7567
vn 0.3549 0.7043 0.6148
vn 0.3549 0.7043 -0.6148
vn 0.2942 0.5838 0.7567
vn 0.4012 0.7963 -0.4527
vn 0.2207 0.4379 0.8715
vn 0.4324 0.8581 -0.2769
vn 0.1369 0.2717 0.9526
vn 0.4480 0.8892 -0.0931
vn 0.0464 0.0921 -0.9947
vn 0.0464 0.0921 0.9947
vn 0.4480 0.8892 0.0931
vn 0.2455 0.8587 -0.4499
vn 0.1356 0.4743 0.8699
vn 0.2643 0.9244 -0.2749
vn 0.0842 0.2946 0.9519
vn 0.2737 0.9574 -0.0924
vn 0.0286 0.0999 -0.9946
vn 0.0286 0.0999 0.9946
vn 0.2737 0.9574 0.0924
vn 0.0842 0.2946 -0.9519
vn 0.2643 0.9244 0.2749
vn 0.1356 0.4743 -0.8699
vn 0.2455 0.8587 0.4499
vn 0.1805 0.6314 -0.7542
vn 0.2175 0.7605 0.6118
vn 0.2175 0.7605 -0.6118
vn 0.1805 0.6314 0.7542
vn 0.0889 0.9577 0.2738
vn 0.0457 0.4928 -0.8690
vn 0.0826 0.8900 0.4484
vn 0.0608 0.6554 -0.7528
vn 0.0732 0.7888 0.6102
vn 0.0732 0.7888 -0.6102
vn 0.0608 0.6554 0.7528
vn 0.0826 0.8900 -0.4484
vn 0.0457 0.4928 0.8690
vn 0.0889 0.9577 -0.2738
vn 0.0284 0.3062 0.9515
vn 0.0920 0.9915 -0.0920
vn 0.0096 0.1039 -0.9945
vn 0.0096 0.1039 0.9945
vn 0.0920 0.9915 0.0920
vn 0.0284 0.3062 -0.9515
vn -0.0457 0.4928 0.8690
vn -0.0889 0.9577 -0.2738
vn -0.0284 0.3062 0.9515
vn -0.0920 0.9915 -0.0920
vn -0.0096 0.1039 -0.9945
vn -0.0096 0.1039 0.9945
vn -0.0920 0.9915 0.0920
vn -0.0284 0.3062 -0.9515
vn -0.0889 0.9577 0.2738
vn -0.0457 0.4928 -0.8690
vn -0.0826 0.8900 0.4484
vn -0.0608 0.6554 -0.7528
vn -0.0732 0.7888 0.6102
vn -0.0732 0.7888 -0.6102
vn -0.0608 0.6554 0.7528
vn -0.0826 0.8900 -0.4484
vn -0.1356 0.4743 -0.8699
vn -0.2455 0.8587 0.4499
vn -0.1805 0.6314 -0.7542
vn -0.2175 0.7605 0.6118
vn -0.2175 0.7605 -0.6118
vn -0.1805 0.6314 0.7542
vn -0.2455 0.8587 -0.4499
vn -0.1356 0.4743 0.8699
vn -0.2643 0.9244 -0.2749
vn -0.0842 0.2946 0.9519
vn -0.2737 0.9574 -0.0924
vn -0.0286 0.0999 -0.9946
vn -0.0286 0.0999 0.9946
vn -0.2737 0.9574 0.0924
vn -0.0842 0.2946 -0.9519
vn -0.2643 0.9244 0.2749
vn -0.4324 0.8581 -0.2769
vn -0.1369 0.2717 0.9526
vn -0.4480 0.8892 -0.0931
vn -0.0464 0.0921 -0.9947
vn -0.0464 0.0921 0.9947
vn -0.4480 0.8892 0.0931
vn -0.1369 0.2717 -0.9526
vn -0.4324 0.8581 0.2769
vn -0.2207 0.4379 -0.8715
vn -0.4012 0.7963 0.4527
vn -0.2942 0.5838 -0.7567
vn -0.3549 0.7043 0.6148
vn -0.3549 0.7043 -0.6148
vn -0.2942 0.5838 0.7567
vn -0.4012 0.7963 -0.4527
vn -0.2207 0.4379 0.8715
vn -0.5444 0.7037 0.4565
vn -0.3976 0.5140 -0.7601
vn -0.4807 0.6213 0.6188
vn -0.4807 0.6213 -0.6188
vn -0.3976 0.5140 0.7601
vn -0.5444 0.7037 -0.4565
vn -0.2977 0.3848 0.8737
vn -0.5875 0.7594 -0.2796
vn -0.1844 0.2384 0.9535
vn -0.6092 0.7874 -0.0941
vn -0.0625 0.0807 -0.9948
vn -0.0625 0.0807 0.9948
vn -0.6092 0.7874 0.0941
vn -0.1844 0.2384 -0.9535
vn -0.5875 0.7594 0.2796
vn -0.2977 0.3848 -0.8737
vn -0.2249 0.1958 0.9545
vn -0.7508 0.6537 -0.0952
vn -0.0761 0.0663 -0.9949
vn -0.0761 0.0663 0.9949
vn -0.7508 0.6537 0.0952
vn -0.2249 0.1958 -0.9545
vn -0.7235 0.6299 0.2825
vn -0.3637 0.3167 -0.8760
vn -0.6694 0.5828 0.4606
vn -0.4869 0.4239 -0.7637
vn -0.5898 0.5135 0.6232
vn -0.5898 0.5135 -0.6232
vn -0.4869 0.4239 0.7637
vn -0.6694 0.5828 -0.4606
vn -0.3637 0.3167 0.8760
vn -0.7235 0.6299 -0.2825
vn -0.6774 0.3841 0.6273
vn -0.6774 0.3841 -0.6273
vn -0.5580 0.3164 0.7672
vn -0.7703 0.4368 -0.4646
vn -0.4160 0.2359 0.8782
vn -0.8337 0.4728 -0.2854
vn -0.2568 0.1456 0.9554
vn -0.8658 0.4910 -0.0962
vn -0.0868 0.0492 -0.9950
vn -0.0868 0.0492 0.9950
vn -0.8658 0.4910 0.0962
vn -0.2568 0.1456 -0.9554
vn -0.8337 0.4728 0.2854
vn -0.4160 0.2359 -0.8782
vn -0.7703 0.4368 0.4646
vn -0.5580 0.3164 -0.7672
vn -0.0942 0.0303 -0.9951
vn -0.0942 0.0303 0.9951
vn -0.9474 0.3049 0.0970
vn -0.2789 0.0898 -0.9561
vn -0.9117 0.2934 0.2876
vn -0.4523 0.1455 -0.8799
vn -0.8414 0.2708 0.4677
vn -0.6075 0.1955 -0.7699
vn -0.7388 0.2378 0.6306
vn -0.7388 0.2378 -0.6306
vn -0.6075 0.1955 0.7699
vn -0.8414 0.2708 -0.4677
vn -0.4523 0.1455 0.8799
vn -0.9117 0.2934 -0.2876
vn -0.2789 0.0897 0.9561
vn -0.9474 0.3049 -0.0970
vn -0.7705 0.0805 -0.6323
vn -0.6330 0.0661 0.7713
vn -0.8782 0.0918 -0.4694
vn -0.4708 0.0492 0.8809
vn -0.9522 0.0995 -0.2888
vn -0.2902 0.0303 0.9565
vn -0.9898 0.1034 -0.0975
vn -0.0980 0.0102 -0.9951
vn -0.0980 0.0102 0.9951
vn -0.9898 0.1034 0.0975
vn -0.2902 0.0303 -0.9565
vn -0.9522 0.0995 0.2888
vn -0.4708 0.0492 -0.8809
vn -0.8782 0.0918 0.4694
vn -0.6330 0.0661 -0.7713
vn -0.7705 0.0805 0.6323
vn -0.9898 -0.1034 0.0975
vn -0.2902 -0.0303 -0.9565
vn -0.9522 -0.0995 0.2888
vn -0.4708 -0.0492 -0.8809
vn -0.8782 -0.0918 0.4694
vn -0.6330 -0.0661 -0.7713
vn -0.7705 -0.0805 0.6323
vn -0.7705 -0.0805 -0.6323
vn -0.6330 -0.0661 0.7713
vn -0.8782 -0.0918 -0.4694
vn -0.4708 -0.0492 0.8809
vn -0.9522 -0.0995 -0.2888
vn -0.2902 -0.0303 0.9565
vn -0.9898 -0.1034 -0.0975
vn -0.0980 -0.0102 -0.9951
vn -0.0980 -0.0102 0.9951
vn -0.6075 -0.1955 0.7699
vn -0.8414 -0.2708 -0.4677
vn -0.4523 -0.1455 0.8799
vn -0.9117 -0.2934 -0.2876
vn -0.2789 -0.0898 0.9561
vn -0.9474 -0.3049 -0.0970
vn -0.0942 -0.0303 -0.9951
vn -0.0942 -0.0303 0.9951
vn -0.9474 -0.3049 0.0970
vn -0.2789 -0.0898 -0.9561
vn -0.9117 -0.2934 0.2876
vn -0.4523 -0.1455 -0.8799
vn -0.8414 -0.2708 0.4677
vn -0.6075 -0.1955 -0.7699
vn -0.7388 -0.2378 0.6306
vn -0.7388 -0.2378 -0.6306
vn -0.2568 -0.1456 -0.9554
vn -0.8337 -0.4728 0.2854
vn -0.4160 -0.2359 -0.8782
vn -0.7703 -0.4368 0.4646
vn -0.5580 -0.3164 -0.7672
vn -0.6774 -0.3841 0.6273
vn -0.6774 -0.3841 -0.6273
vn -0.5580 -0.3164 0.7672
vn -0.7703 -0.4368 -0.4646
vn -0.4160 -0.2359 0.8782
vn -0.8337 -0.4728 -0.2854
vn -0.2568 -0.1456 0.9554
vn -0.8658 -0.4910 -0.0962
vn -0.0868 -0.0492 -0.9950
vn -0.0868 -0.0492 0.9950
vn -0.8658 -0.4910 0.0962
vn -0.6694 -0.5828 -0.4606
vn -0.3637 -0.3167 0.8760
vn -0.7235 -0.6299 -0.2825
vn -0.2249 -0.1958 0.9545
vn -0.7508 -0.6537 -0.0952
vn -0.0761 -0.0663 -0.9949
vn -0.0761 -0.0663 0.9949
vn -0.7508 -0.6537 0.0952
vn -0.2249 -0.1958 -0.9545
vn -0.7235 -0.6299 0.2825
vn -0.3637 -0.3167 -0.8760
vn -0.6694 -0.5828 0.4606
vn -0.4869 -0.4239 -0.7637
vn -0.5898 -0.5135 0.6232
vn -0.5898 -0.5135 -0.6232
vn -0.4869 -0.4239 0.7637
vn -0.5875 -0.7594 0.2796
vn -0.2977 -0.3848 -0.8737
vn -0.5444 -0.7037 0.4565
vn -0.3976 -0.5140 -0.7601
vn -0.4807 -0.6213 0.6188
vn -0.4807 -0.6213 -0.6188
vn -0.3976 -0.5140 0.7601
vn -0.5444 -0.7037 -0.4565
vn -0.2977 -0.3848 0.8737
vn -0.5875 -0.7594 -0.2796
vn -0.1844 -0.2384 0.9535
vn -0.6092 -0.7875 -0.0941
vn -0.0625 -0.0807 -0.9948
vn -0.0625 -0.0807 0.9948
vn -0.6092 -0.7875 0.0941
vn -0.1844 -0.2384 -0.9535
vn -0.2207 -0.4379 0.8715
vn -0.4324 -0.8581 -0.2769
vn -0.1369 -0.2717 0.9526
vn -0.4480 -0.8892 -0.0931
vn -0.0464 -0.0921 -0.9947
vn -0.0464 -0.0921 0.9947
vn -0.4480 -0.8892 0.0931
vn -0.1369 -0.2717 -0.9526
vn -0.4324 -0.8581 0.2769
vn -0.2207 -0.4379 -0.8715
vn -0.4012 -0.7963 0.4527
vn -0.2942 -0.5838 -0.7567
vn -0.3549 -0.7043 0.6148
vn -0.3549 -0.7043 -0.6148
vn -0.2942 -0.5838 0.7567
vn -0.4012 -0.7963 -0.4527
vn -0.2455 -0.8587 0.4499
vn -0.1805 -0.6314 -0.7542
vn -0.2175 -0.7605 0.6118
vn -0.2175 -0.7605 -0.6118
vn -0.1805 -0.6314 0.7542
vn -0.2455 -0.8587 -0.4499
vn -0.1356 -0.4743 0.8699
vn -0.2643 -0.9244 -0.2749
vn -0.0842 -0.2946 0.9519
vn -0.2737 -0.9574 -0.0924
vn -0.0286 -0.0999 -0.9946
vn -0.0286 -0.0999 0.9946
vn -0.2737 -0.9574 0.0924
vn -0.0842 -0.2946 -0.9519
vn -0.2643 -0.9244 0.2749
vn -0.1356 -0.4743 -0.8699
vn -0.0284 -0.3062 0.9515
vn -0.0921 -0.9915 -0.0920
vn -0.0096 -0.1039 -0.9945
vn -0.0096 -0.1039 0.9945
vn -0.0921 -0.9915 0.0920
vn -0.0284 -0.3062 -0.9515
vn -0.0889 -0.9577 0.2738
vn -0.0457 -0.4928 -0.8690
vn -0.0826 -0.8900 0.4484
vn -0.0608 -0.6554 -0.7528
vn -0.0732 -0.7888 0.6102
vn -0.0732 -0.7888 -0.6102
vn -0.0608 -0.6554 0.7528
vn -0.0826 -0.8900 -0.4484
vn -0.0457 -0.4928 0.8690
vn -0.0889 -0.9577 -0.2738
vn 0.6092 0.7875 -0.0941
vn 0.6092 0.7874 0.0941
vn -0.2789 0.0897 -0.9561
vn -0.2789 0.0898 0.9561
vn -0.6092 -0.7874 -0.0941
vn -0.0609 -0.6554 -0.7528
vt 0.571703 0.568669
vt 0.599666 0.854379
vt 0.571703 0.854379
vt 0.599666 0.568669
vt 0.626796 0.854379
vt 0.626796 0.568669
vt 0.652050 0.854379
vt 0.652050 0.568669
vt 0.674458 0.854379
vt 0.284334 0.274828
vt 0.304065 0.560538
vt 0.284334 0.560538
vt 0.304065 0.274828
vt 0.327294 0.560538
vt 0.327294 0.274828
vt 0.353128 0.560538
vt 0.353128 0.274828
vt 0.380575 0.560538
vt 0.380575 0.274828
vt 0.408579 0.560538
vt 0.408579 0.274828
vt 0.436065 0.560538
vt 0.436065 0.274828
vt 0.461976 0.560538
vt 0.461976 0.274828
vt 0.485317 0.560538
vt 0.485317 0.274828
vt 0.505190 0.560538
vt 0.771350 0.000000
vt 0.793819 0.285710
vt 0.771350 0.285710
vt 0.793819 0.000000
vt 0.819117 0.285710
vt 0.819117 0.000000
vt 0.846272 0.285710
vt 0.846272 0.000000
vt 0.874241 0.285710
vt 0.874241 0.000000
vt 0.901948 0.285710
vt 0.901948 0.000000
vt 0.928330 0.285710
vt 0.928330 0.000000
vt 0.952371 0.285710
vt 0.952371 0.000000
vt 0.973148 0.285710
vt 0.771350 0.522023
vt 0.794579 0.807733
vt 0.771350 0.807733
vt 0.794579 0.522023
vt 0.820413 0.807733
vt 0.820413 0.522023
vt 0.847859 0.807733
vt 0.847859 0.522023
vt 0.875864 0.807733
vt 0.875864 0.522023
vt 0.903350 0.807733
vt 0.903350 0.522023
vt 0.929260 0.807733
vt 0.929260 0.522023
vt 0.952601 0.807733
vt 0.472626 0.568669
vt 0.493472 0.854379
vt 0.472626 0.854379
vt 0.493472 0.568669
vt 0.517565 0.854379
vt 0.209509 0.016180
vt 0.268154 0.209509
vt 0.074826 0.268154
vt 0.517565 0.568669
vt 0.543981 0.854379
vt 0.543981 0.568669
vt 0.232793 0.316073
vt 0.252596 0.517128
vt 0.051541 0.536930
vt 0.645998 0.410638
vt 0.614047 0.443893
vt 0.612079 0.410638
vt 0.054211 0.677506
vt 0.086184 0.669339
vt 0.085557 0.676011
vt 0.645998 0.376054
vt 0.611414 0.376054
vt 0.387069 0.708028
vt 0.354469 0.708178
vt 0.386442 0.701287
vt 0.118156 0.675507
vt 0.612079 0.341469
vt 0.645998 0.341469
vt 0.418415 0.707585
vt 0.417187 0.694362
vt 0.614047 0.308214
vt 0.645998 0.308214
vt 0.447304 0.706864
vt 0.445521 0.687669
vt 0.617243 0.277566
vt 0.645998 0.277566
vt 0.472626 0.705895
vt 0.470356 0.681464
vt 0.621544 0.250703
vt 0.645998 0.250703
vt 0.645998 0.474542
vt 0.621544 0.501405
vt 0.617243 0.474542
vt -0.000000 0.683200
vt 0.027105 0.660931
vt 0.025322 0.679933
vt 0.645998 0.443893
vt 0.055439 0.664417
vt 0.002270 0.659015
vt 0.032388 0.642660
vt 0.589592 0.474542
vt 0.583323 0.443893
vt 0.059078 0.651832
vt 0.579462 0.410638
vt 0.088039 0.662923
vt 0.578159 0.376054
vt 0.384587 0.694806
vt 0.579462 0.341469
vt 0.413548 0.681648
vt 0.583323 0.308214
vt 0.440238 0.669211
vt 0.589592 0.277566
vt 0.463632 0.657972
vt 0.598029 0.250703
vt 0.598029 0.501405
vt 0.555008 0.308214
vt 0.407638 0.669931
vt 0.431659 0.652200
vt 0.564109 0.277566
vt 0.452713 0.636321
vt 0.576357 0.250703
vt 0.576357 0.501405
vt 0.564109 0.474542
vt 0.008994 0.635759
vt 0.040967 0.625820
vt 0.555008 0.443893
vt 0.064987 0.640232
vt 0.549403 0.410638
vt 0.091051 0.657009
vt 0.547511 0.376054
vt 0.381575 0.688832
vt 0.549403 0.341469
vt 0.072940 0.630066
vt 0.530189 0.443893
vt 0.523056 0.410638
vt 0.095105 0.651826
vt 0.520647 0.376054
vt 0.377521 0.683597
vt 0.523056 0.341469
vt 0.399686 0.659661
vt 0.530189 0.308214
vt 0.420114 0.637290
vt 0.541773 0.277566
vt 0.438019 0.617344
vt 0.557362 0.250703
vt 0.469992 0.622904
vt 0.452713 0.600589
vt 0.019913 0.614327
vt 0.052512 0.611061
vt 0.541773 0.474542
vt 0.389996 0.651232
vt 0.406046 0.625054
vt 0.293328 0.193161
vt 0.325301 0.222965
vt 0.304247 0.224827
vt 0.420114 0.601770
vt 0.336847 0.251552
vt 0.318942 0.253135
vt 0.431659 0.582276
vt 0.034607 0.595541
vt 0.066580 0.598947
vt 0.293328 0.058183
vt 0.325301 0.027008
vt 0.316722 0.056114
vt 0.082630 0.621722
vt 0.286605 0.090542
vt 0.311440 0.088346
vt 0.100045 0.647573
vt 0.284334 0.124703
vt 0.309656 0.122463
vt 0.372581 0.679300
vt 0.311440 0.157156
vt 0.286605 0.159353
vt 0.316722 0.191092
vt 0.343412 0.054577
vt 0.339774 0.086713
vt 0.105681 0.644412
vt 0.338545 0.120799
vt 0.366945 0.676107
vt 0.339774 0.155524
vt 0.378940 0.644969
vt 0.343413 0.189554
vt 0.389996 0.615961
vt 0.349322 0.221582
vt 0.399686 0.590198
vt 0.357274 0.250375
vt 0.407638 0.568669
vt 0.052512 0.580124
vt 0.082630 0.589947
vt 0.349322 0.025625
vt 0.093685 0.615522
vt 0.375385 0.220729
vt 0.372581 0.610362
vt 0.377521 0.583071
vt 0.379440 0.249650
vt 0.379440 0.000245
vt 0.375385 0.024773
vt 0.384380 0.274259
vt 0.366964 0.274828
vt 0.372373 0.053630
vt 0.105681 0.611704
vt 0.370518 0.085708
vt 0.111797 0.642466
vt 0.369891 0.119774
vt 0.360829 0.674141
vt 0.370518 0.154519
vt 0.366945 0.641113
vt 0.372373 0.188608
vt 0.118156 0.641809
vt 0.402491 0.085369
vt 0.402491 0.119428
vt 0.354469 0.673477
vt 0.402491 0.154180
vt 0.354469 0.639810
vt 0.402491 0.188288
vt 0.354469 0.608472
vt 0.402491 0.220442
vt 0.354469 0.580665
vt 0.402491 0.249406
vt 0.402491 -0.000000
vt 0.402491 0.024485
vt 0.402491 0.274067
vt 0.402491 0.053311
vt 0.100045 0.584404
vt 0.118156 0.610415
vt 0.331418 0.583071
vt 0.429596 0.220729
vt 0.425542 0.249650
vt 0.429596 0.024773
vt 0.420602 0.274259
vt 0.432609 0.053630
vt 0.136268 0.584404
vt 0.130632 0.611704
vt 0.434464 0.085708
vt 0.124516 0.642466
vt 0.435090 0.119774
vt 0.348110 0.674141
vt 0.434464 0.154519
vt 0.341994 0.641113
vt 0.432609 0.188608
vt 0.336358 0.610362
vt 0.466437 0.120799
vt 0.341994 0.676107
vt 0.130632 0.644412
vt 0.465208 0.155524
vt 0.329998 0.644969
vt 0.461569 0.189554
vt 0.318943 0.615961
vt 0.455660 0.221581
vt 0.309253 0.590198
vt 0.447707 0.250375
vt 0.425542 0.000245
vt 0.455660 0.025625
vt 0.438017 0.274828
vt 0.461569 0.054577
vt 0.153683 0.589947
vt 0.142627 0.615522
vt 0.465208 0.086713
vt 0.479680 0.222965
vt 0.468135 0.251552
vt 0.277280 0.582276
vt 0.301300 0.568669
vt 0.183801 0.580124
vt 0.169733 0.598947
vt 0.488259 0.056114
vt 0.153683 0.621722
vt 0.493542 0.088346
vt 0.136268 0.647573
vt 0.495326 0.122463
vt 0.336358 0.679300
vt 0.493542 0.157156
vt 0.318943 0.651232
vt 0.488259 0.191092
vt 0.302893 0.625054
vt 0.288825 0.601770
vt 0.141208 0.651826
vt 0.520647 0.124703
vt 0.518377 0.159353
vt 0.309253 0.659661
vt 0.511653 0.193161
vt 0.288825 0.637290
vt 0.500734 0.224827
vt 0.270920 0.617344
vt 0.486040 0.253135
vt 0.256226 0.600589
vt 0.201706 0.595541
vt 0.183801 0.611061
vt 0.479680 0.027008
vt 0.511653 0.058183
vt 0.163373 0.630066
vt 0.518377 0.090542
vt 0.331418 0.683597
vt 0.216400 0.614327
vt 0.195346 0.625820
vt 0.750224 0.223839
vt 0.736989 0.193191
vt 0.761808 0.193191
vt 0.171325 0.640232
vt 0.742594 0.159936
vt 0.768941 0.159936
vt 0.145262 0.657009
vt 0.744486 0.125351
vt 0.771350 0.125351
vt 0.327364 0.688832
vt 0.768941 0.090767
vt 0.742594 0.090767
vt 0.301300 0.669931
vt 0.761808 0.057512
vt 0.736989 0.057512
vt 0.277280 0.652200
vt 0.750224 0.026863
vt 0.727888 0.026863
vt 0.256226 0.636321
vt 0.734635 0.000000
vt 0.715640 0.000000
vt 0.238947 0.622904
vt 0.295391 0.681648
vt 0.712535 0.090767
vt 0.708674 0.057512
vt 0.268701 0.669211
vt 0.702405 0.026863
vt 0.245307 0.657972
vt 0.693968 0.000000
vt 0.715640 0.250703
vt 0.702405 0.223839
vt 0.727888 0.223839
vt 0.227319 0.635759
vt 0.203925 0.642660
vt 0.708674 0.193191
vt 0.177235 0.651831
vt 0.712535 0.159936
vt 0.148274 0.662923
vt 0.713838 0.125351
vt 0.324352 0.694806
vt 0.677950 0.193191
vt 0.209208 0.660931
vt 0.180874 0.664417
vt 0.679918 0.159936
vt 0.150129 0.669339
vt 0.680583 0.125351
vt 0.322497 0.701287
vt 0.679918 0.090767
vt 0.291752 0.694362
vt 0.677950 0.057512
vt 0.263418 0.687669
vt 0.674754 0.026863
vt 0.238583 0.681464
vt 0.670453 0.000000
vt 0.693968 0.250703
vt 0.674754 0.223839
vt 0.234043 0.659015
vt 0.645998 0.090767
vt 0.645998 0.057512
vt 0.261634 0.706864
vt 0.645998 0.026863
vt 0.236313 0.705895
vt 0.645998 0.000000
vt 0.670453 0.250703
vt 0.645998 0.223839
vt 0.236313 0.683200
vt 0.210991 0.679933
vt 0.645998 0.193191
vt 0.182102 0.677506
vt 0.645998 0.159936
vt 0.150756 0.676011
vt 0.645998 0.125351
vt 0.321870 0.708028
vt 0.290524 0.707584
vt 0.180874 0.690595
vt 0.614047 0.193191
vt 0.612079 0.159936
vt 0.150129 0.682684
vt 0.611414 0.125351
vt 0.322497 0.714768
vt 0.612079 0.090767
vt 0.291752 0.720807
vt 0.614047 0.057512
vt 0.263418 0.726060
vt 0.617243 0.026863
vt 0.238583 0.730326
vt 0.621544 0.000000
vt 0.617243 0.223839
vt 0.209208 0.698935
vt 0.295391 0.733520
vt 0.268701 0.744518
vt 0.589592 0.026863
vt 0.245307 0.753819
vt 0.598029 0.000000
vt 0.589592 0.223839
vt 0.234043 0.707385
vt 0.203925 0.717207
vt 0.583323 0.193191
vt 0.177235 0.703181
vt 0.579462 0.159936
vt 0.148274 0.689100
vt 0.578159 0.125351
vt 0.324352 0.721250
vt 0.579462 0.090767
vt 0.583323 0.057512
vt 0.555008 0.193191
vt 0.549403 0.159936
vt 0.145262 0.695013
vt 0.547511 0.125351
vt 0.327364 0.727223
vt 0.549403 0.090767
vt 0.301300 0.745238
vt 0.555008 0.057512
vt 0.277280 0.761528
vt 0.564109 0.026863
vt 0.256226 0.775469
vt 0.576357 0.000000
vt 0.576357 0.250703
vt 0.564109 0.223839
vt 0.227319 0.730640
vt 0.195346 0.734046
vt 0.171325 0.714780
vt 0.541773 0.026863
vt 0.288825 0.776438
vt 0.270920 0.794446
vt 0.233679 0.768166
vt 0.201706 0.770858
vt 0.216400 0.752073
vt 0.557362 0.250703
vt 0.541773 0.223839
vt 0.183801 0.748806
vt 0.530189 0.193191
vt 0.163373 0.724946
vt 0.523056 0.159936
vt 0.141208 0.700196
vt 0.520647 0.125351
vt 0.331418 0.732459
vt 0.523056 0.090767
vt 0.309253 0.755508
vt 0.530189 0.057512
vt 0.136268 0.704450
vt 0.871567 0.285710
vt 0.904021 0.312815
vt 0.869328 0.311032
vt 0.336358 0.736756
vt 0.835210 0.312815
vt 0.837407 0.287980
vt 0.318943 0.763937
vt 0.802979 0.318098
vt 0.805048 0.294704
vt 0.302893 0.788675
vt 0.773873 0.326677
vt 0.775735 0.305623
vt 0.288825 0.810020
vt 0.216400 0.790255
vt 0.183801 0.786275
vt 0.971692 0.305623
vt 0.998416 0.338222
vt 0.969830 0.326677
vt 0.169733 0.760919
vt 0.940025 0.294704
vt 0.937956 0.318098
vt 0.153683 0.733290
vt 0.906218 0.287980
vt 0.195346 0.808384
vt 0.163373 0.797731
vt 0.997240 0.358650
vt 0.968446 0.350697
vt 0.153683 0.769920
vt 0.936419 0.344788
vt 0.142627 0.739490
vt 0.902389 0.341149
vt 0.130632 0.707610
vt 0.867664 0.339921
vt 0.341994 0.739949
vt 0.833578 0.341149
vt 0.329998 0.770199
vt 0.801442 0.344788
vt 0.318943 0.797767
vt 0.772489 0.350697
vt 0.309253 0.821593
vt 0.348110 0.741915
vt 0.124516 0.709557
vt 0.832573 0.371894
vt 0.341994 0.774056
vt 0.800495 0.373749
vt 0.336358 0.803366
vt 0.771637 0.376761
vt 0.331418 0.828719
vt 0.171325 0.821854
vt 0.141208 0.804785
vt 0.996515 0.380815
vt 0.967594 0.376761
vt 0.136268 0.775462
vt 0.935472 0.373749
vt 0.130632 0.743308
vt 0.901384 0.371894
vt 0.866639 0.371267
vt 0.996270 0.403866
vt 0.967306 0.403866
vt 0.118156 0.777334
vt 0.935153 0.403866
vt 0.118156 0.744597
vt 0.901045 0.403866
vt 0.118156 0.710214
vt 0.866293 0.403866
vt 0.354469 0.742579
vt 0.832234 0.403866
vt 0.354469 0.775358
vt 0.800175 0.403866
vt 0.354469 0.805257
vt 0.771350 0.403866
vt 0.354469 0.831125
vt 0.145262 0.830150
vt 0.118156 0.807167
vt 0.866639 0.436466
vt 0.832573 0.435839
vt 0.366945 0.774056
vt 0.800495 0.433984
vt 0.372581 0.803366
vt 0.771637 0.430972
vt 0.377521 0.828719
vt 0.091051 0.830150
vt 0.095105 0.804785
vt 0.967594 0.430972
vt 0.100045 0.775462
vt 0.935472 0.433984
vt 0.105681 0.743308
vt 0.901384 0.435839
vt 0.111797 0.709557
vt 0.360829 0.741915
vt 0.072940 0.797731
vt 0.082630 0.769920
vt 0.936419 0.462945
vt 0.093685 0.739490
vt 0.902389 0.466584
vt 0.105681 0.707610
vt 0.867664 0.467812
vt 0.366945 0.739949
vt 0.833578 0.466584
vt 0.378940 0.770199
vt 0.801442 0.462945
vt 0.389996 0.797767
vt 0.772489 0.457035
vt 0.399686 0.821593
vt 0.064987 0.821854
vt 0.996515 0.426918
vt 0.968446 0.457035
vt 0.389996 0.763937
vt 0.835210 0.494918
vt 0.802979 0.489635
vt 0.406046 0.788675
vt 0.773873 0.481056
vt 0.420114 0.810020
vt 0.040967 0.808384
vt 0.052512 0.786275
vt 0.997240 0.449083
vt 0.969830 0.481056
vt 0.066580 0.760919
vt 0.937956 0.489635
vt 0.082630 0.733290
vt 0.904021 0.494918
vt 0.100045 0.704450
vt 0.869328 0.496701
vt 0.372581 0.736756
vt 0.940026 0.513029
vt 0.052512 0.748806
vt 0.072940 0.724946
vt 0.906218 0.519753
vt 0.095105 0.700196
vt 0.871567 0.522023
vt 0.377521 0.732459
vt 0.837407 0.519753
vt 0.399686 0.755508
vt 0.805048 0.513029
vt 0.420114 0.776438
vt 0.775735 0.502110
vt 0.438019 0.794446
vt 0.019913 0.790255
vt 0.034607 0.770858
vt 0.998416 0.469511
vt 0.971692 0.502110
vt 0.761808 0.308214
vt 0.742594 0.341469
vt 0.736989 0.308214
vt 0.431659 0.761528
vt 0.750224 0.277566
vt 0.727888 0.277566
vt 0.452713 0.775469
vt 0.002634 0.768166
vt 0.019913 0.752073
vt 0.734635 0.501405
vt 0.727888 0.474542
vt 0.750224 0.474542
vt 0.040967 0.734046
vt 0.736989 0.443893
vt 0.761808 0.443893
vt 0.064987 0.714780
vt 0.742594 0.410638
vt 0.768941 0.410638
vt 0.091051 0.695013
vt 0.744486 0.376054
vt 0.771350 0.376054
vt 0.381575 0.727223
vt 0.768941 0.341469
vt 0.407638 0.745238
vt 0.032388 0.717207
vt 0.059078 0.703181
vt 0.712534 0.410638
vt 0.088039 0.689100
vt 0.713838 0.376054
vt 0.384587 0.721250
vt 0.712534 0.341469
vt 0.413548 0.733520
vt 0.708674 0.308214
vt 0.440238 0.744518
vt 0.702405 0.277566
vt 0.463632 0.753819
vt 0.715640 0.501405
vt 0.702405 0.474542
vt 0.008994 0.730640
vt 0.708674 0.443893
vt 0.677950 0.308214
vt 0.674754 0.277566
vt 0.470356 0.730326
vt 0.670453 0.250703
vt 0.693968 0.501405
vt 0.674754 0.474542
vt 0.002270 0.707385
vt 0.027105 0.698935
vt 0.677950 0.443893
vt 0.055439 0.690595
vt 0.679918 0.410638
vt 0.086184 0.682684
vt 0.680583 0.376054
vt 0.386442 0.714768
vt 0.679918 0.341469
vt 0.417187 0.720807
vt 0.445521 0.726060
vt 0.670453 0.501405
vt 0.674458 0.568669
vt 0.505190 0.274828
vt 0.973148 0.000000
vt 0.952601 0.522023
vt 0.051541 0.252596
vt 0.031739 0.232793
vt 0.016180 0.209509
vt 0.005463 0.183636
vt 0.000000 0.156169
vt 0.000000 0.128165
vt 0.005463 0.100699
vt 0.016180 0.074826
vt 0.031739 0.051541
vt 0.051541 0.031739
vt 0.074826 0.016180
vt 0.100699 0.005463
vt 0.128165 0.000000
vt 0.156169 0.000000
vt 0.183636 0.005463
vt 0.232793 0.031739
vt 0.252596 0.051541
vt 0.268154 0.074826
vt 0.278871 0.100699
vt 0.284334 0.128165
vt 0.284334 0.156169
vt 0.278871 0.183636
vt 0.252596 0.232793
vt 0.232793 0.252596
vt 0.209509 0.268154
vt 0.183636 0.278871
vt 0.156169 0.284334
vt 0.128165 0.284334
vt 0.100699 0.278871
vt 0.031739 0.517128
vt 0.016180 0.493843
vt 0.005463 0.467970
vt 0.000000 0.440504
vt 0.000000 0.412499
vt 0.005463 0.385033
vt 0.016180 0.359160
vt 0.031739 0.335875
vt 0.051541 0.316073
vt 0.074826 0.300515
vt 0.100699 0.289798
vt 0.128165 0.284334
vt 0.156169 0.284334
vt 0.183636 0.289798
vt 0.209509 0.300515
vt 0.252596 0.335875
vt 0.268154 0.359160
vt 0.278871 0.385033
vt 0.284334 0.412499
vt 0.284334 0.440504
vt 0.278871 0.467970
vt 0.268154 0.493843
vt 0.232793 0.536930
vt 0.209509 0.552488
vt 0.183636 0.563205
vt 0.156169 0.568669
vt 0.128165 0.568669
vt 0.100699 0.563205
vt 0.074826 0.552488
vt 0.645998 0.501405
vt 0.304247 0.028870
vt 0.072940 0.568669
vt 0.357274 0.000969
vt 0.118156 0.582532
vt 0.447707 0.000969
vt 0.163373 0.568669
vt 0.500734 0.028870
vt 1.000000 0.320317
vt 0.118156 0.832951
vt 1.000000 0.487416
s 0
f 2/1/1 3/2/1 1/3/1
f 4/4/2 5/5/2 3/2/2
f 6/6/3 7/7/3 5/5/3
f 8/8/4 9/9/4 7/7/4
f 10/10/5 11/11/5 9/12/5
f 12/13/6 13/14/6 11/11/6
f 14/15/7 15/16/7 13/14/7
f 16/17/8 17/18/8 15/16/8
f 18/19/9 19/20/9 17/18/9
f 20/21/10 21/22/10 19/20/10
f 22/23/11 23/24/11 21/22/11
f 24/25/12 25/26/12 23/24/12
f 26/27/13 27/28/13 25/26/13
f 28/29/14 29/30/14 27/31/14
f 30/32/15 31/33/15 29/30/15
f 32/34/16 33/35/16 31/33/16
f 34/36/17 35/37/17 33/35/17
f 36/38/18 37/39/18 35/37/18
f 38/40/19 39/41/19 37/39/19
f 40/42/20 41/43/20 39/41/20
f 42/44/21 43/45/21 41/43/21
f 44/46/22 45/47/22 43/48/22
f 46/49/23 47/50/23 45/47/23
f 48/51/24 49/52/24 47/50/24
f 50/53/25 51/54/25 49/52/25
f 52/55/26 53/56/26 51/54/26
f 54/57/27 55/58/27 53/56/27
f 56/59/28 57/60/28 55/58/28
f 58/61/29 59/62/29 57/63/29
f 60/64/30 61/65/30 59/62/30
f 38/66/31 22/67/31 6/68/31
f 62/69/32 63/70/32 61/65/32
f 64/71/33 1/3/33 63/70/33
f 31/72/34 47/73/34 63/74/34
f 68/75/35 78/76/35 79/77/35
f 545/78/36 87/79/36 546/80/36
f 69/81/37 79/77/37 80/82/37
f 538/83/38 65/84/38 73/85/38
f 72/86/39 546/80/39 87/79/39
f 69/81/40 81/87/40 70/88/40
f 539/89/41 73/85/41 74/90/41
f 70/88/42 82/91/42 542/92/42
f 66/93/43 74/90/43 75/94/43
f 542/92/44 83/95/44 71/96/44
f 540/97/45 75/94/45 76/98/45
f 71/96/46 84/99/46 543/100/46
f 67/101/47 76/102/47 77/103/47
f 543/104/48 85/105/48 544/106/48
f 541/107/49 77/103/49 78/76/49
f 544/106/50 86/108/50 545/78/50
f 84/109/51 100/110/51 85/105/51
f 78/76/52 92/111/52 93/112/52
f 85/105/53 101/113/53 86/108/53
f 79/77/54 93/112/54 94/114/54
f 86/108/55 102/115/55 87/79/55
f 80/82/56 94/114/56 95/116/56
f 73/85/57 65/84/57 88/117/57
f 72/86/58 87/79/58 102/115/58
f 80/82/59 96/118/59 81/87/59
f 74/90/60 88/117/60 89/119/60
f 81/87/61 97/120/61 82/91/61
f 75/94/62 89/119/62 90/121/62
f 82/91/63 98/122/63 83/95/63
f 76/98/64 90/121/64 91/123/64
f 83/95/65 99/124/65 84/99/65
f 77/103/66 91/125/66 92/111/66
f 96/118/67 112/126/67 97/120/67
f 90/121/68 104/127/68 105/128/68
f 97/120/69 113/129/69 98/122/69
f 91/123/70 105/128/70 106/130/70
f 98/122/71 114/131/71 99/124/71
f 92/111/72 106/132/72 107/133/72
f 99/134/73 115/135/73 100/110/73
f 93/112/74 107/133/74 108/136/74
f 100/110/75 116/137/75 101/113/75
f 94/114/76 108/136/76 109/138/76
f 101/113/77 117/139/77 102/115/77
f 95/116/78 109/138/78 110/140/78
f 88/117/79 65/84/79 103/141/79
f 72/86/80 102/115/80 117/139/80
f 95/116/81 111/142/81 96/118/81
f 89/119/82 103/141/82 104/127/82
f 115/135/83 131/143/83 116/137/83
f 109/138/84 123/144/84 124/145/84
f 116/137/85 132/146/85 117/139/85
f 110/140/86 124/145/86 125/147/86
f 103/141/87 65/84/87 118/148/87
f 72/86/88 117/139/88 132/146/88
f 110/140/89 126/149/89 111/142/89
f 104/127/90 118/148/90 119/150/90
f 111/142/91 127/151/91 112/126/91
f 105/128/92 119/150/92 120/152/92
f 112/126/93 128/153/93 113/129/93
f 106/130/94 120/152/94 121/154/94
f 113/129/95 129/155/95 114/131/95
f 107/156/96 121/154/96 122/157/96
f 114/158/97 130/159/97 115/135/97
f 108/136/98 122/160/98 123/144/98
f 120/152/99 134/161/99 135/162/99
f 127/163/100 143/164/100 128/165/100
f 121/154/101 135/162/101 136/166/101
f 128/165/102 144/167/102 129/168/102
f 122/157/103 136/166/103 137/169/103
f 129/170/104 145/171/104 130/159/104
f 123/172/105 137/173/105 138/174/105
f 130/159/106 146/175/106 131/143/106
f 124/176/107 138/174/107 139/177/107
f 131/143/108 147/178/108 132/146/108
f 125/179/109 139/177/109 140/180/109
f 118/148/110 65/84/110 133/181/110
f 72/86/111 132/146/111 147/178/111
f 125/179/112 141/182/112 126/183/112
f 119/150/113 133/181/113 134/161/113
f 126/183/114 142/184/114 127/163/114
f 139/177/115 153/185/115 154/186/115
f 146/175/116 162/187/116 147/178/116
f 140/180/117 154/186/117 155/188/117
f 133/181/118 65/84/118 148/189/118
f 72/86/119 147/178/119 162/187/119
f 140/180/120 156/190/120 141/182/120
f 134/161/121 148/189/121 149/191/121
f 141/182/122 157/192/122 142/184/122
f 135/162/123 149/191/123 150/193/123
f 142/184/124 158/194/124 143/164/124
f 136/166/125 150/193/125 151/195/125
f 143/164/126 159/196/126 144/167/126
f 137/169/127 151/195/127 152/197/127
f 144/198/128 160/199/128 145/171/128
f 138/174/129 152/200/129 153/185/129
f 145/171/130 161/201/130 146/175/130
f 157/192/131 173/202/131 158/194/131
f 151/195/132 165/203/132 166/204/132
f 158/194/133 174/205/133 159/196/133
f 152/200/134 166/206/134 167/207/134
f 159/196/135 175/208/135 160/209/135
f 153/185/136 167/207/136 168/210/136
f 160/199/137 176/211/137 161/201/137
f 154/186/138 168/210/138 169/212/138
f 161/201/139 177/213/139 162/187/139
f 155/188/140 169/212/140 170/214/140
f 148/189/141 65/84/141 163/215/141
f 72/86/142 162/187/142 177/213/142
f 155/188/143 171/216/143 156/190/143
f 149/191/144 163/215/144 164/217/144
f 156/190/145 172/218/145 157/192/145
f 150/193/146 164/217/146 165/203/146
f 176/211/147 192/219/147 177/213/147
f 170/214/148 184/220/148 185/221/148
f 163/215/149 65/84/149 178/222/149
f 72/86/150 177/213/150 192/219/150
f 170/214/151 186/223/151 171/216/151
f 164/217/152 178/222/152 179/224/152
f 171/216/153 187/225/153 172/218/153
f 165/203/154 179/224/154 180/226/154
f 172/218/155 188/227/155 173/202/155
f 166/204/156 180/226/156 181/228/156
f 173/202/157 189/229/157 174/205/157
f 167/207/158 181/230/158 182/231/158
f 174/205/159 190/232/159 175/208/159
f 168/210/160 182/231/160 183/233/160
f 175/234/161 191/235/161 176/211/161
f 169/212/162 183/233/162 184/220/162
f 180/226/163 196/236/163 181/228/163
f 189/229/164 203/237/164 204/238/164
f 181/230/165 197/239/165 182/231/165
f 190/232/166 204/238/166 205/240/166
f 182/231/167 198/241/167 183/233/167
f 191/235/168 205/242/168 206/243/168
f 183/233/169 199/244/169 184/220/169
f 192/219/170 206/243/170 207/245/170
f 184/220/171 200/246/171 185/221/171
f 178/222/172 65/84/172 193/247/172
f 72/86/173 192/219/173 207/245/173
f 186/223/174 200/246/174 201/248/174
f 178/222/175 194/249/175 179/224/175
f 187/225/176 201/248/176 202/250/176
f 179/224/177 195/251/177 180/226/177
f 188/227/178 202/250/178 203/237/178
f 199/244/179 215/252/179 200/246/179
f 193/247/180 65/84/180 208/253/180
f 72/86/181 207/245/181 222/254/181
f 201/248/182 215/252/182 216/255/182
f 193/247/183 209/256/183 194/249/183
f 202/250/184 216/255/184 217/257/184
f 194/249/185 210/258/185 195/251/185
f 203/237/186 217/257/186 218/259/186
f 195/251/187 211/260/187 196/236/187
f 204/238/188 218/259/188 219/261/188
f 196/262/189 212/263/189 197/239/189
f 205/240/190 219/261/190 220/264/190
f 197/239/191 213/265/191 198/241/191
f 206/243/192 220/266/192 221/267/192
f 198/241/193 214/268/193 199/244/193
f 207/245/194 221/267/194 222/254/194
f 219/261/195 233/269/195 234/270/195
f 211/260/196 227/271/196 212/272/196
f 220/266/197 234/273/197 235/274/197
f 212/263/198 228/275/198 213/265/198
f 221/267/199 235/274/199 236/276/199
f 213/265/200 229/277/200 214/268/200
f 222/254/201 236/276/201 237/278/201
f 214/268/202 230/279/202 215/252/202
f 208/253/203 65/84/203 223/280/203
f 72/86/204 222/254/204 237/278/204
f 216/255/205 230/279/205 231/281/205
f 208/253/206 224/282/206 209/256/206
f 217/257/207 231/281/207 232/283/207
f 209/256/208 225/284/208 210/258/208
f 218/259/209 232/283/209 233/269/209
f 210/258/210 226/285/210 211/260/210
f 72/86/211 237/278/211 252/286/211
f 231/281/212 245/287/212 246/288/212
f 223/280/213 239/289/213 224/282/213
f 232/283/214 246/288/214 247/290/214
f 224/282/215 240/291/215 225/284/215
f 233/269/216 247/290/216 248/292/216
f 225/284/217 241/293/217 226/285/217
f 234/270/218 248/292/218 249/294/218
f 226/285/219 242/295/219 227/271/219
f 235/274/220 249/296/220 250/297/220
f 227/298/221 243/299/221 228/275/221
f 236/276/222 250/297/222 251/300/222
f 228/275/223 244/301/223 229/277/223
f 237/278/224 251/300/224 252/286/224
f 229/277/225 245/287/225 230/279/225
f 223/280/226 65/84/226 238/302/226
f 250/297/227 264/303/227 265/304/227
f 242/305/228 258/306/228 243/307/228
f 251/300/229 265/304/229 266/308/229
f 243/307/230 259/309/230 244/310/230
f 252/286/231 266/308/231 267/311/231
f 244/310/232 260/312/232 245/313/232
f 238/302/233 65/84/233 253/314/233
f 72/86/234 252/286/234 267/311/234
f 246/315/235 260/312/235 261/316/235
f 238/302/236 254/317/236 239/289/236
f 247/318/237 261/316/237 262/319/237
f 239/289/238 255/320/238 240/291/238
f 248/321/239 262/319/239 263/322/239
f 240/291/240 256/323/240 241/293/240
f 249/324/241 263/322/241 264/325/241
f 241/293/242 257/326/242 242/295/242
f 253/314/243 269/327/243 254/317/243
f 262/319/244 276/328/244 277/329/244
f 254/317/245 270/330/245 255/320/245
f 263/322/246 277/329/246 278/331/246
f 255/320/247 271/332/247 256/323/247
f 264/325/248 278/331/248 279/333/248
f 256/334/249 272/335/249 257/336/249
f 265/304/250 279/337/250 280/338/250
f 257/336/251 273/339/251 258/306/251
f 266/308/252 280/338/252 281/340/252
f 258/306/253 274/341/253 259/309/253
f 267/311/254 281/340/254 282/342/254
f 259/309/255 275/343/255 260/312/255
f 253/314/256 65/84/256 268/344/256
f 72/86/257 267/311/257 282/342/257
f 261/316/258 275/343/258 276/328/258
f 272/335/259 288/345/259 273/339/259
f 281/340/260 295/346/260 296/347/260
f 273/339/261 289/348/261 274/341/261
f 282/342/262 296/347/262 297/349/262
f 274/341/263 290/350/263 275/343/263
f 268/344/264 65/84/264 283/351/264
f 72/86/265 282/342/265 297/349/265
f 276/328/266 290/350/266 291/352/266
f 268/344/267 284/353/267 269/327/267
f 277/329/268 291/352/268 292/354/268
f 269/327/269 285/355/269 270/330/269
f 278/331/270 292/354/270 293/356/270
f 270/330/271 286/357/271 271/332/271
f 279/333/272 293/356/272 294/358/272
f 271/359/273 287/360/273 272/335/273
f 280/338/274 294/361/274 295/346/274
f 292/354/275 306/362/275 307/363/275
f 284/353/276 300/364/276 285/355/276
f 293/356/277 307/363/277 308/365/277
f 285/355/278 301/366/278 286/357/278
f 294/358/279 308/365/279 309/367/279
f 286/368/280 302/369/280 287/360/280
f 295/346/281 309/370/281 310/371/281
f 287/360/282 303/372/282 288/345/282
f 296/347/283 310/371/283 311/373/283
f 288/345/284 304/374/284 289/348/284
f 297/349/285 311/373/285 312/375/285
f 289/348/286 305/376/286 290/350/286
f 283/351/287 65/84/287 298/377/287
f 72/86/288 297/349/288 312/375/288
f 291/352/289 305/376/289 306/362/289
f 283/351/290 299/378/290 284/353/290
f 310/371/291 326/379/291 311/373/291
f 304/374/292 318/380/292 319/381/292
f 311/373/293 327/382/293 312/375/293
f 305/376/294 319/381/294 320/383/294
f 298/377/295 65/84/295 313/384/295
f 72/86/296 312/375/296 327/382/296
f 305/376/297 321/385/297 306/362/297
f 299/378/298 313/384/298 314/386/298
f 306/362/299 322/387/299 307/363/299
f 300/364/300 314/386/300 315/388/300
f 307/363/301 323/389/301 308/365/301
f 301/366/302 315/388/302 316/390/302
f 308/365/303 324/391/303 309/367/303
f 302/369/304 316/99/304 317/392/304
f 309/370/305 325/393/305 310/371/305
f 303/372/306 317/392/306 318/380/306
f 315/388/307 329/394/307 330/395/307
f 322/387/308 338/396/308 323/389/308
f 316/390/309 330/395/309 331/397/309
f 323/389/310 339/398/310 324/391/310
f 317/392/311 331/124/311 332/399/311
f 324/400/312 340/401/312 325/393/312
f 318/380/313 332/399/313 333/402/313
f 325/393/314 341/403/314 326/379/314
f 319/381/315 333/402/315 334/404/315
f 326/379/316 342/405/316 327/382/316
f 320/383/317 334/404/317 335/406/317
f 313/384/318 65/84/318 328/407/318
f 72/86/319 327/382/319 342/405/319
f 320/383/320 336/408/320 321/385/320
f 314/386/321 328/407/321 329/394/321
f 321/385/322 337/409/322 322/387/322
f 334/404/323 348/410/323 349/411/323
f 341/403/324 357/412/324 342/405/324
f 335/406/325 349/411/325 350/413/325
f 328/407/326 65/84/326 343/414/326
f 72/86/327 342/405/327 357/412/327
f 335/406/328 351/415/328 336/408/328
f 329/394/329 343/414/329 344/416/329
f 336/408/330 352/417/330 337/409/330
f 330/395/331 344/416/331 345/418/331
f 337/409/332 353/419/332 338/396/332
f 331/397/333 345/418/333 346/420/333
f 338/396/334 354/421/334 339/398/334
f 332/399/335 346/422/335 347/423/335
f 339/424/336 355/425/336 340/401/336
f 333/402/337 347/423/337 348/410/337
f 340/401/338 356/426/338 341/403/338
f 352/417/339 368/427/339 353/419/339
f 346/420/340 360/428/340 361/429/340
f 353/430/341 369/431/341 354/432/341
f 347/423/342 361/433/342 362/434/342
f 354/432/343 370/435/343 355/425/343
f 348/410/344 362/434/344 363/436/344
f 355/425/345 371/437/345 356/426/345
f 349/411/346 363/436/346 364/438/346
f 356/426/347 372/439/347 357/412/347
f 350/413/348 364/438/348 365/440/348
f 343/414/349 65/84/349 358/441/349
f 72/86/350 357/412/350 372/439/350
f 350/413/351 366/442/351 351/415/351
f 344/416/352 358/441/352 359/443/352
f 351/415/353 367/444/353 352/417/353
f 345/418/354 359/443/354 360/428/354
f 371/437/355 387/445/355 372/439/355
f 365/446/356 379/447/356 380/448/356
f 358/441/357 65/84/357 373/449/357
f 72/86/358 372/439/358 387/445/358
f 365/446/359 381/450/359 366/451/359
f 359/443/360 373/449/360 374/452/360
f 366/451/361 382/453/361 367/454/361
f 360/428/362 374/452/362 375/455/362
f 367/454/363 383/456/363 368/457/363
f 361/429/364 375/455/364 376/458/364
f 368/459/365 384/460/365 369/431/365
f 362/461/366 376/462/366 377/463/366
f 369/431/367 385/464/367 370/435/367
f 363/465/368 377/463/368 378/466/368
f 370/435/369 386/467/369 371/437/369
f 364/468/370 378/466/370 379/447/370
f 383/469/371 399/470/371 384/460/371
f 377/463/372 391/471/372 392/472/372
f 384/460/373 400/473/373 385/464/373
f 378/466/374 392/472/374 393/474/374
f 385/464/375 401/475/375 386/467/375
f 379/447/376 393/474/376 394/476/376
f 386/467/377 402/477/377 387/445/377
f 380/448/378 394/476/378 395/478/378
f 373/449/379 65/84/379 388/479/379
f 72/86/380 387/445/380 402/477/380
f 380/448/381 396/480/381 381/450/381
f 374/452/382 388/479/382 389/481/382
f 381/450/383 397/482/383 382/453/383
f 375/455/384 389/481/384 390/483/384
f 382/453/385 398/484/385 383/456/385
f 376/458/386 390/483/386 391/485/386
f 388/479/387 65/84/387 403/486/387
f 72/86/388 402/477/388 417/487/388
f 395/478/389 411/488/389 396/480/389
f 389/481/390 403/486/390 404/489/390
f 396/480/391 412/490/391 397/482/391
f 390/483/392 404/489/392 405/491/392
f 397/482/393 413/492/393 398/484/393
f 391/485/394 405/491/394 406/493/394
f 398/494/395 414/495/395 399/470/395
f 392/472/396 406/496/396 407/497/396
f 399/470/397 415/498/397 400/473/397
f 393/474/398 407/497/398 408/499/398
f 400/473/399 416/500/399 401/475/399
f 394/476/400 408/499/400 409/501/400
f 401/475/401 417/487/401 402/477/401
f 395/478/402 409/501/402 410/502/402
f 407/497/403 421/503/403 422/504/403
f 414/495/404 430/505/404 415/498/404
f 408/499/405 422/504/405 423/506/405
f 415/498/406 431/507/406 416/500/406
f 409/501/407 423/506/407 424/508/407
f 416/500/408 432/509/408 417/487/408
f 410/502/409 424/508/409 425/510/409
f 403/486/410 65/84/410 418/511/410
f 72/86/411 417/487/411 432/509/411
f 410/502/412 426/512/412 411/488/412
f 404/489/413 418/511/413 419/513/413
f 411/488/414 427/514/414 412/490/414
f 405/491/415 419/513/415 420/515/415
f 412/490/416 428/516/416 413/492/416
f 406/493/417 420/515/417 421/517/417
f 413/518/418 429/519/418 414/495/418
f 426/512/419 440/520/419 441/521/419
f 418/511/420 434/522/420 419/513/420
f 427/514/421 441/521/421 442/523/421
f 419/513/422 435/524/422 420/515/422
f 428/516/423 442/523/423 443/525/423
f 420/515/424 436/526/424 421/517/424
f 429/519/425 443/527/425 444/528/425
f 421/503/426 437/529/426 422/504/426
f 430/505/427 444/528/427 445/530/427
f 422/504/428 438/531/428 423/506/428
f 431/507/429 445/530/429 446/532/429
f 423/506/430 439/533/430 424/508/430
f 432/509/431 446/532/431 447/534/431
f 424/508/432 440/520/432 425/510/432
f 418/511/433 65/84/433 433/535/433
f 72/86/434 432/509/434 447/534/434
f 445/530/435 459/536/435 460/537/435
f 437/529/436 453/538/436 438/531/436
f 446/532/437 460/537/437 461/539/437
f 438/531/438 454/540/438 439/533/438
f 447/534/439 461/539/439 462/541/439
f 439/533/440 455/542/440 440/520/440
f 433/535/441 65/84/441 448/543/441
f 72/86/442 447/534/442 462/541/442
f 441/521/443 455/542/443 456/544/443
f 433/535/444 449/545/444 434/522/444
f 442/523/445 456/544/445 457/546/445
f 434/522/446 450/547/446 435/524/446
f 443/525/447 457/546/447 458/548/447
f 435/524/448 451/549/448 436/526/448
f 444/528/449 458/550/449 459/536/449
f 436/551/450 452/552/450 437/529/450
f 448/543/451 464/553/451 449/545/451
f 457/546/452 471/554/452 472/555/452
f 449/545/453 465/556/453 450/547/453
f 458/548/454 472/555/454 473/557/454
f 450/547/455 466/558/455 451/549/455
f 459/536/456 473/559/456 474/560/456
f 451/561/457 467/562/457 452/552/457
f 460/537/458 474/560/458 475/563/458
f 452/552/459 468/564/459 453/538/459
f 461/539/460 475/563/460 476/565/460
f 453/538/461 469/566/461 454/540/461
f 462/541/462 476/565/462 477/567/462
f 454/540/463 470/568/463 455/542/463
f 448/543/464 65/84/464 463/569/464
f 72/86/465 462/541/465 477/567/465
f 456/544/466 470/568/466 471/554/466
f 467/562/467 483/570/467 468/564/467
f 476/565/468 490/571/468 491/572/468
f 468/564/469 484/573/469 469/566/469
f 477/567/470 491/572/470 492/574/470
f 469/566/471 485/575/471 470/568/471
f 463/569/472 65/84/472 478/576/472
f 72/86/473 477/567/473 492/574/473
f 471/554/474 485/575/474 486/577/474
f 463/569/475 479/578/475 464/553/475
f 472/555/476 486/577/476 487/579/476
f 464/553/477 480/580/477 465/556/477
f 473/557/478 487/579/478 488/581/478
f 465/556/479 481/582/479 466/558/479
f 474/560/480 488/583/480 489/584/480
f 466/585/481 482/586/481 467/562/481
f 475/563/482 489/584/482 490/571/482
f 487/587/483 501/588/483 502/589/483
f 479/578/484 495/590/484 480/580/484
f 488/591/485 502/589/485 503/592/485
f 480/580/486 496/593/486 481/582/486
f 489/584/487 503/594/487 504/595/487
f 481/596/488 497/597/488 482/598/488
f 490/571/489 504/595/489 505/599/489
f 482/598/490 498/600/490 483/601/490
f 491/572/491 505/599/491 506/602/491
f 483/601/492 499/603/492 484/604/492
f 492/574/493 506/602/493 507/605/493
f 484/604/494 500/606/494 485/607/494
f 478/576/495 65/84/495 493/608/495
f 72/86/496 492/574/496 507/605/496
f 486/609/497 500/606/497 501/588/497
f 478/576/498 494/610/498 479/578/498
f 506/602/499 520/611/499 521/612/499
f 498/600/500 514/613/500 499/603/500
f 507/605/501 521/612/501 522/614/501
f 499/603/502 515/615/502 500/606/502
f 493/608/503 65/84/503 508/616/503
f 72/86/504 507/605/504 522/614/504
f 501/588/505 515/615/505 516/617/505
f 493/608/506 509/618/506 494/610/506
f 502/589/507 516/617/507 517/619/507
f 494/610/508 510/620/508 495/590/508
f 503/592/509 517/619/509 518/621/509
f 495/590/510 511/622/510 496/593/510
f 504/334/511 518/621/511 519/359/511
f 496/623/512 512/624/512 497/597/512
f 505/599/513 519/625/513 520/611/513
f 497/597/514 513/626/514 498/600/514
f 518/621/515 532/627/515 533/628/515
f 510/620/516 526/629/516 511/622/516
f 519/359/517 533/628/517 534/630/517
f 511/631/518 527/632/518 512/624/518
f 520/611/519 534/633/519 535/634/519
f 512/624/520 528/635/520 513/626/520
f 521/612/521 535/634/521 536/636/521
f 513/626/522 529/637/522 514/613/522
f 522/614/523 536/636/523 537/638/523
f 514/613/524 530/639/524 515/615/524
f 508/616/525 65/84/525 523/640/525
f 72/86/526 522/614/526 537/638/526
f 516/617/527 530/639/527 531/641/527
f 508/616/528 524/642/528 509/618/528
f 517/619/529 531/641/529 532/627/529
f 509/618/530 525/643/530 510/620/530
f 537/638/531 545/78/531 546/80/531
f 529/637/532 69/81/532 530/639/532
f 523/640/533 65/84/533 538/83/533
f 72/86/534 537/638/534 546/80/534
f 531/641/535 69/81/535 70/88/535
f 523/640/536 539/89/536 524/642/536
f 532/627/537 70/88/537 542/92/537
f 524/642/538 66/93/538 525/643/538
f 533/628/539 542/92/539 71/96/539
f 525/643/540 540/97/540 526/629/540
f 534/630/541 71/96/541 543/100/541
f 526/644/542 67/101/542 527/632/542
f 535/634/543 543/104/543 544/106/543
f 527/632/544 541/107/544 528/635/544
f 536/636/545 544/106/545 545/78/545
f 528/635/546 68/75/546 529/637/546
f 2/1/1 4/4/1 3/2/1
f 4/4/2 6/6/2 5/5/2
f 6/6/3 8/8/3 7/7/3
f 8/8/4 10/645/4 9/9/4
f 10/10/5 12/13/5 11/11/5
f 12/13/6 14/15/6 13/14/6
f 14/15/7 16/17/7 15/16/7
f 16/17/8 18/19/8 17/18/8
f 18/19/9 20/21/9 19/20/9
f 20/21/10 22/23/10 21/22/10
f 22/23/11 24/25/11 23/24/11
f 24/25/12 26/27/12 25/26/12
f 26/27/13 28/646/13 27/28/13
f 28/29/14 30/32/14 29/30/14
f 30/32/15 32/34/15 31/33/15
f 32/34/16 34/36/16 33/35/16
f 34/36/17 36/38/17 35/37/17
f 36/38/18 38/40/18 37/39/18
f 38/40/19 40/42/19 39/41/19
f 40/42/20 42/44/20 41/43/20
f 42/44/21 44/647/21 43/45/21
f 44/46/22 46/49/22 45/47/22
f 46/49/23 48/51/23 47/50/23
f 48/51/24 50/53/24 49/52/24
f 50/53/25 52/55/25 51/54/25
f 52/55/26 54/57/26 53/56/26
f 54/57/27 56/59/27 55/58/27
f 56/59/28 58/648/28 57/60/28
f 58/61/29 60/64/29 59/62/29
f 60/64/30 62/69/30 61/65/30
f 6/68/31 4/649/31 2/650/31
f 2/650/31 64/651/31 62/652/31
f 62/652/31 60/653/31 58/654/31
f 58/654/31 56/655/31 54/656/31
f 54/656/31 52/657/31 50/658/31
f 50/658/31 48/659/31 46/660/31
f 46/660/31 44/661/31 42/662/31
f 42/662/31 40/663/31 38/66/31
f 38/66/31 36/664/31 34/665/31
f 34/665/31 32/666/31 30/667/31
f 30/667/31 28/668/31 26/669/31
f 26/669/31 24/670/31 22/67/31
f 22/67/31 20/671/31 18/672/31
f 18/672/31 16/673/31 14/674/31
f 14/674/31 12/675/31 10/676/31
f 10/676/31 8/677/31 6/68/31
f 6/68/31 2/650/31 62/652/31
f 62/652/31 58/654/31 54/656/31
f 54/656/31 50/658/31 46/660/31
f 46/660/31 42/662/31 38/66/31
f 38/66/31 34/665/31 30/667/31
f 30/667/31 26/669/31 22/67/31
f 22/67/31 18/672/31 14/674/31
f 14/674/31 10/676/31 6/68/31
f 6/68/31 62/652/31 54/656/31
f 54/656/31 46/660/31 38/66/31
f 38/66/31 30/667/31 22/67/31
f 22/67/31 14/674/31 6/68/31
f 6/68/31 54/656/31 38/66/31
f 62/69/32 64/71/32 63/70/32
f 64/71/33 2/1/33 1/3/33
f 63/74/34 1/678/34 3/679/34
f 3/679/34 5/680/34 7/681/34
f 7/681/34 9/682/34 11/683/34
f 11/683/34 13/684/34 15/685/34
f 15/685/34 17/686/34 19/687/34
f 19/687/34 21/688/34 23/689/34
f 23/689/34 25/690/34 27/691/34
f 27/691/34 29/692/34 31/72/34
f 31/72/34 33/693/34 35/694/34
f 35/694/34 37/695/34 39/696/34
f 39/696/34 41/697/34 43/698/34
f 43/698/34 45/699/34 47/73/34
f 47/73/34 49/700/34 51/701/34
f 51/701/34 53/702/34 55/703/34
f 55/703/34 57/704/34 59/705/34
f 59/705/34 61/706/34 63/74/34
f 63/74/34 3/679/34 7/681/34
f 7/681/34 11/683/34 15/685/34
f 15/685/34 19/687/34 23/689/34
f 23/689/34 27/691/34 31/72/34
f 31/72/34 35/694/34 39/696/34
f 39/696/34 43/698/34 47/73/34
f 47/73/34 51/701/34 55/703/34
f 55/703/34 59/705/34 63/74/34
f 63/74/34 7/681/34 15/685/34
f 15/685/34 23/689/34 31/72/34
f 31/72/34 39/696/34 47/73/34
f 47/73/34 55/703/34 63/74/34
f 63/74/34 15/685/34 31/72/34
f 68/75/35 541/107/35 78/76/35
f 545/78/36 86/108/36 87/79/36
f 69/81/37 68/75/37 79/77/37
f 69/81/40 80/82/40 81/87/40
f 539/89/41 538/83/41 73/85/41
f 70/88/42 81/87/42 82/91/42
f 66/93/43 539/89/43 74/90/43
f 542/92/44 82/91/44 83/95/44
f 540/97/45 66/93/45 75/94/45
f 71/96/46 83/95/46 84/99/46
f 67/101/47 540/707/47 76/102/47
f 543/104/48 84/109/48 85/105/48
f 541/107/49 67/101/49 77/103/49
f 544/106/50 85/105/50 86/108/50
f 84/109/51 99/134/51 100/110/51
f 78/76/52 77/103/52 92/111/52
f 85/105/53 100/110/53 101/113/53
f 79/77/54 78/76/54 93/112/54
f 86/108/55 101/113/55 102/115/55
f 80/82/56 79/77/56 94/114/56
f 80/82/59 95/116/59 96/118/59
f 74/90/60 73/85/60 88/117/60
f 81/87/61 96/118/61 97/120/61
f 75/94/62 74/90/62 89/119/62
f 82/91/63 97/120/63 98/122/63
f 76/98/64 75/94/64 90/121/64
f 83/95/65 98/122/65 99/124/65
f 77/103/66 76/102/66 91/125/66
f 96/118/67 111/142/67 112/126/67
f 90/121/68 89/119/68 104/127/68
f 97/120/69 112/126/69 113/129/69
f 91/123/70 90/121/70 105/128/70
f 98/122/71 113/129/71 114/131/71
f 92/111/72 91/125/72 106/132/72
f 99/134/73 114/158/73 115/135/73
f 93/112/74 92/111/74 107/133/74
f 100/110/75 115/135/75 116/137/75
f 94/114/76 93/112/76 108/136/76
f 101/113/77 116/137/77 117/139/77
f 95/116/78 94/114/78 109/138/78
f 95/116/81 110/140/81 111/142/81
f 89/119/82 88/117/82 103/141/82
f 115/135/83 130/159/83 131/143/83
f 109/138/84 108/136/84 123/144/84
f 116/137/85 131/143/85 132/146/85
f 110/140/86 109/138/86 124/145/86
f 110/140/89 125/147/89 126/149/89
f 104/127/90 103/141/90 118/148/90
f 111/142/91 126/149/91 127/151/91
f 105/128/92 104/127/92 119/150/92
f 112/126/93 127/151/93 128/153/93
f 106/130/94 105/128/94 120/152/94
f 113/129/95 128/153/95 129/155/95
f 107/156/96 106/130/96 121/154/96
f 114/158/97 129/170/97 130/159/97
f 108/136/98 107/133/98 122/160/98
f 120/152/99 119/150/99 134/161/99
f 127/163/100 142/184/100 143/164/100
f 121/154/101 120/152/101 135/162/101
f 128/165/102 143/164/102 144/167/102
f 122/157/103 121/154/103 136/166/103
f 129/170/104 144/198/104 145/171/104
f 123/172/105 122/708/105 137/173/105
f 130/159/106 145/171/106 146/175/106
f 124/176/107 123/172/107 138/174/107
f 131/143/108 146/175/108 147/178/108
f 125/179/109 124/176/109 139/177/109
f 125/179/112 140/180/112 141/182/112
f 119/150/113 118/148/113 133/181/113
f 126/183/114 141/182/114 142/184/114
f 139/177/115 138/174/115 153/185/115
f 146/175/116 161/201/116 162/187/116
f 140/180/117 139/177/117 154/186/117
f 140/180/120 155/188/120 156/190/120
f 134/161/121 133/181/121 148/189/121
f 141/182/122 156/190/122 157/192/122
f 135/162/123 134/161/123 149/191/123
f 142/184/124 157/192/124 158/194/124
f 136/166/125 135/162/125 150/193/125
f 143/164/126 158/194/126 159/196/126
f 137/169/127 136/166/127 151/195/127
f 144/198/128 159/709/128 160/199/128
f 138/174/129 137/173/129 152/200/129
f 145/171/130 160/199/130 161/201/130
f 157/192/131 172/218/131 173/202/131
f 151/195/132 150/193/132 165/203/132
f 158/194/133 173/202/133 174/205/133
f 152/200/134 151/710/134 166/206/134
f 159/196/135 174/205/135 175/208/135
f 153/185/136 152/200/136 167/207/136
f 160/199/137 175/234/137 176/211/137
f 154/186/138 153/185/138 168/210/138
f 161/201/139 176/211/139 177/213/139
f 155/188/140 154/186/140 169/212/140
f 155/188/143 170/214/143 171/216/143
f 149/191/144 148/189/144 163/215/144
f 156/190/145 171/216/145 172/218/145
f 150/193/146 149/191/146 164/217/146
f 176/211/147 191/235/147 192/219/147
f 170/214/148 169/212/148 184/220/148
f 170/214/151 185/221/151 186/223/151
f 164/217/152 163/215/152 178/222/152
f 171/216/153 186/223/153 187/225/153
f 165/203/154 164/217/154 179/224/154
f 172/218/155 187/225/155 188/227/155
f 166/204/156 165/203/156 180/226/156
f 173/202/157 188/227/157 189/229/157
f 167/207/158 166/206/158 181/230/158
f 174/205/159 189/229/159 190/232/159
f 168/210/160 167/207/160 182/231/160
f 175/234/161 190/711/161 191/235/161
f 169/212/162 168/210/162 183/233/162
f 180/226/163 195/251/163 196/236/163
f 189/229/164 188/227/164 203/237/164
f 181/230/165 196/262/165 197/239/165
f 190/232/166 189/229/166 204/238/166
f 182/231/167 197/239/167 198/241/167
f 191/235/168 190/711/168 205/242/168
f 183/233/169 198/241/169 199/244/169
f 192/219/170 191/235/170 206/243/170
f 184/220/171 199/244/171 200/246/171
f 186/223/174 185/221/174 200/246/174
f 178/222/175 193/247/175 194/249/175
f 187/225/176 186/223/176 201/248/176
f 179/224/177 194/249/177 195/251/177
f 188/227/178 187/225/178 202/250/178
f 199/244/179 214/268/179 215/252/179
f 201/248/182 200/246/182 215/252/182
f 193/247/183 208/253/183 209/256/183
f 202/250/184 201/248/184 216/255/184
f 194/249/185 209/256/185 210/258/185
f 203/237/186 202/250/186 217/257/186
f 195/251/187 210/258/187 211/260/187
f 204/238/188 203/237/188 218/259/188
f 196/262/189 211/712/189 212/263/189
f 205/240/190 204/238/190 219/261/190
f 197/239/191 212/263/191 213/265/191
f 206/243/192 205/242/192 220/266/192
f 198/241/193 213/265/193 214/268/193
f 207/245/194 206/243/194 221/267/194
f 219/261/195 218/259/195 233/269/195
f 211/260/196 226/285/196 227/271/196
f 220/266/197 219/713/197 234/273/197
f 212/263/198 227/298/198 228/275/198
f 221/267/199 220/266/199 235/274/199
f 213/265/200 228/275/200 229/277/200
f 222/254/201 221/267/201 236/276/201
f 214/268/202 229/277/202 230/279/202
f 216/255/205 215/252/205 230/279/205
f 208/253/206 223/280/206 224/282/206
f 217/257/207 216/255/207 231/281/207
f 209/256/208 224/282/208 225/284/208
f 218/259/209 217/257/209 232/283/209
f 210/258/210 225/284/210 226/285/210
f 231/281/212 230/279/212 245/287/212
f 223/280/213 238/302/213 239/289/213
f 232/283/214 231/281/214 246/288/214
f 224/282/215 239/289/215 240/291/215
f 233/269/216 232/283/216 247/290/216
f 225/284/217 240/291/217 241/293/217
f 234/270/218 233/269/218 248/292/218
f 226/285/219 241/293/219 242/295/219
f 235/274/220 234/273/220 249/296/220
f 227/298/221 242/714/221 243/299/221
f 236/276/222 235/274/222 250/297/222
f 228/275/223 243/299/223 244/301/223
f 237/278/224 236/276/224 251/300/224
f 229/277/225 244/301/225 245/287/225
f 250/297/227 249/296/227 264/303/227
f 242/305/228 257/336/228 258/306/228
f 251/300/229 250/297/229 265/304/229
f 243/307/230 258/306/230 259/309/230
f 252/286/231 251/300/231 266/308/231
f 244/310/547 259/309/547 260/312/547
f 246/315/548 245/313/548 260/312/548
f 238/302/236 253/314/236 254/317/236
f 247/318/237 246/315/237 261/316/237
f 239/289/238 254/317/238 255/320/238
f 248/321/239 247/318/239 262/319/239
f 240/291/240 255/320/240 256/323/240
f 249/324/241 248/321/241 263/322/241
f 241/293/242 256/323/242 257/326/242
f 253/314/243 268/344/243 269/327/243
f 262/319/244 261/316/244 276/328/244
f 254/317/245 269/327/245 270/330/245
f 263/322/246 262/319/246 277/329/246
f 255/320/247 270/330/247 271/332/247
f 264/325/248 263/322/248 278/331/248
f 256/334/249 271/359/249 272/335/249
f 265/304/250 264/303/250 279/337/250
f 257/336/251 272/335/251 273/339/251
f 266/308/252 265/304/252 280/338/252
f 258/306/253 273/339/253 274/341/253
f 267/311/254 266/308/254 281/340/254
f 259/309/255 274/341/255 275/343/255
f 261/316/258 260/312/258 275/343/258
f 272/335/259 287/360/259 288/345/259
f 281/340/260 280/338/260 295/346/260
f 273/339/261 288/345/261 289/348/261
f 282/342/262 281/340/262 296/347/262
f 274/341/263 289/348/263 290/350/263
f 276/328/266 275/343/266 290/350/266
f 268/344/267 283/351/267 284/353/267
f 277/329/268 276/328/268 291/352/268
f 269/327/269 284/353/269 285/355/269
f 278/331/270 277/329/270 292/354/270
f 270/330/271 285/355/271 286/357/271
f 279/333/272 278/331/272 293/356/272
f 271/359/273 286/368/273 287/360/273
f 280/338/274 279/337/274 294/361/274
f 292/354/275 291/352/275 306/362/275
f 284/353/276 299/378/276 300/364/276
f 293/356/277 292/354/277 307/363/277
f 285/355/278 300/364/278 301/366/278
f 294/358/279 293/356/279 308/365/279
f 286/368/280 301/100/280 302/369/280
f 295/346/281 294/361/281 309/370/281
f 287/360/282 302/369/282 303/372/282
f 296/347/283 295/346/283 310/371/283
f 288/345/284 303/372/284 304/374/284
f 297/349/285 296/347/285 311/373/285
f 289/348/286 304/374/286 305/376/286
f 291/352/289 290/350/289 305/376/289
f 283/351/290 298/377/290 299/378/290
f 310/371/291 325/393/291 326/379/291
f 304/374/292 303/372/292 318/380/292
f 311/373/293 326/379/293 327/382/293
f 305/376/294 304/374/294 319/381/294
f 305/376/297 320/383/297 321/385/297
f 299/378/298 298/377/298 313/384/298
f 306/362/299 321/385/299 322/387/299
f 300/364/300 299/378/300 314/386/300
f 307/363/301 322/387/301 323/389/301
f 301/366/302 300/364/302 315/388/302
f 308/365/303 323/389/303 324/391/303
f 302/369/304 301/100/304 316/99/304
f 309/370/305 324/400/305 325/393/305
f 303/372/306 302/369/306 317/392/306
f 315/388/307 314/386/307 329/394/307
f 322/387/308 337/409/308 338/396/308
f 316/390/309 315/388/309 330/395/309
f 323/389/310 338/396/310 339/398/310
f 317/392/311 316/99/311 331/124/311
f 324/400/312 339/424/312 340/401/312
f 318/380/313 317/392/313 332/399/313
f 325/393/314 340/401/314 341/403/314
f 319/381/315 318/380/315 333/402/315
f 326/379/316 341/403/316 342/405/316
f 320/383/317 319/381/317 334/404/317
f 320/383/320 335/406/320 336/408/320
f 314/386/321 313/384/321 328/407/321
f 321/385/322 336/408/322 337/409/322
f 334/404/323 333/402/323 348/410/323
f 341/403/324 356/426/324 357/412/324
f 335/406/325 334/404/325 349/411/325
f 335/406/328 350/413/328 351/415/328
f 329/394/329 328/407/329 343/414/329
f 336/408/330 351/415/330 352/417/330
f 330/395/331 329/394/331 344/416/331
f 337/409/332 352/417/332 353/419/332
f 331/397/333 330/395/333 345/418/333
f 338/396/334 353/419/334 354/421/334
f 332/399/335 331/124/335 346/422/335
f 339/424/336 354/432/336 355/425/336
f 333/402/337 332/399/337 347/423/337
f 340/401/338 355/425/338 356/426/338
f 352/417/339 367/444/339 368/427/339
f 346/420/340 345/418/340 360/428/340
f 353/430/341 368/459/341 369/431/341
f 347/423/342 346/422/342 361/433/342
f 354/432/343 369/431/343 370/435/343
f 348/410/344 347/423/344 362/434/344
f 355/425/345 370/435/345 371/437/345
f 349/411/346 348/410/346 363/436/346
f 356/426/347 371/437/347 372/439/347
f 350/413/348 349/411/348 364/438/348
f 350/413/351 365/440/351 366/442/351
f 344/416/352 343/414/352 358/441/352
f 351/415/353 366/442/353 367/444/353
f 345/418/354 344/416/354 359/443/354
f 371/437/355 386/467/355 387/445/355
f 365/446/356 364/468/356 379/447/356
f 365/446/359 380/448/359 381/450/359
f 359/443/360 358/441/360 373/449/360
f 366/451/361 381/450/361 382/453/361
f 360/428/362 359/443/362 374/452/362
f 367/454/363 382/453/363 383/456/363
f 361/429/364 360/428/364 375/455/364
f 368/459/365 383/469/365 384/460/365
f 362/461/366 361/715/366 376/462/366
f 369/431/367 384/460/367 385/464/367
f 363/465/368 362/461/368 377/463/368
f 370/435/369 385/464/369 386/467/369
f 364/468/370 363/465/370 378/466/370
f 383/469/371 398/494/371 399/470/371
f 377/463/372 376/462/372 391/471/372
f 384/460/373 399/470/373 400/473/373
f 378/466/374 377/463/374 392/472/374
f 385/464/375 400/473/375 401/475/375
f 379/447/376 378/466/376 393/474/376
f 386/467/377 401/475/377 402/477/377
f 380/448/378 379/447/378 394/476/378
f 380/448/381 395/478/381 396/480/381
f 374/452/382 373/449/382 388/479/382
f 381/450/383 396/480/383 397/482/383
f 375/455/384 374/452/384 389/481/384
f 382/453/385 397/482/385 398/484/385
f 376/458/386 375/455/386 390/483/386
f 395/478/389 410/502/389 411/488/389
f 389/481/549 388/479/549 403/486/549
f 396/480/391 411/488/391 412/490/391
f 390/483/392 389/481/392 404/489/392
f 397/482/393 412/490/393 413/492/393
f 391/485/394 390/483/394 405/491/394
f 398/494/395 413/518/395 414/495/395
f 392/472/396 391/471/396 406/496/396
f 399/470/397 414/495/397 415/498/397
f 393/474/398 392/472/398 407/497/398
f 400/473/399 415/498/399 416/500/399
f 394/476/400 393/474/400 408/499/400
f 401/475/550 416/500/550 417/487/550
f 395/478/402 394/476/402 409/501/402
f 407/497/403 406/496/403 421/503/403
f 414/495/404 429/519/404 430/505/404
f 408/499/405 407/497/405 422/504/405
f 415/498/406 430/505/406 431/507/406
f 409/501/407 408/499/407 423/506/407
f 416/500/408 431/507/408 432/509/408
f 410/502/409 409/501/409 424/508/409
f 410/502/412 425/510/412 426/512/412
f 404/489/413 403/486/413 418/511/413
f 411/488/414 426/512/414 427/514/414
f 405/491/415 404/489/415 419/513/415
f 412/490/416 427/514/416 428/516/416
f 406/493/417 405/491/417 420/515/417
f 413/518/418 428/716/418 429/519/418
f 426/512/419 425/510/419 440/520/419
f 418/511/420 433/535/420 434/522/420
f 427/514/421 426/512/421 441/521/421
f 419/513/422 434/522/422 435/524/422
f 428/516/423 427/514/423 442/523/423
f 420/515/424 435/524/424 436/526/424
f 429/519/425 428/716/425 443/527/425
f 421/503/426 436/551/426 437/529/426
f 430/505/427 429/519/427 444/528/427
f 422/504/428 437/529/428 438/531/428
f 431/507/429 430/505/429 445/530/429
f 423/506/430 438/531/430 439/533/430
f 432/509/431 431/507/431 446/532/431
f 424/508/432 439/533/432 440/520/432
f 445/530/435 444/528/435 459/536/435
f 437/529/436 452/552/436 453/538/436
f 446/532/437 445/530/437 460/537/437
f 438/531/438 453/538/438 454/540/438
f 447/534/439 446/532/439 461/539/439
f 439/533/440 454/540/440 455/542/440
f 441/521/443 440/520/443 455/542/443
f 433/535/444 448/543/444 449/545/444
f 442/523/445 441/521/445 456/544/445
f 434/522/446 449/545/446 450/547/446
f 443/525/447 442/523/447 457/546/447
f 435/524/448 450/547/448 451/549/448
f 444/528/449 443/527/449 458/550/449
f 436/551/450 451/561/450 452/552/450
f 448/543/451 463/569/451 464/553/451
f 457/546/452 456/544/452 471/554/452
f 449/545/453 464/553/453 465/556/453
f 458/548/454 457/546/454 472/555/454
f 450/547/455 465/556/455 466/558/455
f 459/536/456 458/550/456 473/559/456
f 451/561/457 466/585/457 467/562/457
f 460/537/458 459/536/458 474/560/458
f 452/552/459 467/562/459 468/564/459
f 461/539/460 460/537/460 475/563/460
f 453/538/461 468/564/461 469/566/461
f 462/541/462 461/539/462 476/565/462
f 454/540/463 469/566/463 470/568/463
f 456/544/466 455/542/466 470/568/466
f 467/562/467 482/586/467 483/570/467
f 476/565/468 475/563/468 490/571/468
f 468/564/469 483/570/469 484/573/469
f 477/567/470 476/565/470 491/572/470
f 469/566/471 484/573/471 485/575/471
f 471/554/474 470/568/474 485/575/474
f 463/569/475 478/576/475 479/578/475
f 472/555/476 471/554/476 486/577/476
f 464/553/477 479/578/477 480/580/477
f 473/557/478 472/555/478 487/579/478
f 465/556/479 480/580/479 481/582/479
f 474/560/480 473/559/480 488/583/480
f 466/585/481 481/717/481 482/586/481
f 475/563/482 474/560/482 489/584/482
f 487/587/483 486/609/483 501/588/483
f 479/578/484 494/610/484 495/590/484
f 488/591/485 487/587/485 502/589/485
f 480/580/486 495/590/486 496/593/486
f 489/584/487 488/583/487 503/594/487
f 481/596/488 496/623/488 497/597/488
f 490/571/489 489/584/489 504/595/489
f 482/598/490 497/597/490 498/600/490
f 491/572/491 490/571/491 505/599/491
f 483/601/492 498/600/492 499/603/492
f 492/574/493 491/572/493 506/602/493
f 484/604/551 499/603/551 500/606/551
f 486/609/497 485/607/497 500/606/497
f 478/576/498 493/608/498 494/610/498
f 506/602/499 505/599/499 520/611/499
f 498/600/500 513/626/500 514/613/500
f 507/605/501 506/602/501 521/612/501
f 499/603/502 514/613/502 515/615/502
f 501/588/505 500/606/505 515/615/505
f 493/608/506 508/616/506 509/618/506
f 502/589/507 501/588/507 516/617/507
f 494/610/508 509/618/508 510/620/508
f 503/592/509 502/589/509 517/619/509
f 495/590/510 510/620/510 511/622/510
f 504/334/511 503/592/511 518/621/511
f 496/623/512 511/631/512 512/624/512
f 505/599/513 504/595/513 519/625/513
f 497/597/514 512/624/514 513/626/514
f 518/621/515 517/619/515 532/627/515
f 510/620/516 525/643/516 526/629/516
f 519/359/517 518/621/517 533/628/517
f 511/631/518 526/644/518 527/632/518
f 520/611/519 519/625/519 534/633/519
f 512/624/520 527/632/520 528/635/520
f 521/612/521 520/611/521 535/634/521
f 513/626/522 528/635/522 529/637/522
f 522/614/523 521/612/523 536/636/523
f 514/613/524 529/637/524 530/639/524
f 516/617/527 515/615/527 530/639/527
f 508/616/528 523/640/528 524/642/528
f 517/619/529 516/617/529 531/641/529
f 509/618/530 524/642/530 525/643/530
f 537/638/531 536/636/531 545/78/531
f 529/637/532 68/75/532 69/81/532
f 531/641/535 530/639/535 69/81/535
f 523/640/536 538/83/536 539/89/536
f 532/627/537 531/641/537 70/88/537
f 524/642/538 539/89/538 66/93/538
f 533/628/539 532/627/539 542/92/539
f 525/643/552 66/93/552 540/97/552
f 534/630/541 533/628/541 71/96/541
f 526/644/542 540/707/542 67/101/542
f 535/634/543 534/633/543 543/104/543
f 527/632/544 67/101/544 541/107/544
f 536/636/545 535/634/545 544/106/545
f 528/635/546 541/107/546 68/75/546
