# Blender 5.1.1
# www.blender.org
mtllib KnifeUVUnwrapped.mtl
o scifi_knife_base_v2
v 1.575000 -0.160000 -0.070000
v -0.675000 -0.160000 -0.070000
v -0.675000 -0.160000 0.070000
v 1.575000 -0.160000 0.070000
v 1.575000 0.260000 -0.070000
v -0.675000 0.260000 -0.070000
v -0.675000 0.260000 0.070000
v 1.575000 0.260000 0.070000
v 1.805000 -0.080000 -0.070000
v 1.355000 -0.080000 -0.070000
v 1.355000 -0.080000 0.070000
v 1.805000 -0.080000 0.070000
v 1.805000 0.180000 -0.070000
v 1.355000 0.180000 -0.070000
v 1.355000 0.180000 0.070000
v 1.805000 0.180000 0.070000
v 0.900000 0.170000 -0.060000
v -0.700000 0.170000 -0.060000
v -0.700000 0.170000 0.060000
v 0.900000 0.170000 0.060000
v 0.900000 0.270000 -0.060000
v -0.700000 0.270000 -0.060000
v -0.700000 0.270000 0.060000
v 0.900000 0.270000 0.060000
v -0.640000 -0.300000 -0.140000
v -0.800000 -0.300000 -0.140000
v -0.800000 -0.300000 0.140000
v -0.640000 -0.300000 0.140000
v -0.640000 0.300000 -0.140000
v -0.800000 0.300000 -0.140000
v -0.800000 0.300000 0.140000
v -0.640000 0.300000 0.140000
v -0.775000 -0.260000 -0.170000
v -2.325000 -0.260000 -0.170000
v -2.325000 -0.260000 0.170000
v -0.775000 -0.260000 0.170000
v -0.775000 0.260000 -0.170000
v -2.325000 0.260000 -0.170000
v -2.325000 0.260000 0.170000
v -0.775000 0.260000 0.170000
v -2.290000 -0.190000 -0.180000
v -2.470000 -0.190000 -0.180000
v -2.470000 -0.190000 0.180000
v -2.290000 -0.190000 0.180000
v -2.290000 0.190000 -0.180000
v -2.470000 0.190000 -0.180000
v -2.470000 0.190000 0.180000
v -2.290000 0.190000 0.180000
vn -0.0000 1.0000 -0.0000
vn -0.0000 -0.0000 -1.0000
vn -1.0000 -0.0000 -0.0000
vn -0.0000 -0.0000 1.0000
vn 1.0000 -0.0000 -0.0000
vt 0.000000 0.000000
vt 0.568889 -0.000000
vt 0.631111 1.000000
vt 0.568889 1.000000
vt 0.186667 1.000000
vt 0.000000 0.000000
vt 0.186667 0.000000
vt 0.497778 0.688889
vt 0.560000 0.888889
vt 0.497778 0.888889
vt 0.800000 0.697778
vt 0.684445 0.497778
vt 0.800000 0.497778
vt 0.631111 -0.000000
vt 0.684445 0.711111
vt 0.631111 0.711111
vt 0.880000 0.711111
vt 0.835556 -0.000000
vt 0.880000 -0.000000
vt 0.924445 0.711111
vt 0.880000 -0.000000
vt 0.924445 -0.000000
vt 0.835556 0.697778
vt 0.764445 0.822222
vt 0.764445 0.697778
vt 0.346667 0.955556
vt 0.417778 0.688889
vt 0.417778 0.955556
vt 0.684445 0.497778
vt 0.808889 0.231111
vt 0.808889 0.497778
vt 0.417778 0.000000
vt 0.568889 0.688889
vt 0.417778 0.688889
vt 0.417778 0.688889
vt 0.186667 0.000000
vt 0.417778 0.000000
vt 0.684445 0.231111
vt 0.835556 0.000000
vt 0.835556 0.231111
vt 0.915556 0.711111
vt 0.835556 0.871111
vt 0.835556 0.711111
vt 0.417778 0.857778
vt 0.497778 0.688889
vt 0.497778 0.857778
vt 0.186667 0.857778
vt 0.346667 0.688889
vt 0.346667 0.857778
vt 0.684445 0.866667
vt 0.764445 0.697778
vt 0.764445 0.866667
vt 0.631111 -0.000000
vt 0.000000 1.000000
vt 0.560000 0.688889
vt 0.684445 0.697778
vt 0.684445 -0.000000
vt 0.835556 0.711111
vt 0.880000 0.711111
vt 0.835556 0.822222
vt 0.346667 0.688889
vt 0.568889 0.000000
vt 0.186667 0.688889
vt 0.684445 0.000000
vt 0.915556 0.871111
vt 0.417778 0.688889
vt 0.186667 0.688889
vt 0.684445 0.697778
s 0
f 2/1/1 4/1/1 1/1/1
f 6/2/1 8/3/1 5/4/1
f 2/5/2 5/6/2 1/7/2
f 3/1/3 6/1/3 2/1/3
f 4/1/4 7/1/4 3/1/4
f 1/1/5 8/1/5 4/1/5
f 10/1/1 12/1/1 9/1/1
f 14/8/1 16/9/1 13/10/1
f 10/11/2 13/12/2 9/13/2
f 11/1/3 14/1/3 10/1/3
f 12/1/4 15/1/4 11/1/4
f 9/1/5 16/1/5 12/1/5
f 18/1/1 20/1/1 17/1/1
f 22/14/1 24/15/1 21/16/1
f 18/17/2 21/18/2 17/19/2
f 19/1/3 22/1/3 18/1/3
f 20/20/4 23/21/4 19/22/4
f 17/1/5 24/1/5 20/1/5
f 26/1/1 28/1/1 25/1/1
f 30/23/1 32/24/1 29/25/1
f 26/26/2 29/27/2 25/28/2
f 27/29/3 30/30/3 26/31/3
f 28/1/4 31/1/4 27/1/4
f 25/1/5 32/1/5 28/1/5
f 34/1/1 36/1/1 33/1/1
f 38/32/1 40/33/1 37/34/1
f 34/35/2 37/36/2 33/37/2
f 35/38/3 38/39/3 34/40/3
f 36/1/4 39/1/4 35/1/4
f 33/1/5 40/1/5 36/1/5
f 42/1/1 44/1/1 41/1/1
f 46/41/1 48/42/1 45/43/1
f 42/44/2 45/45/2 41/46/2
f 43/47/3 46/48/3 42/49/3
f 44/50/4 47/51/4 43/52/4
f 41/1/5 48/1/5 44/1/5
f 2/1/1 3/1/1 4/1/1
f 6/2/1 7/53/1 8/3/1
f 2/5/2 6/54/2 5/6/2
f 3/1/3 7/1/3 6/1/3
f 4/1/4 8/1/4 7/1/4
f 1/1/5 5/1/5 8/1/5
f 10/1/1 11/1/1 12/1/1
f 14/8/1 15/55/1 16/9/1
f 10/11/2 14/56/2 13/12/2
f 11/1/3 15/1/3 14/1/3
f 12/1/4 16/1/4 15/1/4
f 9/1/5 13/1/5 16/1/5
f 18/1/1 19/1/1 20/1/1
f 22/14/1 23/57/1 24/15/1
f 18/17/2 22/58/2 21/18/2
f 19/1/3 23/1/3 22/1/3
f 20/20/4 24/59/4 23/21/4
f 17/1/5 21/1/5 24/1/5
f 26/1/1 27/1/1 28/1/1
f 30/23/1 31/60/1 32/24/1
f 26/26/2 30/61/2 29/27/2
f 27/29/3 31/38/3 30/30/3
f 28/1/4 32/1/4 31/1/4
f 25/1/5 29/1/5 32/1/5
f 34/1/1 35/1/1 36/1/1
f 38/32/1 39/62/1 40/33/1
f 34/35/2 38/63/2 37/36/2
f 35/38/3 39/64/3 38/39/3
f 36/1/4 40/1/4 39/1/4
f 33/1/5 37/1/5 40/1/5
f 42/1/1 43/1/1 44/1/1
f 46/41/1 47/65/1 48/42/1
f 42/44/2 46/66/2 45/45/2
f 43/47/3 47/67/3 46/48/3
f 44/50/4 48/68/4 47/51/4
f 41/1/5 45/1/5 48/1/5
