{
  "accessors": [
    {
      "bufferView": 3,
      "componentType": 5126,
      "count": 2797,
      "max": [
        119.22799682617188,
        196.51499938964844,
        23.85580062866211
      ],
      "min": [
        -119.22799682617188,
        -1.525879997643642e-05,
        -31.89590072631836
      ],
      "type": "VEC3"
    },
    {
      "bufferView": 3,
      "byteOffset": 33564,
      "componentType": 5126,
      "count": 2797,
      "max": [
        0.9998742938041687,
        0.9949118494987488,
        1.0
      ],
      "min": [
        -0.9999227523803711,
        -0.9994462728500366,
        -0.9972980618476868
      ],
      "type": "VEC3"
    },
    {
      "bufferView": 4,
      "componentType": 5126,
      "count": 2797,
      "max": [
        1.0,
        0.999913215637207,
        0.9999926686286926,
        1.0
      ],
      "min": [
        -0.999945342540741,
        -0.9999937415122986,
        -0.9999914765357971,
        -1.0
      ],
      "type": "VEC4"
    },
    {
      "bufferView": 2,
      "componentType": 5126,
      "count": 2797,
      "max": [
        0.990776002407074,
        0.9990019798278809
      ],
      "min": [
        0.0009897859999909997,
        0.0009980039903894067
      ],
      "type": "VEC2"
    },
    {
      "bufferView": 1,
      "componentType": 5125,
      "count": 10638,
      "type": "SCALAR"
    },
    {
      "bufferView": 5,
      "componentType": 5126,
      "count": 34,
      "max": [
        1.0,
        0.9562344551086426,
        0.4420347809791565,
        0.0,
        0.2447286993265152,
        1.0,
        0.9862388968467712,
        0.0,
        0.9908109903335571,
        0.9830976724624634,
        1.0,
        0.0,
        71.35865020751953,
        80.21176147460938,
        159.97396850585938,
        1.0
      ],
      "min": [
        -0.9999473690986633,
        -0.9562343955039978,
        -0.4642169773578644,
        0.0,
        -0.24761928617954254,
        -0.9954685568809509,
        -0.966069221496582,
        0.0,
        -0.9903568029403687,
        -0.13087913393974304,
        -0.4240419268608093,
        0.0,
        -66.86779022216797,
        -164.04466247558594,
        -7.1712260246276855,
        1.0
      ],
      "type": "MAT4"
    },
    {
      "bufferView": 0,
      "componentType": 5123,
      "count": 2797,
      "type": "VEC4"
    },
    {
      "bufferView": 4,
      "byteOffset": 44752,
      "componentType": 5126,
      "count": 2797,
      "max": [
        1.0,
        0.49923568964004517,
        0.31104472279548645,
        0.10674877464771271
      ],
      "min": [
        0.3468734323978424,
        0.0,
        0.0,
        0.0
      ],
      "type": "VEC4"
    },
    {
      "bufferView": 6,
      "componentType": 5126,
      "count": 143,
      "max": [
        5.099999904632568
      ],
      "min": [
        0.0
      ],
      "type": "SCALAR"
    },
    {
      "bufferView": 7,
      "componentType": 5126,
      "count": 143,
      "max": [
        3.552713678800501e-15,
        4.2344207763671875,
        1.9587087631225586
      ],
      "min": [
        -3.552713678800501e-15,
        4.2344207763671875,
        1.9587087631225586
      ],
      "type": "VEC3"
    },
    {
      "bufferView": 6,
      "byteOffset": 572,
      "componentType": 5126,
      "count": 154,
      "max": [
        5.099999904632568
      ],
      "min": [
        0.0
      ],
      "type": "SCALAR"
    },
    {
      "bufferView": 8,
      "componentType": 5126,
      "count": 154,
      "max": [
        0.025949055328965187,
        0.012577038258314133,
        -0.028245169669389725,
        0.999191164970398
      ],
      "min": [
        0.012941466644406319,
        0.005426281597465277,
        -0.05014924332499504,
        0.9986352324485779
      ],
      "type": "VEC4"
    },
    {
      "bufferView": 6,
      "byteOffset": 1188,
      "componentType": 5126,
      "count": 129,
      "max": [
        5.099999904632568
      ],
      "min": [
        0.0
      ],
      "type": "SCALAR"
    },
    {
      "bufferView": 7,
      "byteOffset": 1716,
      "componentType": 5126,
      "count": 129,
      "max": [
        3.552713678800501e-15,
        21.359663009643555,
        3.1104127629077993e-07
      ],
      "min": [
        -3.552713678800501e-15,
        21.359663009643555,
        3.1104127629077993e-07
      ],
      "type": "VEC3"
    },
    {
      "bufferView": 6,
      "byteOffset": 1704,
      "componentType": 5126,
      "count": 154,
      "max": [
        5.099999904632568
      ],
      "min": [
        0.0
      ],
      "type": "SCALAR"
    },
    {
      "bufferView": 8,
      "byteOffset": 2464,
      "componentType": 5126,
      "count": 154,
      "max": [
        0.0803106352686882,
        -0.0029584409203380346,
        0.001309809973463416,
        0.9972918629646301
      ],
      "min": [
        0.07216428220272064,
        -0.014885111711919308,
        -0.019691532477736473,
        0.9967113733291626
      ],
      "type": "VEC4"
    },
    {
      "bufferView": 6,
      "byteOffset": 2320,
      "componentType": 5126,
      "count": 154,
      "max": [
        5.099999904632568
      ],
      "min": [
        0.0
      ],
      "type": "SCALAR"
    },
    {
      "bufferView": 8,
      "byteOffset": 4928,
      "componentType": 5126,
      "count": 154,
      "max": [
        0.3546890914440155,
        -0.10512574017047882,
        0.015994185581803322,
        0.9561092853546143
      ],
      "min": [
        0.27349942922592163,
        -0.1290479600429535,
        0.0012912460369989276,
        0.9258976578712463
      ],
      "type": "VEC4"
    },
    {
      "bufferView": 6,
      "byteOffset": 2936,
      "componentType": 5126,
      "count": 152,
      "max": [
        5.099999904632568
      ],
      "min": [
        0.0
      ],
      "type": "SCALAR"
    },
    {
      "bufferView": 7,
      "byteOffset": 3264,
      "componentType": 5126,
      "count": 152,
      "max": [
        -2.0042131509967476e-08,
        3.265080213546753,
        6.610103753246221e-08
      ],
      "min": [
        -2.004214394446535e-08,
        3.265080213546753,
        6.610100911075278e-08
      ],
      "type": "VEC3"
    },
    {
      "bufferView": 6,
      "byteOffset": 3544,
      "componentType": 5126,
      "count": 154,
      "max": [
        5.099999904632568
      ],
      "min": [
        0.0
      ],
      "type": "SCALAR"
    },
    {
      "bufferView": 8,
      "byteOffset": 7392,
      "componentType": 5126,
      "count": 154,
      "max": [
        0.23191331326961517,
        -0.045176975429058075,
        0.18392209708690643,
        0.9728788733482361
      ],
      "min": [
        0.14786164462566376,
        -0.056981366127729416,
        0.17205356061458588,
        0.953489363193512
      ],
      "type": "VEC4"
    },
    {
      "bufferView": 6,
      "byteOffset": 4160,
      "componentType": 5126,
      "count": 152,
      "max": [
        5.099999904632568
      ],
      "min": [
        0.0
      ],
      "type": "SCALAR"
    },
    {
      "bufferView": 7,
      "byteOffset": 5088,
      "componentType": 5126,
      "count": 152,
      "max": [
        4.928823926775294e-08,
        6.328143119812012,
        3.1335659400610893e-08
      ],
      "min": [
        4.928822505689823e-08,
        6.328143119812012,
        3.133563097890146e-08
      ],
      "type": "VEC3"
    },
    {
      "bufferView": 6,
      "byteOffset": 4768,
      "componentType": 5126,
      "count": 154,
      "max": [
        5.099999904632568
      ],
      "min": [
        0.0
      ],
      "type": "SCALAR"
    },
    {
      "bufferView": 8,
      "byteOffset": 9856,
      "componentType": 5126,
      "count": 154,
      "max": [
        0.16457748413085938,
        0.02593042142689228,
        -0.0020238342694938183,
        0.9965863227844238
      ],
      "min": [
        0.07751009613275528,
        0.023929903283715248,
        -0.011700126342475414,
        0.9860715270042419
      ],
      "type": "VEC4"
    },
    {
      "bufferView": 6,
      "byteOffset": 5384,
      "componentType": 5126,
      "count": 147,
      "max": [
        5.099999904632568
      ],
      "min": [
        0.0
      ],
      "type": "SCALAR"
    },
    {
      "bufferView": 7,
      "byteOffset": 6912,
      "componentType": 5126,
      "count": 147,
      "max": [
        -2.571030108811101e-07,
        43.13104248046875,
        7.856055361799008e-08
      ],
      "min": [
        -2.571030393028195e-07,
        43.13104248046875,
        7.856051809085329e-08
      ],
      "type": "VEC3"
    },
    {
      "bufferView": 6,
      "byteOffset": 5972,
      "componentType": 5126,
      "count": 154,
      "max": [
        5.099999904632568
      ],
      "min": [
        0.0
      ],
      "type": "SCALAR"
    },
    {
      "bufferView": 8,
      "byteOffset": 12320,
      "componentType": 5126,
      "count": 154,
      "max": [
        -0.017329368740320206,
        0.026571087539196014,
        0.036544956266880035,
        0.9995693564414978
      ],
      "min": [
        -0.04194904491305351,
        -0.067003533244133,
        -0.031801387667655945,
        0.9968947172164917
      ],
      "type": "VEC4"
    },
    {
      "bufferView": 6,
      "byteOffset": 6588,
      "componentType": 5126,
      "count": 11,
      "max": [
        5.099999904632568
      ],
      "min": [
        0.0
      ],
      "type": "SCALAR"
    },
    {
      "bufferView": 7,
      "byteOffset": 8676,
      "componentType": 5126,
      "count": 11,
      "max": [
        1.83450751478631e-07,
        41.016746520996094,
        9.535656317893881e-07
      ],
      "min": [
        1.8345073726777628e-07,
        41.016746520996094,
        9.535656317893881e-07
      ],
      "type": "VEC3"
    },
    {
      "bufferView": 6,
      "byteOffset": 6632,
      "componentType": 5126,
      "count": 154,
      "max": [
        5.099999904632568
      ],
      "min": [
        0.0
      ],
      "type": "SCALAR"
    },
    {
      "bufferView": 8,
      "byteOffset": 14784,
      "componentType": 5126,
      "count": 154,
      "max": [
        0.024982215836644173,
        0.031139912083745003,
        0.1765046864748001,
        0.9890876412391663
      ],
      "min": [
        0.01613813079893589,
        0.006665096152573824,
        0.1456645280122757,
        0.9839590787887573
      ],
      "type": "VEC4"
    },
    {
      "bufferView": 6,
      "byteOffset": 7248,
      "componentType": 5126,
      "count": 154,
      "max": [
        5.099999904632568
      ],
      "min": [
        0.0
      ],
      "type": "SCALAR"
    },
    {
      "bufferView": 7,
      "byteOffset": 8808,
      "componentType": 5126,
      "count": 154,
      "max": [
        -1.504058921852902e-08,
        18.615123748779297,
        -8.550546226615552e-08
      ],
      "min": [
        -1.504059632395638e-08,
        18.615123748779297,
        -8.550557595299324e-08
      ],
      "type": "VEC3"
    },
    {
      "bufferView": 6,
      "byteOffset": 7864,
      "componentType": 5126,
      "count": 154,
      "max": [
        5.099999904632568
      ],
      "min": [
        0.0
      ],
      "type": "SCALAR"
    },
    {
      "bufferView": 8,
      "byteOffset": 17248,
      "componentType": 5126,
      "count": 154,
      "max": [
        0.5005196928977966,
        0.1781603991985321,
        0.07487910985946655,
        0.8515877723693848
      ],
      "min": [
        0.4962799549102783,
        0.15568503737449646,
        0.059317465871572495,
        0.8456274271011353
      ],
      "type": "VEC4"
    },
    {
      "bufferView": 6,
      "byteOffset": 8480,
      "componentType": 5126,
      "count": 154,
      "max": [
        5.099999904632568
      ],
      "min": [
        0.0
      ],
      "type": "SCALAR"
    },
    {
      "bufferView": 8,
      "byteOffset": 19712,
      "componentType": 5126,
      "count": 154,
      "max": [
        0.5727652311325073,
        0.43896639347076416,
        0.5733956694602966,
        0.4139586389064789
      ],
      "min": [
        -0.5635383129119873,
        -0.4395654797554016,
        -0.5638214945793152,
        -0.4232112765312195
      ],
      "type": "VEC4"
    },
    {
      "bufferView": 6,
      "byteOffset": 9096,
      "componentType": 5126,
      "count": 154,
      "max": [
        5.099999904632568
      ],
      "min": [
        0.0
      ],
      "type": "SCALAR"
    },
    {
      "bufferView": 8,
      "byteOffset": 22176,
      "componentType": 5126,
      "count": 154,
      "max": [
        0.28606441617012024,
        0.11539618670940399,
        -0.06392542272806168,
        0.962520956993103
      ],
      "min": [
        0.2436733990907669,
        0.10041581094264984,
        -0.07087083905935287,
        0.948593020439148
      ],
      "type": "VEC4"
    },
    {
      "bufferView": 6,
      "byteOffset": 9712,
      "componentType": 5126,
      "count": 26,
      "max": [
        5.099999904632568
      ],
      "min": [
        0.0
      ],
      "type": "SCALAR"
    },
    {
      "bufferView": 7,
      "byteOffset": 10656,
      "componentType": 5126,
      "count": 26,
      "max": [
        1.10112694073905e-07,
        3.236464738845825,
        1.964226186146334e-07
      ],
      "min": [
        1.10112694073905e-07,
        3.236464738845825,
        1.9642259019292396e-07
      ],
      "type": "VEC3"
    },
    {
      "bufferView": 6,
      "byteOffset": 9816,
      "componentType": 5126,
      "count": 154,
      "max": [
        5.099999904632568
      ],
      "min": [
        0.0
      ],
      "type": "SCALAR"
    },
    {
      "bufferView": 8,
      "byteOffset": 24640,
      "componentType": 5126,
      "count": 154,
      "max": [
        0.19701391458511353,
        0.05024145543575287,
        -0.17035038769245148,
        0.9730865359306335
      ],
      "min": [
        0.1488686203956604,
        0.0438343808054924,
        -0.1765875220298767,
        0.9630579948425293
      ],
      "type": "VEC4"
    },
    {
      "bufferView": 6,
      "byteOffset": 10432,
      "componentType": 5126,
      "count": 154,
      "max": [
        5.099999904632568
      ],
      "min": [
        0.0
      ],
      "type": "SCALAR"
    },
    {
      "bufferView": 7,
      "byteOffset": 10968,
      "componentType": 5126,
      "count": 154,
      "max": [
        1.0377892323276683e-08,
        6.257936477661133,
        -5.34758726189466e-09
      ],
      "min": [
        1.0377886994206165e-08,
        6.257936477661133,
        -5.34761568360409e-09
      ],
      "type": "VEC3"
    },
    {
      "bufferView": 6,
      "byteOffset": 11048,
      "componentType": 5126,
      "count": 154,
      "max": [
        5.099999904632568
      ],
      "min": [
        0.0
      ],
      "type": "SCALAR"
    },
    {
      "bufferView": 8,
      "byteOffset": 27104,
      "componentType": 5126,
      "count": 154,
      "max": [
        0.13871559500694275,
        -0.025105876848101616,
        0.009416608139872551,
        0.9966443181037903
      ],
      "min": [
        0.07733573764562607,
        -0.02741328813135624,
        -0.0014124235603958368,
        0.9899517893791199
      ],
      "type": "VEC4"
    },
    {
      "bufferView": 6,
      "byteOffset": 11664,
      "componentType": 5126,
      "count": 115,
      "max": [
        5.099999904632568
      ],
      "min": [
        0.0
      ],
      "type": "SCALAR"
    },
    {
      "bufferView": 7,
      "byteOffset": 12816,
      "componentType": 5126,
      "count": 115,
      "max": [
        2.2459364856786124e-07,
        43.142921447753906,
        1.751214853129568e-07
      ],
      "min": [
        2.2459363435700652e-07,
        43.142921447753906,
        1.7512145689124736e-07
      ],
      "type": "VEC3"
    },
    {
      "bufferView": 6,
      "byteOffset": 12124,
      "componentType": 5126,
      "count": 154,
      "max": [
        5.099999904632568
      ],
      "min": [
        0.0
      ],
      "type": "SCALAR"
    },
    {
      "bufferView": 8,
      "byteOffset": 29568,
      "componentType": 5126,
      "count": 154,
      "max": [
        0.05884939432144165,
        -0.15282313525676727,
        0.1194886863231659,
        0.9860544800758362
      ],
      "min": [
        0.05492085590958595,
        -0.1814328134059906,
        0.025094732642173767,
        0.9760635495185852
      ],
      "type": "VEC4"
    },
    {
      "bufferView": 6,
      "byteOffset": 12740,
      "componentType": 5126,
      "count": 154,
      "max": [
        5.099999904632568
      ],
      "min": [
        0.0
      ],
      "type": "SCALAR"
    },
    {
      "bufferView": 8,
      "byteOffset": 32032,
      "componentType": 5126,
      "count": 154,
      "max": [
        0.03454073518514633,
        0.038243431597948074,
        -0.16265001893043518,
        0.9862481355667114
      ],
      "min": [
        0.025853760540485382,
        0.013825317844748497,
        -0.18111616373062134,
        0.9822682738304138
      ],
      "type": "VEC4"
    },
    {
      "bufferView": 6,
      "byteOffset": 13356,
      "componentType": 5126,
      "count": 154,
      "max": [
        5.099999904632568
      ],
      "min": [
        0.0
      ],
      "type": "SCALAR"
    },
    {
      "bufferView": 7,
      "byteOffset": 14196,
      "componentType": 5126,
      "count": 154,
      "max": [
        8.848859422982969e-09,
        18.615123748779297,
        -8.636067150291638e-08
      ],
      "min": [
        8.848850541198772e-09,
        18.615123748779297,
        -8.63607851897541e-08
      ],
      "type": "VEC3"
    },
    {
      "bufferView": 6,
      "byteOffset": 13972,
      "componentType": 5126,
      "count": 154,
      "max": [
        5.099999904632568
      ],
      "min": [
        0.0
      ],
      "type": "SCALAR"
    },
    {
      "bufferView": 8,
      "byteOffset": 34496,
      "componentType": 5126,
      "count": 154,
      "max": [
        0.4922638237476349,
        0.07738028466701508,
        0.12441236525774002,
        0.8659895658493042
      ],
      "min": [
        0.48761704564094543,
        -0.017347130924463272,
        0.08423107117414474,
        0.862572193145752
      ],
      "type": "VEC4"
    },
    {
      "bufferView": 6,
      "byteOffset": 14588,
      "componentType": 5126,
      "count": 154,
      "max": [
        5.099999904632568
      ],
      "min": [
        0.0
      ],
      "type": "SCALAR"
    },
    {
      "bufferView": 8,
      "byteOffset": 36960,
      "componentType": 5126,
      "count": 154,
      "max": [
        0.5966552495956421,
        -0.43587854504585266,
        0.5717610120773315,
        0.4263332784175873
      ],
      "min": [
        0.5489494204521179,
        -0.4452992081642151,
        0.5360450744628906,
        0.3979555666446686
      ],
      "type": "VEC4"
    },
    {
      "bufferView": 6,
      "byteOffset": 15204,
      "componentType": 5126,
      "count": 144,
      "max": [
        5.099999904632568
      ],
      "min": [
        0.0
      ],
      "type": "SCALAR"
    },
    {
      "bufferView": 7,
      "byteOffset": 16044,
      "componentType": 5126,
      "count": 144,
      "max": [
        4.440892098500626e-16,
        18.986366271972656,
        -4.457114854972133e-08
      ],
      "min": [
        -8.881784197001252e-16,
        18.986366271972656,
        -4.4571155655148686e-08
      ],
      "type": "VEC3"
    },
    {
      "bufferView": 6,
      "byteOffset": 15780,
      "componentType": 5126,
      "count": 154,
      "max": [
        5.099999904632568
      ],
      "min": [
        0.0
      ],
      "type": "SCALAR"
    },
    {
      "bufferView": 8,
      "byteOffset": 39424,
      "componentType": 5126,
      "count": 154,
      "max": [
        0.016622716560959816,
        0.003995967097580433,
        0.025874612852931023,
        0.9997252225875854
      ],
      "min": [
        0.0071102711372077465,
        -0.0007075491012074053,
        0.022306587547063828,
        0.999519407749176
      ],
      "type": "VEC4"
    },
    {
      "bufferView": 6,
      "byteOffset": 16396,
      "componentType": 5126,
      "count": 151,
      "max": [
        5.099999904632568
      ],
      "min": [
        0.0
      ],
      "type": "SCALAR"
    },
    {
      "bufferView": 7,
      "byteOffset": 17772,
      "componentType": 5126,
      "count": 151,
      "max": [
        1.3322676295501878e-15,
        16.613061904907227,
        3.760829514476427e-08
      ],
      "min": [
        -1.3322676295501878e-15,
        16.613061904907227,
        3.760828803933691e-08
      ],
      "type": "VEC3"
    },
    {
      "bufferView": 6,
      "byteOffset": 17000,
      "componentType": 5126,
      "count": 154,
      "max": [
        5.099999904632568
      ],
      "min": [
        0.0
      ],
      "type": "SCALAR"
    },
    {
      "bufferView": 8,
      "byteOffset": 41888,
      "componentType": 5126,
      "count": 154,
      "max": [
        0.018500223755836487,
        -0.003081841627135873,
        0.022943392395973206,
        0.9997060298919678
      ],
      "min": [
        0.00736762722954154,
        -0.004621440079063177,
        0.02242448180913925,
        0.9995677471160889
      ],
      "type": "VEC4"
    },
    {
      "bufferView": 6,
      "byteOffset": 17616,
      "componentType": 5126,
      "count": 141,
      "max": [
        5.099999904632568
      ],
      "min": [
        0.0
      ],
      "type": "SCALAR"
    },
    {
      "bufferView": 7,
      "byteOffset": 19584,
      "componentType": 5126,
      "count": 141,
      "max": [
        8.881784197001252e-16,
        14.117294311523438,
        -1.8636884689331055
      ],
      "min": [
        -1.7763568394002505e-15,
        14.117294311523438,
        -1.8636884689331055
      ],
      "type": "VEC3"
    },
    {
      "bufferView": 6,
      "byteOffset": 18180,
      "componentType": 5126,
      "count": 154,
      "max": [
        5.099999904632568
      ],
      "min": [
        0.0
      ],
      "type": "SCALAR"
    },
    {
      "bufferView": 8,
      "byteOffset": 44352,
      "componentType": 5126,
      "count": 154,
      "max": [
        -0.052014175802469254,
        -0.012332849204540253,
        0.003786935005337,
        0.9985589385032654
      ],
      "min": [
        -0.060756489634513855,
        -0.013190999627113342,
        0.0013536352198570967,
        0.9980679750442505
      ],
      "type": "VEC4"
    },
    {
      "bufferView": 6,
      "byteOffset": 18796,
      "componentType": 5126,
      "count": 127,
      "max": [
        5.099999904632568
      ],
      "min": [
        0.0
      ],
      "type": "SCALAR"
    },
    {
      "bufferView": 7,
      "byteOffset": 21276,
      "componentType": 5126,
      "count": 127,
      "max": [
        -3.257237679576974e-08,
        19.323890686035156,
        -3.128031664800801e-07
      ],
      "min": [
        -3.257239100662446e-08,
        19.323890686035156,
        -3.128031664800801e-07
      ],
      "type": "VEC3"
    },
    {
      "bufferView": 6,
      "byteOffset": 19304,
      "componentType": 5126,
      "count": 154,
      "max": [
        5.099999904632568
      ],
      "min": [
        0.0
      ],
      "type": "SCALAR"
    },
    {
      "bufferView": 8,
      "byteOffset": 46816,
      "componentType": 5126,
      "count": 154,
      "max": [
        0.39066827297210693,
        -0.11544973403215408,
        0.0467197522521019,
        0.9166451692581177
      ],
      "min": [
        0.3798028528690338,
        -0.11616848409175873,
        0.04541910067200661,
        0.9120418429374695
      ],
      "type": "VEC4"
    },
    {
      "bufferView": 6,
      "byteOffset": 19920,
      "componentType": 5126,
      "count": 150,
      "max": [
        5.099999904632568
      ],
      "min": [
        0.0
      ],
      "type": "SCALAR"
    },
    {
      "bufferView": 7,
      "byteOffset": 22800,
      "componentType": 5126,
      "count": 150,
      "max": [
        8.66836202817467e-09,
        31.179420471191406,
        7.826522363529875e-08
      ],
      "min": [
        8.668347817319955e-09,
        31.179420471191406,
        7.82652165298714e-08
      ],
      "type": "VEC3"
    },
    {
      "bufferView": 6,
      "byteOffset": 20520,
      "componentType": 5126,
      "count": 154,
      "max": [
        5.099999904632568
      ],
      "min": [
        0.0
      ],
      "type": "SCALAR"
    },
    {
      "bufferView": 8,
      "byteOffset": 49280,
      "componentType": 5126,
      "count": 154,
      "max": [
        0.4914444386959076,
        -0.013301827013492584,
        -0.03574514389038086,
        0.8734956979751587
      ],
      "min": [
        0.48388776183128357,
        -0.043730899691581726,
        -0.055320896208286285,
        0.8690482974052429
      ],
      "type": "VEC4"
    },
    {
      "bufferView": 6,
      "byteOffset": 21136,
      "componentType": 5126,
      "count": 154,
      "max": [
        5.099999904632568
      ],
      "min": [
        0.0
      ],
      "type": "SCALAR"
    },
    {
      "bufferView": 7,
      "byteOffset": 24600,
      "componentType": 5126,
      "count": 154,
      "max": [
        -5.3390870391467615e-08,
        36.57169723510742,
        -4.996680047497648e-08
      ],
      "min": [
        -5.339088815503601e-08,
        36.57169723510742,
        -4.9966814685831196e-08
      ],
      "type": "VEC3"
    },
    {
      "bufferView": 6,
      "byteOffset": 21752,
      "componentType": 5126,
      "count": 154,
      "max": [
        5.099999904632568
      ],
      "min": [
        0.0
      ],
      "type": "SCALAR"
    },
    {
      "bufferView": 8,
      "byteOffset": 51744,
      "componentType": 5126,
      "count": 154,
      "max": [
        -0.2845972180366516,
        -0.09320740401744843,
        0.00046360548003576696,
        0.953833818435669
      ],
      "min": [
        -0.3045284152030945,
        -0.12546749413013458,
        -0.010876858606934547,
        0.9445523619651794
      ],
      "type": "VEC4"
    },
    {
      "bufferView": 6,
      "byteOffset": 22368,
      "componentType": 5126,
      "count": 154,
      "max": [
        5.099999904632568
      ],
      "min": [
        0.0
      ],
      "type": "SCALAR"
    },
    {
      "bufferView": 8,
      "byteOffset": 54208,
      "componentType": 5126,
      "count": 154,
      "max": [
        0.12304741144180298,
        0.1530076563358307,
        0.9743475317955017,
        -0.11086662858724594
      ],
      "min": [
        0.12204067409038544,
        0.15081731975078583,
        0.9736536145210266,
        -0.11901728063821793
      ],
      "type": "VEC4"
    },
    {
      "bufferView": 6,
      "byteOffset": 22984,
      "componentType": 5126,
      "count": 131,
      "max": [
        5.099999904632568
      ],
      "min": [
        0.0
      ],
      "type": "SCALAR"
    },
    {
      "bufferView": 7,
      "byteOffset": 26448,
      "componentType": 5126,
      "count": 131,
      "max": [
        6.641229788328928e-09,
        19.64697265625,
        -6.035145929672581e-07
      ],
      "min": [
        6.641222682901571e-09,
        19.64697265625,
        -6.035145929672581e-07
      ],
      "type": "VEC3"
    },
    {
      "bufferView": 6,
      "byteOffset": 23508,
      "componentType": 5126,
      "count": 154,
      "max": [
        5.099999904632568
      ],
      "min": [
        0.0
      ],
      "type": "SCALAR"
    },
    {
      "bufferView": 8,
      "byteOffset": 56672,
      "componentType": 5126,
      "count": 154,
      "max": [
        0.3734416961669922,
        0.11670082062482834,
        -0.0460362508893013,
        0.9210340976715088
      ],
      "min": [
        0.3687513768672943,
        0.11639301478862762,
        -0.04659740626811981,
        0.9191315770149231
      ],
      "type": "VEC4"
    },
    {
      "bufferView": 6,
      "byteOffset": 24124,
      "componentType": 5126,
      "count": 148,
      "max": [
        5.099999904632568
      ],
      "min": [
        0.0
      ],
      "type": "SCALAR"
    },
    {
      "bufferView": 7,
      "byteOffset": 28020,
      "componentType": 5126,
      "count": 148,
      "max": [
        -3.0419418095561923e-09,
        31.194047927856445,
        -1.9243610438479664e-07
      ],
      "min": [
        -3.0419506913403893e-09,
        31.194047927856445,
        -1.9243611859565135e-07
      ],
      "type": "VEC3"
    },
    {
      "bufferView": 6,
      "byteOffset": 24716,
      "componentType": 5126,
      "count": 154,
      "max": [
        5.099999904632568
      ],
      "min": [
        0.0
      ],
      "type": "SCALAR"
    },
    {
      "bufferView": 8,
      "byteOffset": 59136,
      "componentType": 5126,
      "count": 154,
      "max": [
        0.5548616051673889,
        -0.01065919827669859,
        -0.03377312049269676,
        0.8360591530799866
      ],
      "min": [
        0.5461902022361755,
        -0.03840409964323044,
        -0.05067151039838791,
        0.8303695917129517
      ],
      "type": "VEC4"
    },
    {
      "bufferView": 6,
      "byteOffset": 25332,
      "componentType": 5126,
      "count": 32,
      "max": [
        5.099999904632568
      ],
      "min": [
        0.0
      ],
      "type": "SCALAR"
    },
    {
      "bufferView": 7,
      "byteOffset": 29796,
      "componentType": 5126,
      "count": 32,
      "max": [
        1.6985923423362692e-07,
        36.56886291503906,
        5.094728194876552e-08
      ],
      "min": [
        1.698592200227722e-07,
        36.56886291503906,
        5.094727839605184e-08
      ],
      "type": "VEC3"
    },
    {
      "bufferView": 6,
      "byteOffset": 25460,
      "componentType": 5126,
      "count": 154,
      "max": [
        5.099999904632568
      ],
      "min": [
        0.0
      ],
      "type": "SCALAR"
    },
    {
      "bufferView": 8,
      "byteOffset": 61600,
      "componentType": 5126,
      "count": 154,
      "max": [
        -0.2225605696439743,
        0.05847606062889099,
        0.0613972544670105,
        0.9726466536521912
      ],
      "min": [
        -0.24151954054832458,
        0.025556107982993126,
        0.05379447340965271,
        0.9671443104743958
      ],
      "type": "VEC4"
    },
    {
      "bufferView": 6,
      "byteOffset": 26076,
      "componentType": 5126,
      "count": 154,
      "max": [
        5.099999904632568
      ],
      "min": [
        0.0
      ],
      "type": "SCALAR"
    },
    {
      "bufferView": 8,
      "byteOffset": 64064,
      "componentType": 5126,
      "count": 154,
      "max": [
        -0.03649452328681946,
        0.046994294971227646,
        0.9983185529708862,
        -0.0080266073346138
      ],
      "min": [
        -0.03811414912343025,
        0.042388029396533966,
        0.998161256313324,
        -0.012162505649030209
      ],
      "type": "VEC4"
    },
    {
      "bufferView": 6,
      "byteOffset": 26692,
      "componentType": 5126,
      "count": 154,
      "max": [
        5.099999904632568
      ],
      "min": [
        0.0
      ],
      "type": "SCALAR"
    },
    {
      "bufferView": 7,
      "byteOffset": 30180,
      "componentType": 5126,
      "count": 154,
      "max": [
        0.38818392157554626,
        86.86363983154297,
        -2.7995657920837402
      ],
      "min": [
        0.22564482688903809,
        86.45259857177734,
        -3.1838674545288086
      ],
      "type": "VEC3"
    },
    {
      "bufferView": 6,
      "byteOffset": 27308,
      "componentType": 5126,
      "count": 154,
      "max": [
        5.099999904632568
      ],
      "min": [
        0.0
      ],
      "type": "SCALAR"
    },
    {
      "bufferView": 8,
      "byteOffset": 66528,
      "componentType": 5126,
      "count": 154,
      "max": [
        -0.0024196801241487265,
        0.0005756873870268464,
        -0.022104481235146523,
        0.9997527599334717
      ],
      "min": [
        -0.01593751087784767,
        -7.335495411098236e-06,
        -0.025357350707054138,
        0.9995512366294861
      ],
      "type": "VEC4"
    }
  ],
  "animations": [
    {
      "channels": [
        {
          "sampler": 0,
          "target": {
            "node": 13,
            "path": "translation"
          }
        },
        {
          "sampler": 1,
          "target": {
            "node": 13,
            "path": "rotation"
          }
        },
        {
          "sampler": 2,
          "target": {
            "node": 12,
            "path": "translation"
          }
        },
        {
          "sampler": 3,
          "target": {
            "node": 12,
            "path": "rotation"
          }
        },
        {
          "sampler": 4,
          "target": {
            "node": 21,
            "path": "rotation"
          }
        },
        {
          "sampler": 5,
          "target": {
            "node": 20,
            "path": "translation"
          }
        },
        {
          "sampler": 6,
          "target": {
            "node": 20,
            "path": "rotation"
          }
        },
        {
          "sampler": 7,
          "target": {
            "node": 19,
            "path": "translation"
          }
        },
        {
          "sampler": 8,
          "target": {
            "node": 19,
            "path": "rotation"
          }
        },
        {
          "sampler": 9,
          "target": {
            "node": 18,
            "path": "translation"
          }
        },
        {
          "sampler": 10,
          "target": {
            "node": 18,
            "path": "rotation"
          }
        },
        {
          "sampler": 11,
          "target": {
            "node": 17,
            "path": "translation"
          }
        },
        {
          "sampler": 12,
          "target": {
            "node": 17,
            "path": "rotation"
          }
        },
        {
          "sampler": 13,
          "target": {
            "node": 16,
            "path": "translation"
          }
        },
        {
          "sampler": 14,
          "target": {
            "node": 16,
            "path": "rotation"
          }
        },
        {
          "sampler": 15,
          "target": {
            "node": 15,
            "path": "rotation"
          }
        },
        {
          "sampler": 16,
          "target": {
            "node": 29,
            "path": "rotation"
          }
        },
        {
          "sampler": 17,
          "target": {
            "node": 28,
            "path": "translation"
          }
        },
        {
          "sampler": 18,
          "target": {
            "node": 28,
            "path": "rotation"
          }
        },
        {
          "sampler": 19,
          "target": {
            "node": 27,
            "path": "translation"
          }
        },
        {
          "sampler": 20,
          "target": {
            "node": 27,
            "path": "rotation"
          }
        },
        {
          "sampler": 21,
          "target": {
            "node": 26,
            "path": "translation"
          }
        },
        {
          "sampler": 22,
          "target": {
            "node": 26,
            "path": "rotation"
          }
        },
        {
          "sampler": 23,
          "target": {
            "node": 25,
            "path": "rotation"
          }
        },
        {
          "sampler": 24,
          "target": {
            "node": 24,
            "path": "translation"
          }
        },
        {
          "sampler": 25,
          "target": {
            "node": 24,
            "path": "rotation"
          }
        },
        {
          "sampler": 26,
          "target": {
            "node": 23,
            "path": "rotation"
          }
        },
        {
          "sampler": 27,
          "target": {
            "node": 11,
            "path": "translation"
          }
        },
        {
          "sampler": 28,
          "target": {
            "node": 11,
            "path": "rotation"
          }
        },
        {
          "sampler": 29,
          "target": {
            "node": 10,
            "path": "translation"
          }
        },
        {
          "sampler": 30,
          "target": {
            "node": 10,
            "path": "rotation"
          }
        },
        {
          "sampler": 31,
          "target": {
            "node": 9,
            "path": "translation"
          }
        },
        {
          "sampler": 32,
          "target": {
            "node": 9,
            "path": "rotation"
          }
        },
        {
          "sampler": 33,
          "target": {
            "node": 34,
            "path": "translation"
          }
        },
        {
          "sampler": 34,
          "target": {
            "node": 34,
            "path": "rotation"
          }
        },
        {
          "sampler": 35,
          "target": {
            "node": 33,
            "path": "translation"
          }
        },
        {
          "sampler": 36,
          "target": {
            "node": 33,
            "path": "rotation"
          }
        },
        {
          "sampler": 37,
          "target": {
            "node": 32,
            "path": "translation"
          }
        },
        {
          "sampler": 38,
          "target": {
            "node": 32,
            "path": "rotation"
          }
        },
        {
          "sampler": 39,
          "target": {
            "node": 31,
            "path": "rotation"
          }
        },
        {
          "sampler": 40,
          "target": {
            "node": 39,
            "path": "translation"
          }
        },
        {
          "sampler": 41,
          "target": {
            "node": 39,
            "path": "rotation"
          }
        },
        {
          "sampler": 42,
          "target": {
            "node": 38,
            "path": "translation"
          }
        },
        {
          "sampler": 43,
          "target": {
            "node": 38,
            "path": "rotation"
          }
        },
        {
          "sampler": 44,
          "target": {
            "node": 37,
            "path": "translation"
          }
        },
        {
          "sampler": 45,
          "target": {
            "node": 37,
            "path": "rotation"
          }
        },
        {
          "sampler": 46,
          "target": {
            "node": 36,
            "path": "rotation"
          }
        },
        {
          "sampler": 47,
          "target": {
            "node": 8,
            "path": "translation"
          }
        },
        {
          "sampler": 48,
          "target": {
            "node": 8,
            "path": "rotation"
          }
        }
      ],
      "name": "mixamo.com",
      "samplers": [
        {
          "input": 8,
          "interpolation": "LINEAR",
          "output": 9
        },
        {
          "input": 10,
          "interpolation": "LINEAR",
          "output": 11
        },
        {
          "input": 12,
          "interpolation": "LINEAR",
          "output": 13
        },
        {
          "input": 14,
          "interpolation": "LINEAR",
          "output": 15
        },
        {
          "input": 16,
          "interpolation": "LINEAR",
          "output": 17
        },
        {
          "input": 18,
          "interpolation": "LINEAR",
          "output": 19
        },
        {
          "input": 20,
          "interpolation": "LINEAR",
          "output": 21
        },
        {
          "input": 22,
          "interpolation": "LINEAR",
          "output": 23
        },
        {
          "input": 24,
          "interpolation": "LINEAR",
          "output": 25
        },
        {
          "input": 26,
          "interpolation": "LINEAR",
          "output": 27
        },
        {
          "input": 28,
          "interpolation": "LINEAR",
          "output": 29
        },
        {
          "input": 30,
          "interpolation": "LINEAR",
          "output": 31
        },
        {
          "input": 32,
          "interpolation": "LINEAR",
          "output": 33
        },
        {
          "input": 34,
          "interpolation": "LINEAR",
          "output": 35
        },
        {
          "input": 36,
          "interpolation": "LINEAR",
          "output": 37
        },
        {
          "input": 38,
          "interpolation": "LINEAR",
          "output": 39
        },
        {
          "input": 40,
          "interpolation": "LINEAR",
          "output": 41
        },
        {
          "input": 42,
          "interpolation": "LINEAR",
          "output": 43
        },
        {
          "input": 44,
          "interpolation": "LINEAR",
          "output": 45
        },
        {
          "input": 46,
          "interpolation": "LINEAR",
          "output": 47
        },
        {
          "input": 48,
          "interpolation": "LINEAR",
          "output": 49
        },
        {
          "input": 50,
          "interpolation": "LINEAR",
          "output": 51
        },
        {
          "input": 52,
          "interpolation": "LINEAR",
          "output": 53
        },
        {
          "input": 54,
          "interpolation": "LINEAR",
          "output": 55
        },
        {
          "input": 56,
          "interpolation": "LINEAR",
          "output": 57
        },
        {
          "input": 58,
          "interpolation": "LINEAR",
          "output": 59
        },
        {
          "input": 60,
          "interpolation": "LINEAR",
          "output": 61
        },
        {
          "input": 62,
          "interpolation": "LINEAR",
          "output": 63
        },
        {
          "input": 64,
          "interpolation": "LINEAR",
          "output": 65
        },
        {
          "input": 66,
          "interpolation": "LINEAR",
          "output": 67
        },
        {
          "input": 68,
          "interpolation": "LINEAR",
          "output": 69
        },
        {
          "input": 70,
          "interpolation": "LINEAR",
          "output": 71
        },
        {
          "input": 72,
          "interpolation": "LINEAR",
          "output": 73
        },
        {
          "input": 74,
          "interpolation": "LINEAR",
          "output": 75
        },
        {
          "input": 76,
          "interpolation": "LINEAR",
          "output": 77
        },
        {
          "input": 78,
          "interpolation": "LINEAR",
          "output": 79
        },
        {
          "input": 80,
          "interpolation": "LINEAR",
          "output": 81
        },
        {
          "input": 82,
          "interpolation": "LINEAR",
          "output": 83
        },
        {
          "input": 84,
          "interpolation": "LINEAR",
          "output": 85
        },
        {
          "input": 86,
          "interpolation": "LINEAR",
          "output": 87
        },
        {
          "input": 88,
          "interpolation": "LINEAR",
          "output": 89
        },
        {
          "input": 90,
          "interpolation": "LINEAR",
          "output": 91
        },
        {
          "input": 92,
          "interpolation": "LINEAR",
          "output": 93
        },
        {
          "input": 94,
          "interpolation": "LINEAR",
          "output": 95
        },
        {
          "input": 96,
          "interpolation": "LINEAR",
          "output": 97
        },
        {
          "input": 98,
          "interpolation": "LINEAR",
          "output": 99
        },
        {
          "input": 100,
          "interpolation": "LINEAR",
          "output": 101
        },
        {
          "input": 102,
          "interpolation": "LINEAR",
          "output": 103
        },
        {
          "input": 104,
          "interpolation": "LINEAR",
          "output": 105
        }
      ]
    }
  ],
  "asset": {
    "extras": {
      "author": "VanadiumStudio (https://sketchfab.com/vjprojects2020)",
      "license": "CC-BY-4.0 (http://creativecommons.org/licenses/by/4.0/)",
      "source": "https://sketchfab.com/3d-models/apeman-futurastargate-5c334a1f9d8e4f87b62be7e62e71606e",
      "title": "APEMAN FUTURA(STARGATE)"
    },
    "generator": "Sketchfab-12.66.0",
    "version": "2.0"
  },
  "bufferViews": [
    {
      "buffer": 0,
      "byteLength": 22376,
      "byteStride": 8,
      "name": "shortBufferViews",
      "target": 34962
    },
    {
      "buffer": 0,
      "byteLength": 42552,
      "byteOffset": 22376,
      "name": "floatBufferViews",
      "target": 34963
    },
    {
      "buffer": 0,
      "byteLength": 22376,
      "byteOffset": 64928,
      "byteStride": 8,
      "name": "floatBufferViews",
      "target": 34962
    },
    {
      "buffer": 0,
      "byteLength": 67128,
      "byteOffset": 87304,
      "byteStride": 12,
      "name": "floatBufferViews",
      "target": 34962
    },
    {
      "buffer": 0,
      "byteLength": 89504,
      "byteOffset": 154432,
      "byteStride": 16,
      "name": "floatBufferViews",
      "target": 34962
    },
    {
      "buffer": 0,
      "byteLength": 2176,
      "byteOffset": 243936,
      "name": "floatBufferViews"
    },
    {
      "buffer": 0,
      "byteLength": 27924,
      "byteOffset": 246112,
      "name": "floatBufferViews"
    },
    {
      "buffer": 0,
      "byteLength": 32028,
      "byteOffset": 274036,
      "byteStride": 12,
      "name": "floatBufferViews"
    },
    {
      "buffer": 0,
      "byteLength": 68992,
      "byteOffset": 306064,
      "byteStride": 16,
      "name": "floatBufferViews"
    }
  ],
  "buffers": [
    {
      "byteLength": 375056,
      "uri": "scene.bin"
    }
  ],
  "images": [
    {
      "uri": "textures/Scene_-_Root_baseColor.jpeg"
    },
    {
      "uri": "textures/Scene_-_Root_metallicRoughness.png"
    },
    {
      "uri": "textures/Scene_-_Root_emissive.jpeg"
    },
    {
      "uri": "textures/Scene_-_Root_normal.png"
    }
  ],
  "materials": [
    {
      "doubleSided": true,
      "emissiveFactor": [
        1.0,
        1.0,
        1.0
      ],
      "emissiveTexture": {
        "index": 2
      },
      "name": "Scene_-_Root",
      "normalTexture": {
        "index": 3
      },
      "occlusionTexture": {
        "index": 1
      },
      "pbrMetallicRoughness": {
        "baseColorTexture": {
          "index": 0
        },
        "metallicRoughnessTexture": {
          "index": 1
        }
      }
    }
  ],
  "meshes": [
    {
      "name": "Ape_Ape__0",
      "primitives": [
        {
          "attributes": {
            "JOINTS_0": 6,
            "NORMAL": 1,
            "POSITION": 0,
            "TANGENT": 2,
            "TEXCOORD_0": 3,
            "WEIGHTS_0": 7
          },
          "indices": 4,
          "material": 0,
          "mode": 4
        }
      ]
    }
  ],
  "nodes": [
    {
      "children": [
        1
      ],
      "matrix": [
        1.5101184844970703,
        0.0,
        0.0,
        0.0,
        0.0,
        3.35313662280139e-16,
        -1.5101184844970703,
        0.0,
        0.0,
        1.5101184844970703,
        3.35313662280139e-16,
        0.0,
        0.0,
        0.0,
        0.0,
        1.0
      ],
      "name": "Sketchfab_model"
    },
    {
      "children": [
        2
      ],
      "matrix": [
        0.009999999776482582,
        0.0,
        0.0,
        0.0,
        0.0,
        0.0,
        0.009999999776482582,
        0.0,
        0.0,
        -0.009999999776482582,
        0.0,
        0.0,
        0.0,
        0.0,
        0.0,
        1.0
      ],
      "name": "0c12a7107a6d4d1f82bcd355ef519b84.fbx"
    },
    {
      "children": [
        3
      ],
      "name": "Object_2"
    },
    {
      "children": [
        4
      ],
      "name": "RootNode"
    },
    {
      "children": [
        5,
        7,
        6,
        41
      ],
      "name": "Object_4"
    },
    {
      "children": [
        8
      ],
      "name": "_rootJoint"
    },
    {
      "matrix": [
        1.0,
        0.0,
        0.0,
        0.0,
        0.0,
        1.0,
        0.0,
        0.0,
        0.0,
        0.0,
        1.0,
        0.0,
        0.0,
        5.684341886080802e-14,
        -3.552713678800501e-15,
        1.0
      ],
      "name": "Object_6"
    },
    {
      "mesh": 0,
      "name": "Object_7",
      "skin": 0
    },
    {
      "children": [
        9,
        31,
        36
      ],
      "name": "mixamorig:Hips_01",
      "translation": [
        0.0,
        89.22380065917969,
        -4.545407295227051
      ]
    },
    {
      "children": [
        10
      ],
      "name": "mixamorig:Spine_02",
      "rotation": [
        -0.06558074802160263,
        -0.0,
        0.0,
        0.9978472590446472
      ],
      "translation": [
        0.0,
        14.117294311523438,
        -1.8636884689331055
      ]
    },
    {
      "children": [
        11
      ],
      "name": "mixamorig:Spine1_03",
      "rotation": [
        1.4772986389743892e-08,
        0.0,
        0.0,
        1.0
      ],
      "translation": [
        0.0,
        16.613061904907227,
        3.760829159205059e-08
      ]
    },
    {
      "children": [
        12,
        15,
        23
      ],
      "name": "mixamorig:Spine2_04",
      "translation": [
        0.0,
        18.986366271972656,
        -4.457114854972133e-08
      ]
    },
    {
      "children": [
        13
      ],
      "name": "mixamorig:Neck_05",
      "rotation": [
        0.06558073312044144,
        0.0,
        0.0,
        0.9978472590446472
      ],
      "translation": [
        0.0,
        21.359663009643555,
        3.1104127629077993e-07
      ]
    },
    {
      "children": [
        14
      ],
      "name": "mixamorig:Head_06",
      "translation": [
        0.0,
        4.2344207763671875,
        1.9587087631225586
      ]
    },
    {
      "name": "mixamorig:HeadTop_End_07",
      "translation": [
        0.0,
        30.586685180664063,
        14.148431777954102
      ]
    },
    {
      "children": [
        16
      ],
      "name": "mixamorig:LeftShoulder_08",
      "rotation": [
        -0.5545687675476074,
        -0.43107470870018005,
        0.5806022882461548,
        -0.4117391109466553
      ],
      "translation": [
        9.026284217834473,
        18.62449836730957,
        -0.41413480043411255
      ]
    },
    {
      "children": [
        17
      ],
      "name": "mixamorig:LeftArm_09",
      "rotation": [
        0.011676882393658161,
        0.0008378035272471607,
        0.0715598464012146,
        0.9973676204681396
      ],
      "translation": [
        -1.504058921852902e-08,
        18.615123748779297,
        -8.550551910957438e-08
      ]
    },
    {
      "children": [
        18
      ],
      "name": "mixamorig:LeftForeArm_010",
      "rotation": [
        -0.07733061164617538,
        -0.011262517422437668,
        0.14367987215518951,
        0.986534059047699
      ],
      "translation": [
        1.8345073726777628e-07,
        41.016746520996094,
        9.535656317893881e-07
      ]
    },
    {
      "children": [
        19
      ],
      "name": "mixamorig:LeftHand_011",
      "rotation": [
        0.21809805929660797,
        0.21458888053894043,
        -0.049224793910980225,
        0.9507690668106079
      ],
      "translation": [
        -2.571030108811101e-07,
        43.13104248046875,
        7.856056072341744e-08
      ]
    },
    {
      "children": [
        20
      ],
      "name": "mixamorig:LeftHandIndex1_012",
      "rotation": [
        0.04865999519824982,
        0.007577394600957632,
        0.15368008613586426,
        0.986892819404602
      ],
      "translation": [
        4.928822505689823e-08,
        6.328143119812012,
        3.133561676804675e-08
      ]
    },
    {
      "children": [
        21
      ],
      "name": "mixamorig:LeftHandIndex2_013",
      "rotation": [
        -2.311115933264683e-33,
        -2.7755575615628914e-17,
        -8.326672684688674e-17,
        1.0
      ],
      "translation": [
        -2.004212262818328e-08,
        3.265080213546753,
        6.610099489989807e-08
      ]
    },
    {
      "children": [
        22
      ],
      "name": "mixamorig:LeftHandIndex3_014",
      "rotation": [
        -1.3877787807814457e-17,
        -7.703719777548943e-34,
        5.551115123125783e-17,
        1.0
      ],
      "translation": [
        1.292314052581787,
        4.301957607269287,
        0.059286683797836304
      ]
    },
    {
      "name": "mixamorig:LeftHandIndex4_015",
      "rotation": [
        -5.551115123125783e-17,
        -5.551115123125783e-17,
        -2.7755575615628914e-17,
        1.0
      ],
      "translation": [
        0.7377781271934509,
        2.4345221519470215,
        -0.8671707510948181
      ]
    },
    {
      "children": [
        24
      ],
      "name": "mixamorig:RightShoulder_016",
      "rotation": [
        0.5582545399665833,
        -0.42819762229919434,
        0.5776998400688171,
        0.41383764147758484
      ],
      "translation": [
        -9.026284217834473,
        18.61073112487793,
        -0.3098464906215668
      ]
    },
    {
      "children": [
        25
      ],
      "name": "mixamorig:RightArm_017",
      "rotation": [
        0.010124929249286652,
        -0.0006269167643040419,
        -0.06179634481668472,
        0.9980372190475464
      ],
      "translation": [
        8.848852317555611e-09,
        18.615123748779297,
        -8.636075676804467e-08
      ]
    },
    {
      "children": [
        26
      ],
      "name": "mixamorig:RightForeArm_018",
      "rotation": [
        -0.07708319276571274,
        0.011565263383090496,
        -0.14792397618293762,
        0.9859223961830139
      ],
      "translation": [
        3.735364373369521e-07,
        40.9692268371582,
        1.4313469591797912e-06
      ]
    },
    {
      "children": [
        27
      ],
      "name": "mixamorig:RightHand_019",
      "rotation": [
        0.21706993877887726,
        -0.22841855883598328,
        0.05232396349310875,
        0.9476116299629211
      ],
      "translation": [
        2.2459363435700652e-07,
        43.142921447753906,
        1.7512147110210208e-07
      ]
    },
    {
      "children": [
        28
      ],
      "name": "mixamorig:RightHandIndex1_020",
      "rotation": [
        0.04122307896614075,
        -0.0068499003536999226,
        -0.16377557814121246,
        0.985612154006958
      ],
      "translation": [
        1.0377888770563004e-08,
        6.257936477661133,
        -5.347573051039944e-09
      ]
    },
    {
      "children": [
        29
      ],
      "name": "mixamorig:RightHandIndex2_021",
      "rotation": [
        2.7755575615628914e-17,
        -2.7755575615628914e-17,
        8.326672684688674e-17,
        1.0
      ],
      "translation": [
        1.10112694073905e-07,
        3.236464738845825,
        1.9642260440377868e-07
      ]
    },
    {
      "children": [
        30
      ],
      "name": "mixamorig:RightHandIndex3_022",
      "rotation": [
        -6.938893903907228e-17,
        -1.925929944387236e-33,
        2.7755575615628914e-17,
        1.0
      ],
      "translation": [
        -1.221000075340271,
        4.2728495597839355,
        0.037375178188085556
      ]
    },
    {
      "name": "mixamorig:RightHandIndex4_023",
      "rotation": [
        -1.1102230246251565e-16,
        -2.7755575615628914e-17,
        -2.7755575615628914e-17,
        1.0
      ],
      "translation": [
        -1.0663015842437744,
        2.5078582763671875,
        -0.7348578572273254
      ]
    },
    {
      "children": [
        32
      ],
      "name": "mixamorig:LeftUpLeg_024",
      "rotation": [
        0.0010749897919595242,
        0.027099676430225372,
        0.998846709728241,
        -0.03962224721908569
      ],
      "translation": [
        12.318285942077637,
        -7.8374786376953125,
        1.3700766563415527
      ]
    },
    {
      "children": [
        33
      ],
      "name": "mixamorig:LeftLeg_025",
      "rotation": [
        -0.08187273889780045,
        0.0028272054623812437,
        -0.034395139664411545,
        0.9960451126098633
      ],
      "translation": [
        -5.339088460232233e-08,
        36.57169723510742,
        -4.996680758040384e-08
      ]
    },
    {
      "children": [
        34
      ],
      "name": "mixamorig:LeftFoot_026",
      "rotation": [
        0.435014933347702,
        -0.0047355410642921925,
        0.0022878870368003845,
        0.9004079103469849
      ],
      "translation": [
        8.668356699104152e-09,
        31.179420471191406,
        7.82652165298714e-08
      ]
    },
    {
      "children": [
        35
      ],
      "name": "mixamorig:LeftToeBase_027",
      "rotation": [
        0.3760157823562622,
        -0.1151980385184288,
        0.04717450961470604,
        0.9182135462760925
      ],
      "translation": [
        -3.257238034848342e-08,
        19.323890686035156,
        -3.128031664800801e-07
      ]
    },
    {
      "name": "mixamorig:LeftToe_End_028",
      "rotation": [
        -2.519824071622878e-10,
        3.0466081046842675e-16,
        -1.3877787807814457e-17,
        1.0
      ],
      "translation": [
        -3.018294947310096e-09,
        7.170743465423584,
        -2.6894739768579257e-09
      ]
    },
    {
      "children": [
        37
      ],
      "name": "mixamorig:RightUpLeg_00",
      "rotation": [
        -0.0010462100617587566,
        0.026372112333774567,
        0.9988659620285034,
        0.039626091718673706
      ],
      "translation": [
        -12.318285942077637,
        -7.8374786376953125,
        1.3124780654907227
      ]
    },
    {
      "children": [
        38
      ],
      "name": "mixamorig:RightLeg_029",
      "rotation": [
        -0.08323878794908524,
        -0.0028746374882757664,
        0.034394338726997375,
        0.9959317445755005
      ],
      "translation": [
        1.6985923423362692e-07,
        36.56886291503906,
        5.094727839605184e-08
      ]
    },
    {
      "children": [
        39
      ],
      "name": "mixamorig:RightFoot_030",
      "rotation": [
        0.4441460967063904,
        0.004560569766908884,
        -0.002260820474475622,
        0.8959399461746216
      ],
      "translation": [
        -3.0419435859130317e-09,
        31.194047927856445,
        -1.9243610438479664e-07
      ]
    },
    {
      "children": [
        40
      ],
      "name": "mixamorig:RightToeBase_031",
      "rotation": [
        0.36873796582221985,
        0.11639153957366943,
        -0.046597324311733246,
        0.9210396409034729
      ],
      "translation": [
        6.641222682901571e-09,
        19.64697265625,
        -6.035145929672581e-07
      ]
    },
    {
      "name": "mixamorig:RightToe_End_032",
      "rotation": [
        2.718679448232564e-10,
        -2.688821387764051e-17,
        -2.7755575615628914e-17,
        1.0
      ],
      "translation": [
        -2.058647829983329e-08,
        7.2470903396606445,
        -2.21272511424786e-09
      ]
    },
    {
      "name": "Ape_Ape"
    }
  ],
  "samplers": [
    {
      "magFilter": 9729,
      "minFilter": 9987,
      "wrapS": 10497,
      "wrapT": 10497
    }
  ],
  "scene": 0,
  "scenes": [
    {
      "name": "Sketchfab_Scene",
      "nodes": [
        0
      ]
    }
  ],
  "skins": [
    {
      "inverseBindMatrices": 5,
      "joints": [
        5,
        8,
        9,
        10,
        11,
        12,
        13,
        14,
        15,
        16,
        17,
        18,
        19,
        20,
        21,
        22,
        23,
        24,
        25,
        26,
        27,
        28,
        29,
        30,
        31,
        32,
        33,
        34,
        35,
        36,
        37,
        38,
        39,
        40
      ],
      "skeleton": 5
    }
  ],
  "textures": [
    {
      "sampler": 0,
      "source": 0
    },
    {
      "sampler": 0,
      "source": 1
    },
    {
      "sampler": 0,
      "source": 2
    },
    {
      "sampler": 0,
      "source": 3
    }
  ]
}
