# Blender 5.1.0
# www.blender.org
mtllib ammo.mtl
o Ammo
v -0.151422 1.342862 0.567391
v -0.151422 1.000031 0.567391
v 1.000000 -1.000000 0.700000
v 0.700000 -1.000000 1.000000
v 0.985317 -1.000000 0.792705
v 0.942705 -1.000000 0.876336
v 0.876336 -1.000000 0.942705
v 0.792705 -1.000000 0.985317
v 0.700000 1.000000 1.000000
v 1.000000 1.000000 0.700000
v 0.792705 1.000000 0.985317
v 0.876336 1.000000 0.942705
v 0.942705 1.000000 0.876336
v 0.985317 1.000000 0.792705
v -0.700000 -1.000000 1.000000
v -1.000000 -1.000000 0.700000
v -0.792705 -1.000000 0.985317
v -0.876336 -1.000000 0.942705
v -0.942705 -1.000000 0.876336
v -0.985317 -1.000000 0.792705
v -1.000000 1.000000 0.700000
v -0.700000 1.000000 1.000000
v -0.985317 1.000000 0.792705
v -0.942705 1.000000 0.876336
v -0.876336 1.000000 0.942705
v -0.792705 1.000000 0.985317
v 0.700000 -1.000000 -1.000000
v 1.000000 -1.000000 -0.700000
v 0.792705 -1.000000 -0.985317
v 0.876336 -1.000000 -0.942705
v 0.942705 -1.000000 -0.876336
v 0.985317 -1.000000 -0.792705
v 1.000000 1.000000 -0.700000
v 0.700000 1.000000 -1.000000
v 0.985317 1.000000 -0.792705
v 0.942705 1.000000 -0.876336
v 0.876336 1.000000 -0.942705
v 0.792705 1.000000 -0.985317
v -1.000000 -1.000000 -0.700000
v -0.700000 -1.000000 -1.000000
v -0.985317 -1.000000 -0.792705
v -0.942705 -1.000000 -0.876336
v -0.876336 -1.000000 -0.942705
v -0.792705 -1.000000 -0.985317
v -0.700000 1.000000 -1.000000
v -1.000000 1.000000 -0.700000
v -0.792705 1.000000 -0.985317
v -0.876336 1.000000 -0.942705
v -0.942705 1.000000 -0.876336
v -0.985317 1.000000 -0.792705
v -0.151422 1.000031 -0.567391
v -0.151422 1.342862 -0.567391
v 0.151422 1.000031 0.567391
v 0.151422 1.342862 0.567391
v 0.151422 1.000031 -0.567391
v 0.151422 1.342862 -0.567391
vn 0.1564 -0.0000 0.9877
vn 0.4540 -0.0000 0.8910
vn 0.7071 -0.0000 0.7071
vn 0.8910 -0.0000 0.4540
vn 0.9877 -0.0000 0.1564
vn -0.1564 -0.0000 0.9877
vn -0.4540 -0.0000 0.8910
vn -0.7071 -0.0000 0.7071
vn -0.8910 -0.0000 0.4540
vn -0.9877 -0.0000 0.1564
vn -0.0000 -0.0000 1.0000
vn 0.9877 -0.0000 -0.1564
vn 0.8910 -0.0000 -0.4540
vn 0.7071 -0.0000 -0.7071
vn 0.4540 -0.0000 -0.8910
vn 0.1564 -0.0000 -0.9877
vn -0.0000 -0.0000 -1.0000
vn -1.0000 -0.0000 -0.0000
vn 1.0000 -0.0000 -0.0000
vn -0.1564 -0.0000 -0.9877
vn -0.4540 -0.0000 -0.8910
vn -0.7071 -0.0000 -0.7071
vn -0.8910 -0.0000 -0.4540
vn -0.9877 -0.0000 -0.1564
vn -0.0000 -1.0000 -0.0000
vn -0.0000 1.0000 -0.0000
vt 0.397778 0.354731
vt 0.381335 0.000000
vt 0.397778 0.000000
vt 0.381335 0.354731
vt 0.366502 0.000000
vt 0.366502 0.354731
vt 0.354731 0.000000
vt 1.000000 0.354731
vt 0.985167 0.000000
vt 1.000000 0.000000
vt 0.985167 0.354731
vt 0.968724 0.000000
vt 0.646089 0.000000
vt 0.662532 0.354731
vt 0.646089 0.354731
vt 0.662532 0.000000
vt 0.677365 0.354731
vt 0.677365 0.000000
vt 0.689137 0.354731
vt 0.703970 0.709461
vt 0.689137 0.709461
vt 0.703970 0.354731
vt 0.720413 0.709461
vt 0.335971 0.709461
vt 0.389685 0.823733
vt 0.335971 0.823733
vt 0.720413 0.354731
vt 0.703970 0.000000
vt 0.720413 0.000000
vt 0.689137 0.000000
vt 0.677365 0.709461
vt 0.662532 0.709461
vt 0.389685 0.709461
vt 0.443399 0.823733
vt 0.389685 0.823733
vt -0.000000 0.910732
vt 0.114271 0.709461
vt 0.114271 0.910732
vt 0.968724 0.354731
vt 0.228543 0.709461
vt 0.228543 0.910732
vt 0.397778 0.709461
vt 0.381335 0.709461
vt 0.366502 0.709461
vt 0.354731 0.354731
vt 1.000000 0.709461
vt 0.985167 0.709461
vt 0.646089 0.709461
vt 0.968724 0.709461
vt 0.352126 0.317964
vt 0.010162 0.332797
vt 0.053210 -0.000000
vt 0.352126 0.672694
vt 0.010162 0.687527
vt 0.053210 0.354731
vt 0.228543 0.910732
vt 0.282257 0.709461
vt 0.282257 0.910732
vt 0.335971 0.709461
vt 0.335971 0.910732
vt 0.389685 0.709461
vt 0.443399 0.709461
vt 0.000000 0.709461
vt 0.354731 0.709461
vt 0.301521 0.000000
vt 0.317964 0.002604
vt 0.332797 0.010162
vt 0.344568 0.021934
vt 0.352126 0.036767
vt 0.354731 0.053210
vt 0.354731 0.301521
vt 0.344568 0.332797
vt 0.332797 0.344568
vt 0.317964 0.352126
vt 0.301521 0.354731
vt 0.053210 0.354731
vt 0.036767 0.352126
vt 0.021934 0.344568
vt 0.002604 0.317964
vt -0.000000 0.301521
vt 0.000000 0.053210
vt 0.002604 0.036767
vt 0.010162 0.021934
vt 0.021934 0.010162
vt 0.036767 0.002604
vt 0.301521 0.354731
vt 0.317964 0.357335
vt 0.332797 0.364893
vt 0.344568 0.376664
vt 0.352126 0.391498
vt 0.354731 0.407940
vt 0.354731 0.656252
vt 0.344568 0.687527
vt 0.332797 0.699299
vt 0.317964 0.706857
vt 0.301521 0.709461
vt 0.053210 0.709461
vt 0.036767 0.706857
vt 0.021934 0.699299
vt 0.002604 0.672694
vt -0.000000 0.656252
vt 0.000000 0.407940
vt 0.002604 0.391497
vt 0.010162 0.376664
vt 0.021934 0.364893
vt 0.036767 0.357335
vt 0.228543 0.709461
s 0
f 4/1/1 11/2/1 9/3/1
f 8/4/2 12/5/2 11/2/2
f 7/6/3 13/7/3 12/5/3
f 6/8/4 14/9/4 13/10/4
f 5/11/5 10/12/5 14/9/5
f 22/13/6 17/14/6 15/15/6
f 26/16/7 18/17/7 17/14/7
f 25/18/8 19/19/8 18/17/8
f 24/19/9 20/20/9 19/21/9
f 23/22/10 16/23/10 20/20/10
f 54/24/11 2/25/11 53/26/11
f 9/3/11 15/15/11 4/1/11
f 28/27/12 35/28/12 33/29/12
f 32/22/13 36/30/13 35/28/13
f 31/21/14 37/17/14 36/19/14
f 30/31/15 38/14/15 37/17/15
f 29/32/16 34/15/16 38/14/16
f 52/33/17 55/34/17 51/35/17
f 1/36/18 51/37/18 2/38/18
f 33/29/19 3/39/19 28/27/19
f 56/38/19 53/40/19 55/41/19
f 40/42/20 47/4/20 45/1/20
f 44/43/21 48/6/21 47/4/21
f 43/44/22 49/45/22 48/6/22
f 42/46/23 50/11/23 49/8/23
f 41/47/24 46/39/24 50/11/24
f 45/1/17 27/48/17 40/42/17
f 21/27/18 39/49/18 16/23/18
f 29/50/25 7/51/25 16/52/25
f 47/53/26 25/54/26 10/55/26
f 55/56/25 2/57/25 51/58/25
f 52/58/26 54/59/26 56/60/26
f 4/1/1 8/4/1 11/2/1
f 8/4/2 7/6/2 12/5/2
f 7/6/3 6/45/3 13/7/3
f 6/8/4 5/11/4 14/9/4
f 5/11/5 3/39/5 10/12/5
f 22/13/6 26/16/6 17/14/6
f 26/16/7 25/18/7 18/17/7
f 25/18/8 24/30/8 19/19/8
f 24/19/9 23/22/9 20/20/9
f 23/22/10 21/27/10 16/23/10
f 54/24/11 1/61/11 2/25/11
f 9/3/11 22/13/11 15/15/11
f 28/27/12 32/22/12 35/28/12
f 32/22/13 31/19/13 36/30/13
f 31/21/14 30/31/14 37/17/14
f 30/31/15 29/32/15 38/14/15
f 29/32/16 27/48/16 34/15/16
f 52/33/17 56/62/17 55/34/17
f 1/36/18 52/63/18 51/37/18
f 33/29/19 10/12/19 3/39/19
f 56/38/19 54/37/19 53/40/19
f 40/42/20 44/43/20 47/4/20
f 44/43/21 43/44/21 48/6/21
f 43/44/22 42/64/22 49/45/22
f 42/46/23 41/47/23 50/11/23
f 41/47/24 39/49/24 46/39/24
f 45/1/17 34/15/17 27/48/17
f 21/27/18 46/39/18 39/49/18
f 16/52/25 39/65/25 41/66/25
f 41/66/25 42/67/25 43/68/25
f 43/68/25 44/69/25 40/70/25
f 40/70/25 27/71/25 29/50/25
f 29/50/25 30/72/25 31/73/25
f 31/73/25 32/74/25 28/75/25
f 28/75/25 3/76/25 5/77/25
f 5/77/25 6/78/25 7/51/25
f 7/51/25 8/79/25 4/80/25
f 4/80/25 15/81/25 17/82/25
f 17/82/25 18/83/25 19/84/25
f 19/84/25 20/85/25 16/52/25
f 16/52/25 41/66/25 43/68/25
f 43/68/25 40/70/25 29/50/25
f 29/50/25 31/73/25 28/75/25
f 28/75/25 5/77/25 7/51/25
f 7/51/25 4/80/25 17/82/25
f 17/82/25 19/84/25 16/52/25
f 16/52/25 43/68/25 29/50/25
f 29/50/25 28/75/25 7/51/25
f 7/51/25 17/82/25 16/52/25
f 10/55/26 33/86/26 35/87/26
f 35/87/26 36/88/26 37/89/26
f 37/89/26 38/90/26 34/91/26
f 34/91/26 45/92/26 47/53/26
f 47/53/26 48/93/26 49/94/26
f 49/94/26 50/95/26 46/96/26
f 46/96/26 21/97/26 23/98/26
f 23/98/26 24/99/26 25/54/26
f 25/54/26 26/100/26 22/101/26
f 22/101/26 9/102/26 11/103/26
f 11/103/26 12/104/26 13/105/26
f 13/105/26 14/106/26 10/55/26
f 10/55/26 35/87/26 37/89/26
f 37/89/26 34/91/26 47/53/26
f 47/53/26 49/94/26 46/96/26
f 46/96/26 23/98/26 25/54/26
f 25/54/26 22/101/26 11/103/26
f 11/103/26 13/105/26 10/55/26
f 10/55/26 37/89/26 47/53/26
f 47/53/26 46/96/26 25/54/26
f 25/54/26 11/103/26 10/55/26
f 55/56/25 53/107/25 2/57/25
f 52/58/26 1/57/26 54/59/26
