# Blender 5.1.0
# www.blender.org
o 154
v -6.531937 0.000000 -19.974752
v -6.531937 28.387766 -19.974752
v 6.531937 0.000000 -19.974752
v 6.531937 28.387766 -19.974752
v -6.531937 17.673819 -48.190754
v -6.531937 28.387766 -43.474049
v 6.531937 28.387766 -43.474049
v 6.531937 17.673817 -48.190754
v -6.531937 0.000000 -27.572956
v -6.531937 7.018949 -48.190754
v 6.531937 7.018949 -48.190754
v 6.531937 0.000000 -27.572956
v -6.531937 17.673819 -19.974752
v 6.531937 17.673819 -19.974752
v 0.000000 0.000000 -19.974752
v 2.799301 27.391630 -32.053444
v -2.799301 27.391630 -32.053444
v 0.000000 27.387001 -28.211529
v 0.000000 0.000000 -27.572956
v 0.000000 7.018949 -48.190754
v 0.000000 17.673819 -19.974752
v -2.799301 28.387766 -25.969177
v 2.799301 28.387766 -25.969177
v 0.000000 27.654564 -25.969177
v 2.799301 28.387766 -43.474049
v -2.799301 28.387766 -43.474049
v 2.799301 17.673819 -48.190754
v -2.799301 17.673819 -48.190754
v 0.000000 16.940619 -48.190754
v 0.000000 16.673054 -46.360371
v 2.799301 16.677685 -44.517090
v -2.799301 16.677685 -44.517090
v 2.799301 27.391630 -42.666870
v -2.799301 27.391630 -42.666870
v -10.044159 4.902418 -19.974752
v 10.058136 4.902418 -19.974752
v -13.685272 4.902418 -18.755178
v 13.699249 4.902418 -18.755178
v -10.044159 3.233118 -19.974752
v 10.058136 3.233118 -19.974752
v -13.685272 3.233118 -18.755178
v 13.699249 3.233118 -18.755178
v -4.974960 4.902418 -50.559284
v -10.044159 4.902418 -45.880665
v 10.058136 4.902418 -45.880665
v 4.988937 4.902418 -50.559284
v -13.685272 4.902418 -47.100269
v -8.616089 4.902418 -51.778889
v 8.630066 4.902418 -51.778889
v 13.699249 4.902418 -47.100269
v -10.044159 3.233118 -45.880665
v -4.974960 3.233118 -50.559284
v 4.988937 3.233118 -50.559284
v 10.058136 3.233117 -45.880665
v -8.616089 3.233118 -51.778889
v -13.685272 3.233118 -47.100269
v 13.699249 3.233117 -47.100269
v 8.630066 3.233117 -51.778889
v -16.575500 4.067769 -18.755178
v 16.589462 4.067769 -18.755178
v -16.575500 4.067769 -47.100269
v -8.786240 3.787699 -50.981922
v 16.589462 4.067767 -47.100269
v -10.711700 4.067769 -48.118702
v -9.758011 3.756748 -51.778889
v -9.758011 4.378789 -51.778889
v -11.896240 4.067769 -48.860981
v 9.771988 4.378788 -51.778889
v 9.771988 3.756748 -51.778889
v 11.910217 4.067767 -48.860981
v -8.786240 4.347838 -50.981922
v 10.725677 4.067767 -48.118702
v 8.800217 4.347838 -50.981922
v 8.800217 3.787698 -50.981922
v -10.044159 16.815218 -19.974752
v 10.058136 16.815218 -19.974752
v -13.685272 16.815218 -18.755178
v 13.699249 16.815218 -18.755178
v -10.044159 15.145918 -19.974752
v 10.058136 15.145918 -19.974752
v -13.685272 15.145918 -18.755178
v 13.699249 15.145918 -18.755178
v -4.974960 16.815218 -50.559284
v -10.044159 16.815218 -45.880665
v 10.058136 16.815218 -45.880665
v 4.988937 16.815218 -50.559284
v -13.685272 16.815218 -47.100269
v -8.616089 16.815218 -51.778889
v 8.630066 16.815218 -51.778889
v 13.699249 16.815218 -47.100269
v -10.044159 15.145918 -45.880665
v -4.974960 15.145918 -50.559284
v 4.988937 15.145918 -50.559284
v 10.058136 15.145917 -45.880665
v -8.616089 15.145918 -51.778889
v -13.685272 15.145918 -47.100269
v 13.699249 15.145917 -47.100269
v 8.630066 15.145917 -51.778889
v -16.575500 15.980568 -18.755178
v 16.589462 15.980568 -18.755178
v -16.575500 15.980568 -47.100269
v -8.786240 15.700500 -50.981922
v 16.589462 15.980567 -47.100269
v -10.711700 15.980568 -48.118702
v -9.758011 15.669547 -51.778889
v -9.758011 16.291590 -51.778889
v -11.896240 15.980568 -48.860981
v 9.771988 16.291588 -51.778889
v 9.771988 15.669547 -51.778889
v 11.910217 15.980567 -48.860981
v -8.786240 16.260637 -50.981922
v 10.725677 15.980567 -48.118702
v 8.800217 16.260637 -50.981922
v 8.800217 15.700498 -50.981922
v -10.044159 27.916468 -19.974752
v 10.058136 27.916468 -19.974752
v -13.685272 27.916468 -5.954391
v 13.699249 27.916468 -5.954391
v -10.044159 26.247169 -19.974752
v 10.058136 26.247169 -19.974752
v -13.685272 26.247169 -5.954391
v 13.699249 26.247169 -5.954391
v -4.974960 27.916468 -50.559284
v -10.044159 27.916468 -45.880665
v 10.058136 27.916468 -45.880665
v 4.988937 27.916468 -50.559284
v -13.685272 27.916468 -47.100269
v -8.616089 27.916468 -51.778889
v 8.630066 27.916468 -51.778889
v 13.699249 27.916468 -47.100269
v -10.044159 26.247169 -45.880665
v -4.974960 26.247169 -50.559284
v 4.988937 26.247169 -50.559284
v 10.058136 26.247168 -45.880665
v -8.616089 26.247169 -51.778889
v -13.685272 26.247169 -47.100269
v 13.699249 26.247168 -47.100269
v 8.630066 26.247168 -51.778889
v -16.575500 27.081820 -5.954391
v 16.589462 27.081820 -5.954391
v -16.575500 27.081820 -47.100269
v -8.786240 26.801750 -50.981922
v 16.589462 27.081820 -47.100269
v -10.711700 27.081820 -48.118702
v -9.758011 26.770802 -51.778889
v -9.758011 27.392839 -51.778889
v -11.896240 27.081820 -48.860981
v 9.771988 27.392839 -51.778889
v 9.771988 26.770802 -51.778889
v 11.910217 27.081820 -48.860981
v -8.786240 27.361891 -50.981922
v 10.725677 27.081820 -48.118702
v 8.800217 27.361891 -50.981922
v 8.800217 26.801750 -50.981922
v -6.531937 0.000000 -7.862993
v 0.000000 0.000000 -7.862993
v 6.531937 0.000000 -7.862993
v -6.531937 16.709431 -7.862993
v -6.531937 17.673819 -8.827382
v 6.531937 17.673819 -8.827382
v 6.531937 16.709431 -7.862993
v 0.000000 17.673819 -8.827382
v 0.000000 16.709431 -7.862993
v -6.531937 0.000000 19.974752
v -6.531937 28.387766 19.974752
v 6.531937 0.000000 19.974752
v 6.531937 28.387766 19.974752
v -6.531937 17.673819 48.190754
v -6.531937 28.387766 43.474049
v 6.531937 28.387766 43.474049
v 6.531937 17.673817 48.190754
v -6.531937 0.000000 27.572956
v -6.531937 7.018949 48.190754
v 6.531937 7.018949 48.190754
v 6.531937 0.000000 27.572956
v -6.531937 17.673819 19.974752
v 6.531937 17.673819 19.974752
v 0.000000 0.000000 19.974752
v 2.799301 27.391630 32.053444
v -2.799301 27.391630 32.053444
v 0.000000 27.387001 28.211529
v 0.000000 0.000000 27.572956
v 0.000000 7.018949 48.190754
v 0.000000 17.673819 19.974752
v -2.799301 28.387766 25.969177
v 2.799301 28.387766 25.969177
v 0.000000 27.654564 25.969177
v 2.799301 28.387766 43.474049
v -2.799301 28.387766 43.474049
v 2.799301 17.673819 48.190754
v -2.799301 17.673819 48.190754
v 0.000000 16.940619 48.190754
v 0.000000 16.673054 46.360371
v 2.799301 16.677685 44.517090
v -2.799301 16.677685 44.517090
v 2.799301 27.391630 42.666870
v -2.799301 27.391630 42.666870
v -10.044159 4.902418 19.974752
v 10.058136 4.902418 19.974752
v -13.685272 4.902418 18.755178
v 13.699249 4.902418 18.755178
v -10.044159 3.233118 19.974752
v 10.058136 3.233118 19.974752
v -13.685272 3.233118 18.755178
v 13.699249 3.233118 18.755178
v -4.974960 4.902418 50.559284
v -10.044159 4.902418 45.880665
v 10.058136 4.902418 45.880665
v 4.988937 4.902418 50.559284
v -13.685272 4.902418 47.100269
v -8.616089 4.902418 51.778889
v 8.630066 4.902418 51.778889
v 13.699249 4.902418 47.100269
v -10.044159 3.233118 45.880665
v -4.974960 3.233118 50.559284
v 4.988937 3.233118 50.559284
v 10.058136 3.233117 45.880665
v -8.616089 3.233118 51.778889
v -13.685272 3.233118 47.100269
v 13.699249 3.233117 47.100269
v 8.630066 3.233117 51.778889
v -16.575500 4.067769 18.755178
v 16.589462 4.067769 18.755178
v -16.575500 4.067769 47.100269
v -8.786240 3.787699 50.981922
v 16.589462 4.067767 47.100269
v -10.711700 4.067769 48.118702
v -9.758011 3.756748 51.778889
v -9.758011 4.378789 51.778889
v -11.896240 4.067769 48.860981
v 9.771988 4.378788 51.778889
v 9.771988 3.756748 51.778889
v 11.910217 4.067767 48.860981
v -8.786240 4.347838 50.981922
v 10.725677 4.067767 48.118702
v 8.800217 4.347838 50.981922
v 8.800217 3.787698 50.981922
v -10.044159 16.815218 19.974752
v 10.058136 16.815218 19.974752
v -13.685272 16.815218 18.755178
v 13.699249 16.815218 18.755178
v -10.044159 15.145918 19.974752
v 10.058136 15.145918 19.974752
v -13.685272 15.145918 18.755178
v 13.699249 15.145918 18.755178
v -4.974960 16.815218 50.559284
v -10.044159 16.815218 45.880665
v 10.058136 16.815218 45.880665
v 4.988937 16.815218 50.559284
v -13.685272 16.815218 47.100269
v -8.616089 16.815218 51.778889
v 8.630066 16.815218 51.778889
v 13.699249 16.815218 47.100269
v -10.044159 15.145918 45.880665
v -4.974960 15.145918 50.559284
v 4.988937 15.145918 50.559284
v 10.058136 15.145917 45.880665
v -8.616089 15.145918 51.778889
v -13.685272 15.145918 47.100269
v 13.699249 15.145917 47.100269
v 8.630066 15.145917 51.778889
v -16.575500 15.980568 18.755178
v 16.589462 15.980568 18.755178
v -16.575500 15.980568 47.100269
v -8.786240 15.700500 50.981922
v 16.589462 15.980567 47.100269
v -10.711700 15.980568 48.118702
v -9.758011 15.669547 51.778889
v -9.758011 16.291590 51.778889
v -11.896240 15.980568 48.860981
v 9.771988 16.291588 51.778889
v 9.771988 15.669547 51.778889
v 11.910217 15.980567 48.860981
v -8.786240 16.260637 50.981922
v 10.725677 15.980567 48.118702
v 8.800217 16.260637 50.981922
v 8.800217 15.700498 50.981922
v -10.044159 27.916468 19.974752
v 10.058136 27.916468 19.974752
v -13.685272 27.916468 5.954391
v 13.699249 27.916468 5.954391
v -10.044159 26.247169 19.974752
v 10.058136 26.247169 19.974752
v -13.685272 26.247169 5.954391
v 13.699249 26.247169 5.954391
v -4.974960 27.916468 50.559284
v -10.044159 27.916468 45.880665
v 10.058136 27.916468 45.880665
v 4.988937 27.916468 50.559284
v -13.685272 27.916468 47.100269
v -8.616089 27.916468 51.778889
v 8.630066 27.916468 51.778889
v 13.699249 27.916468 47.100269
v -10.044159 26.247169 45.880665
v -4.974960 26.247169 50.559284
v 4.988937 26.247169 50.559284
v 10.058136 26.247168 45.880665
v -8.616089 26.247169 51.778889
v -13.685272 26.247169 47.100269
v 13.699249 26.247168 47.100269
v 8.630066 26.247168 51.778889
v -16.575500 27.081820 5.954391
v 16.589462 27.081820 5.954391
v -16.575500 27.081820 47.100269
v -8.786240 26.801750 50.981922
v 16.589462 27.081820 47.100269
v -10.711700 27.081820 48.118702
v -9.758011 26.770802 51.778889
v -9.758011 27.392839 51.778889
v -11.896240 27.081820 48.860981
v 9.771988 27.392839 51.778889
v 9.771988 26.770802 51.778889
v 11.910217 27.081820 48.860981
v -8.786240 27.361891 50.981922
v 10.725677 27.081820 48.118702
v 8.800217 27.361891 50.981922
v 8.800217 26.801750 50.981922
v -6.531937 0.000000 7.862993
v 0.000000 0.000000 7.862993
v 6.531937 0.000000 7.862993
v -6.531937 16.709431 7.862993
v -6.531937 17.673819 8.827382
v 6.531937 17.673819 8.827382
v 6.531937 16.709431 7.862993
v 0.000000 17.673819 8.827382
v 0.000000 16.709431 7.862993
v -6.531937 27.225945 -13.374826
v -6.531937 110.602951 -13.374826
v 6.531937 27.225945 -13.374826
v 6.531937 110.602951 -13.374826
v -6.531937 79.135284 -32.267883
v -6.531937 110.602951 -29.109640
v 6.531937 110.602951 -29.109640
v 6.531937 79.135277 -32.267883
v -6.531937 27.225945 -18.462482
v -6.531937 47.841125 -32.267883
v 6.531937 47.841125 -32.267883
v 6.531937 27.225945 -18.462482
v -6.531937 79.135284 -13.374826
v 6.531937 79.135284 -13.374826
v 0.000000 27.225945 -13.374826
v 2.799301 107.677231 -21.462557
v -2.799301 107.677231 -21.462557
v 0.000000 107.663628 -18.890062
v 0.000000 27.225945 -18.462482
v 0.000000 47.841125 -32.267883
v 0.000000 79.135284 -13.374826
v -2.799301 110.602951 -17.388613
v 2.799301 110.602951 -17.388613
v 0.000000 108.449486 -17.388613
v 2.799301 110.602951 -29.109640
v -2.799301 110.602951 -29.109640
v 2.799301 79.135284 -32.267883
v -2.799301 79.135284 -32.267883
v 0.000000 76.981819 -32.267883
v 0.000000 76.195961 -31.042282
v 2.799301 76.209564 -29.808046
v -2.799301 76.209564 -29.808046
v 2.799301 107.677231 -28.569164
v -2.799301 107.677231 -28.569164
v -10.044159 41.624714 -13.374826
v 10.058136 41.624714 -13.374826
v -13.685272 41.624714 -12.558216
v 13.699249 41.624714 -12.558216
v -10.044159 36.721855 -13.374826
v 10.058136 36.721855 -13.374826
v -13.685272 36.721855 -12.558216
v 13.699249 36.721855 -12.558216
v -4.974960 41.624714 -33.853821
v -10.044159 41.624714 -30.721079
v 10.058136 41.624714 -30.721079
v 4.988937 41.624714 -33.853821
v -13.685272 41.624714 -31.537708
v -8.616089 41.624714 -34.670448
v 8.630066 41.624714 -34.670448
v 13.699249 41.624714 -31.537708
v -10.044159 36.721855 -30.721079
v -4.974960 36.721855 -33.853821
v 4.988937 36.721855 -33.853821
v 10.058136 36.721851 -30.721079
v -8.616089 36.721855 -34.670448
v -13.685272 36.721855 -31.537708
v 13.699249 36.721851 -31.537708
v 8.630066 36.721851 -34.670448
v -16.575500 39.173286 -12.558216
v 16.589462 39.173286 -12.558216
v -16.575500 39.173286 -31.537708
v -8.786240 38.350704 -34.136810
v 16.589462 39.173283 -31.537708
v -10.711700 39.173286 -32.219639
v -9.758011 38.259796 -34.670448
v -9.758011 40.086781 -34.670448
v -11.896240 39.173286 -32.716660
v 9.771988 40.086777 -34.670448
v 9.771988 38.259796 -34.670448
v 11.910217 39.173283 -32.716660
v -8.786240 39.995872 -34.136810
v 10.725677 39.173283 -32.219639
v 8.800217 39.995872 -34.136810
v 8.800217 38.350700 -34.136810
v -10.044159 76.613510 -13.374826
v 10.058136 76.613510 -13.374826
v -13.685272 76.613510 -12.558216
v 13.699249 76.613510 -12.558216
v -10.044159 71.710648 -13.374826
v 10.058136 71.710648 -13.374826
v -13.685272 71.710648 -12.558216
v 13.699249 71.710648 -12.558216
v -4.974960 76.613510 -33.853821
v -10.044159 76.613510 -30.721079
v 10.058136 76.613510 -30.721079
v 4.988937 76.613510 -33.853821
v -13.685272 76.613510 -31.537708
v -8.616089 76.613510 -34.670448
v 8.630066 76.613510 -34.670448
v 13.699249 76.613510 -31.537708
v -10.044159 71.710648 -30.721079
v -4.974960 71.710648 -33.853821
v 4.988937 71.710648 -33.853821
v 10.058136 71.710648 -30.721079
v -8.616089 71.710648 -34.670448
v -13.685272 71.710648 -31.537708
v 13.699249 71.710648 -31.537708
v 8.630066 71.710648 -34.670448
v -16.575500 74.162079 -12.558216
v 16.589462 74.162079 -12.558216
v -16.575500 74.162079 -31.537708
v -8.786240 73.339493 -34.136810
v 16.589462 74.162079 -31.537708
v -10.711700 74.162079 -32.219639
v -9.758011 73.248581 -34.670448
v -9.758011 75.075577 -34.670448
v -11.896240 74.162079 -32.716660
v 9.771988 75.075562 -34.670448
v 9.771988 73.248581 -34.670448
v 11.910217 74.162079 -32.716660
v -8.786240 74.984665 -34.136810
v 10.725677 74.162079 -32.219639
v 8.800217 74.984665 -34.136810
v 8.800217 73.339493 -34.136810
v -10.044159 109.218712 -13.374826
v 10.058136 109.218712 -13.374826
v -13.685272 109.218712 -3.986981
v 13.699249 109.218712 -3.986981
v -10.044159 104.315857 -13.374826
v 10.058136 104.315857 -13.374826
v -13.685272 104.315857 -3.986981
v 13.699249 104.315857 -3.986981
v -4.974960 109.218712 -33.853821
v -10.044159 109.218712 -30.721079
v 10.058136 109.218712 -30.721079
v 4.988937 109.218712 -33.853821
v -13.685272 109.218712 -31.537708
v -8.616089 109.218712 -34.670448
v 8.630066 109.218712 -34.670448
v 13.699249 109.218712 -31.537708
v -10.044159 104.315857 -30.721079
v -4.974960 104.315857 -33.853821
v 4.988937 104.315857 -33.853821
v 10.058136 104.315857 -30.721079
v -8.616089 104.315857 -34.670448
v -13.685272 104.315857 -31.537708
v 13.699249 104.315857 -31.537708
v 8.630066 104.315857 -34.670448
v -16.575500 106.767288 -3.986981
v 16.589462 106.767288 -3.986981
v -16.575500 106.767288 -31.537708
v -8.786240 105.944702 -34.136810
v 16.589462 106.767288 -31.537708
v -10.711700 106.767288 -32.219639
v -9.758011 105.853806 -34.670448
v -9.758011 107.680779 -34.670448
v -11.896240 106.767288 -32.716660
v 9.771988 107.680779 -34.670448
v 9.771988 105.853806 -34.670448
v 11.910217 106.767288 -32.716660
v -8.786240 107.589882 -34.136810
v 10.725677 106.767288 -32.219639
v 8.800217 107.589882 -34.136810
v 8.800217 105.944702 -34.136810
v -6.531937 27.225945 -5.264955
v 0.000000 27.225945 -5.264955
v 6.531937 27.225945 -5.264955
v -6.531937 76.302803 -5.264955
v -6.531937 79.135284 -5.910697
v 6.531937 79.135284 -5.910697
v 6.531937 76.302803 -5.264955
v 0.000000 79.135284 -5.910697
v 0.000000 76.302803 -5.264955
v -6.531937 27.225945 13.374826
v -6.531937 110.602951 13.374826
v 6.531937 27.225945 13.374826
v 6.531937 110.602951 13.374826
v -6.531937 79.135284 32.267883
v -6.531937 110.602951 29.109640
v 6.531937 110.602951 29.109640
v 6.531937 79.135277 32.267883
v -6.531937 27.225945 18.462482
v -6.531937 47.841125 32.267883
v 6.531937 47.841125 32.267883
v 6.531937 27.225945 18.462482
v -6.531937 79.135284 13.374826
v 6.531937 79.135284 13.374826
v 0.000000 27.225945 13.374826
v 2.799301 107.677231 21.462557
v -2.799301 107.677231 21.462557
v 0.000000 107.663628 18.890062
v 0.000000 27.225945 18.462482
v 0.000000 47.841125 32.267883
v 0.000000 79.135284 13.374826
v -2.799301 110.602951 17.388613
v 2.799301 110.602951 17.388613
v 0.000000 108.449486 17.388613
v 2.799301 110.602951 29.109640
v -2.799301 110.602951 29.109640
v 2.799301 79.135284 32.267883
v -2.799301 79.135284 32.267883
v 0.000000 76.981819 32.267883
v 0.000000 76.195961 31.042282
v 2.799301 76.209564 29.808046
v -2.799301 76.209564 29.808046
v 2.799301 107.677231 28.569164
v -2.799301 107.677231 28.569164
v -10.044159 41.624714 13.374826
v 10.058136 41.624714 13.374826
v -13.685272 41.624714 12.558216
v 13.699249 41.624714 12.558216
v -10.044159 36.721855 13.374826
v 10.058136 36.721855 13.374826
v -13.685272 36.721855 12.558216
v 13.699249 36.721855 12.558216
v -4.974960 41.624714 33.853821
v -10.044159 41.624714 30.721079
v 10.058136 41.624714 30.721079
v 4.988937 41.624714 33.853821
v -13.685272 41.624714 31.537708
v -8.616089 41.624714 34.670448
v 8.630066 41.624714 34.670448
v 13.699249 41.624714 31.537708
v -10.044159 36.721855 30.721079
v -4.974960 36.721855 33.853821
v 4.988937 36.721855 33.853821
v 10.058136 36.721851 30.721079
v -8.616089 36.721855 34.670448
v -13.685272 36.721855 31.537708
v 13.699249 36.721851 31.537708
v 8.630066 36.721851 34.670448
v -16.575500 39.173286 12.558216
v 16.589462 39.173286 12.558216
v -16.575500 39.173286 31.537708
v -8.786240 38.350704 34.136810
v 16.589462 39.173283 31.537708
v -10.711700 39.173286 32.219639
v -9.758011 38.259796 34.670448
v -9.758011 40.086781 34.670448
v -11.896240 39.173286 32.716660
v 9.771988 40.086777 34.670448
v 9.771988 38.259796 34.670448
v 11.910217 39.173283 32.716660
v -8.786240 39.995872 34.136810
v 10.725677 39.173283 32.219639
v 8.800217 39.995872 34.136810
v 8.800217 38.350700 34.136810
v -10.044159 76.613510 13.374826
v 10.058136 76.613510 13.374826
v -13.685272 76.613510 12.558216
v 13.699249 76.613510 12.558216
v -10.044159 71.710648 13.374826
v 10.058136 71.710648 13.374826
v -13.685272 71.710648 12.558216
v 13.699249 71.710648 12.558216
v -4.974960 76.613510 33.853821
v -10.044159 76.613510 30.721079
v 10.058136 76.613510 30.721079
v 4.988937 76.613510 33.853821
v -13.685272 76.613510 31.537708
v -8.616089 76.613510 34.670448
v 8.630066 76.613510 34.670448
v 13.699249 76.613510 31.537708
v -10.044159 71.710648 30.721079
v -4.974960 71.710648 33.853821
v 4.988937 71.710648 33.853821
v 10.058136 71.710648 30.721079
v -8.616089 71.710648 34.670448
v -13.685272 71.710648 31.537708
v 13.699249 71.710648 31.537708
v 8.630066 71.710648 34.670448
v -16.575500 74.162079 12.558216
v 16.589462 74.162079 12.558216
v -16.575500 74.162079 31.537708
v -8.786240 73.339493 34.136810
v 16.589462 74.162079 31.537708
v -10.711700 74.162079 32.219639
v -9.758011 73.248581 34.670448
v -9.758011 75.075577 34.670448
v -11.896240 74.162079 32.716660
v 9.771988 75.075562 34.670448
v 9.771988 73.248581 34.670448
v 11.910217 74.162079 32.716660
v -8.786240 74.984665 34.136810
v 10.725677 74.162079 32.219639
v 8.800217 74.984665 34.136810
v 8.800217 73.339493 34.136810
v -10.044159 109.218712 13.374826
v 10.058136 109.218712 13.374826
v -13.685272 109.218712 3.986981
v 13.699249 109.218712 3.986981
v -10.044159 104.315857 13.374826
v 10.058136 104.315857 13.374826
v -13.685272 104.315857 3.986981
v 13.699249 104.315857 3.986981
v -4.974960 109.218712 33.853821
v -10.044159 109.218712 30.721079
v 10.058136 109.218712 30.721079
v 4.988937 109.218712 33.853821
v -13.685272 109.218712 31.537708
v -8.616089 109.218712 34.670448
v 8.630066 109.218712 34.670448
v 13.699249 109.218712 31.537708
v -10.044159 104.315857 30.721079
v -4.974960 104.315857 33.853821
v 4.988937 104.315857 33.853821
v 10.058136 104.315857 30.721079
v -8.616089 104.315857 34.670448
v -13.685272 104.315857 31.537708
v 13.699249 104.315857 31.537708
v 8.630066 104.315857 34.670448
v -16.575500 106.767288 3.986981
v 16.589462 106.767288 3.986981
v -16.575500 106.767288 31.537708
v -8.786240 105.944702 34.136810
v 16.589462 106.767288 31.537708
v -10.711700 106.767288 32.219639
v -9.758011 105.853806 34.670448
v -9.758011 107.680779 34.670448
v -11.896240 106.767288 32.716660
v 9.771988 107.680779 34.670448
v 9.771988 105.853806 34.670448
v 11.910217 106.767288 32.716660
v -8.786240 107.589882 34.136810
v 10.725677 106.767288 32.219639
v 8.800217 107.589882 34.136810
v 8.800217 105.944702 34.136810
v -6.531937 27.225945 5.264955
v 0.000000 27.225945 5.264955
v 6.531937 27.225945 5.264955
v -6.531937 76.302803 5.264955
v -6.531937 79.135284 5.910697
v 6.531937 79.135284 5.910697
v 6.531937 76.302803 5.264955
v 0.000000 79.135284 5.910697
v 0.000000 76.302803 5.264955
v -0.000006 51.085266 -17.769600
v -0.000006 53.085266 -17.769600
v -0.000008 0.000000 15.748343
v -0.000006 2.000000 15.748343
v -19.531670 22.269718 1.136788
v -19.531670 28.815548 -3.158045
v -19.531670 30.815548 -3.158045
v -19.531670 24.269718 1.136789
v 19.531658 28.815548 -3.158045
v 19.531658 22.269718 1.136789
v 19.531658 24.269718 1.136788
v 19.531658 30.815548 -3.158046
v -2.385404 30.806826 -3.152323
v 2.385392 30.806826 -3.152323
v -0.000006 33.396843 -4.851678
v 2.385392 24.278440 1.131065
v -2.385404 24.278440 1.131065
v -0.000006 21.688423 2.830421
v 2.385391 28.806826 -3.152323
v -2.385405 28.806826 -3.152323
v -0.000007 31.396843 -4.851678
v -2.385405 22.278440 1.131066
v 2.385391 22.278440 1.131066
v -0.000007 19.688423 2.830421
v -9.323964 0.000000 15.748343
v -19.531670 15.843294 5.353278
v -19.531670 17.843294 5.353278
v -9.323964 2.000000 15.748343
v -19.531670 35.241974 -7.374535
v -9.323964 51.085266 -17.769600
v -9.323964 53.085266 -17.769600
v -19.531670 37.241974 -7.374535
v 19.531656 15.843297 5.353278
v 9.323951 0.000000 15.748343
v 9.323951 2.000000 15.748343
v 19.531656 17.843294 5.353278
v 9.323953 51.085266 -17.769600
v 19.531658 35.241974 -7.374535
v 19.531658 37.241974 -7.374535
v 9.323953 53.085266 -17.769600
v -9.323964 10.735456 11.648781
v -8.422231 46.388775 -11.743986
v -10.225698 47.015976 -12.155502
v -9.323964 49.324303 -13.670037
v -10.225698 44.528728 -12.155502
v -8.422231 43.901527 -11.743986
v -9.323964 46.837055 -13.670037
v -8.422231 11.183735 9.722729
v -10.225698 10.556537 10.134245
v -9.323964 8.248208 11.648781
v 8.422220 43.901527 -11.743986
v 10.225689 44.528728 -12.155502
v 9.323955 46.837055 -13.670037
v 10.225686 10.556538 10.134244
v 8.422216 11.183737 9.722728
v 9.323951 8.248208 11.648781
v -8.422231 13.670983 9.722729
v -10.225698 13.043785 10.134245
v 9.323955 49.324303 -13.670037
v 8.422220 46.388775 -11.743986
v 10.225689 47.015976 -12.155502
v 9.323951 10.735456 11.648781
v 10.225686 13.043786 10.134244
v 8.422216 13.670985 9.722728
v -0.000006 92.491776 -17.769600
v -0.000006 94.491776 -17.769600
v -0.000008 41.406506 15.748343
v -0.000006 43.406506 15.748343
v -19.531670 63.676224 1.136788
v -19.531670 70.222054 -3.158045
v -19.531670 72.222054 -3.158045
v -19.531670 65.676224 1.136789
v 19.531658 70.222054 -3.158045
v 19.531658 63.676224 1.136789
v 19.531658 65.676224 1.136788
v 19.531658 72.222054 -3.158046
v -2.385404 72.213333 -3.152323
v 2.385392 72.213333 -3.152323
v -0.000006 74.803345 -4.851678
v 2.385392 65.684944 1.131065
v -2.385404 65.684944 1.131065
v -0.000006 63.094929 2.830421
v 2.385391 70.213333 -3.152323
v -2.385405 70.213333 -3.152323
v -0.000007 72.803345 -4.851678
v -2.385405 63.684944 1.131066
v 2.385391 63.684944 1.131066
v -0.000007 61.094929 2.830421
v -9.323964 41.406506 15.748343
v -19.531670 57.249802 5.353278
v -19.531670 59.249802 5.353278
v -9.323964 43.406506 15.748343
v -19.531670 76.648483 -7.374535
v -9.323964 92.491776 -17.769600
v -9.323964 94.491776 -17.769600
v -19.531670 78.648483 -7.374535
v 19.531656 57.249802 5.353278
v 9.323951 41.406506 15.748343
v 9.323951 43.406506 15.748343
v 19.531656 59.249802 5.353278
v 9.323953 92.491776 -17.769600
v 19.531658 76.648483 -7.374535
v 19.531658 78.648483 -7.374535
v 9.323953 94.491776 -17.769600
v -9.323964 52.141960 11.648781
v -8.422231 87.795280 -11.743986
v -10.225698 88.422485 -12.155502
v -9.323964 90.730804 -13.670037
v -10.225698 85.935234 -12.155502
v -8.422231 85.308029 -11.743986
v -9.323964 88.243561 -13.670037
v -8.422231 52.590240 9.722729
v -10.225698 51.963043 10.134245
v -9.323964 49.654713 11.648781
v 8.422220 85.308029 -11.743986
v 10.225689 85.935234 -12.155502
v 9.323955 88.243561 -13.670037
v 10.225686 51.963043 10.134244
v 8.422216 52.590240 9.722728
v 9.323951 49.654713 11.648781
v -8.422231 55.077488 9.722729
v -10.225698 54.450291 10.134245
v 9.323955 90.730804 -13.670037
v 8.422220 87.795280 -11.743986
v 10.225689 88.422485 -12.155502
v 9.323951 52.141960 11.648781
v 10.225686 54.450291 10.134244
v 8.422216 55.077492 9.722728
vn 1.0000 -0.0000 -0.0000
vn 0.2877 0.2361 0.9282
vn 0.4978 0.5189 0.6949
vn 0.6003 0.3660 0.7112
vn -0.0000 1.0000 -0.0000
vn -0.0000 1.0000 0.0010
vn -0.0000 1.0000 0.0012
vn -0.0000 0.4029 -0.9152
vn -1.0000 -0.0000 -0.0000
vn -0.0000 -0.9466 -0.3223
vn -0.0000 -1.0000 -0.0000
vn -0.0000 -0.0000 -1.0000
vn -0.3185 0.3942 0.8621
vn -0.4403 0.3167 0.8402
vn -0.0850 0.4715 0.8777
vn -0.2079 0.9564 0.2050
vn -0.2012 0.9557 0.2148
vn -0.2509 0.9578 0.1400
vn 0.2012 0.9557 0.2148
vn 0.2079 0.9564 0.2050
vn 0.2509 0.9578 0.1400
vn -0.0000 1.0000 -0.0025
vn -0.0000 0.1702 -0.9854
vn -0.2324 0.9626 -0.1394
vn -0.2301 0.9627 -0.1425
vn -0.2517 0.9610 -0.1147
vn 0.2301 0.9627 -0.1425
vn 0.2324 0.9626 -0.1394
vn 0.2517 0.9610 -0.1147
vn -0.6317 -0.2742 -0.7251
vn -0.5050 -0.7930 -0.3409
vn -0.2933 -0.7135 -0.6363
vn -0.0000 -0.0000 1.0000
vn 0.2774 -0.9607 -0.0000
vn -0.2774 -0.9607 -0.0000
vn -0.6782 -0.0000 0.7348
vn 0.3050 -0.7173 -0.6264
vn 0.4330 -0.7806 -0.4508
vn 0.7329 0.1974 -0.6511
vn -0.8298 -0.0000 -0.5580
vn 0.6782 -0.0000 0.7348
vn 0.6317 0.2742 -0.7251
vn 0.5050 0.7930 -0.3409
vn 0.2933 0.7135 -0.6363
vn -0.2774 0.9607 -0.0000
vn 0.2774 0.9607 -0.0000
vn -0.3050 0.7173 -0.6264
vn -0.4330 0.7806 -0.4508
vn -0.7329 -0.1974 -0.6511
vn 0.0411 0.9966 -0.0714
vn 0.0365 0.9963 -0.0781
vn 0.0346 0.9961 -0.0808
vn 0.0365 -0.9963 -0.0781
vn 0.0411 -0.9966 -0.0714
vn 0.0346 -0.9961 -0.0808
vn -0.0000 0.9992 -0.0388
vn 0.8298 -0.0000 -0.5580
vn -0.0000 -0.9992 -0.0388
vn -0.0365 0.9963 -0.0781
vn -0.0411 0.9966 -0.0714
vn -0.0346 0.9961 -0.0808
vn -0.0411 -0.9966 -0.0714
vn -0.0365 -0.9963 -0.0781
vn -0.0346 -0.9961 -0.0808
vn -0.5050 -0.7929 -0.3409
vn -0.6782 -0.0000 0.7349
vn 0.6782 -0.0000 0.7349
vn -0.0000 0.7071 0.7071
vn 0.4645 0.4184 -0.7805
vn 0.5480 0.6578 -0.5167
vn 0.2992 0.1824 -0.9366
vn -0.0000 1.0000 -0.0010
vn -0.0000 1.0000 -0.0012
vn -0.0000 0.4029 0.9152
vn -0.0000 -0.9466 0.3223
vn -0.4584 0.5518 -0.6967
vn -0.6766 0.1700 -0.7165
vn -0.3033 0.3369 -0.8914
vn -0.2012 0.9557 -0.2148
vn -0.2079 0.9564 -0.2050
vn -0.2509 0.9578 -0.1400
vn 0.2012 0.9557 -0.2148
vn 0.2079 0.9564 -0.2050
vn 0.1714 0.9509 -0.2578
vn -0.0000 1.0000 0.0025
vn -0.0000 0.1702 0.9854
vn -0.2324 0.9626 0.1394
vn -0.2301 0.9627 0.1425
vn -0.2180 0.9631 0.1577
vn 0.2324 0.9626 0.1394
vn 0.2301 0.9627 0.1425
vn 0.2517 0.9610 0.1147
vn -0.3050 -0.7173 0.6264
vn -0.4330 -0.7806 0.4508
vn -0.7329 0.1974 0.6511
vn -0.6782 -0.0000 -0.7348
vn 0.2933 -0.7135 0.6363
vn 0.6317 -0.2742 0.7251
vn 0.5050 -0.7929 0.3409
vn -0.8298 -0.0000 0.5580
vn 0.6782 -0.0000 -0.7348
vn 0.3050 0.7173 0.6264
vn 0.4330 0.7806 0.4508
vn 0.7329 -0.1974 0.6511
vn -0.2933 0.7135 0.6363
vn -0.6317 0.2742 0.7251
vn -0.5050 0.7930 0.3409
vn 0.0411 0.9966 0.0714
vn 0.0365 0.9963 0.0781
vn 0.0430 0.9967 0.0686
vn 0.0411 -0.9966 0.0714
vn 0.0365 -0.9963 0.0781
vn 0.0346 -0.9961 0.0808
vn -0.0000 0.9992 0.0388
vn 0.8298 -0.0000 0.5580
vn -0.0000 -0.9992 0.0388
vn -0.0411 0.9966 0.0714
vn -0.0365 0.9963 0.0781
vn -0.0346 0.9961 0.0808
vn -0.0411 -0.9966 0.0714
vn -0.0365 -0.9963 0.0781
vn -0.0430 -0.9967 0.0686
vn -0.6782 -0.0000 -0.7349
vn 0.5050 -0.7930 0.3409
vn 0.6782 -0.0000 -0.7349
vn -0.0000 0.7071 -0.7071
vn 0.0846 0.0239 0.9961
vn 0.5363 0.1536 0.8299
vn 0.6574 0.1365 0.7411
vn -0.0000 1.0000 0.0045
vn -0.0000 1.0000 0.0053
vn -0.0000 0.0999 -0.9950
vn -0.0000 -0.5564 -0.8309
vn -0.0858 0.1239 0.9886
vn -0.4906 0.0527 0.8698
vn -0.0803 0.1176 0.9898
vn -0.3577 0.6939 0.6249
vn -0.3910 0.6519 0.6497
vn -0.4437 0.5767 0.6860
vn 0.3910 0.6519 0.6497
vn 0.3577 0.6939 0.6249
vn 0.4437 0.5767 0.6860
vn -0.0000 0.9999 -0.0110
vn -0.0000 0.0393 -0.9992
vn -0.5045 0.7222 -0.4732
vn -0.5123 0.7239 -0.4621
vn -0.5632 0.7321 -0.3832
vn 0.5123 0.7239 -0.4621
vn 0.5045 0.7222 -0.4732
vn 0.5632 0.7321 -0.3832
vn -0.4702 -0.1611 -0.8677
vn -0.6341 -0.2714 -0.7241
vn -0.3463 -0.1892 -0.9189
vn 0.6468 -0.7626 -0.0000
vn -0.6468 -0.7626 -0.0000
vn -0.5257 -0.0000 0.8507
vn 0.5624 -0.2991 -0.7709
vn 0.2945 0.3229 -0.8995
vn 0.4136 -0.2112 -0.8856
vn -0.7056 -0.0000 -0.7086
vn 0.5257 -0.0000 0.8507
vn 0.4702 0.1611 -0.8677
vn 0.6341 0.2714 -0.7240
vn 0.3463 0.1892 -0.9189
vn -0.6468 0.7626 -0.0000
vn 0.6468 0.7626 -0.0000
vn -0.5624 0.2991 -0.7709
vn -0.2945 -0.3229 -0.8995
vn -0.4136 0.2112 -0.8856
vn 0.1187 0.9446 -0.3059
vn 0.0960 0.9443 -0.3146
vn 0.1270 0.9446 -0.3027
vn 0.0960 -0.9443 -0.3146
vn 0.1187 -0.9446 -0.3059
vn 0.1270 -0.9446 -0.3027
vn -0.0000 0.9858 -0.1679
vn 0.7056 -0.0000 -0.7086
vn -0.0000 -0.9858 -0.1679
vn -0.0960 0.9443 -0.3146
vn -0.1187 0.9446 -0.3059
vn -0.1270 0.9446 -0.3027
vn -0.1187 -0.9446 -0.3059
vn -0.0960 -0.9443 -0.3146
vn -0.1270 -0.9446 -0.3027
vn 0.6341 0.2714 -0.7241
vn -0.0000 0.2223 0.9750
vn 0.5093 0.2437 -0.8254
vn 0.5675 0.2745 -0.7763
vn 0.0851 0.0177 -0.9962
vn -0.0000 1.0000 -0.0045
vn -0.0000 1.0000 -0.0053
vn -0.0000 0.0999 0.9950
vn -0.0000 -0.5564 0.8309
vn -0.5154 0.2025 -0.8327
vn -0.5554 0.1661 -0.8148
vn -0.0850 0.1166 -0.9895
vn -0.3577 0.6939 -0.6249
vn -0.3910 0.6519 -0.6497
vn -0.2353 0.8182 -0.5246
vn 0.3577 0.6939 -0.6249
vn 0.3910 0.6519 -0.6497
vn 0.4437 0.5767 -0.6860
vn -0.0000 0.9999 0.0110
vn -0.0000 0.0393 0.9992
vn -0.5045 0.7222 0.4732
vn -0.5123 0.7239 0.4621
vn -0.4752 0.7147 0.5133
vn 0.5045 0.7222 0.4732
vn 0.5123 0.7239 0.4621
vn 0.5632 0.7321 0.3832
vn -0.3784 -0.2051 0.9026
vn -0.5420 -0.2501 0.8023
vn -0.5372 -0.0136 0.8434
vn -0.5257 -0.0000 -0.8507
vn 0.4568 -0.2040 0.8659
vn 0.4305 -0.1804 0.8844
vn 0.4385 -0.3875 0.8109
vn -0.7056 -0.0000 0.7086
vn 0.5257 -0.0000 -0.8507
vn 0.3784 0.2051 0.9026
vn 0.5420 0.2501 0.8023
vn 0.5372 0.0136 0.8434
vn -0.4568 0.2040 0.8659
vn -0.4305 0.1804 0.8844
vn -0.4385 0.3875 0.8109
vn 0.0960 0.9443 0.3146
vn 0.1187 0.9446 0.3059
vn 0.1270 0.9446 0.3027
vn 0.0960 -0.9443 0.3146
vn 0.1187 -0.9446 0.3059
vn 0.0864 -0.9441 0.3182
vn -0.0000 0.9858 0.1679
vn 0.7056 -0.0000 0.7086
vn -0.0000 -0.9858 0.1679
vn -0.0960 0.9443 0.3146
vn -0.1187 0.9446 0.3059
vn -0.0864 0.9441 0.3182
vn -0.0960 -0.9443 0.3146
vn -0.1187 -0.9446 0.3059
vn -0.1270 -0.9446 0.3027
vn -0.4306 0.1804 0.8844
vn 0.0865 -0.9441 0.3182
vn -0.0865 0.9441 0.3182
vn -0.0000 0.2223 -0.9750
vn -0.0000 0.5486 0.8361
vn -0.0000 -0.5486 -0.8361
vn 0.5802 -0.0000 0.8145
vn 0.5802 -0.0000 -0.8145
vn -0.5802 -0.0000 -0.8145
vn -0.5802 -0.0000 0.8145
vn -0.7135 -0.0000 0.7006
vn -0.7135 -0.0000 -0.7006
vn 0.7135 -0.0000 -0.7006
vn 0.7135 -0.0000 0.7006
vn 0.8592 -0.0000 0.5116
vn 0.9057 -0.0000 -0.4240
vn -0.8592 -0.0000 0.5116
vn 0.8592 -0.0000 -0.5116
vn -0.9057 -0.0000 -0.4240
vn 0.9057 -0.0000 0.4240
vn -0.8592 -0.0000 -0.5116
vn -0.9057 -0.0000 0.4240
vn 0.1336 0.5103 0.8496
vn -0.0000 0.5149 0.8573
vn -0.8489 -0.0000 0.5286
vn -0.1714 0.9509 0.2578
vn 0.1714 0.9509 0.2578
vn -0.2180 0.9631 -0.1577
vn 0.2180 0.9631 -0.1577
vn -0.2233 -0.7733 -0.5935
vn -0.4080 -0.8898 -0.2042
vn 0.3799 -0.8284 -0.4116
vn 0.2233 -0.7733 -0.5935
vn 0.2233 0.7733 -0.5935
vn 0.4080 0.8898 -0.2042
vn -0.3799 0.8284 -0.4116
vn -0.2233 0.7733 -0.5935
vn 0.0430 0.9967 -0.0686
vn 0.0430 -0.9967 -0.0686
vn -0.0430 0.9967 -0.0686
vn -0.0430 -0.9967 -0.0686
vn 0.2503 0.9555 -0.1558
vn -0.0000 0.5149 -0.8573
vn -0.2503 0.9555 -0.1558
vn -0.1714 0.9509 -0.2578
vn 0.2509 0.9578 -0.1400
vn -0.2517 0.9610 0.1147
vn 0.2180 0.9631 0.1577
vn -0.2233 -0.7733 0.5935
vn -0.3799 -0.8284 0.4116
vn 0.2233 -0.7733 0.5935
vn 0.4080 -0.8898 0.2042
vn 0.2233 0.7733 0.5935
vn 0.3799 0.8284 0.4116
vn -0.2233 0.7733 0.5935
vn -0.4080 0.8898 0.2042
vn 0.0346 0.9961 0.0808
vn 0.0430 -0.9967 0.0686
vn -0.0430 0.9967 0.0686
vn -0.0346 -0.9961 0.0808
vn 0.1038 0.1349 0.9854
vn -0.0000 0.1357 0.9908
vn -0.7323 -0.0000 0.6810
vn -0.2353 0.8182 0.5246
vn 0.2353 0.8182 0.5246
vn -0.4752 0.7147 -0.5133
vn 0.4752 0.7147 -0.5133
vn -0.2348 -0.2768 -0.9318
vn -0.6885 -0.5112 -0.5145
vn 0.4468 -0.5268 -0.7230
vn 0.6885 -0.5112 -0.5145
vn 0.2348 0.2768 -0.9318
vn 0.6885 0.5112 -0.5145
vn -0.4468 0.5268 -0.7230
vn -0.6885 0.5112 -0.5145
vn 0.0864 0.9441 -0.3182
vn 0.0864 -0.9441 -0.3182
vn -0.0864 0.9441 -0.3182
vn -0.0865 -0.9441 -0.3182
vn 0.0865 0.9441 -0.3182
vn 0.0865 -0.9441 -0.3182
vn -0.0865 0.9441 -0.3182
vn 0.5304 0.6895 -0.4932
vn -0.0000 0.1357 -0.9908
vn -0.5304 0.6895 -0.4932
vn -0.4437 0.5767 -0.6860
vn 0.2353 0.8182 -0.5246
vn -0.5632 0.7321 0.3832
vn 0.4752 0.7147 0.5133
vn -0.2348 -0.2768 0.9318
vn -0.4897 -0.3636 0.7924
vn 0.4468 -0.5268 0.7230
vn 0.1354 0.8324 0.5374
vn 0.2348 0.2768 0.9318
vn 0.4897 0.3636 0.7924
vn -0.4468 0.5268 0.7230
vn -0.1354 -0.8324 0.5374
vn 0.0864 0.9441 0.3182
vn 0.1270 -0.9446 0.3027
vn -0.1270 0.9446 0.3027
vn -0.0865 -0.9441 0.3182
vn 0.0865 0.9441 0.3182
vt 0.500000 0.500000
vt 0.493179 0.500000
vt 0.375000 0.500000
vt 0.500000 0.375000
vt 0.625000 0.321431
vt 0.625000 0.250000
vt 0.803569 0.500000
vt 0.875000 0.606871
vt 0.875000 0.500000
vt 0.625000 0.606871
vt 0.625000 0.500000
vt 0.616446 0.375000
vt 0.625000 0.375000
vt 0.530646 0.750000
vt 0.625000 0.821431
vt 0.625000 0.750000
vt 0.500000 0.250000
vt 0.625000 0.143129
vt 0.530646 0.000000
vt 0.250000 0.750000
vt 0.375000 0.656233
vt 0.250000 0.656233
vt 0.250000 0.500000
vt 0.375000 0.250000
vt 0.436813 0.000000
vt 0.125000 0.656233
vt 0.125000 0.500000
vt 0.125000 0.750000
vt 0.436813 0.875000
vt 0.530646 0.821431
vt 0.436813 1.000000
vt 0.530646 0.928569
vt 0.524189 0.875000
vt 0.530646 0.928569
vt 0.625000 1.000000
vt 0.625000 0.928569
vt 0.625000 0.428569
vt 0.616446 0.375000
vt 0.696431 0.606871
vt 0.696431 0.500000
vt 0.524189 0.875000
vt 0.530646 0.928569
vt 0.803569 0.606871
vt 0.000000 0.000000
vt 0.375000 0.375000
vt 0.493179 0.250000
vt 0.493179 0.375000
vt 0.436813 0.750000
vt 0.530646 1.000000
vt 0.750000 0.500000
vt 0.734734 0.609026
vt 0.690328 0.594235
vt 0.309672 0.500000
vt 0.375000 0.608983
vt 0.250000 0.596351
vt 0.625000 0.315328
vt 0.375000 0.315328
vt 0.234734 0.640974
vt 0.125000 0.672466
vt 0.125000 0.608983
vt 0.234734 0.609026
vt 0.375000 0.434672
vt 0.375000 0.577534
vt 0.625000 0.608983
vt 0.375000 0.608983
vt 0.765266 0.640974
vt 0.809672 0.655765
vt 0.750000 0.750000
vt 0.265266 0.640974
vt 0.375000 0.672466
vt 0.190328 0.500000
vt 0.250000 0.596351
vt 0.815443 0.609006
vt 0.803901 0.611520
vt 0.809672 0.594235
vt 0.265266 0.640974
vt 0.375000 0.641017
vt 0.375000 0.815328
vt 0.625000 0.875000
vt 0.375000 0.875000
vt 0.734734 0.640974
vt 0.696099 0.609011
vt 0.734734 0.609026
vt 0.625000 0.141017
vt 0.375000 0.172466
vt 0.375000 0.141017
vt 0.375000 0.641017
vt 0.625000 0.672467
vt 0.375000 0.672466
vt 0.684557 0.640994
vt 0.690328 0.750000
vt 0.625000 0.672466
vt 0.625000 0.641017
vt 0.625000 0.108983
vt 0.625000 0.934672
vt 0.375000 0.934672
vt 0.765266 0.609026
vt 0.765266 0.640974
vt 0.750000 0.653649
vt 0.250000 0.653649
vt 0.750000 0.653649
vt 0.265266 0.609026
vt 0.750000 0.596351
vt 0.875000 0.577534
vt 0.625000 0.172466
vt 0.625000 0.577534
vt 0.625000 0.434672
vt 0.625000 0.815328
vt 0.625000 0.077534
vt 0.375000 0.108983
vt 0.375000 0.077534
vt 0.809672 0.500000
vt 0.803901 0.609011
vt 0.803901 0.609011
vt 0.803901 0.640989
vt 0.809672 0.655765
vt 0.875000 0.641017
vt 0.875000 0.672466
vt 0.690328 0.500000
vt 0.684557 0.609006
vt 0.684557 0.609006
vt 0.684557 0.640994
vt 0.696099 0.640989
vt 0.690328 0.655765
vt 0.815443 0.640994
vt 0.696099 0.640989
vt 0.690328 0.594235
vt 0.875000 0.608983
vt 0.815443 0.638507
vt 0.684557 0.611493
vt 0.696099 0.638480
vt 0.815443 0.640994
vt 0.696099 0.609011
vt 0.803901 0.640989
vt 0.125000 0.641017
vt 0.375000 0.750000
vt 0.375000 0.093767
vt 0.436813 0.750000
vt 0.375000 0.577534
vt 0.265266 0.609026
vt 0.190328 0.750000
vt 0.809672 0.750000
vt 0.309672 0.750000
vt 0.125000 0.577534
vt 0.765266 0.609026
s 1
f 14/1/1 161/2/1 157/3/1
f 21/4/2 22/5/3 2/6/4
f 22/7/5 6/8/5 2/9/5
f 14/1/1 7/10/1 4/11/1
f 17/5/6 18/12/7 16/13/6
f 8/14/8 25/15/8 7/16/8
f 13/17/9 6/18/9 5/19/9
f 20/20/10 12/21/10 19/22/10
f 19/22/11 3/3/11 15/23/11
f 1/24/9 5/19/9 10/25/9
f 12/21/1 8/14/1 14/1/1
f 3/3/11 156/23/11 15/23/11
f 9/26/11 15/23/11 1/27/11
f 10/28/10 19/22/10 9/26/10
f 20/29/12 27/30/12 8/14/12
f 10/31/12 28/32/12 29/33/12
f 28/34/8 6/35/8 26/36/8
f 14/1/13 23/37/14 24/38/15
f 27/30/9 33/15/9 25/15/9
f 25/39/9 16/40/9 23/40/9
f 30/41/16 27/30/17 29/41/18
f 28/32/19 30/33/20 29/33/21
f 7/10/5 23/40/5 4/11/5
f 31/30/22 30/33/22 32/42/22
f 33/15/23 32/34/23 34/36/23
f 16/40/6 34/43/5 17/7/6
f 23/37/24 18/38/25 24/38/26
f 18/12/27 22/5/28 24/12/29
f 17/7/1 26/43/1 22/7/1
f 34/36/1 28/34/1 26/36/1
f 67/44/30 55/44/31 56/44/32
f 37/44/5 36/44/5 35/44/5
f 46/44/5 48/44/5 43/44/5
f 35/44/1 51/44/1 44/44/1
f 40/44/11 41/44/11 39/44/11
f 54/44/11 42/44/11 40/44/11
f 51/44/11 41/44/11 56/44/11
f 60/44/33 41/44/33 42/44/33
f 38/44/5 45/44/5 36/44/5
f 36/44/12 39/44/12 35/44/12
f 60/44/34 57/44/34 63/44/34
f 61/44/35 41/44/35 59/44/35
f 45/44/9 40/44/9 36/44/9
f 44/44/5 37/44/5 35/44/5
f 55/44/11 53/44/11 52/44/11
f 45/44/5 49/44/5 46/44/5
f 48/44/5 44/44/5 43/44/5
f 54/44/11 58/44/11 57/44/11
f 55/44/11 51/44/11 56/44/11
f 46/44/36 54/44/36 45/44/36
f 57/44/37 69/44/38 70/44/39
f 62/44/40 64/44/40 71/44/40
f 52/44/41 44/44/41 51/44/41
f 52/44/33 46/44/33 43/44/33
f 70/44/42 49/44/43 50/44/44
f 69/44/12 55/44/12 65/44/12
f 47/44/45 59/44/45 37/44/45
f 38/44/46 63/44/46 50/44/46
f 37/44/33 60/44/33 38/44/33
f 47/44/47 66/44/48 67/44/49
f 67/44/50 62/44/51 65/44/52
f 71/44/53 67/44/54 66/44/55
f 65/44/56 74/44/56 69/44/56
f 68/44/12 48/44/12 49/44/12
f 73/44/57 72/44/57 74/44/57
f 71/44/12 74/44/12 62/44/12
f 68/44/58 71/44/58 66/44/58
f 74/44/59 70/44/60 69/44/61
f 70/44/62 73/44/63 68/44/64
f 107/44/30 95/44/65 96/44/32
f 77/44/5 76/44/5 75/44/5
f 86/44/5 88/44/5 83/44/5
f 75/44/1 91/44/1 84/44/1
f 80/44/11 81/44/11 79/44/11
f 94/44/11 82/44/11 80/44/11
f 91/44/11 81/44/11 96/44/11
f 100/44/33 81/44/33 82/44/33
f 78/44/5 85/44/5 76/44/5
f 76/44/12 79/44/12 75/44/12
f 100/44/34 97/44/34 103/44/34
f 101/44/35 81/44/35 99/44/35
f 85/44/9 80/44/9 76/44/9
f 84/44/5 77/44/5 75/44/5
f 95/44/11 93/44/11 92/44/11
f 85/44/5 89/44/5 86/44/5
f 88/44/5 84/44/5 83/44/5
f 94/44/11 98/44/11 97/44/11
f 95/44/11 91/44/11 96/44/11
f 86/44/36 94/44/66 85/44/66
f 97/44/37 109/44/38 110/44/39
f 102/44/40 104/44/40 111/44/40
f 92/44/41 84/44/41 91/44/41
f 92/44/33 86/44/33 83/44/33
f 110/44/42 89/44/43 90/44/44
f 109/44/12 95/44/12 105/44/12
f 87/44/45 99/44/45 77/44/45
f 78/44/46 103/44/46 90/44/46
f 77/44/33 100/44/33 78/44/33
f 87/44/47 106/44/48 107/44/49
f 107/44/50 102/44/51 105/44/52
f 111/44/53 107/44/54 106/44/55
f 105/44/56 114/44/56 109/44/56
f 108/44/12 88/44/12 89/44/12
f 113/44/57 112/44/57 114/44/57
f 111/44/12 114/44/12 102/44/12
f 108/44/58 111/44/58 106/44/58
f 114/44/59 110/44/60 109/44/61
f 110/44/62 113/44/63 108/44/64
f 147/44/30 135/44/65 136/44/32
f 117/44/5 116/44/5 115/44/5
f 126/44/5 128/44/5 123/44/5
f 115/44/1 131/44/1 124/44/1
f 120/44/11 121/44/11 119/44/11
f 120/44/11 137/44/11 122/44/11
f 119/44/11 136/44/11 131/44/11
f 140/44/33 121/44/33 122/44/33
f 116/44/5 130/44/5 125/44/5
f 116/44/12 119/44/12 115/44/12
f 140/44/34 137/44/34 143/44/34
f 141/44/35 121/44/35 139/44/35
f 125/44/9 120/44/9 116/44/9
f 127/44/5 115/44/5 124/44/5
f 135/44/11 133/44/11 132/44/11
f 125/44/5 129/44/5 126/44/5
f 128/44/5 124/44/5 123/44/5
f 134/44/11 138/44/11 137/44/11
f 135/44/11 131/44/11 136/44/11
f 126/44/36 134/44/66 125/44/66
f 137/44/37 149/44/38 150/44/39
f 142/44/40 144/44/40 151/44/40
f 132/44/67 124/44/41 131/44/41
f 132/44/33 126/44/33 123/44/33
f 150/44/42 129/44/43 130/44/44
f 138/44/12 145/44/12 149/44/12
f 127/44/45 139/44/45 117/44/45
f 118/44/46 143/44/46 130/44/46
f 117/44/33 140/44/33 118/44/33
f 127/44/47 146/44/48 147/44/49
f 147/44/50 142/44/51 145/44/52
f 151/44/53 147/44/54 146/44/55
f 142/44/56 149/44/56 145/44/56
f 148/44/12 128/44/12 129/44/12
f 153/44/57 152/44/57 154/44/57
f 151/44/12 154/44/12 142/44/12
f 153/44/58 146/44/58 148/44/58
f 154/44/59 150/44/60 149/44/61
f 150/44/62 153/44/63 148/44/64
f 21/4/5 160/1/5 14/1/5
f 13/17/5 162/4/5 21/4/5
f 156/45/33 158/46/33 155/24/33
f 15/23/11 155/27/11 1/27/11
f 1/24/9 158/46/9 159/17/9
f 157/3/33 163/47/33 156/45/33
f 161/2/68 162/4/68 163/47/68
f 163/47/68 159/17/68 158/46/68
f 320/3/1 323/1/1 177/1/1
f 165/6/69 187/12/70 184/4/71
f 185/7/5 169/8/5 189/43/5
f 177/1/1 170/10/1 171/14/1
f 180/5/72 179/13/72 181/12/73
f 188/15/74 171/14/74 170/16/74
f 176/17/9 169/18/9 165/6/9
f 175/21/75 183/20/75 182/22/75
f 166/3/11 182/22/11 178/23/11
f 173/25/9 176/17/9 164/24/9
f 177/1/1 174/48/1 175/21/1
f 319/23/11 166/3/11 178/23/11
f 178/23/11 172/26/11 164/27/11
f 182/22/75 173/28/75 172/26/75
f 171/14/33 192/41/33 183/29/33
f 192/33/33 168/49/33 173/31/33
f 169/35/74 191/34/74 189/36/74
f 187/38/76 167/11/77 177/1/78
f 190/30/9 196/15/9 194/30/9
f 188/39/9 179/40/9 196/39/9
f 190/30/79 193/41/80 192/41/81
f 191/32/82 193/33/83 195/32/84
f 186/40/5 170/10/5 167/11/5
f 194/30/85 195/42/85 193/33/85
f 195/34/86 196/15/86 197/36/86
f 197/43/5 179/40/72 180/7/72
f 186/37/87 181/38/88 179/37/89
f 185/5/90 181/12/91 187/12/92
f 189/43/1 180/7/1 185/7/1
f 191/34/1 197/36/1 189/36/1
f 219/44/93 228/44/94 230/44/95
f 199/44/5 200/44/5 198/44/5
f 211/44/5 209/44/5 206/44/5
f 214/44/1 198/44/1 207/44/1
f 204/44/11 203/44/11 202/44/11
f 205/44/11 217/44/11 203/44/11
f 214/44/11 204/44/11 202/44/11
f 223/44/12 204/44/12 222/44/12
f 208/44/5 201/44/5 199/44/5
f 202/44/33 199/44/33 198/44/33
f 220/44/34 223/44/34 226/44/34
f 204/44/35 224/44/35 222/44/35
f 203/44/9 208/44/9 199/44/9
f 207/44/5 200/44/5 210/44/5
f 216/44/11 218/44/11 215/44/11
f 212/44/5 208/44/5 209/44/5
f 211/44/5 207/44/5 210/44/5
f 217/44/11 221/44/11 216/44/11
f 214/44/11 218/44/11 219/44/11
f 217/44/96 209/44/96 208/44/96
f 220/44/97 233/44/98 221/44/99
f 225/44/100 234/44/100 227/44/100
f 207/44/101 215/44/101 214/44/101
f 209/44/12 215/44/12 206/44/12
f 213/44/102 231/44/103 233/44/104
f 232/44/33 218/44/33 221/44/33
f 222/44/45 210/44/45 200/44/45
f 226/44/46 201/44/46 213/44/46
f 223/44/12 200/44/12 201/44/12
f 210/44/105 230/44/106 211/44/107
f 230/44/108 225/44/109 227/44/110
f 230/44/111 234/44/112 229/44/113
f 228/44/114 237/44/114 225/44/114
f 211/44/33 231/44/33 212/44/33
f 236/44/115 237/44/115 235/44/115
f 237/44/33 234/44/33 225/44/33
f 231/44/116 234/44/116 236/44/116
f 233/44/117 237/44/118 232/44/119
f 233/44/120 236/44/121 235/44/122
f 259/44/93 268/44/94 270/44/95
f 239/44/5 240/44/5 238/44/5
f 251/44/5 249/44/5 246/44/5
f 254/44/1 238/44/1 247/44/1
f 244/44/11 243/44/11 242/44/11
f 245/44/11 257/44/11 243/44/11
f 254/44/11 244/44/11 242/44/11
f 263/44/12 244/44/12 262/44/12
f 248/44/5 241/44/5 239/44/5
f 242/44/33 239/44/33 238/44/33
f 260/44/34 263/44/34 266/44/34
f 244/44/35 264/44/35 262/44/35
f 243/44/9 248/44/9 239/44/9
f 247/44/5 240/44/5 250/44/5
f 256/44/11 258/44/11 255/44/11
f 252/44/5 248/44/5 249/44/5
f 251/44/5 247/44/5 250/44/5
f 257/44/11 261/44/11 256/44/11
f 254/44/11 258/44/11 259/44/11
f 257/44/123 249/44/96 248/44/123
f 260/44/97 273/44/98 261/44/124
f 265/44/100 274/44/100 267/44/100
f 247/44/101 255/44/125 254/44/101
f 249/44/12 255/44/12 246/44/12
f 253/44/102 271/44/103 273/44/104
f 268/44/33 261/44/33 272/44/33
f 262/44/45 250/44/45 240/44/45
f 266/44/46 241/44/46 253/44/46
f 263/44/12 240/44/12 241/44/12
f 250/44/105 270/44/106 251/44/107
f 270/44/108 265/44/109 267/44/110
f 270/44/111 274/44/112 269/44/113
f 268/44/114 277/44/114 265/44/114
f 251/44/33 271/44/33 252/44/33
f 276/44/115 277/44/115 275/44/115
f 277/44/33 274/44/33 265/44/33
f 271/44/116 274/44/116 276/44/116
f 273/44/117 277/44/118 272/44/119
f 273/44/120 276/44/121 275/44/122
f 299/44/93 308/44/94 310/44/95
f 279/44/5 280/44/5 278/44/5
f 291/44/5 289/44/5 286/44/5
f 294/44/1 278/44/1 287/44/1
f 284/44/11 283/44/11 282/44/11
f 283/44/11 300/44/11 297/44/11
f 299/44/11 282/44/11 294/44/11
f 303/44/12 284/44/12 302/44/12
f 279/44/5 293/44/5 281/44/5
f 282/44/33 279/44/33 278/44/33
f 306/44/34 285/44/34 303/44/34
f 284/44/35 304/44/35 302/44/35
f 283/44/9 288/44/9 279/44/9
f 278/44/5 290/44/5 287/44/5
f 296/44/11 298/44/11 295/44/11
f 292/44/5 288/44/5 289/44/5
f 291/44/5 287/44/5 290/44/5
f 297/44/11 301/44/11 296/44/11
f 294/44/11 298/44/11 299/44/11
f 297/44/123 289/44/96 288/44/123
f 300/44/97 313/44/98 301/44/99
f 305/44/100 314/44/100 307/44/100
f 287/44/101 295/44/125 294/44/101
f 289/44/12 295/44/12 286/44/12
f 293/44/102 311/44/103 313/44/104
f 308/44/33 301/44/33 312/44/33
f 302/44/45 290/44/45 280/44/45
f 306/44/46 281/44/46 293/44/46
f 303/44/12 280/44/12 281/44/12
f 290/44/105 310/44/106 291/44/107
f 310/44/108 305/44/109 307/44/110
f 310/44/111 314/44/112 309/44/113
f 312/44/114 305/44/114 308/44/114
f 291/44/33 311/44/33 292/44/33
f 316/44/115 317/44/115 315/44/115
f 317/44/33 314/44/33 305/44/33
f 309/44/116 316/44/116 311/44/116
f 313/44/117 317/44/118 312/44/119
f 313/44/120 316/44/121 315/44/122
f 323/1/5 184/4/5 177/1/5
f 325/4/5 176/17/5 184/4/5
f 321/46/12 319/45/12 318/24/12
f 318/27/11 178/23/11 164/27/11
f 322/17/9 318/24/9 164/24/9
f 326/47/12 320/3/12 319/45/12
f 325/4/126 324/2/126 326/47/126
f 322/17/126 326/47/126 321/46/126
f 340/1/1 487/2/1 483/3/1
f 347/4/127 348/5/128 328/6/129
f 348/7/5 332/8/5 328/9/5
f 340/1/1 333/10/1 330/11/1
f 343/5/130 344/12/131 342/13/130
f 333/16/132 353/30/132 351/15/132
f 339/17/9 332/18/9 331/19/9
f 346/20/133 338/21/133 345/22/133
f 345/22/11 329/3/11 341/23/11
f 327/24/9 331/19/9 336/25/9
f 338/21/1 334/14/1 340/1/1
f 329/3/11 482/23/11 341/23/11
f 335/26/11 341/23/11 327/27/11
f 336/28/133 345/22/133 335/26/133
f 346/29/12 353/30/12 334/14/12
f 336/31/12 354/32/12 355/33/12
f 354/34/132 332/35/132 352/36/132
f 340/1/134 349/37/135 350/38/136
f 353/30/9 359/15/9 351/15/9
f 351/39/9 342/40/9 349/40/9
f 355/41/137 357/30/138 353/30/139
f 358/32/140 355/33/141 354/32/142
f 333/10/5 349/40/5 330/11/5
f 357/30/143 356/33/143 358/42/143
f 359/15/144 358/34/144 360/36/144
f 342/40/130 360/43/5 343/7/130
f 349/37/145 344/38/146 350/38/147
f 344/12/148 348/5/149 350/12/150
f 343/7/1 352/43/1 348/7/1
f 360/36/1 354/34/1 352/36/1
f 393/44/151 381/44/152 382/44/153
f 363/44/5 362/44/5 361/44/5
f 372/44/5 374/44/5 369/44/5
f 361/44/1 377/44/1 370/44/1
f 366/44/11 367/44/11 365/44/11
f 380/44/11 368/44/11 366/44/11
f 377/44/11 367/44/11 382/44/11
f 386/44/33 367/44/33 368/44/33
f 364/44/5 371/44/5 362/44/5
f 362/44/12 365/44/12 361/44/12
f 386/44/154 383/44/154 389/44/154
f 387/44/155 367/44/155 385/44/155
f 371/44/9 366/44/9 362/44/9
f 370/44/5 363/44/5 361/44/5
f 381/44/11 379/44/11 378/44/11
f 371/44/5 375/44/5 372/44/5
f 374/44/5 370/44/5 369/44/5
f 380/44/11 384/44/11 383/44/11
f 381/44/11 377/44/11 382/44/11
f 371/44/156 379/44/156 380/44/156
f 384/44/157 396/44/158 389/44/159
f 388/44/160 390/44/160 397/44/160
f 378/44/161 370/44/161 377/44/161
f 378/44/33 372/44/33 369/44/33
f 396/44/162 375/44/163 376/44/164
f 395/44/12 381/44/12 391/44/12
f 373/44/165 385/44/165 363/44/165
f 376/44/166 386/44/166 389/44/166
f 363/44/33 386/44/33 364/44/33
f 374/44/167 393/44/168 387/44/169
f 390/44/170 391/44/171 393/44/172
f 392/44/173 390/44/174 393/44/175
f 388/44/176 395/44/176 391/44/176
f 394/44/12 374/44/12 375/44/12
f 399/44/177 398/44/177 400/44/177
f 388/44/12 399/44/12 400/44/12
f 399/44/178 392/44/178 394/44/178
f 395/44/179 398/44/180 396/44/181
f 398/44/182 394/44/183 396/44/184
f 433/44/151 421/44/152 422/44/153
f 403/44/5 402/44/5 401/44/5
f 412/44/5 414/44/5 409/44/5
f 401/44/1 417/44/1 410/44/1
f 406/44/11 407/44/11 405/44/11
f 420/44/11 408/44/11 406/44/11
f 417/44/11 407/44/11 422/44/11
f 426/44/33 407/44/33 408/44/33
f 404/44/5 411/44/5 402/44/5
f 402/44/12 405/44/12 401/44/12
f 426/44/154 423/44/154 429/44/154
f 427/44/155 407/44/155 425/44/155
f 411/44/9 406/44/9 402/44/9
f 410/44/5 403/44/5 401/44/5
f 421/44/11 419/44/11 418/44/11
f 411/44/5 415/44/5 412/44/5
f 414/44/5 410/44/5 409/44/5
f 420/44/11 424/44/11 423/44/11
f 421/44/11 417/44/11 422/44/11
f 412/44/156 420/44/156 411/44/156
f 424/44/157 436/44/158 429/44/159
f 428/44/160 430/44/160 437/44/160
f 418/44/161 410/44/161 417/44/161
f 418/44/33 412/44/33 409/44/33
f 436/44/162 415/44/185 416/44/164
f 424/44/12 431/44/12 435/44/12
f 413/44/165 425/44/165 403/44/165
f 404/44/166 429/44/166 416/44/166
f 403/44/33 426/44/33 404/44/33
f 414/44/167 433/44/168 427/44/169
f 430/44/170 431/44/171 433/44/172
f 432/44/173 430/44/174 433/44/175
f 428/44/176 435/44/176 431/44/176
f 434/44/12 414/44/12 415/44/12
f 439/44/177 438/44/177 440/44/177
f 437/44/12 440/44/12 428/44/12
f 439/44/178 432/44/178 434/44/178
f 435/44/179 438/44/180 436/44/181
f 438/44/182 434/44/183 436/44/184
f 473/44/151 461/44/152 462/44/153
f 443/44/5 442/44/5 441/44/5
f 452/44/5 454/44/5 449/44/5
f 441/44/1 457/44/1 450/44/1
f 446/44/11 447/44/11 445/44/11
f 446/44/11 463/44/11 448/44/11
f 445/44/11 462/44/11 457/44/11
f 466/44/33 447/44/33 448/44/33
f 442/44/5 456/44/5 451/44/5
f 442/44/12 445/44/12 441/44/12
f 466/44/154 463/44/154 469/44/154
f 467/44/155 447/44/155 465/44/155
f 451/44/9 446/44/9 442/44/9
f 453/44/5 441/44/5 450/44/5
f 461/44/11 459/44/11 458/44/11
f 451/44/5 455/44/5 452/44/5
f 454/44/5 450/44/5 449/44/5
f 460/44/11 464/44/11 463/44/11
f 461/44/11 457/44/11 462/44/11
f 452/44/156 460/44/156 451/44/156
f 464/44/157 476/44/158 469/44/159
f 468/44/160 470/44/160 477/44/160
f 458/44/161 450/44/161 457/44/161
f 458/44/33 452/44/33 449/44/33
f 476/44/162 455/44/163 456/44/164
f 464/44/12 471/44/12 475/44/12
f 453/44/165 465/44/165 443/44/165
f 444/44/166 469/44/166 456/44/166
f 443/44/33 466/44/33 444/44/33
f 454/44/167 473/44/168 467/44/169
f 470/44/170 471/44/171 473/44/172
f 472/44/173 470/44/174 473/44/175
f 468/44/176 475/44/176 471/44/176
f 474/44/12 454/44/12 455/44/12
f 479/44/177 478/44/177 480/44/177
f 477/44/12 480/44/12 468/44/12
f 479/44/178 472/44/178 474/44/178
f 475/44/179 478/44/180 476/44/181
f 478/44/182 474/44/183 476/44/184
f 347/4/5 486/1/5 340/1/5
f 339/17/5 488/4/5 347/4/5
f 482/45/33 484/46/33 481/24/33
f 341/23/11 481/27/11 327/27/11
f 327/24/9 484/46/9 485/17/9
f 483/3/33 489/47/33 482/45/33
f 487/2/186 488/4/186 489/47/186
f 489/47/186 485/17/186 484/46/186
f 646/3/1 649/1/1 503/1/1
f 491/6/187 513/12/188 510/4/189
f 511/7/5 495/8/5 515/43/5
f 503/1/1 496/10/1 497/14/1
f 506/5/190 505/13/190 507/12/191
f 514/15/192 497/14/192 496/16/192
f 502/17/9 495/18/9 491/6/9
f 501/21/193 509/20/193 508/22/193
f 492/3/11 508/22/11 504/23/11
f 499/25/9 502/17/9 490/24/9
f 503/1/1 500/48/1 501/21/1
f 645/23/11 492/3/11 504/23/11
f 504/23/11 498/26/11 490/27/11
f 508/22/193 499/28/193 498/26/193
f 497/14/33 518/41/33 509/29/33
f 518/33/33 494/49/33 499/31/33
f 495/35/192 517/34/192 515/36/192
f 513/38/194 493/11/195 503/1/196
f 516/30/9 522/15/9 520/30/9
f 514/39/9 505/40/9 522/39/9
f 518/41/197 520/30/198 519/41/199
f 518/33/200 521/32/201 517/32/202
f 512/40/5 496/10/5 493/11/5
f 520/30/203 521/42/203 519/33/203
f 521/34/204 522/15/204 523/36/204
f 523/43/5 505/40/190 506/7/190
f 512/37/205 507/38/206 505/37/207
f 511/5/208 507/12/209 513/12/210
f 515/43/1 506/7/1 511/7/1
f 517/34/1 523/36/1 515/36/1
f 545/44/211 554/44/212 556/44/213
f 525/44/5 526/44/5 524/44/5
f 537/44/5 535/44/5 532/44/5
f 540/44/1 524/44/1 533/44/1
f 530/44/11 529/44/11 528/44/11
f 531/44/11 543/44/11 529/44/11
f 540/44/11 530/44/11 528/44/11
f 549/44/12 530/44/12 548/44/12
f 534/44/5 527/44/5 525/44/5
f 528/44/33 525/44/33 524/44/33
f 546/44/154 549/44/154 552/44/154
f 530/44/155 550/44/155 548/44/155
f 529/44/9 534/44/9 525/44/9
f 533/44/5 526/44/5 536/44/5
f 542/44/11 544/44/11 541/44/11
f 538/44/5 534/44/5 535/44/5
f 537/44/5 533/44/5 536/44/5
f 543/44/11 547/44/11 542/44/11
f 540/44/11 544/44/11 545/44/11
f 534/44/214 542/44/214 535/44/214
f 552/44/215 558/44/216 547/44/217
f 551/44/218 560/44/218 553/44/218
f 533/44/219 541/44/219 540/44/219
f 535/44/12 541/44/12 532/44/12
f 539/44/220 557/44/221 559/44/222
f 558/44/33 544/44/33 547/44/33
f 548/44/165 536/44/165 526/44/165
f 539/44/166 549/44/166 527/44/166
f 549/44/12 526/44/12 527/44/12
f 550/44/223 555/44/224 537/44/225
f 554/44/226 553/44/227 556/44/228
f 555/44/229 553/44/230 560/44/231
f 558/44/232 551/44/232 554/44/232
f 537/44/33 557/44/33 538/44/33
f 562/44/233 563/44/233 561/44/233
f 551/44/33 562/44/33 560/44/33
f 555/44/234 562/44/234 557/44/234
f 558/44/235 561/44/236 563/44/237
f 557/44/238 561/44/239 559/44/240
f 585/44/211 594/44/212 596/44/213
f 565/44/5 566/44/5 564/44/5
f 577/44/5 575/44/5 572/44/5
f 580/44/1 564/44/1 573/44/1
f 570/44/11 569/44/11 568/44/11
f 571/44/11 583/44/11 569/44/11
f 580/44/11 570/44/11 568/44/11
f 589/44/12 570/44/12 588/44/12
f 574/44/5 567/44/5 565/44/5
f 568/44/33 565/44/33 564/44/33
f 586/44/154 589/44/154 592/44/154
f 570/44/155 590/44/155 588/44/155
f 569/44/9 574/44/9 565/44/9
f 573/44/5 566/44/5 576/44/5
f 582/44/11 584/44/11 581/44/11
f 578/44/5 574/44/5 575/44/5
f 577/44/5 573/44/5 576/44/5
f 583/44/11 587/44/11 582/44/11
f 580/44/11 584/44/11 585/44/11
f 583/44/214 575/44/214 574/44/214
f 592/44/215 598/44/216 587/44/217
f 591/44/218 600/44/218 593/44/218
f 573/44/219 581/44/219 580/44/219
f 575/44/12 581/44/12 572/44/12
f 579/44/220 597/44/221 599/44/222
f 594/44/33 587/44/33 598/44/33
f 588/44/165 576/44/165 566/44/165
f 592/44/166 567/44/166 579/44/166
f 589/44/12 566/44/12 567/44/12
f 590/44/223 595/44/224 577/44/225
f 594/44/226 593/44/227 596/44/228
f 595/44/229 593/44/230 600/44/231
f 598/44/232 591/44/232 594/44/232
f 577/44/33 597/44/33 578/44/33
f 602/44/233 603/44/233 601/44/233
f 603/44/33 600/44/33 591/44/33
f 595/44/234 602/44/234 597/44/234
f 598/44/235 601/44/236 603/44/237
f 597/44/238 601/44/239 599/44/240
f 625/44/211 634/44/212 636/44/213
f 605/44/5 606/44/5 604/44/5
f 617/44/5 615/44/5 612/44/5
f 620/44/1 604/44/1 613/44/1
f 610/44/11 609/44/11 608/44/11
f 609/44/11 626/44/11 623/44/11
f 625/44/11 608/44/11 620/44/11
f 629/44/12 610/44/12 628/44/12
f 605/44/5 619/44/5 607/44/5
f 608/44/33 605/44/33 604/44/33
f 626/44/154 629/44/154 632/44/154
f 610/44/155 630/44/155 628/44/155
f 609/44/9 614/44/9 605/44/9
f 604/44/5 616/44/5 613/44/5
f 622/44/11 624/44/11 621/44/11
f 618/44/5 614/44/5 615/44/5
f 617/44/5 613/44/5 616/44/5
f 623/44/11 627/44/11 622/44/11
f 620/44/11 624/44/11 625/44/11
f 623/44/214 615/44/214 614/44/214
f 632/44/215 638/44/216 627/44/217
f 631/44/218 640/44/218 633/44/218
f 613/44/219 621/44/219 620/44/219
f 615/44/12 621/44/12 612/44/12
f 619/44/220 637/44/221 639/44/222
f 634/44/33 627/44/33 638/44/33
f 628/44/165 616/44/165 606/44/165
f 632/44/166 607/44/166 619/44/166
f 629/44/12 606/44/12 607/44/12
f 630/44/223 635/44/241 617/44/225
f 634/44/226 633/44/227 636/44/228
f 635/44/229 633/44/230 640/44/242
f 638/44/232 631/44/232 634/44/232
f 617/44/33 637/44/33 618/44/33
f 642/44/233 643/44/233 641/44/233
f 643/44/33 640/44/33 631/44/33
f 635/44/234 642/44/234 637/44/234
f 638/44/235 641/44/236 643/44/243
f 637/44/238 641/44/239 639/44/240
f 649/1/5 510/4/5 503/1/5
f 651/4/5 502/17/5 510/4/5
f 647/46/12 645/45/12 644/24/12
f 644/27/11 504/23/11 490/27/11
f 648/17/9 644/24/9 490/24/9
f 652/47/12 646/3/12 645/45/12
f 651/4/244 650/2/244 652/47/244
f 648/17/244 652/47/244 647/46/244
f 654/50/245 666/51/245 705/52/245
f 689/53/246 661/54/246 673/55/246
f 683/56/12 653/45/12 682/57/12
f 674/58/246 655/20/246 678/59/246
f 674/58/246 658/60/246 672/61/246
f 654/13/12 689/62/12 653/45/12
f 690/63/1 664/64/1 661/65/1
f 669/66/245 702/67/245 656/68/245
f 675/69/246 685/70/246 655/20/246
f 682/71/246 673/72/246 658/60/246
f 695/73/245 694/74/245 696/75/245
f 675/76/246 661/54/246 662/77/246
f 686/78/33 656/79/33 655/80/33
f 668/81/245 703/82/245 666/83/245
f 659/84/9 681/85/9 658/86/9
f 662/87/1 688/88/1 685/89/1
f 706/90/245 687/91/245 688/92/245
f 663/93/1 661/65/1 664/64/1
f 658/86/9 660/94/9 659/84/9
f 655/80/33 680/95/33 677/96/33
f 673/72/247 665/97/247 672/61/247
f 672/61/1 669/98/1 674/58/1
f 674/58/248 670/99/248 676/100/248
f 675/69/249 670/101/249 668/81/249
f 671/102/9 668/81/9 666/83/9
f 673/55/250 666/51/250 667/103/250
f 684/104/245 697/73/245 699/75/245
f 680/95/251 678/35/251 677/96/251
f 682/57/252 684/105/252 683/56/252
f 691/106/253 689/62/253 692/107/253
f 687/108/254 685/89/254 688/88/254
f 679/109/9 657/110/9 678/111/9
f 683/112/245 698/113/245 667/103/245
f 669/98/245 698/114/245 700/115/245
f 702/116/245 660/117/245 679/118/245
f 692/119/245 704/120/245 664/64/245
f 663/93/245 704/121/245 706/122/245
f 707/123/245 670/101/245 687/91/245
f 706/90/255 714/124/255 708/124/255
f 699/75/256 694/113/256 698/113/256
f 698/114/1 709/115/1 700/115/1
f 701/125/257 693/116/257 710/125/257
f 703/82/9 716/126/9 712/82/9
f 705/127/258 713/120/258 704/120/258
f 660/117/245 697/73/245 659/128/245
f 709/115/245 710/129/245 693/116/245
f 712/82/245 713/130/245 711/127/245
f 715/122/245 716/131/245 714/124/245
f 694/114/245 710/132/245 709/115/245
f 715/122/245 712/82/245 716/126/245
f 705/52/259 712/133/259 711/52/259
f 697/73/9 710/132/9 695/73/9
f 700/134/260 693/67/260 702/67/260
f 699/75/261 695/73/261 696/75/261
f 704/121/1 715/122/1 706/122/1
f 707/123/262 714/124/262 716/123/262
f 718/50/245 730/51/245 769/52/245
f 753/53/246 725/54/246 737/55/246
f 747/56/12 717/45/12 746/57/12
f 738/58/246 719/20/246 742/59/246
f 721/135/246 736/61/246 738/58/246
f 718/13/12 753/62/12 717/45/12
f 754/63/1 728/64/1 725/65/1
f 733/66/245 766/67/245 720/68/245
f 739/69/246 749/70/246 719/20/246
f 746/71/246 737/72/246 722/60/246
f 759/73/245 758/74/245 760/75/245
f 739/76/246 725/54/246 726/77/246
f 750/78/33 720/79/33 719/80/33
f 732/81/245 767/82/245 730/83/245
f 723/84/9 745/85/9 722/86/9
f 726/87/1 752/88/1 749/89/1
f 770/90/245 751/91/245 752/92/245
f 727/93/1 725/65/1 728/64/1
f 722/86/9 724/94/9 723/84/9
f 719/80/33 744/95/33 741/96/33
f 737/72/247 729/97/247 736/61/247
f 736/61/1 733/98/1 738/58/1
f 738/58/248 734/99/248 740/100/248
f 739/69/249 734/101/249 732/81/249
f 735/102/9 732/81/9 730/83/9
f 737/55/250 730/51/250 731/103/250
f 748/104/245 761/73/245 763/75/245
f 744/95/251 742/35/251 741/96/251
f 746/57/252 748/105/252 747/56/252
f 755/106/253 753/62/253 756/107/253
f 751/108/254 749/89/254 752/88/254
f 743/109/9 721/110/9 742/111/9
f 747/112/245 762/113/245 731/103/245
f 733/98/245 762/114/245 764/115/245
f 766/116/245 724/117/245 743/118/245
f 756/119/245 768/120/245 728/64/245
f 770/122/245 728/64/245 768/121/245
f 771/123/245 734/101/245 751/91/245
f 770/90/255 778/124/255 772/124/255
f 763/75/256 758/113/256 762/113/256
f 762/114/1 773/115/1 764/115/1
f 765/125/257 757/116/257 774/125/257
f 767/82/9 780/126/9 776/82/9
f 769/127/258 777/120/258 768/120/258
f 765/132/245 723/128/245 724/117/245
f 773/115/245 774/129/245 757/116/245
f 776/82/245 777/130/245 775/127/245
f 779/122/245 780/131/245 778/124/245
f 773/115/245 759/73/245 774/132/245
f 777/121/245 780/126/245 779/122/245
f 769/52/259 776/133/259 775/52/259
f 761/73/9 774/132/9 759/73/9
f 764/134/260 757/67/260 766/67/260
f 763/75/261 759/73/261 760/75/261
f 768/121/1 779/122/1 770/122/1
f 771/123/262 778/124/262 780/123/262
f 157/3/1 3/3/1 14/1/1
f 14/1/1 160/1/1 161/2/1
f 2/6/4 13/17/33 21/4/2
f 21/4/2 24/12/263 22/5/3
f 22/7/5 26/43/5 6/8/5
f 14/1/1 8/14/1 7/10/1
f 8/14/8 27/30/8 25/15/8
f 13/17/9 2/6/9 6/18/9
f 20/20/10 11/136/10 12/21/10
f 19/22/11 12/21/11 3/3/11
f 10/25/9 9/137/9 1/24/9
f 1/24/9 13/17/9 5/19/9
f 14/1/1 3/3/1 12/21/1
f 12/21/1 11/48/1 8/14/1
f 3/3/11 157/3/11 156/23/11
f 9/26/11 19/22/11 15/23/11
f 10/28/10 20/20/10 19/22/10
f 8/14/12 11/138/12 20/29/12
f 20/29/12 29/41/12 27/30/12
f 29/33/12 20/29/12 10/31/12
f 10/31/12 5/49/12 28/32/12
f 28/34/8 5/49/8 6/35/8
f 24/38/15 21/4/264 14/1/13
f 14/1/13 4/11/265 23/37/14
f 27/30/9 31/30/9 33/15/9
f 25/39/9 33/39/9 16/40/9
f 30/41/16 31/30/266 27/30/17
f 28/32/19 32/32/267 30/33/20
f 7/10/5 25/39/5 23/40/5
f 33/15/23 31/30/23 32/34/23
f 16/40/6 33/39/5 34/43/5
f 23/37/24 16/37/268 18/38/25
f 18/12/27 17/5/269 22/5/28
f 17/7/1 34/43/1 26/43/1
f 34/36/1 32/34/1 28/34/1
f 56/44/32 61/44/270 67/44/30
f 67/44/30 65/44/271 55/44/31
f 37/44/5 38/44/5 36/44/5
f 46/44/5 49/44/5 48/44/5
f 35/44/1 39/44/1 51/44/1
f 40/44/11 42/44/11 41/44/11
f 54/44/11 57/44/11 42/44/11
f 51/44/11 39/44/11 41/44/11
f 60/44/33 59/44/33 41/44/33
f 38/44/5 50/44/5 45/44/5
f 36/44/12 40/44/12 39/44/12
f 60/44/34 42/44/34 57/44/34
f 61/44/35 56/44/35 41/44/35
f 45/44/9 54/44/9 40/44/9
f 44/44/5 47/44/5 37/44/5
f 55/44/11 58/44/11 53/44/11
f 45/44/5 50/44/5 49/44/5
f 48/44/5 47/44/5 44/44/5
f 54/44/11 53/44/11 58/44/11
f 55/44/11 52/44/11 51/44/11
f 46/44/36 53/44/36 54/44/36
f 57/44/37 58/44/272 69/44/38
f 70/44/39 63/44/273 57/44/37
f 52/44/41 43/44/41 44/44/41
f 52/44/33 53/44/33 46/44/33
f 50/44/44 63/44/274 70/44/42
f 70/44/42 68/44/275 49/44/43
f 69/44/12 58/44/12 55/44/12
f 47/44/45 61/44/45 59/44/45
f 38/44/46 60/44/46 63/44/46
f 37/44/33 59/44/33 60/44/33
f 47/44/47 48/44/276 66/44/48
f 67/44/49 61/44/277 47/44/47
f 67/44/50 64/44/278 62/44/51
f 71/44/53 64/44/279 67/44/54
f 65/44/56 62/44/56 74/44/56
f 68/44/12 66/44/12 48/44/12
f 71/44/12 73/44/12 74/44/12
f 68/44/58 73/44/58 71/44/58
f 74/44/59 72/44/280 70/44/60
f 70/44/62 72/44/281 73/44/63
f 96/44/32 101/44/270 107/44/30
f 107/44/30 105/44/271 95/44/65
f 77/44/5 78/44/5 76/44/5
f 86/44/5 89/44/5 88/44/5
f 75/44/1 79/44/1 91/44/1
f 80/44/11 82/44/11 81/44/11
f 94/44/11 97/44/11 82/44/11
f 91/44/11 79/44/11 81/44/11
f 100/44/33 99/44/33 81/44/33
f 78/44/5 90/44/5 85/44/5
f 76/44/12 80/44/12 79/44/12
f 100/44/34 82/44/34 97/44/34
f 101/44/35 96/44/35 81/44/35
f 85/44/9 94/44/9 80/44/9
f 84/44/5 87/44/5 77/44/5
f 95/44/11 98/44/11 93/44/11
f 85/44/5 90/44/5 89/44/5
f 88/44/5 87/44/5 84/44/5
f 94/44/11 93/44/11 98/44/11
f 95/44/11 92/44/11 91/44/11
f 86/44/36 93/44/36 94/44/66
f 97/44/37 98/44/272 109/44/38
f 110/44/39 103/44/273 97/44/37
f 92/44/41 83/44/67 84/44/41
f 92/44/33 93/44/33 86/44/33
f 90/44/44 103/44/274 110/44/42
f 110/44/42 108/44/275 89/44/43
f 109/44/12 98/44/12 95/44/12
f 87/44/45 101/44/45 99/44/45
f 78/44/46 100/44/46 103/44/46
f 77/44/33 99/44/33 100/44/33
f 87/44/47 88/44/276 106/44/48
f 107/44/49 101/44/277 87/44/47
f 107/44/50 104/44/278 102/44/51
f 111/44/53 104/44/279 107/44/54
f 105/44/56 102/44/56 114/44/56
f 108/44/12 106/44/12 88/44/12
f 111/44/12 113/44/12 114/44/12
f 108/44/58 113/44/58 111/44/58
f 114/44/59 112/44/280 110/44/60
f 110/44/62 112/44/281 113/44/63
f 136/44/32 141/44/270 147/44/30
f 147/44/30 145/44/271 135/44/65
f 117/44/5 118/44/5 116/44/5
f 126/44/5 129/44/5 128/44/5
f 115/44/1 119/44/1 131/44/1
f 120/44/11 122/44/11 121/44/11
f 120/44/11 134/44/11 137/44/11
f 119/44/11 121/44/11 136/44/11
f 140/44/33 139/44/33 121/44/33
f 116/44/5 118/44/5 130/44/5
f 116/44/12 120/44/12 119/44/12
f 140/44/34 122/44/34 137/44/34
f 141/44/35 136/44/35 121/44/35
f 125/44/9 134/44/9 120/44/9
f 127/44/5 117/44/5 115/44/5
f 135/44/11 138/44/11 133/44/11
f 125/44/5 130/44/5 129/44/5
f 128/44/5 127/44/5 124/44/5
f 134/44/11 133/44/11 138/44/11
f 135/44/11 132/44/11 131/44/11
f 126/44/36 133/44/36 134/44/66
f 137/44/37 138/44/272 149/44/38
f 150/44/39 143/44/273 137/44/37
f 132/44/67 123/44/67 124/44/41
f 132/44/33 133/44/33 126/44/33
f 130/44/44 143/44/274 150/44/42
f 150/44/42 148/44/275 129/44/43
f 138/44/12 135/44/12 145/44/12
f 127/44/45 141/44/45 139/44/45
f 118/44/46 140/44/46 143/44/46
f 117/44/33 139/44/33 140/44/33
f 127/44/47 128/44/276 146/44/48
f 147/44/49 141/44/277 127/44/47
f 147/44/50 144/44/278 142/44/51
f 151/44/53 144/44/279 147/44/54
f 142/44/56 154/44/56 149/44/56
f 148/44/12 146/44/12 128/44/12
f 151/44/12 153/44/12 154/44/12
f 153/44/58 151/44/58 146/44/58
f 154/44/59 152/44/280 150/44/60
f 150/44/62 152/44/281 153/44/63
f 21/4/5 162/4/5 160/1/5
f 13/17/5 159/17/5 162/4/5
f 156/45/33 163/47/33 158/46/33
f 15/23/11 156/23/11 155/27/11
f 159/17/9 13/17/9 1/24/9
f 1/24/9 155/24/9 158/46/9
f 157/3/33 161/2/33 163/47/33
f 161/2/68 160/1/68 162/4/68
f 163/47/68 162/4/68 159/17/68
f 177/1/1 166/3/1 320/3/1
f 320/3/1 324/2/1 323/1/1
f 184/4/71 176/17/12 165/6/69
f 165/6/69 185/5/282 187/12/70
f 185/7/5 165/9/5 169/8/5
f 177/1/1 167/11/1 170/10/1
f 188/15/74 190/30/74 171/14/74
f 176/17/9 168/19/9 169/18/9
f 175/21/75 174/136/75 183/20/75
f 166/3/11 175/21/11 182/22/11
f 164/24/9 172/137/9 173/25/9
f 173/25/9 168/19/9 176/17/9
f 175/21/1 166/3/1 177/1/1
f 177/1/1 171/14/1 174/48/1
f 319/23/11 320/3/11 166/3/11
f 178/23/11 182/22/11 172/26/11
f 182/22/75 183/20/75 173/28/75
f 183/29/33 174/138/33 171/14/33
f 171/14/33 190/30/33 192/41/33
f 173/31/33 183/29/33 192/33/33
f 192/33/33 191/32/33 168/49/33
f 169/35/74 168/49/74 191/34/74
f 177/1/78 184/4/283 187/38/76
f 187/38/76 186/37/284 167/11/77
f 190/30/9 188/15/9 196/15/9
f 188/39/9 186/40/9 179/40/9
f 190/30/79 194/30/285 193/41/80
f 191/32/82 192/33/286 193/33/83
f 186/40/5 188/39/5 170/10/5
f 195/34/86 194/30/86 196/15/86
f 197/43/5 196/39/5 179/40/72
f 186/37/87 187/38/287 181/38/88
f 185/5/90 180/5/288 181/12/91
f 189/43/1 197/43/1 180/7/1
f 191/34/1 195/34/1 197/36/1
f 230/44/95 224/44/289 219/44/93
f 219/44/93 218/44/290 228/44/94
f 199/44/5 201/44/5 200/44/5
f 211/44/5 212/44/5 209/44/5
f 214/44/1 202/44/1 198/44/1
f 204/44/11 205/44/11 203/44/11
f 205/44/11 220/44/11 217/44/11
f 214/44/11 219/44/11 204/44/11
f 223/44/12 205/44/12 204/44/12
f 208/44/5 213/44/5 201/44/5
f 202/44/33 203/44/33 199/44/33
f 220/44/34 205/44/34 223/44/34
f 204/44/35 219/44/35 224/44/35
f 203/44/9 217/44/9 208/44/9
f 207/44/5 198/44/5 200/44/5
f 216/44/11 221/44/11 218/44/11
f 212/44/5 213/44/5 208/44/5
f 211/44/5 206/44/5 207/44/5
f 217/44/11 220/44/11 221/44/11
f 214/44/11 215/44/11 218/44/11
f 217/44/96 216/44/96 209/44/96
f 220/44/97 226/44/291 233/44/98
f 233/44/98 232/44/292 221/44/99
f 207/44/101 206/44/101 215/44/101
f 209/44/12 216/44/12 215/44/12
f 233/44/104 226/44/293 213/44/102
f 213/44/102 212/44/294 231/44/103
f 232/44/33 228/44/33 218/44/33
f 222/44/45 224/44/45 210/44/45
f 226/44/46 223/44/46 201/44/46
f 223/44/12 222/44/12 200/44/12
f 210/44/105 224/44/295 230/44/106
f 230/44/106 229/44/296 211/44/107
f 230/44/108 228/44/297 225/44/109
f 230/44/111 227/44/298 234/44/112
f 228/44/114 232/44/114 237/44/114
f 211/44/33 229/44/33 231/44/33
f 237/44/33 236/44/33 234/44/33
f 231/44/116 229/44/116 234/44/116
f 233/44/117 235/44/299 237/44/118
f 233/44/120 231/44/300 236/44/121
f 270/44/95 264/44/289 259/44/93
f 259/44/93 258/44/290 268/44/94
f 239/44/5 241/44/5 240/44/5
f 251/44/5 252/44/5 249/44/5
f 254/44/1 242/44/1 238/44/1
f 244/44/11 245/44/11 243/44/11
f 245/44/11 260/44/11 257/44/11
f 254/44/11 259/44/11 244/44/11
f 263/44/12 245/44/12 244/44/12
f 248/44/5 253/44/5 241/44/5
f 242/44/33 243/44/33 239/44/33
f 260/44/34 245/44/34 263/44/34
f 244/44/35 259/44/35 264/44/35
f 243/44/9 257/44/9 248/44/9
f 247/44/5 238/44/5 240/44/5
f 256/44/11 261/44/11 258/44/11
f 252/44/5 253/44/5 248/44/5
f 251/44/5 246/44/5 247/44/5
f 257/44/11 260/44/11 261/44/11
f 254/44/11 255/44/11 258/44/11
f 257/44/123 256/44/96 249/44/96
f 260/44/97 266/44/291 273/44/98
f 273/44/98 272/44/292 261/44/124
f 247/44/101 246/44/125 255/44/125
f 249/44/12 256/44/12 255/44/12
f 273/44/104 266/44/293 253/44/102
f 253/44/102 252/44/294 271/44/103
f 268/44/33 258/44/33 261/44/33
f 262/44/45 264/44/45 250/44/45
f 266/44/46 263/44/46 241/44/46
f 263/44/12 262/44/12 240/44/12
f 250/44/105 264/44/295 270/44/106
f 270/44/106 269/44/296 251/44/107
f 270/44/108 268/44/297 265/44/109
f 270/44/111 267/44/298 274/44/112
f 268/44/114 272/44/114 277/44/114
f 251/44/33 269/44/33 271/44/33
f 277/44/33 276/44/33 274/44/33
f 271/44/116 269/44/116 274/44/116
f 273/44/117 275/44/299 277/44/118
f 273/44/120 271/44/300 276/44/121
f 310/44/95 304/44/289 299/44/93
f 299/44/93 298/44/290 308/44/94
f 279/44/5 281/44/5 280/44/5
f 291/44/5 292/44/5 289/44/5
f 294/44/1 282/44/1 278/44/1
f 284/44/11 285/44/11 283/44/11
f 283/44/11 285/44/11 300/44/11
f 299/44/11 284/44/11 282/44/11
f 303/44/12 285/44/12 284/44/12
f 279/44/5 288/44/5 293/44/5
f 282/44/33 283/44/33 279/44/33
f 306/44/34 300/44/34 285/44/34
f 284/44/35 299/44/35 304/44/35
f 283/44/9 297/44/9 288/44/9
f 278/44/5 280/44/5 290/44/5
f 296/44/11 301/44/11 298/44/11
f 292/44/5 293/44/5 288/44/5
f 291/44/5 286/44/5 287/44/5
f 297/44/11 300/44/11 301/44/11
f 294/44/11 295/44/11 298/44/11
f 297/44/123 296/44/96 289/44/96
f 300/44/97 306/44/291 313/44/98
f 313/44/98 312/44/292 301/44/99
f 287/44/101 286/44/125 295/44/125
f 289/44/12 296/44/12 295/44/12
f 313/44/104 306/44/293 293/44/102
f 293/44/102 292/44/294 311/44/103
f 308/44/33 298/44/33 301/44/33
f 302/44/45 304/44/45 290/44/45
f 306/44/46 303/44/46 281/44/46
f 303/44/12 302/44/12 280/44/12
f 290/44/105 304/44/295 310/44/106
f 310/44/106 309/44/296 291/44/107
f 310/44/108 308/44/297 305/44/109
f 310/44/111 307/44/298 314/44/112
f 312/44/114 317/44/114 305/44/114
f 291/44/33 309/44/33 311/44/33
f 317/44/33 316/44/33 314/44/33
f 309/44/116 314/44/116 316/44/116
f 313/44/117 315/44/299 317/44/118
f 313/44/120 311/44/300 316/44/121
f 323/1/5 325/4/5 184/4/5
f 325/4/5 322/17/5 176/17/5
f 321/46/12 326/47/12 319/45/12
f 318/27/11 319/23/11 178/23/11
f 164/24/9 176/17/9 322/17/9
f 322/17/9 321/46/9 318/24/9
f 326/47/12 324/2/12 320/3/12
f 325/4/126 323/1/126 324/2/126
f 322/17/126 325/4/126 326/47/126
f 483/3/1 329/3/1 340/1/1
f 340/1/1 486/1/1 487/2/1
f 328/6/129 339/17/33 347/4/127
f 347/4/127 350/12/301 348/5/128
f 348/7/5 352/43/5 332/8/5
f 340/1/1 334/14/1 333/10/1
f 333/16/132 334/14/132 353/30/132
f 339/17/9 328/6/9 332/18/9
f 346/20/133 337/136/133 338/21/133
f 345/22/11 338/21/11 329/3/11
f 336/25/9 335/137/9 327/24/9
f 327/24/9 339/17/9 331/19/9
f 340/1/1 329/3/1 338/21/1
f 338/21/1 337/48/1 334/14/1
f 329/3/11 483/3/11 482/23/11
f 335/26/11 345/22/11 341/23/11
f 336/28/133 346/20/133 345/22/133
f 334/14/12 337/138/12 346/29/12
f 346/29/12 355/41/12 353/30/12
f 355/33/12 346/29/12 336/31/12
f 336/31/12 331/49/12 354/32/12
f 354/34/132 331/49/132 332/35/132
f 350/38/136 347/4/302 340/1/134
f 340/1/134 330/11/303 349/37/135
f 353/30/9 357/30/9 359/15/9
f 351/39/9 359/39/9 342/40/9
f 355/41/137 356/41/304 357/30/138
f 358/32/140 356/33/305 355/33/141
f 333/10/5 351/39/5 349/40/5
f 359/15/144 357/30/144 358/34/144
f 342/40/130 359/39/5 360/43/5
f 349/37/145 342/37/306 344/38/146
f 344/12/148 343/5/307 348/5/149
f 343/7/1 360/43/1 352/43/1
f 360/36/1 358/34/1 354/34/1
f 382/44/153 387/44/308 393/44/151
f 393/44/151 391/44/309 381/44/152
f 363/44/5 364/44/5 362/44/5
f 372/44/5 375/44/5 374/44/5
f 361/44/1 365/44/1 377/44/1
f 366/44/11 368/44/11 367/44/11
f 380/44/11 383/44/11 368/44/11
f 377/44/11 365/44/11 367/44/11
f 386/44/33 385/44/33 367/44/33
f 364/44/5 376/44/5 371/44/5
f 362/44/12 366/44/12 365/44/12
f 386/44/154 368/44/154 383/44/154
f 387/44/155 382/44/155 367/44/155
f 371/44/9 380/44/9 366/44/9
f 370/44/5 373/44/5 363/44/5
f 381/44/11 384/44/11 379/44/11
f 371/44/5 376/44/5 375/44/5
f 374/44/5 373/44/5 370/44/5
f 380/44/11 379/44/11 384/44/11
f 381/44/11 378/44/11 377/44/11
f 371/44/156 372/44/156 379/44/156
f 389/44/159 383/44/310 384/44/157
f 384/44/157 395/44/311 396/44/158
f 378/44/161 369/44/161 370/44/161
f 378/44/33 379/44/33 372/44/33
f 376/44/164 389/44/312 396/44/162
f 396/44/162 394/44/313 375/44/163
f 395/44/12 384/44/12 381/44/12
f 373/44/165 387/44/165 385/44/165
f 376/44/166 364/44/166 386/44/166
f 363/44/33 385/44/33 386/44/33
f 387/44/169 373/44/314 374/44/167
f 374/44/167 392/44/315 393/44/168
f 390/44/170 388/44/316 391/44/171
f 392/44/173 397/44/317 390/44/174
f 388/44/176 400/44/176 395/44/176
f 394/44/12 392/44/12 374/44/12
f 388/44/12 397/44/12 399/44/12
f 399/44/178 397/44/178 392/44/178
f 395/44/179 400/44/318 398/44/180
f 398/44/182 399/44/319 394/44/183
f 422/44/153 427/44/308 433/44/151
f 433/44/151 431/44/309 421/44/152
f 403/44/5 404/44/5 402/44/5
f 412/44/5 415/44/5 414/44/5
f 401/44/1 405/44/1 417/44/1
f 406/44/11 408/44/11 407/44/11
f 420/44/11 423/44/11 408/44/11
f 417/44/11 405/44/11 407/44/11
f 426/44/33 425/44/33 407/44/33
f 404/44/5 416/44/5 411/44/5
f 402/44/12 406/44/12 405/44/12
f 426/44/154 408/44/154 423/44/154
f 427/44/155 422/44/155 407/44/155
f 411/44/9 420/44/9 406/44/9
f 410/44/5 413/44/5 403/44/5
f 421/44/11 424/44/11 419/44/11
f 411/44/5 416/44/5 415/44/5
f 414/44/5 413/44/5 410/44/5
f 420/44/11 419/44/11 424/44/11
f 421/44/11 418/44/11 417/44/11
f 412/44/156 419/44/156 420/44/156
f 429/44/159 423/44/310 424/44/157
f 424/44/157 435/44/311 436/44/158
f 418/44/161 409/44/161 410/44/161
f 418/44/33 419/44/33 412/44/33
f 416/44/164 429/44/312 436/44/162
f 436/44/162 434/44/313 415/44/185
f 424/44/12 421/44/12 431/44/12
f 413/44/165 427/44/165 425/44/165
f 404/44/166 426/44/166 429/44/166
f 403/44/33 425/44/33 426/44/33
f 427/44/169 413/44/314 414/44/167
f 414/44/167 432/44/315 433/44/168
f 430/44/170 428/44/316 431/44/171
f 432/44/173 437/44/317 430/44/174
f 428/44/176 440/44/176 435/44/176
f 434/44/12 432/44/12 414/44/12
f 437/44/12 439/44/12 440/44/12
f 439/44/178 437/44/178 432/44/178
f 435/44/179 440/44/318 438/44/180
f 438/44/182 439/44/319 434/44/183
f 462/44/153 467/44/308 473/44/151
f 473/44/151 471/44/309 461/44/152
f 443/44/5 444/44/5 442/44/5
f 452/44/5 455/44/5 454/44/5
f 441/44/1 445/44/1 457/44/1
f 446/44/11 448/44/11 447/44/11
f 446/44/11 460/44/11 463/44/11
f 445/44/11 447/44/11 462/44/11
f 466/44/33 465/44/33 447/44/33
f 442/44/5 444/44/5 456/44/5
f 442/44/12 446/44/12 445/44/12
f 466/44/154 448/44/154 463/44/154
f 467/44/155 462/44/155 447/44/155
f 451/44/9 460/44/9 446/44/9
f 453/44/5 443/44/5 441/44/5
f 461/44/11 464/44/11 459/44/11
f 451/44/5 456/44/5 455/44/5
f 454/44/5 453/44/5 450/44/5
f 460/44/11 459/44/11 464/44/11
f 461/44/11 458/44/11 457/44/11
f 452/44/156 459/44/156 460/44/156
f 469/44/159 463/44/310 464/44/157
f 464/44/157 475/44/311 476/44/158
f 458/44/161 449/44/161 450/44/161
f 458/44/33 459/44/33 452/44/33
f 456/44/164 469/44/312 476/44/162
f 476/44/162 474/44/313 455/44/163
f 464/44/12 461/44/12 471/44/12
f 453/44/165 467/44/165 465/44/165
f 444/44/166 466/44/166 469/44/166
f 443/44/33 465/44/33 466/44/33
f 467/44/169 453/44/314 454/44/167
f 454/44/167 472/44/315 473/44/168
f 470/44/170 468/44/320 471/44/171
f 472/44/173 477/44/321 470/44/174
f 468/44/176 480/44/176 475/44/176
f 474/44/12 472/44/12 454/44/12
f 477/44/12 479/44/12 480/44/12
f 479/44/178 477/44/178 472/44/178
f 475/44/179 480/44/322 478/44/180
f 478/44/182 479/44/319 474/44/183
f 347/4/5 488/4/5 486/1/5
f 339/17/5 485/17/5 488/4/5
f 482/45/33 489/47/33 484/46/33
f 341/23/11 482/23/11 481/27/11
f 485/17/9 339/17/9 327/24/9
f 327/24/9 481/24/9 484/46/9
f 483/3/33 487/2/33 489/47/33
f 487/2/186 486/1/186 488/4/186
f 489/47/186 488/4/186 485/17/186
f 503/1/1 492/3/1 646/3/1
f 646/3/1 650/2/1 649/1/1
f 510/4/189 502/17/12 491/6/187
f 491/6/187 511/5/323 513/12/188
f 511/7/5 491/9/5 495/8/5
f 503/1/1 493/11/1 496/10/1
f 514/15/192 516/30/192 497/14/192
f 502/17/9 494/19/9 495/18/9
f 501/21/193 500/136/193 509/20/193
f 492/3/11 501/21/11 508/22/11
f 490/24/9 498/137/9 499/25/9
f 499/25/9 494/19/9 502/17/9
f 501/21/1 492/3/1 503/1/1
f 503/1/1 497/14/1 500/48/1
f 645/23/11 646/3/11 492/3/11
f 504/23/11 508/22/11 498/26/11
f 508/22/193 509/20/193 499/28/193
f 509/29/33 500/138/33 497/14/33
f 497/14/33 516/30/33 518/41/33
f 499/31/33 509/29/33 518/33/33
f 518/33/33 517/32/33 494/49/33
f 495/35/192 494/49/192 517/34/192
f 503/1/196 510/4/324 513/38/194
f 513/38/194 512/37/325 493/11/195
f 516/30/9 514/15/9 522/15/9
f 514/39/9 512/40/9 505/40/9
f 518/41/197 516/30/326 520/30/198
f 518/33/200 519/33/327 521/32/201
f 512/40/5 514/39/5 496/10/5
f 521/34/204 520/30/204 522/15/204
f 523/43/5 522/39/5 505/40/190
f 512/37/205 513/38/328 507/38/206
f 511/5/208 506/5/329 507/12/209
f 515/43/1 523/43/1 506/7/1
f 517/34/1 521/34/1 523/36/1
f 556/44/213 550/44/330 545/44/211
f 545/44/211 544/44/331 554/44/212
f 525/44/5 527/44/5 526/44/5
f 537/44/5 538/44/5 535/44/5
f 540/44/1 528/44/1 524/44/1
f 530/44/11 531/44/11 529/44/11
f 531/44/11 546/44/11 543/44/11
f 540/44/11 545/44/11 530/44/11
f 549/44/12 531/44/12 530/44/12
f 534/44/5 539/44/5 527/44/5
f 528/44/33 529/44/33 525/44/33
f 546/44/154 531/44/154 549/44/154
f 530/44/155 545/44/155 550/44/155
f 529/44/9 543/44/9 534/44/9
f 533/44/5 524/44/5 526/44/5
f 542/44/11 547/44/11 544/44/11
f 538/44/5 539/44/5 534/44/5
f 537/44/5 532/44/5 533/44/5
f 543/44/11 546/44/11 547/44/11
f 540/44/11 541/44/11 544/44/11
f 534/44/214 543/44/214 542/44/214
f 547/44/217 546/44/332 552/44/215
f 552/44/215 559/44/333 558/44/216
f 533/44/219 532/44/219 541/44/219
f 535/44/12 542/44/12 541/44/12
f 559/44/222 552/44/334 539/44/220
f 539/44/220 538/44/335 557/44/221
f 558/44/33 554/44/33 544/44/33
f 548/44/165 550/44/165 536/44/165
f 539/44/166 552/44/166 549/44/166
f 549/44/12 548/44/12 526/44/12
f 537/44/225 536/44/336 550/44/223
f 550/44/223 556/44/337 555/44/224
f 554/44/226 551/44/338 553/44/227
f 555/44/229 556/44/339 553/44/230
f 558/44/232 563/44/232 551/44/232
f 537/44/33 555/44/33 557/44/33
f 551/44/33 563/44/33 562/44/33
f 555/44/234 560/44/234 562/44/234
f 558/44/235 559/44/340 561/44/236
f 557/44/238 562/44/341 561/44/239
f 596/44/213 590/44/330 585/44/211
f 585/44/211 584/44/331 594/44/212
f 565/44/5 567/44/5 566/44/5
f 577/44/5 578/44/5 575/44/5
f 580/44/1 568/44/1 564/44/1
f 570/44/11 571/44/11 569/44/11
f 571/44/11 586/44/11 583/44/11
f 580/44/11 585/44/11 570/44/11
f 589/44/12 571/44/12 570/44/12
f 574/44/5 579/44/5 567/44/5
f 568/44/33 569/44/33 565/44/33
f 586/44/154 571/44/154 589/44/154
f 570/44/155 585/44/155 590/44/155
f 569/44/9 583/44/9 574/44/9
f 573/44/5 564/44/5 566/44/5
f 582/44/11 587/44/11 584/44/11
f 578/44/5 579/44/5 574/44/5
f 577/44/5 572/44/5 573/44/5
f 583/44/11 586/44/11 587/44/11
f 580/44/11 581/44/11 584/44/11
f 583/44/214 582/44/214 575/44/214
f 587/44/217 586/44/332 592/44/215
f 592/44/215 599/44/333 598/44/216
f 573/44/219 572/44/219 581/44/219
f 575/44/12 582/44/12 581/44/12
f 599/44/222 592/44/334 579/44/220
f 579/44/220 578/44/335 597/44/221
f 594/44/33 584/44/33 587/44/33
f 588/44/165 590/44/165 576/44/165
f 592/44/166 589/44/166 567/44/166
f 589/44/12 588/44/12 566/44/12
f 577/44/225 576/44/336 590/44/223
f 590/44/223 596/44/337 595/44/224
f 594/44/226 591/44/338 593/44/227
f 595/44/229 596/44/339 593/44/230
f 598/44/232 603/44/232 591/44/232
f 577/44/33 595/44/33 597/44/33
f 603/44/33 602/44/33 600/44/33
f 595/44/234 600/44/234 602/44/234
f 598/44/235 599/44/340 601/44/236
f 597/44/238 602/44/341 601/44/239
f 636/44/213 630/44/330 625/44/211
f 625/44/211 624/44/331 634/44/212
f 605/44/5 607/44/5 606/44/5
f 617/44/5 618/44/5 615/44/5
f 620/44/1 608/44/1 604/44/1
f 610/44/11 611/44/11 609/44/11
f 609/44/11 611/44/11 626/44/11
f 625/44/11 610/44/11 608/44/11
f 629/44/12 611/44/12 610/44/12
f 605/44/5 614/44/5 619/44/5
f 608/44/33 609/44/33 605/44/33
f 626/44/154 611/44/154 629/44/154
f 610/44/155 625/44/155 630/44/155
f 609/44/9 623/44/9 614/44/9
f 604/44/5 606/44/5 616/44/5
f 622/44/11 627/44/11 624/44/11
f 618/44/5 619/44/5 614/44/5
f 617/44/5 612/44/5 613/44/5
f 623/44/11 626/44/11 627/44/11
f 620/44/11 621/44/11 624/44/11
f 623/44/214 622/44/214 615/44/214
f 627/44/217 626/44/332 632/44/215
f 632/44/215 639/44/333 638/44/216
f 613/44/219 612/44/219 621/44/219
f 615/44/12 622/44/12 621/44/12
f 639/44/222 632/44/334 619/44/220
f 619/44/220 618/44/335 637/44/221
f 634/44/33 624/44/33 627/44/33
f 628/44/165 630/44/165 616/44/165
f 632/44/166 629/44/166 607/44/166
f 629/44/12 628/44/12 606/44/12
f 617/44/225 616/44/336 630/44/223
f 630/44/223 636/44/337 635/44/241
f 634/44/226 631/44/342 633/44/227
f 635/44/229 636/44/339 633/44/230
f 638/44/232 643/44/232 631/44/232
f 617/44/33 635/44/33 637/44/33
f 643/44/33 642/44/33 640/44/33
f 635/44/234 640/44/234 642/44/234
f 638/44/235 639/44/340 641/44/236
f 637/44/238 642/44/341 641/44/239
f 649/1/5 651/4/5 510/4/5
f 651/4/5 648/17/5 502/17/5
f 647/46/12 652/47/12 645/45/12
f 644/27/11 645/23/11 504/23/11
f 490/24/9 502/17/9 648/17/9
f 648/17/9 647/46/9 644/24/9
f 652/47/12 650/2/12 646/3/12
f 651/4/244 649/1/244 650/2/244
f 648/17/244 651/4/244 652/47/244
f 705/52/245 692/119/245 654/50/245
f 654/50/245 667/103/245 666/51/245
f 666/51/245 703/133/245 705/52/245
f 673/55/246 653/23/246 689/53/246
f 689/53/246 690/139/246 661/54/246
f 661/54/246 671/140/246 673/55/246
f 683/56/12 654/13/12 653/45/12
f 678/59/246 657/135/246 674/58/246
f 674/58/246 676/100/246 655/20/246
f 655/20/246 677/141/246 678/59/246
f 674/58/246 657/135/246 658/60/246
f 654/13/12 692/107/12 689/62/12
f 690/63/1 691/106/1 664/64/1
f 656/68/245 670/99/245 669/66/245
f 669/66/245 700/134/245 702/67/245
f 702/67/245 680/142/245 656/68/245
f 655/20/246 676/100/246 675/69/246
f 675/69/246 662/77/246 685/70/246
f 685/70/246 686/143/246 655/20/246
f 658/60/246 681/144/246 682/71/246
f 682/71/246 653/23/246 673/72/246
f 673/72/246 672/61/246 658/60/246
f 675/76/246 671/102/246 661/54/246
f 686/78/33 687/108/33 656/79/33
f 668/81/245 707/126/245 703/82/245
f 659/84/9 684/105/9 681/85/9
f 662/87/1 663/93/1 688/88/1
f 688/92/245 663/93/245 706/90/245
f 706/90/245 708/124/245 687/91/245
f 663/93/1 662/87/1 661/65/1
f 658/86/9 657/110/9 660/94/9
f 655/80/33 656/79/33 680/95/33
f 673/72/247 667/103/247 665/97/247
f 672/61/1 665/145/1 669/98/1
f 674/58/248 669/66/248 670/99/248
f 675/69/249 676/100/249 670/101/249
f 671/102/9 675/76/9 668/81/9
f 673/55/250 671/140/250 666/51/250
f 699/75/245 683/112/245 684/104/245
f 684/104/245 659/128/245 697/73/245
f 680/95/251 679/35/251 678/35/251
f 682/57/252 681/85/252 684/105/252
f 691/106/253 690/63/253 689/62/253
f 687/108/254 686/78/254 685/89/254
f 679/109/9 660/94/9 657/110/9
f 667/103/245 654/50/245 683/112/245
f 683/112/245 699/75/245 698/113/245
f 698/113/245 665/97/245 667/103/245
f 669/98/245 665/145/245 698/114/245
f 679/118/245 680/142/245 702/116/245
f 702/116/245 701/125/245 660/117/245
f 664/64/245 691/106/245 692/119/245
f 692/119/245 705/127/245 704/120/245
f 663/93/245 664/64/245 704/121/245
f 687/91/245 708/124/245 707/123/245
f 707/123/245 668/81/245 670/101/245
f 670/101/245 656/68/245 687/91/245
f 706/90/255 715/90/255 714/124/255
f 699/75/256 696/75/256 694/113/256
f 698/114/1 694/114/1 709/115/1
f 701/125/257 702/116/257 693/116/257
f 703/82/9 707/126/9 716/126/9
f 705/127/258 711/127/258 713/120/258
f 660/117/245 701/132/245 697/73/245
f 694/114/245 695/73/245 710/132/245
f 715/122/245 713/121/245 712/82/245
f 705/52/259 703/133/259 712/133/259
f 697/73/9 701/132/9 710/132/9
f 700/134/260 709/134/260 693/67/260
f 699/75/261 697/73/261 695/73/261
f 704/121/1 713/121/1 715/122/1
f 707/123/262 708/124/262 714/124/262
f 769/52/245 756/119/245 718/50/245
f 718/50/245 731/103/245 730/51/245
f 730/51/245 767/133/245 769/52/245
f 737/55/246 717/23/246 753/53/246
f 753/53/246 754/139/246 725/54/246
f 725/54/246 735/140/246 737/55/246
f 747/56/12 718/13/12 717/45/12
f 742/59/246 721/135/246 738/58/246
f 738/58/246 740/100/246 719/20/246
f 719/20/246 741/141/246 742/59/246
f 721/135/246 722/60/246 736/61/246
f 718/13/12 756/107/12 753/62/12
f 754/63/1 755/106/1 728/64/1
f 720/68/245 734/99/245 733/66/245
f 733/66/245 764/134/245 766/67/245
f 766/67/245 744/142/245 720/68/245
f 719/20/246 740/100/246 739/69/246
f 739/69/246 726/77/246 749/70/246
f 749/70/246 750/143/246 719/20/246
f 722/60/246 745/144/246 746/71/246
f 746/71/246 717/23/246 737/72/246
f 737/72/246 736/61/246 722/60/246
f 739/76/246 735/102/246 725/54/246
f 750/78/33 751/108/33 720/79/33
f 732/81/245 771/126/245 767/82/245
f 723/84/9 748/105/9 745/85/9
f 726/87/1 727/93/1 752/88/1
f 752/92/245 727/93/245 770/90/245
f 770/90/245 772/124/245 751/91/245
f 727/93/1 726/87/1 725/65/1
f 722/86/9 721/110/9 724/94/9
f 719/80/33 720/79/33 744/95/33
f 737/72/247 731/103/247 729/97/247
f 736/61/1 729/145/1 733/98/1
f 738/58/248 733/66/248 734/99/248
f 739/69/249 740/100/249 734/101/249
f 735/102/9 739/76/9 732/81/9
f 737/55/250 735/140/250 730/51/250
f 763/75/245 747/112/245 748/104/245
f 748/104/245 723/128/245 761/73/245
f 744/95/251 743/35/251 742/35/251
f 746/57/252 745/85/252 748/105/252
f 755/106/253 754/63/253 753/62/253
f 751/108/254 750/78/254 749/89/254
f 743/109/9 724/94/9 721/110/9
f 731/103/245 718/50/245 747/112/245
f 747/112/245 763/75/245 762/113/245
f 762/113/245 729/97/245 731/103/245
f 733/98/245 729/145/245 762/114/245
f 743/118/245 744/142/245 766/116/245
f 766/116/245 765/125/245 724/117/245
f 728/64/245 755/106/245 756/119/245
f 756/119/245 769/127/245 768/120/245
f 770/122/245 727/93/245 728/64/245
f 751/91/245 772/124/245 771/123/245
f 771/123/245 732/81/245 734/101/245
f 734/101/245 720/68/245 751/91/245
f 770/90/255 779/90/255 778/124/255
f 763/75/256 760/75/256 758/113/256
f 762/114/1 758/114/1 773/115/1
f 765/125/257 766/116/257 757/116/257
f 767/82/9 771/126/9 780/126/9
f 769/127/258 775/127/258 777/120/258
f 765/132/245 761/73/245 723/128/245
f 773/115/245 758/114/245 759/73/245
f 777/121/245 776/82/245 780/126/245
f 769/52/259 767/133/259 776/133/259
f 761/73/9 765/132/9 774/132/9
f 764/134/260 773/134/260 757/67/260
f 763/75/261 761/73/261 759/73/261
f 768/121/1 777/121/1 779/122/1
f 771/123/262 772/124/262 778/124/262
