# Blender 5.1.0
# www.blender.org
o building_32
v 0.274706 0.000000 0.194678
v 1.001409 3.080507 0.295623
v -1.344593 -0.000000 -1.384363
v -1.288635 3.080506 -1.288636
v -1.344593 0.000000 1.384364
v -1.288635 3.080507 1.288637
v -1.288635 3.080506 -0.565052
v -1.344593 -0.000000 -0.607027
v -0.374499 0.000000 1.384364
v 0.454039 0.000000 1.384364
v 0.454039 -0.000000 -1.384363
v -0.374499 -0.000000 -1.384364
v -0.864831 3.080506 -1.288636
v 0.385624 3.080506 -1.288636
v 0.385624 3.080507 1.288637
v -0.385621 3.080507 1.288637
v -0.864831 3.080506 -0.565052
v 0.385624 3.080506 -0.565052
v -0.690112 3.399824 -1.113917
v -0.690112 3.399825 -0.739771
v 0.210905 3.399825 -0.739771
v 0.210905 3.399824 -1.113917
v -1.288635 1.737986 1.288637
v 1.001409 1.737986 0.295623
v -1.288635 1.737985 -1.288636
v -0.385621 1.737986 1.288637
v 0.385624 1.737986 1.288637
v 0.385624 1.737985 -1.288636
v -0.385622 1.737985 -1.288636
v -1.288635 1.737985 -0.565052
v 1.001409 3.080507 -0.369507
v -1.344593 0.000000 0.669826
v 0.385624 3.080507 0.623508
v -1.288635 3.080507 0.623508
v 0.274706 0.000000 -0.418349
v -0.810414 3.080507 0.623508
v -1.288635 1.737985 0.623508
v 1.001409 1.737985 -0.369507
v 1.001409 3.647958 -0.369507
v 1.001409 3.647958 0.295623
v 0.385624 3.647958 1.288637
v -0.385621 3.647958 1.288637
v -0.810414 3.344448 0.623508
v -1.288635 3.647958 1.288637
v 0.385624 3.344448 0.623508
v -1.288635 3.647958 0.623508
v 0.385624 3.080507 0.029228
v -1.288635 3.080507 0.029228
v -1.288635 1.737985 0.029228
v -1.344593 0.000000 0.031399
v -0.810415 3.080507 0.029228
v -1.677925 1.737986 -0.036942
v 1.001409 3.080507 -0.036942
v -1.344593 0.000000 1.027095
v 1.001409 1.737985 -0.036942
v -1.288635 3.080507 0.956073
v 0.274706 0.000000 -0.111835
v -1.288635 1.737985 0.956073
v 1.001409 3.647958 -0.036942
v -0.810414 3.496202 0.956073
v 0.385624 3.496202 0.956073
v -1.288635 3.647958 0.956073
v -0.810415 3.474896 0.029228
v -0.810414 3.474896 0.480235
v 0.385624 3.474896 0.480235
v 0.385624 3.890593 0.956073
v 0.385624 3.738837 0.480235
v -0.810414 3.738837 0.480235
v 0.385624 3.474896 0.029228
v -0.810414 3.890593 0.956073
v 0.864274 -0.000000 -0.637924
v -2.150007 0.000000 0.194678
v 0.846626 0.000000 1.384364
v 0.846789 -0.000000 -1.384363
v 0.757806 3.080507 1.288637
v -1.677925 3.080507 0.295623
v 0.757946 3.080506 -1.288636
v 0.757946 3.080506 -0.565052
v -1.677925 1.737986 0.295623
v 0.757806 1.737986 1.288637
v 0.757946 1.737985 -1.288636
v -1.678933 3.080507 -0.369507
v 0.757946 3.080507 0.623508
v -2.111085 0.000000 -0.424756
v 0.852957 0.000000 0.658782
v 0.757806 3.647958 1.288637
v -1.677925 3.647958 0.295623
v -1.678933 3.522817 -0.369507
v 0.757946 3.469588 0.623508
v 0.757946 3.080507 0.029228
v -1.678430 3.080507 -0.036942
v 0.858616 0.000000 0.010448
v -1.677925 1.737986 -0.369507
v 0.757524 3.558702 0.956073
v -1.675900 3.585459 -0.036942
v 0.849791 0.000000 1.021579
v -2.130547 0.000000 -0.115044
v 0.757946 1.737985 -0.556174
v 0.755519 1.737985 0.019096
v 0.755519 1.737985 0.623508
v 0.755519 1.737985 0.916259
v 0.757524 3.080507 0.916259
v 0.385624 2.409246 1.288637
v -1.114497 2.532601 -1.179185
v -1.288635 2.409246 1.288637
v -1.288635 2.409245 -1.288636
v -0.385621 2.409246 1.288637
v 0.385624 2.532601 -1.179185
v -1.288635 2.409246 0.956073
v 0.757806 2.409246 1.288637
v 0.757946 2.409245 -1.288636
v 0.757946 2.409245 -0.560613
v 0.756732 2.409246 0.024162
v 0.756733 2.409246 0.623508
v 0.756521 2.409246 0.916259
v -1.114497 3.080506 -0.565052
v -1.157519 0.000000 1.384364
v -1.157520 -0.000000 -1.384363
v -1.114497 3.080507 1.288637
v -1.114497 3.080506 -1.288636
v -1.114497 1.737985 -1.288636
v -1.114497 1.737986 1.288637
v -1.114497 3.080507 0.623508
v -1.114497 3.647958 1.288637
v -1.114497 3.589429 0.623508
v -1.114497 3.080507 0.029228
v -1.114497 3.618693 0.956073
v 0.385624 2.285890 -1.179185
v -1.114497 2.409246 1.288637
v -0.385622 2.285890 -1.288636
v -0.385622 2.532601 -1.288636
v 0.385624 2.285890 -1.288636
v 0.385624 2.532601 -1.288636
v 0.456103 2.409245 -1.288636
v -1.114497 2.532601 -1.288636
v -1.114497 2.285890 -1.288636
v -1.184976 2.409245 -1.288636
v -1.114497 2.285890 -1.179185
v -0.385622 2.285890 -1.179185
v -0.385622 2.532601 -1.179185
v -1.288635 2.409245 -0.565052
v -1.288635 2.409246 0.623508
v -1.288635 2.409246 0.029228
v -0.864831 3.399824 -1.288636
v -0.864831 3.399825 -0.565052
v 0.385624 3.399825 -0.565052
v 0.385624 3.399824 -1.288636
v -0.690112 3.274110 -1.113917
v -0.690112 3.274110 -0.739771
v 0.210905 3.274110 -0.739771
v 0.210905 3.274110 -1.113917
v 1.001409 4.905092 -0.036942
v 1.001409 4.905092 0.295623
v -1.677925 4.905092 0.295623
v -1.675900 4.842593 -0.036942
vn -0.0000 -0.0000 1.0000
vn -1.0000 -0.0000 -0.0000
vn -0.0000 -0.0000 -1.0000
vn 1.0000 -0.0000 -0.0000
vn -0.0000 1.0000 -0.0000
vn -0.0000 0.0550 0.9985
vn -0.0000 0.0550 -0.9985
vn 0.0010 0.0292 -0.9996
vn 0.0016 0.0299 -0.9996
vn -0.0000 0.0281 -0.9996
vn -0.9995 0.0322 -0.0000
vn 0.9226 -0.3858 -0.0000
vn -1.0000 0.0032 0.0057
vn -1.0000 0.0016 0.0022
vn -1.0000 -0.0000 0.0035
vn -1.0000 -0.0004 0.0002
vn -1.0000 0.0014 -0.0000
vn -0.0750 0.9389 -0.3359
vn -0.0803 0.9365 -0.3412
vn -0.0000 0.9658 -0.2592
vn 0.1151 0.9915 -0.0603
vn 0.0514 0.9983 -0.0269
vn 0.1651 0.9825 -0.0865
vn -0.0000 0.9098 -0.4151
vn -1.0000 -0.0002 0.0014
vn 0.2714 0.9607 -0.0576
vn 0.2150 0.9762 -0.0267
vn 0.3175 0.9446 -0.0831
vn -0.0000 -0.0580 0.9983
vn -0.0000 0.9527 -0.3038
vn -0.2259 0.9179 -0.3263
vn -0.2330 0.9134 -0.3339
vn -0.1602 0.9534 -0.2557
vn -0.0252 0.9996 -0.0148
vn -0.0441 0.9844 -0.1704
vn -0.0233 0.9997 -0.0000
vn -1.0000 0.0012 -0.0043
vn -0.9679 0.2511 -0.0065
vn -0.9668 0.2491 -0.0572
vn -0.9678 0.2516 -0.0034
vn -0.9654 0.2551 -0.0537
vn -0.9650 0.2621 -0.0000
vn 0.9982 0.0595 0.0052
vn 0.9983 0.0586 0.0073
vn 0.9981 0.0607 0.0087
vn 1.0000 -0.0002 0.0013
vn 1.0000 -0.0013 0.0016
vn 1.0000 -0.0000 0.0021
vn 0.9982 0.0588 -0.0059
vn 0.9984 0.0545 -0.0175
vn 0.9984 0.0523 -0.0234
vn 1.0000 -0.0017 0.0001
vn 1.0000 -0.0016 0.0008
vn 1.0000 -0.0018 0.0004
vn 0.9984 0.0573 0.0010
vn 0.9984 0.0555 0.0083
vn 1.0000 -0.0001 0.0013
vn 1.0000 -0.0005 0.0001
vn 1.0000 -0.0012 0.0010
vn 1.0000 -0.0001 0.0011
vn 1.0000 -0.0000 -0.0008
vn 1.0000 -0.0010 -0.0053
vn 1.0000 -0.0013 -0.0016
vn 1.0000 -0.0005 -0.0030
vn 0.9985 0.0548 -0.0024
vn 0.9986 0.0532 0.0077
vn 0.9986 0.0535 -0.0042
vn 0.9986 0.0515 0.0087
vn 1.0000 -0.0018 -0.0000
vn 1.0000 -0.0005 0.0005
vn 0.4964 0.8402 -0.2184
vn 0.5003 0.8367 -0.2229
vn 0.5912 0.7338 -0.3348
vn 0.1278 0.9412 -0.3126
vn 0.1786 0.9465 -0.2686
vn -0.0000 -1.0000 -0.0000
vn -0.0018 0.9854 -0.1704
vn -0.0215 0.9997 -0.0148
vn -1.0000 -0.0000 -0.0061
vn 0.0027 0.0311 -0.9995
vn -0.1511 0.8993 -0.4104
vn -1.0000 -0.0008 -0.0000
vn 0.1657 0.9862 -0.0000
vn -0.2924 0.8700 -0.3970
vn -0.0458 0.9818 -0.1845
vn -0.9681 0.2432 -0.0608
vn 0.9982 0.0592 0.0021
vn 0.9981 0.0611 -0.0000
vn 1.0000 -0.0015 -0.0031
vn 0.3724 0.9245 -0.0814
vn -0.0000 0.9828 -0.1847
vt 0.000000 0.000000
s 1
f 119/1/1 105/1/1 129/1/1
f 43/1/2 64/1/2 36/1/2
f 143/1/2 7/1/2 141/1/2
f 132/1/3 111/1/3 81/1/3
f 53/1/4 24/1/4 55/1/4
f 14/1/5 78/1/5 77/1/5
f 2/1/1 87/1/1 76/1/1
f 9/1/6 27/1/6 26/1/6
f 28/1/7 12/1/7 29/1/7
f 53/1/4 39/1/4 59/1/4
f 18/1/1 145/1/1 17/1/1
f 4/1/5 116/1/5 120/1/5
f 109/1/2 37/1/2 58/1/2
f 35/1/8 93/1/9 38/1/10
f 22/1/2 150/1/2 21/1/2
f 17/1/2 144/1/2 13/1/2
f 13/1/3 147/1/3 14/1/3
f 18/1/4 147/1/4 146/1/4
f 50/1/11 30/1/11 8/1/11
f 135/1/3 13/1/3 131/1/3
f 26/1/1 103/1/1 107/1/1
f 11/1/7 81/1/7 74/1/7
f 55/1/12 1/1/12 57/1/12
f 121/1/7 12/1/7 118/1/7
f 8/1/11 25/1/11 3/1/11
f 117/1/6 23/1/6 5/1/6
f 88/1/13 91/1/14 95/1/15
f 58/1/11 32/1/11 54/1/11
f 45/1/4 65/1/4 67/1/4
f 48/1/5 123/1/5 126/1/5
f 52/1/16 76/1/17 91/1/14
f 94/1/18 41/1/19 86/1/20
f 59/1/4 153/1/4 40/1/4
f 62/1/21 124/1/22 127/1/23
f 42/1/24 61/1/24 60/1/24
f 6/1/2 62/1/2 56/1/2
f 16/1/1 124/1/1 119/1/1
f 31/1/3 88/1/3 39/1/3
f 34/1/3 125/1/3 123/1/3
f 15/1/1 42/1/1 16/1/1
f 82/1/25 52/1/16 91/1/14
f 31/1/3 93/1/3 82/1/3
f 116/1/5 48/1/5 126/1/5
f 51/1/5 18/1/5 17/1/5
f 37/1/11 50/1/11 32/1/11
f 142/1/2 49/1/2 37/1/2
f 56/1/2 46/1/2 34/1/2
f 60/1/2 68/1/2 43/1/2
f 46/1/26 127/1/27 125/1/28
f 1/1/29 79/1/29 72/1/29
f 105/1/2 56/1/2 109/1/2
f 23/1/11 54/1/11 5/1/11
f 38/1/12 57/1/12 35/1/12
f 53/1/4 40/1/4 2/1/4
f 31/1/4 55/1/4 38/1/4
f 64/1/3 67/1/3 65/1/3
f 64/1/5 69/1/5 63/1/5
f 70/1/30 67/1/30 68/1/30
f 51/1/2 64/1/2 63/1/2
f 51/1/3 69/1/3 47/1/3
f 61/1/1 70/1/1 60/1/1
f 47/1/4 65/1/4 33/1/4
f 61/1/4 67/1/4 66/1/4
f 80/1/6 10/1/6 73/1/6
f 89/1/31 61/1/32 94/1/33
f 18/1/5 90/1/5 78/1/5
f 47/1/5 83/1/5 90/1/5
f 39/1/34 95/1/35 59/1/36
f 83/1/3 45/1/3 89/1/3
f 75/1/1 41/1/1 15/1/1
f 4/1/3 135/1/3 137/1/3
f 2/1/1 79/1/1 24/1/1
f 75/1/1 103/1/1 110/1/1
f 95/1/15 76/1/17 87/1/37
f 93/1/38 97/1/39 52/1/40
f 52/1/40 72/1/41 79/1/42
f 98/1/43 92/1/44 71/1/45
f 112/1/46 99/1/47 98/1/48
f 112/1/46 81/1/4 111/1/4
f 81/1/49 71/1/50 74/1/51
f 100/1/52 113/1/53 114/1/54
f 92/1/44 100/1/55 85/1/56
f 89/1/57 102/1/58 83/1/59
f 94/1/60 75/1/61 102/1/58
f 80/1/62 115/1/63 110/1/64
f 115/1/63 100/1/52 114/1/54
f 85/1/56 101/1/65 96/1/66
f 96/1/66 80/1/67 73/1/68
f 102/1/58 114/1/54 83/1/59
f 110/1/64 102/1/58 75/1/61
f 114/1/54 90/1/69 83/1/59
f 78/1/70 111/1/4 77/1/4
f 78/1/70 113/1/53 112/1/46
f 110/1/1 27/1/1 80/1/1
f 133/1/3 77/1/3 111/1/3
f 23/1/2 109/1/2 58/1/2
f 109/1/2 34/1/2 142/1/2
f 34/1/2 143/1/2 142/1/2
f 107/1/1 15/1/1 16/1/1
f 136/1/3 29/1/3 121/1/3
f 7/1/2 106/1/2 141/1/2
f 28/1/3 130/1/3 132/1/3
f 49/1/2 141/1/2 30/1/2
f 129/1/1 23/1/1 122/1/1
f 107/1/1 122/1/1 26/1/1
f 139/1/3 108/1/3 128/1/3
f 125/1/71 60/1/72 43/1/73
f 17/1/5 126/1/5 51/1/5
f 123/1/3 43/1/3 36/1/3
f 119/1/1 44/1/1 6/1/1
f 60/1/74 124/1/75 42/1/24
f 51/1/5 123/1/5 36/1/5
f 9/1/6 122/1/6 117/1/6
f 25/1/7 118/1/7 3/1/7
f 120/1/5 17/1/5 13/1/5
f 106/1/3 136/1/3 121/1/3
f 16/1/1 129/1/1 107/1/1
f 132/1/3 133/1/3 134/1/3
f 135/1/3 136/1/3 137/1/3
f 132/1/2 108/1/2 133/1/2
f 135/1/76 140/1/76 104/1/76
f 14/1/3 131/1/3 13/1/3
f 140/1/3 138/1/3 104/1/3
f 136/1/5 139/1/5 130/1/5
f 133/1/76 140/1/76 131/1/76
f 130/1/5 128/1/5 132/1/5
f 135/1/4 138/1/4 136/1/4
f 141/1/2 25/1/2 30/1/2
f 19/1/5 145/1/5 20/1/5
f 20/1/5 146/1/5 21/1/5
f 22/1/5 144/1/5 19/1/5
f 21/1/5 147/1/5 22/1/5
f 149/1/5 151/1/5 148/1/5
f 21/1/3 149/1/3 20/1/3
f 19/1/1 151/1/1 22/1/1
f 19/1/4 149/1/4 148/1/4
f 155/1/77 153/1/78 152/1/36
f 40/1/1 154/1/1 87/1/1
f 59/1/3 155/1/3 152/1/3
f 87/1/37 155/1/79 95/1/15
f 119/1/1 6/1/1 105/1/1
f 43/1/2 68/1/2 64/1/2
f 143/1/2 48/1/2 7/1/2
f 81/1/3 28/1/3 132/1/3
f 132/1/3 134/1/3 111/1/3
f 53/1/4 2/1/4 24/1/4
f 14/1/5 18/1/5 78/1/5
f 2/1/1 40/1/1 87/1/1
f 9/1/6 10/1/6 27/1/6
f 28/1/7 11/1/7 12/1/7
f 53/1/4 31/1/4 39/1/4
f 18/1/1 146/1/1 145/1/1
f 4/1/5 7/1/5 116/1/5
f 109/1/2 142/1/2 37/1/2
f 35/1/8 84/1/80 93/1/9
f 22/1/2 151/1/2 150/1/2
f 17/1/2 145/1/2 144/1/2
f 13/1/3 144/1/3 147/1/3
f 18/1/4 14/1/4 147/1/4
f 50/1/11 49/1/11 30/1/11
f 135/1/3 120/1/3 13/1/3
f 26/1/1 27/1/1 103/1/1
f 11/1/7 28/1/7 81/1/7
f 55/1/12 24/1/12 1/1/12
f 121/1/7 29/1/7 12/1/7
f 8/1/11 30/1/11 25/1/11
f 117/1/6 122/1/6 23/1/6
f 88/1/13 82/1/25 91/1/14
f 58/1/11 37/1/11 32/1/11
f 45/1/4 33/1/4 65/1/4
f 48/1/5 34/1/5 123/1/5
f 52/1/16 79/1/2 76/1/17
f 94/1/18 61/1/81 41/1/19
f 59/1/4 152/1/4 153/1/4
f 62/1/21 44/1/5 124/1/22
f 42/1/24 41/1/24 61/1/24
f 6/1/2 44/1/2 62/1/2
f 16/1/1 42/1/1 124/1/1
f 31/1/3 82/1/3 88/1/3
f 34/1/3 46/1/3 125/1/3
f 15/1/1 41/1/1 42/1/1
f 82/1/25 93/1/82 52/1/16
f 31/1/3 38/1/3 93/1/3
f 116/1/5 7/1/5 48/1/5
f 51/1/5 47/1/5 18/1/5
f 37/1/11 49/1/11 50/1/11
f 142/1/2 143/1/2 49/1/2
f 56/1/2 62/1/2 46/1/2
f 60/1/2 70/1/2 68/1/2
f 46/1/26 62/1/83 127/1/27
f 1/1/29 24/1/29 79/1/29
f 105/1/2 6/1/2 56/1/2
f 23/1/11 58/1/11 54/1/11
f 38/1/12 55/1/12 57/1/12
f 53/1/4 59/1/4 40/1/4
f 31/1/4 53/1/4 55/1/4
f 64/1/3 68/1/3 67/1/3
f 64/1/5 65/1/5 69/1/5
f 70/1/30 66/1/30 67/1/30
f 51/1/2 36/1/2 64/1/2
f 51/1/3 63/1/3 69/1/3
f 61/1/1 66/1/1 70/1/1
f 47/1/4 69/1/4 65/1/4
f 61/1/4 45/1/4 67/1/4
f 80/1/6 27/1/6 10/1/6
f 89/1/31 45/1/84 61/1/32
f 18/1/5 47/1/5 90/1/5
f 47/1/5 33/1/5 83/1/5
f 39/1/34 88/1/85 95/1/35
f 83/1/3 33/1/3 45/1/3
f 75/1/1 86/1/1 41/1/1
f 137/1/3 106/1/3 4/1/3
f 4/1/3 120/1/3 135/1/3
f 2/1/1 76/1/1 79/1/1
f 75/1/1 15/1/1 103/1/1
f 95/1/15 91/1/14 76/1/17
f 93/1/38 84/1/86 97/1/39
f 52/1/40 97/1/39 72/1/41
f 98/1/43 99/1/87 92/1/44
f 112/1/46 113/1/53 99/1/47
f 112/1/46 98/1/48 81/1/4
f 81/1/49 98/1/88 71/1/50
f 100/1/52 99/1/47 113/1/53
f 92/1/44 99/1/87 100/1/55
f 89/1/57 94/1/60 102/1/58
f 94/1/60 86/1/61 75/1/61
f 80/1/62 101/1/89 115/1/63
f 115/1/63 101/1/89 100/1/52
f 85/1/56 100/1/55 101/1/65
f 96/1/66 101/1/65 80/1/67
f 102/1/58 115/1/63 114/1/54
f 110/1/64 115/1/63 102/1/58
f 114/1/54 113/1/53 90/1/69
f 78/1/70 112/1/46 111/1/4
f 78/1/70 90/1/69 113/1/53
f 110/1/1 103/1/1 27/1/1
f 111/1/3 134/1/3 133/1/3
f 133/1/3 14/1/3 77/1/3
f 23/1/2 105/1/2 109/1/2
f 109/1/2 56/1/2 34/1/2
f 34/1/2 48/1/2 143/1/2
f 107/1/1 103/1/1 15/1/1
f 136/1/3 130/1/3 29/1/3
f 7/1/2 4/1/2 106/1/2
f 28/1/3 29/1/3 130/1/3
f 49/1/2 143/1/2 141/1/2
f 129/1/1 105/1/1 23/1/1
f 107/1/1 129/1/1 122/1/1
f 139/1/3 140/1/3 108/1/3
f 125/1/71 127/1/90 60/1/72
f 17/1/5 116/1/5 126/1/5
f 123/1/3 125/1/3 43/1/3
f 119/1/1 124/1/1 44/1/1
f 60/1/74 127/1/90 124/1/75
f 51/1/5 126/1/5 123/1/5
f 9/1/6 26/1/6 122/1/6
f 25/1/7 121/1/7 118/1/7
f 120/1/5 116/1/5 17/1/5
f 121/1/3 25/1/3 106/1/3
f 106/1/3 137/1/3 136/1/3
f 16/1/1 119/1/1 129/1/1
f 132/1/2 128/1/2 108/1/2
f 135/1/76 131/1/76 140/1/76
f 14/1/3 133/1/3 131/1/3
f 140/1/3 139/1/3 138/1/3
f 136/1/5 138/1/5 139/1/5
f 133/1/76 108/1/76 140/1/76
f 130/1/5 139/1/5 128/1/5
f 135/1/4 104/1/4 138/1/4
f 141/1/2 106/1/2 25/1/2
f 19/1/5 144/1/5 145/1/5
f 20/1/5 145/1/5 146/1/5
f 22/1/5 147/1/5 144/1/5
f 21/1/5 146/1/5 147/1/5
f 149/1/5 150/1/5 151/1/5
f 21/1/3 150/1/3 149/1/3
f 19/1/1 148/1/1 151/1/1
f 19/1/4 20/1/4 149/1/4
f 155/1/77 154/1/91 153/1/78
f 40/1/1 153/1/1 154/1/1
f 59/1/3 95/1/3 155/1/3
f 87/1/37 154/1/79 155/1/79
