# Blender 5.1.0
# www.blender.org
o building_33
v -0.774611 0.000001 -0.913572
v -0.673666 3.080507 -1.640276
v -0.601966 -0.000001 -1.187693
v -0.601967 3.080506 -1.288637
v -0.601966 0.000000 1.187691
v -0.601966 3.080507 1.288636
v -0.601966 3.080506 -0.565053
v -0.601966 -0.000000 -0.520790
v 0.331255 0.000000 1.187691
v 1.042085 0.000000 1.187691
v 1.042085 -0.000001 -1.187692
v 0.331254 -0.000001 -1.187693
v -0.178163 3.080506 -1.288637
v 1.072293 3.080506 -1.288637
v 1.072293 3.080507 1.288636
v 0.301047 3.080507 1.288636
v -0.178163 3.080506 -0.565053
v 1.072293 3.080506 -0.565053
v -0.003444 3.399824 -1.113918
v -0.003444 3.399824 -0.739772
v 0.897574 3.399824 -0.739772
v 0.897573 3.399824 -1.113918
v -0.601966 1.737985 1.288636
v -0.673666 1.737986 -1.640276
v -0.601967 1.737985 -1.288637
v 0.301047 1.737985 1.288636
v 1.072293 1.737985 1.288636
v 1.072293 1.737985 -1.288637
v 0.301047 1.737985 -1.288637
v -0.601966 1.737985 -0.565053
v -1.338796 3.080507 -1.640276
v -0.601966 -0.000000 0.574665
v 1.072293 3.080507 0.623507
v -0.601966 3.080507 0.623507
v -1.387638 0.000000 -0.913572
v -0.123746 3.080507 0.623507
v -0.601966 1.737985 0.623507
v -1.338796 1.737985 -1.640276
v -1.338796 3.647958 -1.640276
v -0.673666 3.647958 -1.640276
v 1.072293 3.647958 1.288636
v 0.301047 3.647958 1.288636
v -0.123746 3.344447 0.623507
v -0.601966 3.647958 1.288636
v 1.072293 3.344447 0.623507
v -0.601966 3.647958 0.623507
v 1.072293 3.080507 0.029227
v -0.601966 3.080507 0.029227
v -0.601966 1.737985 0.029227
v -0.601966 -0.000000 0.026937
v -0.123746 3.080507 0.029227
v -1.006231 1.737986 1.288636
v -1.006231 3.080507 -1.640276
v -0.601966 0.000000 0.881178
v -1.006231 1.737985 -1.640276
v -0.601966 3.080507 0.956072
v -1.081124 0.000001 -0.913572
v -0.601966 1.737985 0.956072
v -1.006231 3.647958 -1.640276
v -0.123746 3.496202 0.956072
v 1.072293 3.496202 0.956072
v -0.601966 3.647958 0.956072
v -0.123746 3.474896 0.029227
v -0.123746 3.474896 0.480234
v 1.072293 3.474896 0.480234
v 1.072293 3.890592 0.956072
v 1.072293 3.738837 0.480234
v -0.123746 3.738837 0.480234
v 1.072293 3.474896 0.029227
v -0.123746 3.890592 0.956072
v 1.394040 -0.000000 -0.547297
v -0.673666 0.000001 1.187692
v 1.378898 0.000000 1.187691
v 1.379038 -0.000001 -1.187692
v 1.444474 3.080507 1.288636
v -0.673666 3.080507 1.039058
v 1.444614 3.080506 -1.288637
v 1.444614 3.080506 -0.565053
v -0.673666 1.737986 1.288636
v 1.444474 1.737985 1.288636
v 1.444614 1.737985 -1.288637
v -1.338795 3.080507 1.040066
v 1.444615 3.080507 0.623507
v -1.394045 0.000000 1.148769
v 1.384331 -0.000000 0.565190
v 1.444474 3.647958 1.288636
v -0.673666 3.647958 1.039058
v -1.338795 3.522817 1.040066
v 1.444615 3.469588 0.623507
v 1.444614 3.080507 0.029227
v -1.006231 3.080507 1.039563
v 1.389185 -0.000000 0.008963
v -1.338795 1.737986 1.288636
v 1.444193 3.558702 0.956072
v -1.006231 3.585459 1.037033
v 1.381614 0.000000 0.876446
v -1.084333 0.000001 1.187692
v 1.444614 1.737985 -0.556175
v 1.442187 1.737985 0.019095
v 1.442187 1.737985 0.623507
v 1.442187 1.737985 0.916258
v 1.444193 3.080507 0.916258
v 1.072293 2.409246 1.288636
v -0.427829 2.532601 -1.179186
v -0.601966 2.409246 1.288636
v -0.601967 2.409245 -1.288637
v 0.301047 2.409246 1.288636
v 1.072293 2.532601 -1.179186
v -0.601966 2.409246 0.956072
v 1.444474 2.409246 1.288636
v 1.444614 2.409245 -1.288637
v 1.444614 2.409245 -0.560614
v 1.443401 2.409246 0.024161
v 1.443401 2.409246 0.623507
v 1.443190 2.409246 0.916258
v -0.427829 3.080506 -0.565053
v -0.340525 0.000000 1.187691
v -0.340525 -0.000001 -1.187692
v -0.427829 3.080507 1.288636
v -0.427829 3.080506 -1.288637
v -0.427829 1.737985 -1.288637
v -0.427829 1.737985 1.288636
v -0.427829 3.080507 0.623507
v -0.427829 3.647958 1.288636
v -0.427829 3.589429 0.623507
v -0.427829 3.080507 0.029227
v -0.427829 3.618693 0.956072
v 1.072293 2.285890 -1.179186
v -0.427829 2.409246 1.288636
v 0.301047 2.285890 -1.288637
v 0.301047 2.532601 -1.288637
v 1.072293 2.285890 -1.288637
v 1.072293 2.532601 -1.288637
v 1.142772 2.409245 -1.288637
v -0.427829 2.532601 -1.288637
v -0.427829 2.285890 -1.288637
v -0.498308 2.409245 -1.288637
v -0.427829 2.285890 -1.179186
v 0.301047 2.285890 -1.179186
v 0.301047 2.532601 -1.179186
v -0.601966 2.409245 -0.565053
v -0.601966 2.409246 0.623507
v -0.601966 2.409246 0.029227
v -0.178163 3.399824 -1.288637
v -0.178163 3.399824 -0.565053
v 1.072293 3.399824 -0.565053
v 1.072293 3.399824 -1.288637
v -0.003444 3.274110 -1.113918
v -0.003444 3.274110 -0.739772
v 0.897574 3.274110 -0.739772
v 0.897573 3.274110 -1.113918
v -1.006231 4.905092 -1.640276
v -0.673666 4.905092 -1.640276
v -0.673666 4.905092 1.039058
v -1.006231 4.842593 1.037033
v -1.338796 1.737985 -0.432041
v -1.338796 1.737985 0.080401
v -0.774611 0.000001 -0.119437
v -0.673666 0.000001 0.393556
v -0.673666 1.737986 0.080676
v -0.673666 1.737986 -0.432316
v -0.673666 3.080507 -0.557105
v -0.673666 3.080507 -0.044112
v -0.673666 3.647958 -0.044112
v -0.673666 3.647958 -0.557105
v -1.338796 3.080507 -0.043884
v -1.338796 3.080507 -0.556325
v -1.338796 3.597350 -0.556325
v -1.338796 3.573425 -0.043884
v -1.391638 0.000000 0.373822
v -1.390045 0.000000 -0.138625
v -1.006231 3.622694 -0.558047
v -1.006231 3.610722 -0.045196
v -0.673666 4.905092 -0.557105
v -0.673666 4.905092 -0.044112
v -1.006231 4.867857 -0.045196
v -1.006231 4.879829 -0.558047
v -1.006231 1.737985 -0.432179
v -1.006231 3.080507 -0.556715
v -1.082328 0.000000 -0.129031
v -1.006231 3.080507 -0.043998
v -1.006231 1.737985 0.080539
vn -0.0000 -0.0000 1.0000
vn -1.0000 -0.0000 -0.0000
vn -0.0000 -0.0000 -1.0000
vn -0.0000 1.0000 -0.0000
vn 1.0000 -0.0000 -0.0000
vn -0.0000 -0.0580 0.9983
vn -0.0000 -0.0580 -0.9983
vn 0.9983 -0.0580 -0.0000
vn -0.0000 -0.3858 -0.9226
vn 0.0057 0.0032 1.0000
vn 0.0029 0.0035 1.0000
vn 0.0035 -0.0000 1.0000
vn 0.0014 0.1826 0.9832
vn 0.0002 0.1825 0.9832
vn 0.0015 0.1828 0.9832
vn -0.0750 0.9389 -0.3359
vn -0.0803 0.9365 -0.3412
vn -0.0000 0.9658 -0.2592
vn 0.1151 0.9915 -0.0603
vn 0.0514 0.9983 -0.0269
vn 0.1651 0.9825 -0.0865
vn -0.0000 0.9098 -0.4151
vn -0.0144 0.9995 0.0278
vn -0.0614 0.9972 0.0422
vn -0.0000 0.9997 0.0233
vn 0.0013 0.1824 0.9832
vn 0.0001 0.1823 0.9832
vn 0.2714 0.9607 -0.0576
vn 0.2150 0.9762 -0.0267
vn 0.3175 0.9446 -0.0831
vn -0.0000 0.9527 -0.3038
vn -0.2259 0.9179 -0.3263
vn -0.2330 0.9134 -0.3339
vn -0.1602 0.9534 -0.2557
vn -0.0013 0.0032 1.0000
vn -0.0043 0.0012 1.0000
vn -0.0138 -0.0600 0.9981
vn -0.1099 -0.0737 0.9912
vn 0.9995 -0.0302 0.0051
vn 0.9995 -0.0299 0.0083
vn 0.9995 -0.0290 0.0087
vn 1.0000 -0.0002 0.0013
vn 1.0000 -0.0013 0.0016
vn 1.0000 -0.0000 0.0021
vn 0.9994 -0.0313 -0.0176
vn 0.9993 -0.0358 -0.0053
vn 0.9993 -0.0292 -0.0234
vn 1.0000 -0.0017 0.0001
vn 1.0000 -0.0016 0.0008
vn 1.0000 -0.0018 0.0004
vn 0.9994 -0.0323 0.0078
vn 0.9995 -0.0316 0.0030
vn 0.9994 -0.0340 0.0005
vn 1.0000 -0.0001 0.0013
vn 1.0000 -0.0005 0.0001
vn 1.0000 -0.0012 0.0010
vn 1.0000 -0.0001 0.0011
vn 1.0000 -0.0000 -0.0008
vn 1.0000 -0.0010 -0.0053
vn 1.0000 -0.0013 -0.0016
vn 1.0000 -0.0005 -0.0030
vn 0.9994 -0.0344 0.0083
vn 0.9993 -0.0360 -0.0023
vn 0.9994 -0.0353 0.0068
vn 1.0000 -0.0018 -0.0000
vn 1.0000 -0.0005 0.0005
vn 0.4964 0.8402 -0.2184
vn 0.5003 0.8367 -0.2229
vn 0.5912 0.7338 -0.3348
vn 0.1278 0.9412 -0.3126
vn 0.1786 0.9465 -0.2686
vn -0.0000 -1.0000 -0.0000
vn -0.0614 0.9981 0.0044
vn -0.0144 0.9997 0.0189
vn -0.0061 -0.0000 1.0000
vn -0.1708 0.9853 0.0044
vn -0.1255 0.9919 0.0187
vn -0.1113 0.9935 0.0232
vn -0.1255 0.9917 0.0276
vn -0.1707 0.9844 0.0416
vn -0.9995 0.0314 -0.0019
vn -0.9995 0.0308 -0.0008
vn -0.9995 0.0304 -0.0000
vn -0.9996 0.0287 -0.0021
vn -0.9996 0.0283 -0.0008
vn -0.9996 0.0281 -0.0000
vn -0.0028 -0.0000 1.0000
vn 0.0002 0.0011 1.0000
vn 0.0005 0.0923 0.9957
vn 0.0011 0.0923 0.9957
vn 0.0004 0.0922 0.9957
vn -0.0289 0.1704 0.9850
vn -0.0030 0.1713 0.9852
vn -0.0307 0.1673 0.9854
vn -0.0271 0.1735 0.9845
vn -0.0013 0.1743 0.9847
vn 0.0005 0.0924 0.9957
vn 0.0011 0.0924 0.9957
vn -0.0002 0.0016 1.0000
vn 0.0019 0.0017 1.0000
vn 0.0037 0.0016 1.0000
vn 0.0012 -0.0000 1.0000
vn 0.0033 -0.0000 -1.0000
vn 0.0006 -0.0010 -1.0000
vn -0.0003 -0.0923 -0.9957
vn 0.0003 -0.0923 -0.9957
vn -0.0003 -0.0922 -0.9957
vn -0.0002 -0.0924 -0.9957
vn 0.0004 -0.0924 -0.9957
vn 0.0009 -0.0015 -1.0000
vn -0.0010 -0.0016 -1.0000
vn -0.0025 -0.0015 -1.0000
vn -0.0003 -0.0000 -1.0000
vn 0.0004 -0.1772 -0.9842
vn 0.0065 -0.1678 -0.9858
vn 0.0239 -0.1715 -0.9849
vn 0.0004 -0.1665 -0.9860
vn 0.0015 -0.0000 1.0000
vn -0.1511 0.8993 -0.4104
vn -0.0757 0.9960 0.0465
vn -0.0000 0.1821 0.9833
vn 0.1657 0.9862 -0.0000
vn -0.2924 0.8700 -0.3970
vn -0.1243 -0.0757 0.9894
vn 0.9993 -0.0377 -0.0000
vn 1.0000 -0.0015 -0.0031
vn 0.9993 -0.0373 -0.0061
vn 0.3724 0.9245 -0.0814
vn -0.0757 0.9971 -0.0000
vn -0.1847 0.9828 -0.0000
vn -0.1845 0.9818 0.0458
vn -0.9995 0.0320 -0.0031
vn -0.9996 0.0290 -0.0031
vn 0.0004 0.1772 0.9842
vn 0.0012 0.0926 0.9957
vn 0.0004 -0.0926 -0.9957
vn 0.0271 -0.1722 -0.9847
vn -0.8944 -0.4472 -0.0000
vn 0.8944 -0.4472 -0.0000
vn -0.9535 -0.3013 -0.0083
vt 0.000000 0.000000
s 1
f 119/1/1 105/1/1 129/1/1
f 43/1/2 64/1/2 36/1/2
f 143/1/2 7/1/2 141/1/2
f 132/1/3 111/1/3 81/1/3
f 53/1/3 24/1/3 55/1/3
f 14/1/4 78/1/4 77/1/4
f 164/1/5 154/1/5 87/1/5
f 9/1/6 27/1/6 26/1/6
f 11/1/7 29/1/7 28/1/7
f 53/1/3 39/1/3 59/1/3
f 18/1/1 145/1/1 17/1/1
f 4/1/4 116/1/4 120/1/4
f 109/1/2 37/1/2 58/1/2
f 1/1/8 161/1/8 158/1/8
f 22/1/2 150/1/2 21/1/2
f 17/1/2 144/1/2 13/1/2
f 13/1/3 147/1/3 14/1/3
f 18/1/5 147/1/5 146/1/5
f 49/1/2 8/1/2 50/1/2
f 135/1/3 13/1/3 131/1/3
f 26/1/1 103/1/1 107/1/1
f 28/1/7 74/1/7 11/1/7
f 55/1/9 1/1/9 57/1/9
f 118/1/7 29/1/7 12/1/7
f 30/1/2 3/1/2 8/1/2
f 122/1/6 5/1/6 117/1/6
f 88/1/10 91/1/11 95/1/12
f 54/1/2 37/1/2 32/1/2
f 45/1/5 65/1/5 67/1/5
f 48/1/4 123/1/4 126/1/4
f 91/1/13 79/1/14 76/1/15
f 94/1/16 41/1/17 86/1/18
f 59/1/3 153/1/3 40/1/3
f 62/1/19 124/1/20 127/1/21
f 42/1/22 61/1/22 60/1/22
f 6/1/2 62/1/2 56/1/2
f 16/1/1 124/1/1 119/1/1
f 39/1/23 172/1/24 59/1/25
f 34/1/3 125/1/3 123/1/3
f 15/1/1 42/1/1 16/1/1
f 82/1/26 52/1/27 91/1/13
f 38/1/2 167/1/2 31/1/2
f 116/1/4 48/1/4 126/1/4
f 51/1/4 18/1/4 17/1/4
f 32/1/2 49/1/2 50/1/2
f 142/1/2 49/1/2 37/1/2
f 56/1/2 46/1/2 34/1/2
f 60/1/2 68/1/2 43/1/2
f 46/1/28 127/1/29 125/1/30
f 160/1/5 76/1/5 79/1/5
f 105/1/2 56/1/2 109/1/2
f 5/1/2 58/1/2 54/1/2
f 38/1/9 57/1/9 35/1/9
f 53/1/3 40/1/3 2/1/3
f 31/1/3 55/1/3 38/1/3
f 64/1/3 67/1/3 65/1/3
f 64/1/4 69/1/4 63/1/4
f 70/1/31 67/1/31 68/1/31
f 51/1/2 64/1/2 63/1/2
f 51/1/3 69/1/3 47/1/3
f 61/1/1 70/1/1 60/1/1
f 47/1/5 65/1/5 33/1/5
f 61/1/5 67/1/5 66/1/5
f 73/1/6 27/1/6 10/1/6
f 89/1/32 61/1/33 94/1/34
f 18/1/4 90/1/4 78/1/4
f 47/1/4 83/1/4 90/1/4
f 173/1/2 155/1/2 176/1/2
f 83/1/3 45/1/3 89/1/3
f 75/1/1 41/1/1 15/1/1
f 4/1/3 135/1/3 137/1/3
f 24/1/5 162/1/5 161/1/5
f 75/1/1 103/1/1 110/1/1
f 95/1/12 76/1/35 87/1/36
f 93/1/37 97/1/38 52/1/6
f 52/1/6 72/1/6 79/1/6
f 98/1/39 92/1/40 71/1/41
f 112/1/42 99/1/43 98/1/44
f 112/1/42 81/1/5 111/1/5
f 74/1/45 98/1/46 71/1/47
f 100/1/48 113/1/49 114/1/50
f 85/1/51 99/1/52 100/1/53
f 89/1/54 102/1/55 83/1/56
f 94/1/57 75/1/58 102/1/55
f 80/1/59 115/1/60 110/1/61
f 115/1/60 100/1/48 114/1/50
f 100/1/53 96/1/62 85/1/51
f 101/1/63 73/1/64 96/1/62
f 102/1/55 114/1/50 83/1/56
f 110/1/61 102/1/55 75/1/58
f 114/1/50 90/1/65 83/1/56
f 78/1/66 111/1/5 77/1/5
f 78/1/66 113/1/49 112/1/42
f 110/1/1 27/1/1 80/1/1
f 133/1/3 77/1/3 111/1/3
f 23/1/2 109/1/2 58/1/2
f 109/1/2 34/1/2 142/1/2
f 34/1/2 143/1/2 142/1/2
f 107/1/1 15/1/1 16/1/1
f 136/1/3 29/1/3 121/1/3
f 7/1/2 106/1/2 141/1/2
f 28/1/3 130/1/3 132/1/3
f 49/1/2 141/1/2 30/1/2
f 129/1/1 23/1/1 122/1/1
f 107/1/1 122/1/1 26/1/1
f 139/1/3 108/1/3 128/1/3
f 125/1/67 60/1/68 43/1/69
f 17/1/4 126/1/4 51/1/4
f 123/1/3 43/1/3 36/1/3
f 119/1/1 44/1/1 6/1/1
f 60/1/70 124/1/71 42/1/22
f 51/1/4 123/1/4 36/1/4
f 26/1/6 117/1/6 9/1/6
f 3/1/7 121/1/7 118/1/7
f 120/1/4 17/1/4 13/1/4
f 106/1/3 136/1/3 121/1/3
f 16/1/1 129/1/1 107/1/1
f 132/1/3 133/1/3 134/1/3
f 135/1/3 136/1/3 137/1/3
f 132/1/2 108/1/2 133/1/2
f 135/1/72 140/1/72 104/1/72
f 14/1/3 131/1/3 13/1/3
f 140/1/3 138/1/3 104/1/3
f 136/1/4 139/1/4 130/1/4
f 133/1/72 140/1/72 131/1/72
f 130/1/4 128/1/4 132/1/4
f 135/1/5 138/1/5 136/1/5
f 141/1/2 25/1/2 30/1/2
f 19/1/4 145/1/4 20/1/4
f 20/1/4 146/1/4 21/1/4
f 22/1/4 144/1/4 19/1/4
f 21/1/4 147/1/4 22/1/4
f 149/1/4 151/1/4 148/1/4
f 21/1/3 149/1/3 20/1/3
f 19/1/1 151/1/1 22/1/1
f 19/1/5 149/1/5 148/1/5
f 177/1/73 153/1/74 152/1/25
f 31/1/2 168/1/2 39/1/2
f 59/1/2 177/1/2 152/1/2
f 87/1/36 155/1/75 95/1/12
f 155/1/76 175/1/77 176/1/78
f 40/1/5 174/1/5 165/1/5
f 163/1/5 87/1/5 76/1/5
f 169/1/79 95/1/80 173/1/78
f 159/1/5 79/1/5 72/1/5
f 170/1/81 93/1/82 157/1/83
f 166/1/2 88/1/2 169/1/2
f 157/1/2 82/1/2 166/1/2
f 2/1/5 165/1/5 162/1/5
f 35/1/84 156/1/85 38/1/86
f 165/1/87 177/1/87 172/1/88
f 178/1/89 167/1/90 156/1/91
f 180/1/92 156/1/93 171/1/94
f 158/1/95 178/1/96 180/1/92
f 161/1/97 179/1/98 178/1/89
f 162/1/99 172/1/88 179/1/100
f 179/1/100 168/1/101 167/1/102
f 176/1/103 164/1/103 173/1/104
f 181/1/105 157/1/106 166/1/107
f 163/1/108 182/1/109 181/1/105
f 173/1/104 163/1/110 181/1/111
f 169/1/112 181/1/111 166/1/113
f 159/1/72 84/1/72 170/1/72
f 159/1/114 182/1/114 160/1/114
f 182/1/115 170/1/116 157/1/117
f 57/1/72 180/1/72 35/1/72
f 11/1/72 92/1/72 10/1/72
f 119/1/1 6/1/1 105/1/1
f 43/1/2 68/1/2 64/1/2
f 143/1/2 48/1/2 7/1/2
f 81/1/3 28/1/3 132/1/3
f 132/1/3 134/1/3 111/1/3
f 53/1/3 2/1/3 24/1/3
f 14/1/4 18/1/4 78/1/4
f 164/1/5 175/1/5 154/1/5
f 9/1/6 10/1/6 27/1/6
f 11/1/7 12/1/7 29/1/7
f 53/1/3 31/1/3 39/1/3
f 18/1/1 146/1/1 145/1/1
f 4/1/4 7/1/4 116/1/4
f 109/1/2 142/1/2 37/1/2
f 1/1/8 24/1/8 161/1/8
f 22/1/2 151/1/2 150/1/2
f 17/1/2 145/1/2 144/1/2
f 13/1/3 144/1/3 147/1/3
f 18/1/5 14/1/5 147/1/5
f 49/1/2 30/1/2 8/1/2
f 135/1/3 120/1/3 13/1/3
f 26/1/1 27/1/1 103/1/1
f 28/1/7 81/1/7 74/1/7
f 55/1/9 24/1/9 1/1/9
f 118/1/7 121/1/7 29/1/7
f 30/1/2 25/1/2 3/1/2
f 122/1/6 23/1/6 5/1/6
f 88/1/10 82/1/118 91/1/11
f 54/1/2 58/1/2 37/1/2
f 45/1/5 33/1/5 65/1/5
f 48/1/4 34/1/4 123/1/4
f 91/1/13 52/1/27 79/1/14
f 94/1/16 61/1/119 41/1/17
f 59/1/3 152/1/3 153/1/3
f 62/1/19 44/1/4 124/1/20
f 42/1/22 41/1/22 61/1/22
f 6/1/2 44/1/2 62/1/2
f 16/1/1 42/1/1 124/1/1
f 39/1/23 168/1/120 172/1/24
f 34/1/3 46/1/3 125/1/3
f 15/1/1 41/1/1 42/1/1
f 82/1/26 93/1/121 52/1/27
f 38/1/2 156/1/2 167/1/2
f 116/1/4 7/1/4 48/1/4
f 51/1/4 47/1/4 18/1/4
f 32/1/2 37/1/2 49/1/2
f 142/1/2 143/1/2 49/1/2
f 56/1/2 62/1/2 46/1/2
f 60/1/2 70/1/2 68/1/2
f 46/1/28 62/1/122 127/1/29
f 160/1/5 163/1/5 76/1/5
f 105/1/2 6/1/2 56/1/2
f 5/1/2 23/1/2 58/1/2
f 38/1/9 55/1/9 57/1/9
f 53/1/3 59/1/3 40/1/3
f 31/1/3 53/1/3 55/1/3
f 64/1/3 68/1/3 67/1/3
f 64/1/4 65/1/4 69/1/4
f 70/1/31 66/1/31 67/1/31
f 51/1/2 36/1/2 64/1/2
f 51/1/3 63/1/3 69/1/3
f 61/1/1 66/1/1 70/1/1
f 47/1/5 69/1/5 65/1/5
f 61/1/5 45/1/5 67/1/5
f 73/1/6 80/1/6 27/1/6
f 89/1/32 45/1/123 61/1/33
f 18/1/4 47/1/4 90/1/4
f 47/1/4 33/1/4 83/1/4
f 173/1/2 95/1/2 155/1/2
f 83/1/3 33/1/3 45/1/3
f 75/1/1 86/1/1 41/1/1
f 137/1/3 106/1/3 4/1/3
f 4/1/3 120/1/3 135/1/3
f 24/1/5 2/1/5 162/1/5
f 75/1/1 15/1/1 103/1/1
f 95/1/12 91/1/11 76/1/35
f 93/1/37 84/1/124 97/1/38
f 52/1/6 97/1/6 72/1/6
f 98/1/39 99/1/52 92/1/40
f 112/1/42 113/1/49 99/1/43
f 112/1/42 98/1/44 81/1/5
f 74/1/45 81/1/125 98/1/46
f 100/1/48 99/1/43 113/1/49
f 85/1/51 92/1/40 99/1/52
f 89/1/54 94/1/57 102/1/55
f 94/1/57 86/1/58 75/1/58
f 80/1/59 101/1/126 115/1/60
f 115/1/60 101/1/126 100/1/48
f 100/1/53 101/1/63 96/1/62
f 101/1/63 80/1/127 73/1/64
f 102/1/55 115/1/60 114/1/50
f 110/1/61 115/1/60 102/1/55
f 114/1/50 113/1/49 90/1/65
f 78/1/66 112/1/42 111/1/5
f 78/1/66 90/1/65 113/1/49
f 110/1/1 103/1/1 27/1/1
f 111/1/3 134/1/3 133/1/3
f 133/1/3 14/1/3 77/1/3
f 23/1/2 105/1/2 109/1/2
f 109/1/2 56/1/2 34/1/2
f 34/1/2 48/1/2 143/1/2
f 107/1/1 103/1/1 15/1/1
f 136/1/3 130/1/3 29/1/3
f 7/1/2 4/1/2 106/1/2
f 28/1/3 29/1/3 130/1/3
f 49/1/2 143/1/2 141/1/2
f 129/1/1 105/1/1 23/1/1
f 107/1/1 129/1/1 122/1/1
f 139/1/3 140/1/3 108/1/3
f 125/1/67 127/1/128 60/1/68
f 17/1/4 116/1/4 126/1/4
f 123/1/3 125/1/3 43/1/3
f 119/1/1 124/1/1 44/1/1
f 60/1/70 127/1/128 124/1/71
f 51/1/4 126/1/4 123/1/4
f 26/1/6 122/1/6 117/1/6
f 3/1/7 25/1/7 121/1/7
f 120/1/4 116/1/4 17/1/4
f 121/1/3 25/1/3 106/1/3
f 106/1/3 137/1/3 136/1/3
f 16/1/1 119/1/1 129/1/1
f 132/1/2 128/1/2 108/1/2
f 135/1/72 131/1/72 140/1/72
f 14/1/3 133/1/3 131/1/3
f 140/1/3 139/1/3 138/1/3
f 136/1/4 138/1/4 139/1/4
f 133/1/72 108/1/72 140/1/72
f 130/1/4 139/1/4 128/1/4
f 135/1/5 104/1/5 138/1/5
f 141/1/2 106/1/2 25/1/2
f 19/1/4 144/1/4 145/1/4
f 20/1/4 145/1/4 146/1/4
f 22/1/4 147/1/4 144/1/4
f 21/1/4 146/1/4 147/1/4
f 149/1/4 150/1/4 151/1/4
f 21/1/3 150/1/3 149/1/3
f 19/1/1 148/1/1 151/1/1
f 19/1/5 20/1/5 149/1/5
f 177/1/73 174/1/129 153/1/74
f 31/1/2 167/1/2 168/1/2
f 59/1/2 172/1/2 177/1/2
f 87/1/36 154/1/75 155/1/75
f 155/1/76 154/1/130 175/1/77
f 40/1/5 153/1/5 174/1/5
f 163/1/5 164/1/5 87/1/5
f 169/1/79 88/1/131 95/1/80
f 159/1/5 160/1/5 79/1/5
f 170/1/81 84/1/132 93/1/82
f 166/1/2 82/1/2 88/1/2
f 157/1/2 93/1/2 82/1/2
f 2/1/5 40/1/5 165/1/5
f 35/1/84 171/1/133 156/1/85
f 165/1/87 174/1/87 177/1/87
f 178/1/89 179/1/98 167/1/90
f 180/1/92 178/1/96 156/1/93
f 158/1/95 161/1/134 178/1/96
f 161/1/97 162/1/135 179/1/98
f 162/1/99 165/1/87 172/1/88
f 179/1/100 172/1/88 168/1/101
f 176/1/103 175/1/103 164/1/103
f 181/1/105 182/1/109 157/1/106
f 163/1/108 160/1/136 182/1/109
f 173/1/104 164/1/103 163/1/110
f 169/1/112 173/1/104 181/1/111
f 159/1/72 72/1/72 84/1/72
f 182/1/115 159/1/137 170/1/116
f 57/1/72 1/1/72 158/1/72
f 180/1/72 171/1/72 35/1/72
f 57/1/72 158/1/72 180/1/72
f 5/1/72 54/1/138 32/1/139
f 5/1/72 32/1/139 50/1/72
f 117/1/72 5/1/72 50/1/72
f 8/1/72 3/1/72 118/1/72
f 117/1/72 50/1/72 8/1/72
f 9/1/72 117/1/72 8/1/72
f 8/1/72 118/1/72 12/1/72
f 11/1/72 74/1/72 71/1/72
f 8/1/72 12/1/72 11/1/72
f 10/1/72 9/1/72 8/1/72
f 96/1/72 73/1/72 10/1/72
f 92/1/72 85/1/140 96/1/72
f 11/1/72 71/1/72 92/1/72
f 10/1/72 8/1/72 11/1/72
f 92/1/72 96/1/72 10/1/72
