# Blender 5.1.0
# www.blender.org
mtllib HealthAmmo.mtl
o Health
v 0.805845 0.000000 -11.670493
v 0.805845 0.000000 -8.329507
v 0.790361 -0.157213 -11.670493
v 0.790361 -0.157213 -8.329507
v 0.744504 -0.308384 -11.670493
v 0.744504 -0.308384 -8.329507
v 0.670036 -0.447704 -11.670493
v 0.670036 -0.447704 -8.329507
v 0.569819 -0.569819 -11.670493
v 0.569819 -0.569819 -8.329507
v 0.447704 -0.670036 -11.670493
v 0.447704 -0.670036 -8.329507
v 0.308384 -0.744504 -11.670493
v 0.308384 -0.744504 -8.329507
v 0.157213 -0.790361 -11.670493
v 0.157213 -0.790361 -8.329507
v 0.000000 -0.805845 -11.670493
v -0.000000 -0.805845 -8.329507
v -0.157213 -0.790361 -11.670493
v -0.157213 -0.790361 -8.329507
v -0.308384 -0.744504 -11.670493
v -0.308384 -0.744504 -8.329507
v -0.447704 -0.670036 -11.670493
v -0.447704 -0.670036 -8.329507
v -0.569819 -0.569819 -11.670493
v -0.569819 -0.569819 -8.329507
v -0.670036 -0.447704 -11.670493
v -0.670036 -0.447704 -8.329507
v -0.744504 -0.308384 -11.670493
v -0.744504 -0.308384 -8.329507
v -0.790361 -0.157213 -11.670493
v -0.790361 -0.157213 -8.329507
v -0.805845 0.000000 -11.670493
v -0.805845 0.000000 -8.329507
v -0.790361 0.157213 -11.670493
v -0.790361 0.157213 -8.329507
v -0.744504 0.308384 -11.670493
v -0.744504 0.308384 -8.329507
v -0.670036 0.447704 -11.670493
v -0.670036 0.447704 -8.329507
v -0.569819 0.569819 -11.670493
v -0.569819 0.569819 -8.329507
v -0.447704 0.670036 -11.670493
v -0.447704 0.670036 -8.329507
v -0.308384 0.744504 -11.670493
v -0.308384 0.744504 -8.329507
v -0.157213 0.790361 -11.670493
v -0.157213 0.790361 -8.329507
v 0.000000 0.805845 -11.670493
v -0.000000 0.805845 -8.329507
v 0.157213 0.790361 -11.670493
v 0.157213 0.790361 -8.329507
v 0.308384 0.744504 -11.670493
v 0.308384 0.744504 -8.329507
v 0.447704 0.670036 -11.670493
v 0.447704 0.670036 -8.329507
v 0.569819 0.569819 -11.670493
v 0.569819 0.569819 -8.329507
v 0.670036 0.447704 -11.670493
v 0.670036 0.447704 -8.329507
v 0.744504 0.308384 -11.670493
v 0.744504 0.308384 -8.329507
v 0.790361 0.157213 -11.670493
v 0.790361 0.157213 -8.329507
v 1.000000 0.000000 -10.000000
v 0.831470 0.000000 -11.085577
v 0.555570 0.000000 -11.624681
v 0.195090 0.000000 -11.916443
v 0.000000 0.000000 -11.953988
v -0.195090 0.000000 -11.916443
v -0.555570 0.000000 -11.624681
v -1.000000 0.000000 -10.000000
v 0.980785 -0.038060 -10.373879
v 0.923880 -0.074658 -10.733391
v 0.831470 -0.108386 -11.064718
v 0.707107 -0.137950 -11.355129
v 0.555570 -0.162212 -11.593464
v 0.382683 -0.180240 -11.770562
v 0.195090 -0.191342 -11.879619
v 0.000000 -0.195090 -11.916443
v -0.195090 -0.191342 -11.879619
v -0.382683 -0.180240 -11.770562
v -0.555570 -0.162212 -11.593464
v -0.707107 -0.137950 -11.355129
v -0.831469 -0.108386 -11.064718
v -0.923879 -0.074658 -10.733391
v -0.980785 -0.038060 -10.373879
v 0.980785 -0.074658 -10.352187
v 0.923880 -0.146447 -10.690839
v 0.831470 -0.212608 -11.002943
v 0.707107 -0.270598 -11.276505
v 0.555570 -0.318190 -11.501010
v 0.382683 -0.353553 -11.667833
v 0.195090 -0.375330 -11.770562
v 0.000000 -0.382683 -11.805249
v -0.195090 -0.375330 -11.770562
v -0.382683 -0.353553 -11.667833
v -0.555570 -0.318190 -11.501010
v -0.707107 -0.270598 -11.276505
v -0.831469 -0.212608 -11.002943
v -0.923879 -0.146447 -10.690839
v -0.980785 -0.074658 -10.352186
v 0.980785 -0.108386 -10.316959
v 0.923880 -0.212608 -10.621738
v 0.831470 -0.308658 -10.902624
v 0.707107 -0.392847 -11.148824
v 0.555570 -0.461940 -11.350873
v 0.382683 -0.513280 -11.501010
v 0.195090 -0.544895 -11.593464
v 0.000000 -0.555570 -11.624681
v -0.195090 -0.544895 -11.593464
v -0.382683 -0.513280 -11.501010
v -0.555570 -0.461940 -11.350873
v -0.707107 -0.392847 -11.148824
v -0.831469 -0.308658 -10.902624
v -0.923880 -0.212608 -10.621738
v -0.980785 -0.108386 -10.316959
v 0.980785 -0.137950 -10.269552
v 0.923880 -0.270598 -10.528746
v 0.831470 -0.392847 -10.767619
v 0.707107 -0.500000 -10.976994
v 0.555570 -0.587938 -11.148823
v 0.382683 -0.653281 -11.276505
v 0.195090 -0.693520 -11.355129
v 0.000000 -0.707107 -11.381678
v -0.195090 -0.693520 -11.355129
v -0.382683 -0.653281 -11.276505
v -0.555570 -0.587938 -11.148823
v -0.707107 -0.500000 -10.976994
v -0.831469 -0.392847 -10.767619
v -0.923880 -0.270598 -10.528746
v -0.980785 -0.137950 -10.269552
v 0.980785 -0.162212 -10.211785
v 0.923880 -0.318190 -10.415433
v 0.831470 -0.461940 -10.603114
v 0.707107 -0.587938 -10.767619
v 0.555570 -0.691342 -10.902624
v 0.382683 -0.768178 -11.002943
v 0.195090 -0.815493 -11.064718
v 0.000000 -0.831470 -11.085577
v -0.195090 -0.815493 -11.064718
v -0.382683 -0.768178 -11.002943
v -0.555570 -0.691342 -10.902624
v -0.707107 -0.587938 -10.767619
v -0.831470 -0.461940 -10.603114
v -0.923880 -0.318190 -10.415433
v -0.980785 -0.162212 -10.211785
v 0.980785 -0.180240 -10.145881
v 0.923880 -0.353553 -10.286155
v 0.831470 -0.513280 -10.415432
v 0.707107 -0.653281 -10.528746
v 0.555570 -0.768178 -10.621738
v 0.382683 -0.853553 -10.690839
v 0.195090 -0.906127 -10.733391
v 0.000000 -0.923879 -10.747759
v -0.195090 -0.906127 -10.733391
v -0.382683 -0.853553 -10.690839
v -0.555570 -0.768178 -10.621738
v -0.707107 -0.653281 -10.528746
v -0.831470 -0.513280 -10.415432
v -0.923880 -0.353553 -10.286155
v -0.980785 -0.180240 -10.145881
v 0.980785 -0.191342 -10.074369
v 0.923880 -0.375330 -10.145881
v 0.831470 -0.544895 -10.211785
v 0.707107 -0.693520 -10.269552
v 0.555570 -0.815493 -10.316959
v 0.382683 -0.906127 -10.352187
v 0.195090 -0.961940 -10.373879
v 0.000000 -0.980785 -10.381204
v -0.195090 -0.961940 -10.373879
v -0.382683 -0.906127 -10.352187
v -0.555570 -0.815493 -10.316959
v -0.707107 -0.693520 -10.269552
v -0.831470 -0.544895 -10.211785
v -0.923880 -0.375330 -10.145881
v -0.980785 -0.191342 -10.074369
v 0.980785 -0.195090 -10.000000
v 0.923880 -0.382683 -10.000000
v 0.831470 -0.555570 -10.000000
v 0.707107 -0.707107 -10.000000
v 0.555570 -0.831469 -10.000000
v 0.382683 -0.923879 -10.000000
v 0.195090 -0.980785 -10.000000
v -0.000000 -1.000000 -10.000000
v -0.195090 -0.980785 -10.000000
v -0.382683 -0.923879 -10.000000
v -0.555570 -0.831469 -10.000000
v -0.707107 -0.707107 -10.000000
v -0.831470 -0.555570 -10.000000
v -0.923880 -0.382683 -10.000000
v -0.980785 -0.195090 -10.000000
v 0.980785 -0.191342 -9.925631
v 0.923880 -0.375330 -9.854119
v 0.831470 -0.544895 -9.788215
v 0.707107 -0.693520 -9.730448
v 0.555570 -0.815493 -9.683041
v 0.382683 -0.906127 -9.647814
v 0.195090 -0.961940 -9.626121
v -0.000000 -0.980785 -9.618795
v -0.195090 -0.961940 -9.626121
v -0.382683 -0.906127 -9.647814
v -0.555570 -0.815493 -9.683041
v -0.707107 -0.693520 -9.730448
v -0.831470 -0.544895 -9.788215
v -0.923880 -0.375330 -9.854119
v -0.980785 -0.191342 -9.925631
v 0.980785 -0.180240 -9.854119
v 0.923880 -0.353553 -9.713845
v 0.831470 -0.513280 -9.584567
v 0.707107 -0.653281 -9.471254
v 0.555570 -0.768178 -9.378262
v 0.382683 -0.853553 -9.309161
v 0.195090 -0.906127 -9.266609
v 0.000000 -0.923879 -9.252241
v -0.195090 -0.906127 -9.266609
v -0.382683 -0.853553 -9.309161
v -0.555570 -0.768178 -9.378262
v -0.707107 -0.653281 -9.471254
v -0.831470 -0.513280 -9.584567
v -0.923880 -0.353553 -9.713845
v -0.980785 -0.180240 -9.854119
v 0.980785 -0.162212 -9.788215
v 0.923880 -0.318190 -9.584567
v 0.831470 -0.461940 -9.396886
v 0.707107 -0.587938 -9.232381
v 0.555570 -0.691341 -9.097376
v 0.382683 -0.768178 -8.997057
v 0.195090 -0.815493 -8.935282
v -0.000000 -0.831469 -8.914423
v -0.195090 -0.815493 -8.935282
v -0.382683 -0.768178 -8.997057
v -0.555570 -0.691341 -9.097376
v -0.707107 -0.587938 -9.232381
v -0.831470 -0.461940 -9.396886
v -0.923880 -0.318190 -9.584567
v -0.980785 -0.162212 -9.788215
v 0.980785 -0.137950 -9.730448
v 0.923880 -0.270598 -9.471254
v 0.831469 -0.392847 -9.232381
v 0.707107 -0.500000 -9.023006
v 0.555570 -0.587938 -8.851177
v 0.382683 -0.653281 -8.723496
v 0.195090 -0.693520 -8.644871
v -0.000000 -0.707106 -8.618322
v -0.195090 -0.693520 -8.644871
v -0.382683 -0.653281 -8.723496
v -0.555570 -0.587938 -8.851177
v -0.707107 -0.500000 -9.023006
v -0.831470 -0.392847 -9.232381
v -0.923880 -0.270598 -9.471254
v -0.980785 -0.137950 -9.730448
v 0.980785 -0.108386 -9.683041
v 0.923880 -0.212607 -9.378262
v 0.831469 -0.308658 -9.097376
v 0.707107 -0.392847 -8.851177
v 0.555570 -0.461940 -8.649127
v 0.382683 -0.513280 -8.498990
v 0.195090 -0.544895 -8.406536
v 0.000000 -0.555570 -8.375319
v -0.195090 -0.544895 -8.406536
v -0.382683 -0.513280 -8.498990
v -0.555570 -0.461940 -8.649127
v -0.707107 -0.392847 -8.851177
v -0.831470 -0.308658 -9.097376
v -0.923880 -0.212607 -9.378262
v -0.980785 -0.108386 -9.683041
v 0.980785 -0.074658 -9.647814
v 0.923879 -0.146447 -9.309161
v 0.831469 -0.212607 -8.997058
v 0.707107 -0.270598 -8.723496
v 0.555570 -0.318189 -8.498990
v 0.382683 -0.353553 -8.332168
v 0.195090 -0.375330 -8.229439
v -0.000000 -0.382683 -8.194752
v -0.195090 -0.375330 -8.229439
v -0.382683 -0.353553 -8.332168
v -0.555570 -0.318189 -8.498990
v -0.707107 -0.270598 -8.723496
v -0.831470 -0.212607 -8.997058
v -0.923880 -0.146447 -9.309161
v -0.980785 -0.074658 -9.647814
v 0.980785 -0.038060 -9.626121
v 0.923879 -0.074658 -9.266609
v 0.831469 -0.108386 -8.935282
v 0.707107 -0.137950 -8.644871
v 0.555570 -0.162212 -8.406537
v 0.382683 -0.180240 -8.229439
v 0.195090 -0.191342 -8.120382
v -0.000000 -0.195090 -8.083558
v -0.195090 -0.191342 -8.120382
v -0.382683 -0.180240 -8.229439
v -0.555570 -0.162212 -8.406537
v -0.707107 -0.137950 -8.644871
v -0.831470 -0.108386 -8.935282
v -0.923880 -0.074658 -9.266609
v -0.980785 -0.038060 -9.626121
v 0.980785 0.000000 -9.618796
v 0.923879 0.000000 -9.252241
v 0.831469 0.000000 -8.914423
v 0.707107 0.000000 -8.618322
v 0.555570 0.000000 -8.375319
v 0.382683 -0.000000 -8.194751
v 0.195090 0.000000 -8.083558
v -0.000000 0.000000 -8.046013
v -0.195090 0.000000 -8.083558
v -0.382683 -0.000000 -8.194751
v -0.555570 0.000000 -8.375319
v -0.707107 0.000000 -8.618322
v -0.831470 0.000000 -8.914423
v -0.923880 0.000000 -9.252241
v -0.980785 0.000000 -9.618796
v 0.980785 0.038060 -9.626121
v 0.923879 0.074658 -9.266609
v 0.831469 0.108386 -8.935282
v 0.707107 0.137950 -8.644871
v 0.555570 0.162212 -8.406537
v 0.382683 0.180240 -8.229439
v 0.195090 0.191342 -8.120382
v 0.000000 0.195091 -8.083559
v -0.195090 0.191342 -8.120382
v -0.382683 0.180240 -8.229439
v -0.555570 0.162212 -8.406537
v -0.707107 0.137950 -8.644871
v -0.831470 0.108386 -8.935282
v -0.923880 0.074658 -9.266609
v -0.980785 0.038060 -9.626121
v 0.980785 0.074658 -9.647814
v 0.923879 0.146447 -9.309161
v 0.831469 0.212607 -8.997058
v 0.707107 0.270598 -8.723496
v 0.555570 0.318190 -8.498991
v 0.382683 0.353553 -8.332168
v 0.195090 0.375330 -8.229439
v -0.000000 0.382683 -8.194752
v -0.195090 0.375330 -8.229439
v -0.382683 0.353553 -8.332168
v -0.555570 0.318190 -8.498991
v -0.707107 0.270598 -8.723496
v -0.831470 0.212607 -8.997058
v -0.923880 0.146447 -9.309161
v -0.980785 0.074658 -9.647814
v 0.980785 0.108386 -9.683041
v 0.923880 0.212607 -9.378262
v 0.831469 0.308658 -9.097376
v 0.707107 0.392847 -8.851177
v 0.555570 0.461940 -8.649127
v 0.382683 0.513280 -8.498990
v 0.195090 0.544895 -8.406537
v 0.000000 0.555570 -8.375320
v -0.195090 0.544895 -8.406537
v -0.382683 0.513280 -8.498990
v -0.555570 0.461940 -8.649127
v -0.707107 0.392847 -8.851177
v -0.831470 0.308658 -9.097376
v -0.923880 0.212607 -9.378262
v -0.980785 0.108386 -9.683041
v 0.980785 0.137950 -9.730448
v 0.923880 0.270598 -9.471255
v 0.831469 0.392847 -9.232382
v 0.707107 0.500000 -9.023006
v 0.555570 0.587938 -8.851177
v 0.382683 0.653281 -8.723496
v 0.195090 0.693520 -8.644871
v -0.000000 0.707106 -8.618323
v -0.195090 0.693520 -8.644871
v -0.382683 0.653281 -8.723496
v -0.555570 0.587938 -8.851177
v -0.707107 0.500000 -9.023006
v -0.831470 0.392847 -9.232382
v -0.923880 0.270598 -9.471255
v -0.980785 0.137950 -9.730448
v 0.980785 0.162212 -9.788215
v 0.923880 0.318190 -9.584568
v 0.831470 0.461940 -9.396886
v 0.707107 0.587938 -9.232381
v 0.555570 0.691341 -9.097376
v 0.382683 0.768177 -8.997058
v 0.195090 0.815493 -8.935283
v -0.000000 0.831469 -8.914424
v -0.195090 0.815493 -8.935283
v -0.382683 0.768177 -8.997058
v -0.555570 0.691341 -9.097376
v -0.707107 0.587938 -9.232381
v -0.831470 0.461940 -9.396886
v -0.923880 0.318190 -9.584568
v -0.980785 0.162212 -9.788215
v 0.980785 0.180240 -9.854119
v 0.923880 0.353553 -9.713845
v 0.831470 0.513280 -9.584568
v 0.707107 0.653281 -9.471254
v 0.555570 0.768177 -9.378262
v 0.382683 0.853553 -9.309161
v 0.195090 0.906127 -9.266610
v -0.000000 0.923879 -9.252243
v -0.195090 0.906127 -9.266610
v -0.382683 0.853553 -9.309161
v -0.555570 0.768177 -9.378262
v -0.707107 0.653281 -9.471254
v -0.831470 0.513280 -9.584568
v -0.923880 0.353553 -9.713845
v -0.980785 0.180240 -9.854119
v 0.980785 0.191342 -9.925631
v 0.923880 0.375330 -9.854119
v 0.831470 0.544895 -9.788215
v 0.707107 0.693520 -9.730448
v 0.555570 0.815493 -9.683041
v 0.382683 0.906127 -9.647814
v 0.195090 0.961939 -9.626122
v 0.000000 0.980784 -9.618797
v -0.195090 0.961939 -9.626122
v -0.382683 0.906127 -9.647814
v -0.555570 0.815493 -9.683041
v -0.707107 0.693520 -9.730448
v -0.831470 0.544895 -9.788215
v -0.923880 0.375330 -9.854119
v -0.980785 0.191342 -9.925631
v 0.980785 0.195090 -10.000000
v 0.923880 0.382683 -10.000000
v 0.831470 0.555570 -10.000000
v 0.707107 0.707107 -10.000000
v 0.555570 0.831469 -10.000000
v 0.382683 0.923879 -10.000000
v 0.195090 0.980785 -10.000001
v 0.000000 0.999999 -10.000001
v -0.195090 0.980785 -10.000001
v -0.382683 0.923879 -10.000000
v -0.555570 0.831469 -10.000000
v -0.707107 0.707107 -10.000000
v -0.831470 0.555570 -10.000000
v -0.923880 0.382683 -10.000000
v -0.980785 0.195090 -10.000000
v 0.980785 0.191342 -10.074369
v 0.923880 0.375330 -10.145881
v 0.831470 0.544895 -10.211785
v 0.707107 0.693520 -10.269552
v 0.555570 0.815493 -10.316959
v 0.382683 0.906127 -10.352186
v 0.195090 0.961939 -10.373879
v 0.000000 0.980784 -10.381205
v -0.195090 0.961939 -10.373879
v -0.382683 0.906127 -10.352186
v -0.555570 0.815493 -10.316959
v -0.707107 0.693520 -10.269552
v -0.831470 0.544895 -10.211786
v -0.923880 0.375330 -10.145881
v -0.980785 0.191342 -10.074369
v 0.980785 0.180240 -10.145881
v 0.923880 0.353553 -10.286155
v 0.831470 0.513279 -10.415432
v 0.707107 0.653281 -10.528746
v 0.555570 0.768177 -10.621738
v 0.382683 0.853553 -10.690839
v 0.195090 0.906127 -10.733391
v 0.000000 0.923878 -10.747759
v -0.195090 0.906127 -10.733391
v -0.382683 0.853553 -10.690839
v -0.555570 0.768177 -10.621738
v -0.707107 0.653281 -10.528746
v -0.831470 0.513279 -10.415433
v -0.923880 0.353553 -10.286155
v -0.980785 0.180240 -10.145881
v 0.980785 0.162212 -10.211785
v 0.923880 0.318189 -10.415432
v 0.831470 0.461939 -10.603114
v 0.707107 0.587938 -10.767619
v 0.555570 0.691341 -10.902624
v 0.382683 0.768177 -11.002942
v 0.195090 0.815493 -11.064718
v 0.000000 0.831468 -11.085577
v -0.195090 0.815493 -11.064718
v -0.382683 0.768177 -11.002942
v -0.555570 0.691341 -10.902624
v -0.707107 0.587938 -10.767619
v -0.831470 0.461939 -10.603114
v -0.923880 0.318189 -10.415432
v -0.980785 0.162212 -10.211785
v 0.980785 0.137950 -10.269552
v 0.923880 0.270598 -10.528745
v 0.831470 0.392847 -10.767619
v 0.707107 0.500000 -10.976994
v 0.555570 0.587937 -11.148823
v 0.382683 0.653281 -11.276504
v 0.195090 0.693519 -11.355129
v 0.000000 0.707106 -11.381678
v -0.195090 0.693519 -11.355129
v -0.382683 0.653281 -11.276504
v -0.555570 0.587937 -11.148823
v -0.707107 0.500000 -10.976994
v -0.831469 0.392847 -10.767619
v -0.923880 0.270598 -10.528745
v -0.980785 0.137950 -10.269552
v 0.980785 0.108386 -10.316959
v 0.923880 0.212607 -10.621738
v 0.831470 0.308658 -10.902624
v 0.707107 0.392847 -11.148823
v 0.555570 0.461939 -11.350873
v 0.382683 0.513280 -11.501009
v 0.195090 0.544895 -11.593463
v 0.000000 0.555569 -11.624681
v -0.195090 0.544895 -11.593463
v -0.382683 0.513280 -11.501009
v -0.555570 0.461939 -11.350873
v -0.707107 0.392847 -11.148823
v -0.831469 0.308658 -10.902624
v -0.923880 0.212607 -10.621738
v -0.980785 0.108386 -10.316959
v 0.980785 0.074658 -10.352186
v 0.923880 0.146446 -10.690839
v 0.831470 0.212607 -11.002942
v 0.707107 0.270598 -11.276504
v 0.555570 0.318189 -11.501009
v 0.382683 0.353553 -11.667832
v 0.195090 0.375330 -11.770561
v 0.000000 0.382683 -11.805248
v -0.195090 0.375330 -11.770561
v -0.382683 0.353553 -11.667832
v -0.555570 0.318189 -11.501009
v -0.707107 0.270598 -11.276504
v -0.831469 0.212607 -11.002942
v -0.923879 0.146446 -10.690839
v -0.980785 0.074658 -10.352186
v 0.980785 0.038060 -10.373879
v 0.923880 0.074658 -10.733391
v 0.831470 0.108386 -11.064717
v 0.707107 0.137950 -11.355129
v 0.555570 0.162211 -11.593463
v 0.382683 0.180240 -11.770561
v 0.195090 0.191341 -11.879618
v 0.000000 0.195090 -11.916440
v -0.195090 0.191341 -11.879618
v -0.382683 0.180240 -11.770561
v -0.555570 0.162211 -11.593463
v -0.707107 0.137950 -11.355129
v -0.831469 0.108386 -11.064717
v -0.923879 0.074658 -10.733391
v -0.980785 0.038060 -10.373879
v 0.980785 -0.000000 -10.381204
v 0.923880 -0.000000 -10.747759
v 0.707107 -0.000000 -11.381678
v 0.382683 -0.000000 -11.805248
v -0.382683 -0.000000 -11.805248
v -0.707107 -0.000000 -11.381678
v -0.831469 -0.000000 -11.085576
v -0.923879 -0.000000 -10.747759
v -0.980785 -0.000000 -10.381204
vn 0.9952 -0.0980 -0.0000
vn 0.9569 -0.2903 -0.0000
vn 0.8819 -0.4714 -0.0000
vn 0.7730 -0.6344 -0.0000
vn 0.6344 -0.7730 -0.0000
vn 0.4714 -0.8819 -0.0000
vn 0.2903 -0.9569 -0.0000
vn 0.0980 -0.9952 -0.0000
vn -0.0980 -0.9952 -0.0000
vn -0.2903 -0.9569 -0.0000
vn -0.4714 -0.8819 -0.0000
vn -0.6344 -0.7730 -0.0000
vn -0.7730 -0.6344 -0.0000
vn -0.8819 -0.4714 -0.0000
vn -0.9569 -0.2903 -0.0000
vn -0.9952 -0.0980 -0.0000
vn -0.9952 0.0980 -0.0000
vn -0.9569 0.2903 -0.0000
vn -0.8819 0.4714 -0.0000
vn -0.7730 0.6344 -0.0000
vn -0.6344 0.7730 -0.0000
vn -0.4714 0.8819 -0.0000
vn -0.2903 0.9569 -0.0000
vn -0.0980 0.9952 -0.0000
vn 0.0980 0.9952 -0.0000
vn 0.2903 0.9569 -0.0000
vn 0.4714 0.8819 -0.0000
vn 0.6344 0.7730 -0.0000
vn 0.7730 0.6344 -0.0000
vn 0.8819 0.4714 -0.0000
vn -0.0000 -0.0000 1.0000
vn 0.9569 0.2903 -0.0000
vn 0.9952 0.0980 -0.0000
vn -0.0000 -0.0000 -1.0000
vn 0.5030 -0.1633 -0.8487
vn -0.9877 -0.0295 -0.1533
vn 0.1857 -0.1857 -0.9649
vn 0.9987 -0.0097 -0.0503
vn -0.9987 -0.0097 -0.0503
vn -0.1857 -0.1857 -0.9649
vn 0.9877 -0.0295 -0.1533
vn -0.5030 -0.1633 -0.8487
vn 0.9633 -0.0507 -0.2635
vn -0.7160 -0.1319 -0.6855
vn 0.9194 -0.0743 -0.3862
vn -0.8442 -0.1013 -0.5264
vn 0.8442 -0.1013 -0.5264
vn -0.9194 -0.0743 -0.3862
vn 0.7160 -0.1319 -0.6855
vn -0.9633 -0.0507 -0.2635
vn -0.9052 -0.2167 -0.3656
vn 0.6827 -0.3726 -0.6286
vn -0.9563 -0.1491 -0.2515
vn 0.4685 -0.4505 -0.7600
vn -0.9853 -0.0872 -0.1471
vn 0.1697 -0.5025 -0.8478
vn 0.9984 -0.0287 -0.0484
vn -0.9984 -0.0287 -0.0484
vn -0.1697 -0.5025 -0.8478
vn 0.9853 -0.0872 -0.1471
vn -0.4685 -0.4505 -0.7600
vn 0.9563 -0.1491 -0.2515
vn -0.6827 -0.3726 -0.6286
vn 0.9052 -0.2167 -0.3656
vn -0.8204 -0.2916 -0.4919
vn 0.8204 -0.2916 -0.4919
vn -0.4198 -0.6556 -0.6277
vn 0.9437 -0.2389 -0.2288
vn -0.6318 -0.5599 -0.5361
vn 0.8806 -0.3423 -0.3277
vn -0.7812 -0.4509 -0.4317
vn 0.7812 -0.4509 -0.4317
vn -0.8806 -0.3423 -0.3277
vn 0.6318 -0.5599 -0.5361
vn -0.9437 -0.2389 -0.2288
vn 0.4198 -0.6556 -0.6277
vn -0.9808 -0.1409 -0.1349
vn 0.1485 -0.7143 -0.6839
vn 0.9979 -0.0466 -0.0446
vn -0.9979 -0.0466 -0.0446
vn -0.1485 -0.7143 -0.6839
vn 0.9808 -0.1409 -0.1349
vn -0.9280 -0.3162 -0.1972
vn 0.3744 -0.7868 -0.4907
vn -0.9750 -0.1885 -0.1176
vn 0.1300 -0.8413 -0.5247
vn 0.9973 -0.0626 -0.0390
vn -0.9973 -0.0626 -0.0390
vn -0.1300 -0.8413 -0.5247
vn 0.9750 -0.1885 -0.1176
vn -0.3744 -0.7868 -0.4907
vn 0.9280 -0.3162 -0.1972
vn -0.5797 -0.6914 -0.4312
vn 0.8512 -0.4453 -0.2777
vn -0.7376 -0.5729 -0.3573
vn 0.7376 -0.5729 -0.3573
vn -0.8512 -0.4453 -0.2777
vn 0.5797 -0.6914 -0.4312
vn 0.9118 -0.3786 -0.1590
vn -0.5357 -0.7785 -0.3270
vn 0.8225 -0.5243 -0.2202
vn -0.6978 -0.6604 -0.2774
vn 0.6978 -0.6604 -0.2774
vn -0.8225 -0.5243 -0.2202
vn 0.5357 -0.7785 -0.3270
vn -0.9118 -0.3786 -0.1590
vn 0.3388 -0.8675 -0.3643
vn -0.9689 -0.2283 -0.0959
vn 0.1161 -0.9157 -0.3846
vn 0.9966 -0.0762 -0.0320
vn -0.9966 -0.0762 -0.0320
vn -0.1161 -0.9157 -0.3846
vn 0.9689 -0.2283 -0.0959
vn -0.3388 -0.8675 -0.3643
vn 0.3135 -0.9159 -0.2506
vn -0.9633 -0.2590 -0.0708
vn 0.1066 -0.9591 -0.2624
vn 0.9959 -0.0869 -0.0238
vn -0.9959 -0.0869 -0.0238
vn -0.1066 -0.9591 -0.2624
vn 0.9633 -0.2590 -0.0708
vn -0.3135 -0.9159 -0.2506
vn 0.8976 -0.4252 -0.1163
vn -0.5029 -0.8337 -0.2281
vn 0.7985 -0.5807 -0.1589
vn -0.6662 -0.7194 -0.1968
vn 0.6662 -0.7194 -0.1968
vn -0.7985 -0.5807 -0.1589
vn 0.5029 -0.8337 -0.2281
vn -0.8976 -0.4252 -0.1163
vn -0.4814 -0.8661 -0.1345
vn 0.7814 -0.6166 -0.0957
vn -0.6447 -0.7554 -0.1173
vn 0.6447 -0.7554 -0.1173
vn -0.7814 -0.6166 -0.0957
vn 0.4814 -0.8661 -0.1345
vn -0.8872 -0.4560 -0.0708
vn 0.2976 -0.9434 -0.1465
vn -0.9591 -0.2798 -0.0434
vn 0.1007 -0.9831 -0.1526
vn 0.9954 -0.0943 -0.0146
vn -0.9954 -0.0943 -0.0146
vn -0.1007 -0.9831 -0.1526
vn 0.9591 -0.2798 -0.0434
vn -0.2976 -0.9434 -0.1465
vn 0.8872 -0.4560 -0.0708
vn -0.9568 -0.2903 -0.0146
vn 0.0979 -0.9939 -0.0501
vn 0.9952 -0.0980 -0.0049
vn -0.9952 -0.0980 -0.0049
vn -0.0979 -0.9939 -0.0501
vn 0.9568 -0.2903 -0.0146
vn -0.2899 -0.9558 -0.0482
vn 0.8817 -0.4713 -0.0238
vn -0.4709 -0.8811 -0.0444
vn 0.7726 -0.6341 -0.0320
vn -0.6339 -0.7724 -0.0389
vn 0.6339 -0.7724 -0.0389
vn -0.7726 -0.6341 -0.0320
vn 0.4709 -0.8811 -0.0444
vn -0.8817 -0.4713 -0.0238
vn 0.2899 -0.9558 -0.0482
vn 0.7726 -0.6341 0.0320
vn -0.6339 -0.7724 0.0389
vn 0.6339 -0.7724 0.0389
vn -0.7726 -0.6341 0.0320
vn 0.4709 -0.8811 0.0444
vn -0.8817 -0.4713 0.0238
vn 0.2899 -0.9558 0.0482
vn -0.9568 -0.2903 0.0146
vn 0.0979 -0.9939 0.0501
vn 0.9952 -0.0980 0.0049
vn -0.9952 -0.0980 0.0049
vn -0.0979 -0.9939 0.0501
vn 0.9568 -0.2903 0.0146
vn -0.2899 -0.9558 0.0482
vn 0.8817 -0.4713 0.0238
vn -0.4709 -0.8811 0.0444
vn 0.1007 -0.9831 0.1526
vn 0.9954 -0.0943 0.0146
vn -0.9954 -0.0943 0.0146
vn -0.1007 -0.9831 0.1526
vn 0.9591 -0.2798 0.0434
vn -0.2976 -0.9434 0.1465
vn 0.8872 -0.4560 0.0708
vn -0.4814 -0.8661 0.1345
vn 0.7814 -0.6166 0.0957
vn -0.6447 -0.7554 0.1173
vn 0.6447 -0.7554 0.1173
vn -0.7814 -0.6166 0.0957
vn 0.4814 -0.8661 0.1345
vn -0.8872 -0.4560 0.0708
vn 0.2976 -0.9434 0.1465
vn -0.9591 -0.2798 0.0434
vn -0.6662 -0.7194 0.1968
vn 0.6662 -0.7194 0.1968
vn -0.7985 -0.5807 0.1589
vn 0.5029 -0.8337 0.2281
vn -0.8976 -0.4252 0.1163
vn 0.3135 -0.9159 0.2506
vn -0.9633 -0.2590 0.0708
vn 0.1066 -0.9591 0.2624
vn 0.9959 -0.0869 0.0238
vn -0.9959 -0.0869 0.0238
vn -0.1066 -0.9591 0.2624
vn 0.9633 -0.2590 0.0708
vn -0.3135 -0.9159 0.2506
vn 0.8976 -0.4252 0.1163
vn -0.5029 -0.8337 0.2281
vn 0.7985 -0.5807 0.1589
vn -0.9966 -0.0762 0.0320
vn -0.1161 -0.9157 0.3846
vn 0.9689 -0.2283 0.0959
vn -0.3388 -0.8675 0.3643
vn 0.9118 -0.3786 0.1590
vn -0.5357 -0.7785 0.3270
vn 0.8225 -0.5243 0.2202
vn -0.6978 -0.6604 0.2774
vn 0.6978 -0.6604 0.2774
vn -0.8225 -0.5243 0.2202
vn 0.5357 -0.7785 0.3270
vn -0.9118 -0.3786 0.1590
vn 0.3388 -0.8675 0.3643
vn -0.9689 -0.2283 0.0959
vn 0.1161 -0.9157 0.3846
vn 0.9966 -0.0762 0.0320
vn -0.8512 -0.4453 0.2777
vn 0.5797 -0.6914 0.4312
vn -0.9280 -0.3162 0.1972
vn 0.3744 -0.7868 0.4907
vn -0.9750 -0.1885 0.1176
vn 0.1300 -0.8413 0.5247
vn 0.9973 -0.0626 0.0390
vn -0.9973 -0.0626 0.0390
vn -0.1300 -0.8413 0.5247
vn 0.9750 -0.1885 0.1176
vn -0.3744 -0.7868 0.4907
vn 0.9280 -0.3162 0.1972
vn -0.5797 -0.6914 0.4312
vn 0.8512 -0.4453 0.2777
vn -0.7376 -0.5729 0.3573
vn 0.7376 -0.5729 0.3573
vn 0.9808 -0.1409 0.1349
vn -0.4198 -0.6556 0.6277
vn 0.9437 -0.2389 0.2288
vn -0.6318 -0.5599 0.5361
vn 0.8806 -0.3423 0.3277
vn -0.7812 -0.4509 0.4317
vn 0.7812 -0.4509 0.4317
vn -0.8806 -0.3423 0.3277
vn 0.6318 -0.5599 0.5361
vn -0.9437 -0.2389 0.2288
vn 0.4198 -0.6556 0.6277
vn -0.9808 -0.1409 0.1349
vn 0.1485 -0.7143 0.6839
vn 0.9979 -0.0466 0.0446
vn -0.9979 -0.0466 0.0446
vn -0.1485 -0.7143 0.6839
vn 0.6827 -0.3726 0.6286
vn -0.9563 -0.1491 0.2515
vn 0.4685 -0.4505 0.7600
vn -0.9853 -0.0872 0.1471
vn 0.1697 -0.5025 0.8478
vn 0.9984 -0.0287 0.0484
vn -0.9984 -0.0287 0.0484
vn -0.1697 -0.5025 0.8478
vn 0.9853 -0.0872 0.1471
vn -0.4685 -0.4505 0.7600
vn 0.9563 -0.1491 0.2515
vn -0.6827 -0.3726 0.6286
vn 0.9052 -0.2167 0.3656
vn -0.8204 -0.2916 0.4919
vn 0.8204 -0.2916 0.4919
vn -0.9052 -0.2167 0.3656
vn -0.5030 -0.1633 0.8487
vn 0.9633 -0.0507 0.2635
vn -0.7160 -0.1319 0.6855
vn 0.9194 -0.0743 0.3862
vn -0.8442 -0.1013 0.5264
vn 0.8442 -0.1013 0.5264
vn -0.9194 -0.0743 0.3862
vn 0.7160 -0.1319 0.6855
vn -0.9633 -0.0507 0.2635
vn 0.5030 -0.1633 0.8487
vn -0.9877 -0.0295 0.1533
vn 0.1857 -0.1857 0.9649
vn 0.9987 -0.0097 0.0503
vn -0.9987 -0.0097 0.0503
vn -0.1857 -0.1857 0.9649
vn 0.9877 -0.0295 0.1533
vn -0.9633 0.0507 0.2635
vn 0.5030 0.1633 0.8487
vn -0.9877 0.0295 0.1533
vn 0.1857 0.1857 0.9649
vn 0.9987 0.0097 0.0503
vn -0.9987 0.0097 0.0503
vn -0.1857 0.1857 0.9649
vn 0.9877 0.0295 0.1533
vn -0.5030 0.1633 0.8487
vn 0.9633 0.0507 0.2635
vn -0.7160 0.1319 0.6855
vn 0.9194 0.0743 0.3862
vn -0.8442 0.1013 0.5264
vn 0.8442 0.1013 0.5264
vn -0.9194 0.0743 0.3862
vn 0.7160 0.1319 0.6855
vn 0.9563 0.1491 0.2515
vn -0.6827 0.3726 0.6286
vn 0.9052 0.2167 0.3656
vn -0.8204 0.2916 0.4919
vn 0.8204 0.2916 0.4919
vn -0.9052 0.2167 0.3656
vn 0.6827 0.3726 0.6286
vn -0.9563 0.1491 0.2515
vn 0.4685 0.4505 0.7600
vn -0.9853 0.0872 0.1471
vn 0.1697 0.5025 0.8478
vn 0.9984 0.0287 0.0484
vn -0.9984 0.0287 0.0484
vn -0.1697 0.5025 0.8478
vn 0.9853 0.0872 0.1471
vn -0.4685 0.4505 0.7600
vn 0.4198 0.6556 0.6277
vn -0.9808 0.1409 0.1349
vn 0.1485 0.7143 0.6839
vn 0.9979 0.0466 0.0446
vn -0.9979 0.0466 0.0446
vn -0.1485 0.7143 0.6839
vn 0.9808 0.1409 0.1349
vn -0.4198 0.6556 0.6277
vn 0.9437 0.2389 0.2288
vn -0.6318 0.5599 0.5361
vn 0.8806 0.3423 0.3277
vn -0.7812 0.4509 0.4317
vn 0.7812 0.4509 0.4317
vn -0.8806 0.3423 0.3277
vn 0.6318 0.5599 0.5361
vn -0.9437 0.2389 0.2288
vn -0.5797 0.6914 0.4312
vn 0.8512 0.4453 0.2777
vn -0.7376 0.5729 0.3573
vn 0.7376 0.5729 0.3573
vn -0.8512 0.4453 0.2777
vn 0.5797 0.6914 0.4312
vn -0.9280 0.3162 0.1972
vn 0.3744 0.7868 0.4907
vn -0.9750 0.1885 0.1176
vn 0.1300 0.8413 0.5247
vn 0.9973 0.0626 0.0390
vn -0.9973 0.0626 0.0390
vn -0.1300 0.8413 0.5247
vn 0.9750 0.1885 0.1176
vn -0.3744 0.7868 0.4907
vn 0.9280 0.3162 0.1972
vn -0.9689 0.2283 0.0959
vn 0.1161 0.9157 0.3846
vn 0.9966 0.0762 0.0320
vn -0.9966 0.0762 0.0320
vn -0.1161 0.9157 0.3846
vn 0.9689 0.2283 0.0959
vn -0.3388 0.8675 0.3643
vn 0.9118 0.3786 0.1590
vn -0.5357 0.7785 0.3270
vn 0.8225 0.5243 0.2202
vn -0.6978 0.6604 0.2774
vn 0.6978 0.6604 0.2774
vn -0.8225 0.5243 0.2202
vn 0.5357 0.7785 0.3270
vn -0.9118 0.3786 0.1590
vn 0.3388 0.8675 0.3643
vn -0.6662 0.7194 0.1968
vn 0.6662 0.7194 0.1968
vn -0.7985 0.5807 0.1589
vn 0.5029 0.8337 0.2281
vn -0.8976 0.4252 0.1163
vn 0.3135 0.9159 0.2506
vn -0.9633 0.2590 0.0708
vn 0.1066 0.9591 0.2624
vn 0.9959 0.0869 0.0238
vn -0.9959 0.0869 0.0238
vn -0.1066 0.9591 0.2624
vn 0.9633 0.2590 0.0708
vn -0.3135 0.9159 0.2506
vn 0.8976 0.4252 0.1163
vn -0.5029 0.8337 0.2281
vn 0.7985 0.5807 0.1589
vn 0.9954 0.0943 0.0146
vn -0.9954 0.0943 0.0146
vn -0.1007 0.9831 0.1526
vn 0.9591 0.2798 0.0434
vn -0.2976 0.9434 0.1465
vn 0.8872 0.4560 0.0708
vn -0.4814 0.8661 0.1345
vn 0.7814 0.6166 0.0957
vn -0.6447 0.7554 0.1173
vn 0.6447 0.7554 0.1173
vn -0.7814 0.6166 0.0957
vn 0.4814 0.8661 0.1345
vn -0.8872 0.4560 0.0708
vn 0.2976 0.9434 0.1465
vn -0.9591 0.2798 0.0434
vn 0.1007 0.9831 0.1526
vn 0.6339 0.7724 0.0389
vn -0.7726 0.6341 0.0320
vn 0.4709 0.8811 0.0444
vn -0.8817 0.4713 0.0238
vn 0.2899 0.9558 0.0482
vn -0.9568 0.2903 0.0146
vn 0.0979 0.9939 0.0501
vn 0.9952 0.0980 0.0049
vn -0.9952 0.0980 0.0049
vn -0.0979 0.9939 0.0501
vn 0.9568 0.2903 0.0146
vn -0.2899 0.9558 0.0482
vn 0.8817 0.4713 0.0238
vn -0.4709 0.8811 0.0444
vn 0.7726 0.6341 0.0320
vn -0.6339 0.7724 0.0389
vn -0.0979 0.9939 -0.0501
vn 0.9568 0.2903 -0.0146
vn -0.2899 0.9558 -0.0482
vn 0.8817 0.4713 -0.0238
vn -0.4709 0.8811 -0.0444
vn 0.7726 0.6341 -0.0320
vn -0.6339 0.7724 -0.0389
vn 0.6339 0.7724 -0.0389
vn -0.7726 0.6341 -0.0320
vn 0.4709 0.8811 -0.0444
vn -0.8817 0.4713 -0.0238
vn 0.2899 0.9558 -0.0482
vn -0.9568 0.2903 -0.0146
vn 0.0979 0.9939 -0.0501
vn 0.9952 0.0980 -0.0049
vn -0.9952 0.0980 -0.0049
vn -0.7814 0.6166 -0.0957
vn 0.4814 0.8661 -0.1345
vn -0.8872 0.4560 -0.0708
vn 0.2976 0.9434 -0.1465
vn -0.9591 0.2798 -0.0434
vn 0.1007 0.9831 -0.1526
vn 0.9954 0.0943 -0.0146
vn -0.9954 0.0943 -0.0146
vn -0.1007 0.9831 -0.1526
vn 0.9591 0.2798 -0.0434
vn -0.2976 0.9434 -0.1465
vn 0.8872 0.4560 -0.0708
vn -0.4814 0.8661 -0.1345
vn 0.7814 0.6166 -0.0957
vn -0.6447 0.7554 -0.1173
vn 0.6447 0.7554 -0.1173
vn 0.9633 0.2590 -0.0708
vn -0.3135 0.9159 -0.2506
vn 0.8976 0.4252 -0.1163
vn -0.5029 0.8337 -0.2281
vn 0.7985 0.5807 -0.1589
vn -0.6662 0.7194 -0.1968
vn 0.6662 0.7194 -0.1968
vn -0.7985 0.5807 -0.1589
vn 0.5029 0.8337 -0.2281
vn -0.8976 0.4252 -0.1163
vn 0.3135 0.9159 -0.2506
vn -0.9633 0.2590 -0.0708
vn 0.1066 0.9591 -0.2624
vn 0.9959 0.0869 -0.0238
vn -0.9959 0.0869 -0.0238
vn -0.1066 0.9591 -0.2624
vn 0.5357 0.7785 -0.3270
vn -0.9118 0.3786 -0.1590
vn 0.3388 0.8675 -0.3643
vn -0.9689 0.2283 -0.0959
vn 0.1161 0.9157 -0.3846
vn 0.9966 0.0762 -0.0320
vn -0.9966 0.0762 -0.0320
vn -0.1161 0.9157 -0.3846
vn 0.9689 0.2283 -0.0959
vn -0.3388 0.8675 -0.3643
vn 0.9118 0.3786 -0.1590
vn -0.5357 0.7785 -0.3270
vn 0.8225 0.5243 -0.2202
vn -0.6978 0.6604 -0.2774
vn 0.6978 0.6604 -0.2774
vn -0.8225 0.5243 -0.2202
vn -0.3744 0.7868 -0.4907
vn 0.9280 0.3162 -0.1972
vn -0.5797 0.6914 -0.4312
vn 0.8512 0.4453 -0.2777
vn -0.7376 0.5729 -0.3573
vn 0.7376 0.5729 -0.3573
vn -0.8512 0.4453 -0.2777
vn 0.5797 0.6914 -0.4312
vn -0.9280 0.3162 -0.1972
vn 0.3744 0.7868 -0.4907
vn -0.9750 0.1885 -0.1176
vn 0.1300 0.8413 -0.5247
vn 0.9973 0.0626 -0.0390
vn -0.9973 0.0626 -0.0390
vn -0.1300 0.8413 -0.5247
vn 0.9750 0.1885 -0.1176
vn -0.9437 0.2389 -0.2288
vn 0.4198 0.6556 -0.6277
vn -0.9808 0.1409 -0.1349
vn 0.1485 0.7143 -0.6839
vn 0.9979 0.0466 -0.0446
vn -0.9979 0.0466 -0.0446
vn -0.1485 0.7143 -0.6839
vn 0.9808 0.1409 -0.1349
vn -0.4198 0.6556 -0.6277
vn 0.9437 0.2389 -0.2288
vn -0.6318 0.5599 -0.5361
vn 0.8806 0.3423 -0.3277
vn -0.7812 0.4509 -0.4317
vn 0.7812 0.4509 -0.4317
vn -0.8806 0.3423 -0.3277
vn 0.6318 0.5599 -0.5361
vn -0.6827 0.3726 -0.6286
vn 0.9052 0.2167 -0.3656
vn -0.8204 0.2916 -0.4919
vn 0.8204 0.2916 -0.4919
vn -0.9052 0.2167 -0.3656
vn 0.6827 0.3726 -0.6286
vn -0.9563 0.1491 -0.2515
vn 0.4685 0.4505 -0.7600
vn -0.9853 0.0872 -0.1471
vn 0.1697 0.5025 -0.8478
vn 0.9984 0.0287 -0.0484
vn -0.9984 0.0287 -0.0484
vn -0.1697 0.5025 -0.8478
vn 0.9853 0.0872 -0.1471
vn -0.4685 0.4505 -0.7600
vn 0.9563 0.1491 -0.2515
vn -0.9877 0.0295 -0.1533
vn 0.1857 0.1857 -0.9649
vn 0.9987 0.0097 -0.0503
vn -0.9987 0.0097 -0.0503
vn -0.1857 0.1857 -0.9649
vn 0.9877 0.0295 -0.1533
vn -0.5030 0.1633 -0.8487
vn 0.9633 0.0507 -0.2635
vn -0.7160 0.1319 -0.6855
vn 0.9194 0.0743 -0.3862
vn -0.8442 0.1013 -0.5264
vn 0.8442 0.1013 -0.5264
vn -0.9194 0.0743 -0.3862
vn 0.7160 0.1319 -0.6855
vn -0.9633 0.0507 -0.2635
vn 0.5030 0.1633 -0.8487
vt 0.571703 0.854379
vt 0.571703 0.568669
vt 0.599666 0.568669
vt 0.599666 0.854379
vt 0.626796 0.568669
vt 0.626796 0.854379
vt 0.652050 0.568669
vt 0.652050 0.854379
vt 0.674458 0.568669
vt 0.674458 0.854379
vt 0.284334 0.560538
vt 0.284334 0.274828
vt 0.304065 0.274828
vt 0.304065 0.560538
vt 0.327294 0.274828
vt 0.327294 0.560538
vt 0.353128 0.274828
vt 0.353128 0.560538
vt 0.380575 0.274828
vt 0.380575 0.560538
vt 0.408579 0.274828
vt 0.408579 0.560538
vt 0.436065 0.274828
vt 0.436065 0.560538
vt 0.461976 0.274828
vt 0.461976 0.560538
vt 0.485317 0.274828
vt 0.485317 0.560538
vt 0.505190 0.274828
vt 0.505190 0.560538
vt 0.771350 0.285710
vt 0.771350 0.000000
vt 0.793819 0.000000
vt 0.793819 0.285710
vt 0.819117 0.000000
vt 0.819117 0.285710
vt 0.846272 0.000000
vt 0.846272 0.285710
vt 0.874241 0.000000
vt 0.874241 0.285710
vt 0.901948 0.000000
vt 0.901948 0.285710
vt 0.928330 0.000000
vt 0.928330 0.285710
vt 0.952371 0.000000
vt 0.952371 0.285710
vt 0.973148 0.000000
vt 0.973148 0.285710
vt 0.771350 0.807733
vt 0.771350 0.522023
vt 0.794579 0.522023
vt 0.794579 0.807733
vt 0.820413 0.522023
vt 0.820413 0.807733
vt 0.847859 0.522023
vt 0.847859 0.807733
vt 0.875864 0.522023
vt 0.875864 0.807733
vt 0.903350 0.522023
vt 0.903350 0.807733
vt 0.929260 0.522023
vt 0.929260 0.807733
vt 0.952601 0.522023
vt 0.952601 0.807733
vt 0.472626 0.854379
vt 0.472626 0.568669
vt 0.493472 0.568669
vt 0.493472 0.854379
vt 0.517565 0.568669
vt 0.517565 0.854379
vt 0.051541 0.252596
vt 0.031739 0.232793
vt 0.016180 0.209509
vt 0.005463 0.183636
vt 0.000000 0.156169
vt 0.000000 0.128165
vt 0.005463 0.100699
vt 0.016180 0.074826
vt 0.031739 0.051541
vt 0.051541 0.031739
vt 0.074826 0.016180
vt 0.100699 0.005463
vt 0.128165 0.000000
vt 0.156169 0.000000
vt 0.183636 0.005463
vt 0.209509 0.016180
vt 0.232793 0.031739
vt 0.252596 0.051541
vt 0.268154 0.074826
vt 0.278871 0.100699
vt 0.284334 0.128165
vt 0.284334 0.156169
vt 0.278871 0.183636
vt 0.268154 0.209509
vt 0.252596 0.232793
vt 0.232793 0.252596
vt 0.209509 0.268154
vt 0.183636 0.278871
vt 0.156169 0.284334
vt 0.128165 0.284334
vt 0.100699 0.278871
vt 0.074826 0.268154
vt 0.543981 0.568669
vt 0.543981 0.854379
vt 0.031739 0.517128
vt 0.016180 0.493843
vt 0.005463 0.467970
vt 0.000000 0.440504
vt 0.000000 0.412499
vt 0.005463 0.385033
vt 0.016180 0.359160
vt 0.031739 0.335875
vt 0.051541 0.316073
vt 0.074826 0.300515
vt 0.100699 0.289798
vt 0.128165 0.284334
vt 0.156169 0.284334
vt 0.183636 0.289798
vt 0.209509 0.300515
vt 0.232793 0.316073
vt 0.252596 0.335875
vt 0.268154 0.359160
vt 0.278871 0.385033
vt 0.284334 0.412499
vt 0.284334 0.440504
vt 0.278871 0.467970
vt 0.268154 0.493843
vt 0.252596 0.517128
vt 0.232793 0.536930
vt 0.209509 0.552488
vt 0.183636 0.563205
vt 0.156169 0.568669
vt 0.128165 0.568669
vt 0.100699 0.563205
vt 0.074826 0.552488
vt 0.051541 0.536930
vt 0.645998 0.410638
vt 0.645998 0.443893
vt 0.614047 0.443893
vt 0.612079 0.410638
vt 0.085557 0.676011
vt 0.054211 0.677506
vt 0.055439 0.664417
vt 0.086184 0.669339
vt 0.645998 0.376054
vt 0.611414 0.376054
vt 0.387069 0.708028
vt 0.354469 0.708178
vt 0.386442 0.701287
vt 0.118156 0.675507
vt 0.645998 0.341469
vt 0.612079 0.341469
vt 0.418415 0.707585
vt 0.417187 0.694362
vt 0.645998 0.308214
vt 0.614047 0.308214
vt 0.447304 0.706864
vt 0.445521 0.687669
vt 0.645998 0.277566
vt 0.617243 0.277566
vt 0.472626 0.705895
vt 0.470356 0.681464
vt 0.645998 0.250703
vt 0.621544 0.250703
vt 0.645998 0.474542
vt 0.645998 0.501405
vt 0.621544 0.501405
vt 0.617243 0.474542
vt 0.025322 0.679933
vt -0.000000 0.683200
vt 0.002270 0.659015
vt 0.027105 0.660931
vt 0.008994 0.635759
vt 0.032388 0.642660
vt 0.589592 0.474542
vt 0.583323 0.443893
vt 0.059078 0.651832
vt 0.579462 0.410638
vt 0.088039 0.662923
vt 0.578159 0.376054
vt 0.384587 0.694806
vt 0.579462 0.341469
vt 0.413548 0.681648
vt 0.583323 0.308214
vt 0.440238 0.669211
vt 0.589592 0.277566
vt 0.463632 0.657972
vt 0.598029 0.250703
vt 0.598029 0.501405
vt 0.549403 0.341469
vt 0.555008 0.308214
vt 0.407638 0.669931
vt 0.431659 0.652200
vt 0.564109 0.277566
vt 0.452713 0.636321
vt 0.576357 0.250703
vt 0.576357 0.501405
vt 0.564109 0.474542
vt 0.019913 0.614327
vt 0.040967 0.625820
vt 0.555008 0.443893
vt 0.064987 0.640232
vt 0.549403 0.410638
vt 0.091051 0.657009
vt 0.547511 0.376054
vt 0.381575 0.688832
vt 0.052512 0.611061
vt 0.072940 0.630066
vt 0.530189 0.443893
vt 0.523056 0.410638
vt 0.095105 0.651826
vt 0.520647 0.376054
vt 0.377521 0.683597
vt 0.523056 0.341469
vt 0.399686 0.659661
vt 0.530189 0.308214
vt 0.420114 0.637290
vt 0.541773 0.277566
vt 0.438019 0.617344
vt 0.557362 0.250703
vt 0.469992 0.622904
vt 0.452713 0.600589
vt 0.034607 0.595541
vt 0.541773 0.474542
vt 0.389996 0.651232
vt 0.406046 0.625054
vt 0.304247 0.224827
vt 0.293328 0.193161
vt 0.316722 0.191092
vt 0.325301 0.222965
vt 0.420114 0.601770
vt 0.318942 0.253135
vt 0.336847 0.251552
vt 0.431659 0.582276
vt 0.052512 0.580124
vt 0.066580 0.598947
vt 0.293328 0.058183
vt 0.304247 0.028870
vt 0.325301 0.027008
vt 0.316722 0.056114
vt 0.082630 0.621722
vt 0.286605 0.090542
vt 0.311440 0.088346
vt 0.100045 0.647573
vt 0.284334 0.124703
vt 0.309656 0.122463
vt 0.372581 0.679300
vt 0.286605 0.159353
vt 0.311440 0.157156
vt 0.343412 0.054577
vt 0.339774 0.086713
vt 0.093685 0.615522
vt 0.105681 0.644412
vt 0.338545 0.120799
vt 0.366945 0.676107
vt 0.339774 0.155524
vt 0.378940 0.644969
vt 0.343413 0.189554
vt 0.389996 0.615961
vt 0.349322 0.221582
vt 0.399686 0.590198
vt 0.357274 0.250375
vt 0.407638 0.568669
vt 0.072940 0.568669
vt 0.082630 0.589947
vt 0.349322 0.025625
vt 0.372373 0.188608
vt 0.375385 0.220729
vt 0.372581 0.610362
vt 0.377521 0.583071
vt 0.379440 0.249650
vt 0.357274 0.000969
vt 0.379440 0.000245
vt 0.375385 0.024773
vt 0.366964 0.274828
vt 0.384380 0.274259
vt 0.372373 0.053630
vt 0.100045 0.584404
vt 0.105681 0.611704
vt 0.370518 0.085708
vt 0.111797 0.642466
vt 0.369891 0.119774
vt 0.360829 0.674141
vt 0.370518 0.154519
vt 0.366945 0.641113
vt 0.118156 0.610415
vt 0.118156 0.641809
vt 0.402491 0.085369
vt 0.402491 0.119428
vt 0.354469 0.673477
vt 0.402491 0.154180
vt 0.354469 0.639810
vt 0.402491 0.188288
vt 0.354469 0.608472
vt 0.402491 0.220442
vt 0.354469 0.580665
vt 0.402491 0.249406
vt 0.402491 -0.000000
vt 0.402491 0.024485
vt 0.402491 0.274067
vt 0.402491 0.053311
vt 0.118156 0.582532
vt 0.336358 0.610362
vt 0.331418 0.583071
vt 0.429596 0.220729
vt 0.425542 0.249650
vt 0.425542 0.000245
vt 0.429596 0.024773
vt 0.420602 0.274259
vt 0.432609 0.053630
vt 0.136268 0.584404
vt 0.130632 0.611704
vt 0.434464 0.085708
vt 0.124516 0.642466
vt 0.435090 0.119774
vt 0.348110 0.674141
vt 0.434464 0.154519
vt 0.341994 0.641113
vt 0.432609 0.188608
vt 0.465208 0.086713
vt 0.466437 0.120799
vt 0.341994 0.676107
vt 0.130632 0.644412
vt 0.465208 0.155524
vt 0.329998 0.644969
vt 0.461569 0.189554
vt 0.318943 0.615961
vt 0.455660 0.221581
vt 0.309253 0.590198
vt 0.447707 0.250375
vt 0.447707 0.000969
vt 0.455660 0.025625
vt 0.438017 0.274828
vt 0.461569 0.054577
vt 0.153683 0.589947
vt 0.142627 0.615522
vt 0.479680 0.222965
vt 0.468135 0.251552
vt 0.301300 0.568669
vt 0.288825 0.601770
vt 0.277280 0.582276
vt 0.163373 0.568669
vt 0.183801 0.580124
vt 0.169733 0.598947
vt 0.479680 0.027008
vt 0.488259 0.056114
vt 0.153683 0.621722
vt 0.493542 0.088346
vt 0.136268 0.647573
vt 0.495326 0.122463
vt 0.336358 0.679300
vt 0.493542 0.157156
vt 0.318943 0.651232
vt 0.488259 0.191092
vt 0.302893 0.625054
vt 0.141208 0.651826
vt 0.520647 0.124703
vt 0.518377 0.159353
vt 0.331418 0.683597
vt 0.309253 0.659661
vt 0.511653 0.193161
vt 0.288825 0.637290
vt 0.500734 0.224827
vt 0.270920 0.617344
vt 0.486040 0.253135
vt 0.256226 0.600589
vt 0.201706 0.595541
vt 0.183801 0.611061
vt 0.500734 0.028870
vt 0.511653 0.058183
vt 0.163373 0.630066
vt 0.518377 0.090542
vt 0.216400 0.614327
vt 0.195346 0.625820
vt 0.761808 0.193191
vt 0.750224 0.223839
vt 0.727888 0.223839
vt 0.736989 0.193191
vt 0.171325 0.640232
vt 0.768941 0.159936
vt 0.742594 0.159936
vt 0.145262 0.657009
vt 0.771350 0.125351
vt 0.744486 0.125351
vt 0.327364 0.688832
vt 0.768941 0.090767
vt 0.742594 0.090767
vt 0.301300 0.669931
vt 0.761808 0.057512
vt 0.736989 0.057512
vt 0.277280 0.652200
vt 0.750224 0.026863
vt 0.727888 0.026863
vt 0.256226 0.636321
vt 0.734635 0.000000
vt 0.715640 0.000000
vt 0.238947 0.622904
vt 0.324352 0.694806
vt 0.295391 0.681648
vt 0.712535 0.090767
vt 0.708674 0.057512
vt 0.268701 0.669211
vt 0.702405 0.026863
vt 0.245307 0.657972
vt 0.693968 0.000000
vt 0.715640 0.250703
vt 0.693968 0.250703
vt 0.702405 0.223839
vt 0.227319 0.635759
vt 0.203925 0.642660
vt 0.708674 0.193191
vt 0.177235 0.651831
vt 0.712535 0.159936
vt 0.148274 0.662923
vt 0.713838 0.125351
vt 0.674754 0.223839
vt 0.677950 0.193191
vt 0.209208 0.660931
vt 0.180874 0.664417
vt 0.679918 0.159936
vt 0.150129 0.669339
vt 0.680583 0.125351
vt 0.322497 0.701287
vt 0.679918 0.090767
vt 0.291752 0.694362
vt 0.677950 0.057512
vt 0.263418 0.687669
vt 0.674754 0.026863
vt 0.238583 0.681464
vt 0.670453 0.000000
vt 0.670453 0.250703
vt 0.234043 0.659015
vt 0.645998 0.090767
vt 0.645998 0.057512
vt 0.290524 0.707584
vt 0.261634 0.706864
vt 0.645998 0.026863
vt 0.236313 0.705895
vt 0.645998 0.000000
vt 0.645998 0.223839
vt 0.236313 0.683200
vt 0.210991 0.679933
vt 0.645998 0.193191
vt 0.182102 0.677506
vt 0.645998 0.159936
vt 0.150756 0.676011
vt 0.645998 0.125351
vt 0.321870 0.708028
vt 0.209208 0.698935
vt 0.180874 0.690595
vt 0.614047 0.193191
vt 0.612079 0.159936
vt 0.150129 0.682684
vt 0.611414 0.125351
vt 0.322497 0.714768
vt 0.612079 0.090767
vt 0.291752 0.720807
vt 0.614047 0.057512
vt 0.263418 0.726060
vt 0.617243 0.026863
vt 0.238583 0.730326
vt 0.621544 0.000000
vt 0.617243 0.223839
vt 0.234043 0.707385
vt 0.295391 0.733520
vt 0.268701 0.744518
vt 0.583323 0.057512
vt 0.589592 0.026863
vt 0.245307 0.753819
vt 0.598029 0.000000
vt 0.589592 0.223839
vt 0.227319 0.730640
vt 0.203925 0.717207
vt 0.583323 0.193191
vt 0.177235 0.703181
vt 0.579462 0.159936
vt 0.148274 0.689100
vt 0.578159 0.125351
vt 0.324352 0.721250
vt 0.579462 0.090767
vt 0.555008 0.193191
vt 0.549403 0.159936
vt 0.171325 0.714780
vt 0.145262 0.695013
vt 0.547511 0.125351
vt 0.327364 0.727223
vt 0.549403 0.090767
vt 0.301300 0.745238
vt 0.555008 0.057512
vt 0.277280 0.761528
vt 0.564109 0.026863
vt 0.256226 0.775469
vt 0.576357 0.000000
vt 0.576357 0.250703
vt 0.564109 0.223839
vt 0.216400 0.752073
vt 0.195346 0.734046
vt 0.530189 0.057512
vt 0.541773 0.026863
vt 0.288825 0.776438
vt 0.270920 0.794446
vt 0.233679 0.768166
vt 0.216400 0.790255
vt 0.201706 0.770858
vt 0.557362 0.250703
vt 0.541773 0.223839
vt 0.183801 0.748806
vt 0.530189 0.193191
vt 0.163373 0.724946
vt 0.523056 0.159936
vt 0.141208 0.700196
vt 0.520647 0.125351
vt 0.331418 0.732459
vt 0.523056 0.090767
vt 0.309253 0.755508
vt 0.153683 0.733290
vt 0.136268 0.704450
vt 0.871567 0.285710
vt 0.906218 0.287980
vt 0.904021 0.312815
vt 0.869328 0.311032
vt 0.336358 0.736756
vt 0.837407 0.287980
vt 0.835210 0.312815
vt 0.318943 0.763937
vt 0.805048 0.294704
vt 0.802979 0.318098
vt 0.302893 0.788675
vt 0.775735 0.305623
vt 0.773873 0.326677
vt 0.288825 0.810020
vt 0.195346 0.808384
vt 0.183801 0.786275
vt 0.971692 0.305623
vt 1.000000 0.320317
vt 0.998416 0.338222
vt 0.969830 0.326677
vt 0.169733 0.760919
vt 0.940025 0.294704
vt 0.937956 0.318098
vt 0.171325 0.821854
vt 0.163373 0.797731
vt 0.997240 0.358650
vt 0.968446 0.350697
vt 0.153683 0.769920
vt 0.936419 0.344788
vt 0.142627 0.739490
vt 0.902389 0.341149
vt 0.130632 0.707610
vt 0.867664 0.339921
vt 0.341994 0.739949
vt 0.833578 0.341149
vt 0.329998 0.770199
vt 0.801442 0.344788
vt 0.318943 0.797767
vt 0.772489 0.350697
vt 0.309253 0.821593
vt 0.348110 0.741915
vt 0.124516 0.709557
vt 0.866639 0.371267
vt 0.832573 0.371894
vt 0.341994 0.774056
vt 0.800495 0.373749
vt 0.336358 0.803366
vt 0.771637 0.376761
vt 0.331418 0.828719
vt 0.145262 0.830150
vt 0.141208 0.804785
vt 0.996515 0.380815
vt 0.967594 0.376761
vt 0.136268 0.775462
vt 0.935472 0.373749
vt 0.130632 0.743308
vt 0.901384 0.371894
vt 0.996270 0.403866
vt 0.967306 0.403866
vt 0.118156 0.807167
vt 0.118156 0.777334
vt 0.935153 0.403866
vt 0.118156 0.744597
vt 0.901045 0.403866
vt 0.118156 0.710214
vt 0.866293 0.403866
vt 0.354469 0.742579
vt 0.832234 0.403866
vt 0.354469 0.775358
vt 0.800175 0.403866
vt 0.354469 0.805257
vt 0.771350 0.403866
vt 0.354469 0.831125
vt 0.118156 0.832951
vt 0.866639 0.436466
vt 0.832573 0.435839
vt 0.360829 0.741915
vt 0.366945 0.774056
vt 0.800495 0.433984
vt 0.372581 0.803366
vt 0.771637 0.430972
vt 0.377521 0.828719
vt 0.091051 0.830150
vt 0.095105 0.804785
vt 0.996515 0.426918
vt 0.967594 0.430972
vt 0.100045 0.775462
vt 0.935472 0.433984
vt 0.105681 0.743308
vt 0.901384 0.435839
vt 0.111797 0.709557
vt 0.072940 0.797731
vt 0.082630 0.769920
vt 0.968446 0.457035
vt 0.936419 0.462945
vt 0.093685 0.739490
vt 0.902389 0.466584
vt 0.105681 0.707610
vt 0.867664 0.467812
vt 0.366945 0.739949
vt 0.833578 0.466584
vt 0.378940 0.770199
vt 0.801442 0.462945
vt 0.389996 0.797767
vt 0.772489 0.457035
vt 0.399686 0.821593
vt 0.064987 0.821854
vt 0.997240 0.449083
vt 0.372581 0.736756
vt 0.389996 0.763937
vt 0.835210 0.494918
vt 0.802979 0.489635
vt 0.406046 0.788675
vt 0.773873 0.481056
vt 0.420114 0.810020
vt 0.040967 0.808384
vt 0.052512 0.786275
vt 0.998416 0.469511
vt 0.969830 0.481056
vt 0.066580 0.760919
vt 0.937956 0.489635
vt 0.082630 0.733290
vt 0.904021 0.494918
vt 0.100045 0.704450
vt 0.869328 0.496701
vt 0.971692 0.502110
vt 0.940026 0.513029
vt 0.052512 0.748806
vt 0.072940 0.724946
vt 0.906218 0.519753
vt 0.095105 0.700196
vt 0.871567 0.522023
vt 0.377521 0.732459
vt 0.837407 0.519753
vt 0.399686 0.755508
vt 0.805048 0.513029
vt 0.420114 0.776438
vt 0.775735 0.502110
vt 0.438019 0.794446
vt 0.019913 0.790255
vt 0.034607 0.770858
vt 1.000000 0.487416
vt 0.761808 0.308214
vt 0.768941 0.341469
vt 0.742594 0.341469
vt 0.736989 0.308214
vt 0.407638 0.745238
vt 0.431659 0.761528
vt 0.750224 0.277566
vt 0.727888 0.277566
vt 0.452713 0.775469
vt 0.002634 0.768166
vt 0.019913 0.752073
vt 0.750224 0.474542
vt 0.734635 0.501405
vt 0.715640 0.501405
vt 0.727888 0.474542
vt 0.040967 0.734046
vt 0.761808 0.443893
vt 0.736989 0.443893
vt 0.064987 0.714780
vt 0.768941 0.410638
vt 0.742594 0.410638
vt 0.091051 0.695013
vt 0.771350 0.376054
vt 0.744486 0.376054
vt 0.381575 0.727223
vt 0.032388 0.717207
vt 0.059078 0.703181
vt 0.708674 0.443893
vt 0.712534 0.410638
vt 0.088039 0.689100
vt 0.713838 0.376054
vt 0.384587 0.721250
vt 0.712534 0.341469
vt 0.413548 0.733520
vt 0.708674 0.308214
vt 0.440238 0.744518
vt 0.702405 0.277566
vt 0.463632 0.753819
vt 0.693968 0.501405
vt 0.702405 0.474542
vt 0.008994 0.730640
vt 0.677950 0.308214
vt 0.674754 0.277566
vt 0.445521 0.726060
vt 0.470356 0.730326
vt 0.670453 0.250703
vt 0.670453 0.501405
vt 0.674754 0.474542
vt 0.002270 0.707385
vt 0.027105 0.698935
vt 0.677950 0.443893
vt 0.055439 0.690595
vt 0.679918 0.410638
vt 0.086184 0.682684
vt 0.680583 0.376054
vt 0.386442 0.714768
vt 0.679918 0.341469
vt 0.417187 0.720807
s 0
f 1/1/1 2/2/1 4/3/1 3/4/1
f 3/4/2 4/3/2 6/5/2 5/6/2
f 5/6/3 6/5/3 8/7/3 7/8/3
f 7/8/4 8/7/4 10/9/4 9/10/4
f 9/11/5 10/12/5 12/13/5 11/14/5
f 11/14/6 12/13/6 14/15/6 13/16/6
f 13/16/7 14/15/7 16/17/7 15/18/7
f 15/18/8 16/17/8 18/19/8 17/20/8
f 17/20/9 18/19/9 20/21/9 19/22/9
f 19/22/10 20/21/10 22/23/10 21/24/10
f 21/24/11 22/23/11 24/25/11 23/26/11
f 23/26/12 24/25/12 26/27/12 25/28/12
f 25/28/13 26/27/13 28/29/13 27/30/13
f 27/31/14 28/32/14 30/33/14 29/34/14
f 29/34/15 30/33/15 32/35/15 31/36/15
f 31/36/16 32/35/16 34/37/16 33/38/16
f 33/38/17 34/37/17 36/39/17 35/40/17
f 35/40/18 36/39/18 38/41/18 37/42/18
f 37/42/19 38/41/19 40/43/19 39/44/19
f 39/44/20 40/43/20 42/45/20 41/46/20
f 41/46/21 42/45/21 44/47/21 43/48/21
f 43/49/22 44/50/22 46/51/22 45/52/22
f 45/52/23 46/51/23 48/53/23 47/54/23
f 47/54/24 48/53/24 50/55/24 49/56/24
f 49/56/25 50/55/25 52/57/25 51/58/25
f 51/58/26 52/57/26 54/59/26 53/60/26
f 53/60/27 54/59/27 56/61/27 55/62/27
f 55/62/28 56/61/28 58/63/28 57/64/28
f 57/65/29 58/66/29 60/67/29 59/68/29
f 59/68/30 60/67/30 62/69/30 61/70/30
f 4/71/31 2/72/31 64/73/31 62/74/31 60/75/31 58/76/31 56/77/31 54/78/31 52/79/31 50/80/31 48/81/31 46/82/31 44/83/31 42/84/31 40/85/31 38/86/31 36/87/31 34/88/31 32/89/31 30/90/31 28/91/31 26/92/31 24/93/31 22/94/31 20/95/31 18/96/31 16/97/31 14/98/31 12/99/31 10/100/31 8/101/31 6/102/31
f 61/70/32 62/69/32 64/103/32 63/104/32
f 63/104/33 64/103/33 2/2/33 1/1/33
f 1/105/34 3/106/34 5/107/34 7/108/34 9/109/34 11/110/34 13/111/34 15/112/34 17/113/34 19/114/34 21/115/34 23/116/34 25/117/34 27/118/34 29/119/34 31/120/34 33/121/34 35/122/34 37/123/34 39/124/34 41/125/34 43/126/34 45/127/34 47/128/34 49/129/34 51/130/34 53/131/34 55/132/34 57/133/34 59/134/34 61/135/34 63/136/34
f 68/137/35 541/138/35 78/139/35 79/140/35
f 546/141/36 545/142/36 86/143/36 87/144/36
f 69/145/37 68/137/37 79/140/37 80/146/37
f 538/147/38 65/148/38 73/149/38
f 72/150/39 546/141/39 87/144/39
f 70/151/40 69/145/40 80/146/40 81/152/40
f 539/153/41 538/147/41 73/149/41 74/154/41
f 542/155/42 70/151/42 81/152/42 82/156/42
f 66/157/43 539/153/43 74/154/43 75/158/43
f 71/159/44 542/155/44 82/156/44 83/160/44
f 540/161/45 66/157/45 75/158/45 76/162/45
f 543/163/46 71/159/46 83/160/46 84/164/46
f 67/165/47 540/166/47 76/167/47 77/168/47
f 544/169/48 543/170/48 84/171/48 85/172/48
f 541/138/49 67/165/49 77/168/49 78/139/49
f 545/142/50 544/169/50 85/172/50 86/143/50
f 85/172/51 84/171/51 99/173/51 100/174/51
f 78/139/52 77/168/52 92/175/52 93/176/52
f 86/143/53 85/172/53 100/174/53 101/177/53
f 79/140/54 78/139/54 93/176/54 94/178/54
f 87/144/55 86/143/55 101/177/55 102/179/55
f 80/146/56 79/140/56 94/178/56 95/180/56
f 73/149/57 65/148/57 88/181/57
f 72/150/58 87/144/58 102/179/58
f 81/152/59 80/146/59 95/180/59 96/182/59
f 74/154/60 73/149/60 88/181/60 89/183/60
f 82/156/61 81/152/61 96/182/61 97/184/61
f 75/158/62 74/154/62 89/183/62 90/185/62
f 83/160/63 82/156/63 97/184/63 98/186/63
f 76/162/64 75/158/64 90/185/64 91/187/64
f 84/164/65 83/160/65 98/186/65 99/188/65
f 77/168/66 76/167/66 91/189/66 92/175/66
f 97/184/67 96/182/67 111/190/67 112/191/67
f 90/185/68 89/183/68 104/192/68 105/193/68
f 98/186/69 97/184/69 112/191/69 113/194/69
f 91/187/70 90/185/70 105/193/70 106/195/70
f 99/188/71 98/186/71 113/194/71 114/196/71
f 92/175/72 91/189/72 106/197/72 107/198/72
f 100/174/73 99/173/73 114/199/73 115/200/73
f 93/176/74 92/175/74 107/198/74 108/201/74
f 101/177/75 100/174/75 115/200/75 116/202/75
f 94/178/76 93/176/76 108/201/76 109/203/76
f 102/179/77 101/177/77 116/202/77 117/204/77
f 95/180/78 94/178/78 109/203/78 110/205/78
f 88/181/79 65/148/79 103/206/79
f 72/150/80 102/179/80 117/204/80
f 96/182/81 95/180/81 110/205/81 111/190/81
f 89/183/82 88/181/82 103/206/82 104/192/82
f 116/202/83 115/200/83 130/207/83 131/208/83
f 109/203/84 108/201/84 123/209/84 124/210/84
f 117/204/85 116/202/85 131/208/85 132/211/85
f 110/205/86 109/203/86 124/210/86 125/212/86
f 103/206/87 65/148/87 118/213/87
f 72/150/88 117/204/88 132/211/88
f 111/190/89 110/205/89 125/212/89 126/214/89
f 104/192/90 103/206/90 118/213/90 119/215/90
f 112/191/91 111/190/91 126/214/91 127/216/91
f 105/193/92 104/192/92 119/215/92 120/217/92
f 113/194/93 112/191/93 127/216/93 128/218/93
f 106/195/94 105/193/94 120/217/94 121/219/94
f 114/196/95 113/194/95 128/218/95 129/220/95
f 107/221/96 106/195/96 121/219/96 122/222/96
f 115/200/97 114/199/97 129/223/97 130/207/97
f 108/201/98 107/198/98 122/224/98 123/209/98
f 120/217/99 119/215/99 134/225/99 135/226/99
f 128/227/100 127/228/100 142/229/100 143/230/100
f 121/219/101 120/217/101 135/226/101 136/231/101
f 129/232/102 128/227/102 143/230/102 144/233/102
f 122/222/103 121/219/103 136/231/103 137/234/103
f 130/207/104 129/223/104 144/235/104 145/236/104
f 123/237/105 122/238/105 137/239/105 138/240/105
f 131/208/106 130/207/106 145/236/106 146/241/106
f 124/242/107 123/237/107 138/240/107 139/243/107
f 132/211/108 131/208/108 146/241/108 147/244/108
f 125/245/109 124/242/109 139/243/109 140/246/109
f 118/213/110 65/148/110 133/247/110
f 72/150/111 132/211/111 147/244/111
f 126/248/112 125/245/112 140/246/112 141/249/112
f 119/215/113 118/213/113 133/247/113 134/225/113
f 127/228/114 126/248/114 141/249/114 142/229/114
f 139/243/115 138/240/115 153/250/115 154/251/115
f 147/244/116 146/241/116 161/252/116 162/253/116
f 140/246/117 139/243/117 154/251/117 155/254/117
f 133/247/118 65/148/118 148/255/118
f 72/150/119 147/244/119 162/253/119
f 141/249/120 140/246/120 155/254/120 156/256/120
f 134/225/121 133/247/121 148/255/121 149/257/121
f 142/229/122 141/249/122 156/256/122 157/258/122
f 135/226/123 134/225/123 149/257/123 150/259/123
f 143/230/124 142/229/124 157/258/124 158/260/124
f 136/231/125 135/226/125 150/259/125 151/261/125
f 144/233/126 143/230/126 158/260/126 159/262/126
f 137/234/127 136/231/127 151/261/127 152/263/127
f 145/236/128 144/235/128 159/264/128 160/265/128
f 138/240/129 137/239/129 152/266/129 153/250/129
f 146/241/130 145/236/130 160/265/130 161/252/130
f 158/260/131 157/258/131 172/267/131 173/268/131
f 151/261/132 150/259/132 165/269/132 166/270/132
f 159/262/133 158/260/133 173/268/133 174/271/133
f 152/266/134 151/272/134 166/273/134 167/274/134
f 160/275/135 159/262/135 174/271/135 175/276/135
f 153/250/136 152/266/136 167/274/136 168/277/136
f 161/252/137 160/265/137 175/278/137 176/279/137
f 154/251/138 153/250/138 168/277/138 169/280/138
f 162/253/139 161/252/139 176/279/139 177/281/139
f 155/254/140 154/251/140 169/280/140 170/282/140
f 148/255/141 65/148/141 163/283/141
f 72/150/142 162/253/142 177/281/142
f 156/256/143 155/254/143 170/282/143 171/284/143
f 149/257/144 148/255/144 163/283/144 164/285/144
f 157/258/145 156/256/145 171/284/145 172/267/145
f 150/259/146 149/257/146 164/285/146 165/269/146
f 177/281/147 176/279/147 191/286/147 192/287/147
f 170/282/148 169/280/148 184/288/148 185/289/148
f 163/283/149 65/148/149 178/290/149
f 72/150/150 177/281/150 192/287/150
f 171/284/151 170/282/151 185/289/151 186/291/151
f 164/285/152 163/283/152 178/290/152 179/292/152
f 172/267/153 171/284/153 186/291/153 187/293/153
f 165/269/154 164/285/154 179/292/154 180/294/154
f 173/268/155 172/267/155 187/293/155 188/295/155
f 166/270/156 165/269/156 180/294/156 181/296/156
f 174/271/157 173/268/157 188/295/157 189/297/157
f 167/274/158 166/273/158 181/298/158 182/299/158
f 175/276/159 174/271/159 189/297/159 190/300/159
f 168/277/160 167/274/160 182/299/160 183/301/160
f 176/279/161 175/278/161 190/302/161 191/286/161
f 169/280/162 168/277/162 183/301/162 184/288/162
f 181/296/163 180/294/163 195/303/163 196/304/163
f 189/297/164 188/295/164 203/305/164 204/306/164
f 182/299/165 181/298/165 196/307/165 197/308/165
f 190/300/166 189/297/166 204/306/166 205/309/166
f 183/301/167 182/299/167 197/308/167 198/310/167
f 191/286/168 190/302/168 205/311/168 206/312/168
f 184/288/169 183/301/169 198/310/169 199/313/169
f 192/287/170 191/286/170 206/312/170 207/314/170
f 185/289/171 184/288/171 199/313/171 200/315/171
f 178/290/172 65/148/172 193/316/172
f 72/150/173 192/287/173 207/314/173
f 186/291/174 185/289/174 200/315/174 201/317/174
f 179/292/175 178/290/175 193/316/175 194/318/175
f 187/293/176 186/291/176 201/317/176 202/319/176
f 180/294/177 179/292/177 194/318/177 195/303/177
f 188/295/178 187/293/178 202/319/178 203/305/178
f 200/315/179 199/313/179 214/320/179 215/321/179
f 193/316/180 65/148/180 208/322/180
f 72/150/181 207/314/181 222/323/181
f 201/317/182 200/315/182 215/321/182 216/324/182
f 194/318/183 193/316/183 208/322/183 209/325/183
f 202/319/184 201/317/184 216/324/184 217/326/184
f 195/303/185 194/318/185 209/325/185 210/327/185
f 203/305/186 202/319/186 217/326/186 218/328/186
f 196/304/187 195/303/187 210/327/187 211/329/187
f 204/306/188 203/305/188 218/328/188 219/330/188
f 197/308/189 196/307/189 211/331/189 212/332/189
f 205/309/190 204/306/190 219/330/190 220/333/190
f 198/310/191 197/308/191 212/332/191 213/334/191
f 206/312/192 205/311/192 220/335/192 221/336/192
f 199/313/193 198/310/193 213/334/193 214/320/193
f 207/314/194 206/312/194 221/336/194 222/323/194
f 219/330/195 218/328/195 233/337/195 234/338/195
f 212/339/196 211/329/196 226/340/196 227/341/196
f 220/335/197 219/342/197 234/343/197 235/344/197
f 213/334/198 212/332/198 227/345/198 228/346/198
f 221/336/199 220/335/199 235/344/199 236/347/199
f 214/320/200 213/334/200 228/346/200 229/348/200
f 222/323/201 221/336/201 236/347/201 237/349/201
f 215/321/202 214/320/202 229/348/202 230/350/202
f 208/322/203 65/148/203 223/351/203
f 72/150/204 222/323/204 237/349/204
f 216/324/205 215/321/205 230/350/205 231/352/205
f 209/325/206 208/322/206 223/351/206 224/353/206
f 217/326/207 216/324/207 231/352/207 232/354/207
f 210/327/208 209/325/208 224/353/208 225/355/208
f 218/328/209 217/326/209 232/354/209 233/337/209
f 211/329/210 210/327/210 225/355/210 226/340/210
f 72/150/211 237/349/211 252/356/211
f 231/352/212 230/350/212 245/357/212 246/358/212
f 224/353/213 223/351/213 238/359/213 239/360/213
f 232/354/214 231/352/214 246/358/214 247/361/214
f 225/355/215 224/353/215 239/360/215 240/362/215
f 233/337/216 232/354/216 247/361/216 248/363/216
f 226/340/217 225/355/217 240/362/217 241/364/217
f 234/338/218 233/337/218 248/363/218 249/365/218
f 227/341/219 226/340/219 241/364/219 242/366/219
f 235/344/220 234/343/220 249/367/220 250/368/220
f 228/346/221 227/345/221 242/369/221 243/370/221
f 236/347/222 235/344/222 250/368/222 251/371/222
f 229/348/223 228/346/223 243/370/223 244/372/223
f 237/349/224 236/347/224 251/371/224 252/356/224
f 230/350/225 229/348/225 244/372/225 245/357/225
f 223/351/226 65/148/226 238/359/226
f 250/368/227 249/367/227 264/373/227 265/374/227
f 243/375/228 242/376/228 257/377/228 258/378/228
f 251/371/229 250/368/229 265/374/229 266/379/229
f 244/380/230 243/375/230 258/378/230 259/381/230
f 252/356/231 251/371/231 266/379/231 267/382/231
f 245/383/232 244/380/232 259/381/232 260/384/232
f 238/359/233 65/148/233 253/385/233
f 72/150/234 252/356/234 267/382/234
f 246/386/235 245/383/235 260/384/235 261/387/235
f 239/360/236 238/359/236 253/385/236 254/388/236
f 247/389/237 246/386/237 261/387/237 262/390/237
f 240/362/238 239/360/238 254/388/238 255/391/238
f 248/392/239 247/389/239 262/390/239 263/393/239
f 241/364/240 240/362/240 255/391/240 256/394/240
f 249/395/241 248/392/241 263/393/241 264/396/241
f 242/366/242 241/364/242 256/394/242 257/397/242
f 254/388/243 253/385/243 268/398/243 269/399/243
f 262/390/244 261/387/244 276/400/244 277/401/244
f 255/391/245 254/388/245 269/399/245 270/402/245
f 263/393/246 262/390/246 277/401/246 278/403/246
f 256/394/247 255/391/247 270/402/247 271/404/247
f 264/396/248 263/393/248 278/403/248 279/405/248
f 257/377/249 256/406/249 271/407/249 272/408/249
f 265/374/250 264/373/250 279/409/250 280/410/250
f 258/378/251 257/377/251 272/408/251 273/411/251
f 266/379/252 265/374/252 280/410/252 281/412/252
f 259/381/253 258/378/253 273/411/253 274/413/253
f 267/382/254 266/379/254 281/412/254 282/414/254
f 260/384/255 259/381/255 274/413/255 275/415/255
f 253/385/256 65/148/256 268/398/256
f 72/150/257 267/382/257 282/414/257
f 261/387/258 260/384/258 275/415/258 276/400/258
f 273/411/259 272/408/259 287/416/259 288/417/259
f 281/412/260 280/410/260 295/418/260 296/419/260
f 274/413/261 273/411/261 288/417/261 289/420/261
f 282/414/262 281/412/262 296/419/262 297/421/262
f 275/415/263 274/413/263 289/420/263 290/422/263
f 268/398/264 65/148/264 283/423/264
f 72/150/265 282/414/265 297/421/265
f 276/400/266 275/415/266 290/422/266 291/424/266
f 269/399/267 268/398/267 283/423/267 284/425/267
f 277/401/268 276/400/268 291/424/268 292/426/268
f 270/402/269 269/399/269 284/425/269 285/427/269
f 278/403/270 277/401/270 292/426/270 293/428/270
f 271/404/271 270/402/271 285/427/271 286/429/271
f 279/405/272 278/403/272 293/428/272 294/430/272
f 272/408/273 271/407/273 286/431/273 287/416/273
f 280/410/274 279/409/274 294/432/274 295/418/274
f 292/426/275 291/424/275 306/433/275 307/434/275
f 285/427/276 284/425/276 299/435/276 300/436/276
f 293/428/277 292/426/277 307/434/277 308/437/277
f 286/429/278 285/427/278 300/436/278 301/438/278
f 294/430/279 293/428/279 308/437/279 309/439/279
f 287/416/280 286/431/280 301/163/280 302/440/280
f 295/418/281 294/432/281 309/441/281 310/442/281
f 288/417/282 287/416/282 302/440/282 303/443/282
f 296/419/283 295/418/283 310/442/283 311/444/283
f 289/420/284 288/417/284 303/443/284 304/445/284
f 297/421/285 296/419/285 311/444/285 312/446/285
f 290/422/286 289/420/286 304/445/286 305/447/286
f 283/423/287 65/148/287 298/448/287
f 72/150/288 297/421/288 312/446/288
f 291/424/289 290/422/289 305/447/289 306/433/289
f 284/425/290 283/423/290 298/448/290 299/435/290
f 311/444/291 310/442/291 325/449/291 326/450/291
f 304/445/292 303/443/292 318/451/292 319/452/292
f 312/446/293 311/444/293 326/450/293 327/453/293
f 305/447/294 304/445/294 319/452/294 320/454/294
f 298/448/295 65/148/295 313/455/295
f 72/150/296 312/446/296 327/453/296
f 306/433/297 305/447/297 320/454/297 321/456/297
f 299/435/298 298/448/298 313/455/298 314/457/298
f 307/434/299 306/433/299 321/456/299 322/458/299
f 300/436/300 299/435/300 314/457/300 315/459/300
f 308/437/301 307/434/301 322/458/301 323/460/301
f 301/438/302 300/436/302 315/459/302 316/461/302
f 309/439/303 308/437/303 323/460/303 324/462/303
f 302/440/304 301/163/304 316/164/304 317/463/304
f 310/442/305 309/441/305 324/464/305 325/449/305
f 303/443/306 302/440/306 317/463/306 318/451/306
f 315/459/307 314/457/307 329/465/307 330/466/307
f 323/460/308 322/458/308 337/467/308 338/468/308
f 316/461/309 315/459/309 330/466/309 331/469/309
f 324/462/310 323/460/310 338/468/310 339/470/310
f 317/463/311 316/164/311 331/188/311 332/471/311
f 325/449/312 324/464/312 339/472/312 340/473/312
f 318/451/313 317/463/313 332/471/313 333/474/313
f 326/450/314 325/449/314 340/473/314 341/475/314
f 319/452/315 318/451/315 333/474/315 334/476/315
f 327/453/316 326/450/316 341/475/316 342/477/316
f 320/454/317 319/452/317 334/476/317 335/478/317
f 313/455/318 65/148/318 328/479/318
f 72/150/319 327/453/319 342/477/319
f 321/456/320 320/454/320 335/478/320 336/480/320
f 314/457/321 313/455/321 328/479/321 329/465/321
f 322/458/322 321/456/322 336/480/322 337/467/322
f 334/476/323 333/474/323 348/481/323 349/482/323
f 342/477/324 341/475/324 356/483/324 357/484/324
f 335/478/325 334/476/325 349/482/325 350/485/325
f 328/479/326 65/148/326 343/486/326
f 72/150/327 342/477/327 357/484/327
f 336/480/328 335/478/328 350/485/328 351/487/328
f 329/465/329 328/479/329 343/486/329 344/488/329
f 337/467/330 336/480/330 351/487/330 352/489/330
f 330/466/331 329/465/331 344/488/331 345/490/331
f 338/468/332 337/467/332 352/489/332 353/491/332
f 331/469/333 330/466/333 345/490/333 346/492/333
f 339/470/334 338/468/334 353/491/334 354/493/334
f 332/471/335 331/188/335 346/494/335 347/495/335
f 340/473/336 339/472/336 354/496/336 355/497/336
f 333/474/337 332/471/337 347/495/337 348/481/337
f 341/475/338 340/473/338 355/497/338 356/483/338
f 353/491/339 352/489/339 367/498/339 368/499/339
f 346/492/340 345/490/340 360/500/340 361/501/340
f 354/496/341 353/502/341 368/503/341 369/504/341
f 347/495/342 346/494/342 361/505/342 362/506/342
f 355/497/343 354/496/343 369/504/343 370/507/343
f 348/481/344 347/495/344 362/506/344 363/508/344
f 356/483/345 355/497/345 370/507/345 371/509/345
f 349/482/346 348/481/346 363/508/346 364/510/346
f 357/484/347 356/483/347 371/509/347 372/511/347
f 350/485/348 349/482/348 364/510/348 365/512/348
f 343/486/349 65/148/349 358/513/349
f 72/150/350 357/484/350 372/511/350
f 351/487/351 350/485/351 365/512/351 366/514/351
f 344/488/352 343/486/352 358/513/352 359/515/352
f 352/489/353 351/487/353 366/514/353 367/498/353
f 345/490/354 344/488/354 359/515/354 360/500/354
f 372/511/355 371/509/355 386/516/355 387/517/355
f 365/518/356 364/519/356 379/520/356 380/521/356
f 358/513/357 65/148/357 373/522/357
f 72/150/358 372/511/358 387/517/358
f 366/523/359 365/518/359 380/521/359 381/524/359
f 359/515/360 358/513/360 373/522/360 374/525/360
f 367/526/361 366/523/361 381/524/361 382/527/361
f 360/500/362 359/515/362 374/525/362 375/528/362
f 368/529/363 367/526/363 382/527/363 383/530/363
f 361/501/364 360/500/364 375/528/364 376/531/364
f 369/504/365 368/503/365 383/532/365 384/533/365
f 362/534/366 361/535/366 376/536/366 377/537/366
f 370/507/367 369/504/367 384/533/367 385/538/367
f 363/539/368 362/534/368 377/537/368 378/540/368
f 371/509/369 370/507/369 385/538/369 386/516/369
f 364/519/370 363/539/370 378/540/370 379/520/370
f 384/533/371 383/532/371 398/541/371 399/542/371
f 377/537/372 376/536/372 391/543/372 392/544/372
f 385/538/373 384/533/373 399/542/373 400/545/373
f 378/540/374 377/537/374 392/544/374 393/546/374
f 386/516/375 385/538/375 400/545/375 401/547/375
f 379/520/376 378/540/376 393/546/376 394/548/376
f 387/517/377 386/516/377 401/547/377 402/549/377
f 380/521/378 379/520/378 394/548/378 395/550/378
f 373/522/379 65/148/379 388/551/379
f 72/150/380 387/517/380 402/549/380
f 381/524/381 380/521/381 395/550/381 396/552/381
f 374/525/382 373/522/382 388/551/382 389/553/382
f 382/527/383 381/524/383 396/552/383 397/554/383
f 375/528/384 374/525/384 389/553/384 390/555/384
f 383/530/385 382/527/385 397/554/385 398/556/385
f 376/531/386 375/528/386 390/555/386 391/557/386
f 388/551/387 65/148/387 403/558/387
f 72/150/388 402/549/388 417/559/388
f 396/552/389 395/550/389 410/560/389 411/561/389
f 389/553/390 388/551/390 403/558/390 404/562/390
f 397/554/391 396/552/391 411/561/391 412/563/391
f 390/555/392 389/553/392 404/562/392 405/564/392
f 398/556/393 397/554/393 412/563/393 413/565/393
f 391/557/394 390/555/394 405/564/394 406/566/394
f 399/542/395 398/541/395 413/567/395 414/568/395
f 392/544/396 391/543/396 406/569/396 407/570/396
f 400/545/397 399/542/397 414/568/397 415/571/397
f 393/546/398 392/544/398 407/570/398 408/572/398
f 401/547/399 400/545/399 415/571/399 416/573/399
f 394/548/400 393/546/400 408/572/400 409/574/400
f 402/549/401 401/547/401 416/573/401 417/559/401
f 395/550/402 394/548/402 409/574/402 410/560/402
f 407/570/403 406/569/403 421/575/403 422/576/403
f 415/571/404 414/568/404 429/577/404 430/578/404
f 408/572/405 407/570/405 422/576/405 423/579/405
f 416/573/406 415/571/406 430/578/406 431/580/406
f 409/574/407 408/572/407 423/579/407 424/581/407
f 417/559/408 416/573/408 431/580/408 432/582/408
f 410/560/409 409/574/409 424/581/409 425/583/409
f 403/558/410 65/148/410 418/584/410
f 72/150/411 417/559/411 432/582/411
f 411/561/412 410/560/412 425/583/412 426/585/412
f 404/562/413 403/558/413 418/584/413 419/586/413
f 412/563/414 411/561/414 426/585/414 427/587/414
f 405/564/415 404/562/415 419/586/415 420/588/415
f 413/565/416 412/563/416 427/587/416 428/589/416
f 406/566/417 405/564/417 420/588/417 421/590/417
f 414/568/418 413/567/418 428/591/418 429/577/418
f 426/585/419 425/583/419 440/592/419 441/593/419
f 419/586/420 418/584/420 433/594/420 434/595/420
f 427/587/421 426/585/421 441/593/421 442/596/421
f 420/588/422 419/586/422 434/595/422 435/597/422
f 428/589/423 427/587/423 442/596/423 443/598/423
f 421/590/424 420/588/424 435/597/424 436/599/424
f 429/577/425 428/591/425 443/600/425 444/601/425
f 422/576/426 421/575/426 436/602/426 437/603/426
f 430/578/427 429/577/427 444/601/427 445/604/427
f 423/579/428 422/576/428 437/603/428 438/605/428
f 431/580/429 430/578/429 445/604/429 446/606/429
f 424/581/430 423/579/430 438/605/430 439/607/430
f 432/582/431 431/580/431 446/606/431 447/608/431
f 425/583/432 424/581/432 439/607/432 440/592/432
f 418/584/433 65/148/433 433/594/433
f 72/150/434 432/582/434 447/608/434
f 445/604/435 444/601/435 459/609/435 460/610/435
f 438/605/436 437/603/436 452/611/436 453/612/436
f 446/606/437 445/604/437 460/610/437 461/613/437
f 439/607/438 438/605/438 453/612/438 454/614/438
f 447/608/439 446/606/439 461/613/439 462/615/439
f 440/592/440 439/607/440 454/614/440 455/616/440
f 433/594/441 65/148/441 448/617/441
f 72/150/442 447/608/442 462/615/442
f 441/593/443 440/592/443 455/616/443 456/618/443
f 434/595/444 433/594/444 448/617/444 449/619/444
f 442/596/445 441/593/445 456/618/445 457/620/445
f 435/597/446 434/595/446 449/619/446 450/621/446
f 443/598/447 442/596/447 457/620/447 458/622/447
f 436/599/448 435/597/448 450/621/448 451/623/448
f 444/601/449 443/600/449 458/624/449 459/609/449
f 437/603/450 436/602/450 451/625/450 452/611/450
f 449/619/451 448/617/451 463/626/451 464/627/451
f 457/620/452 456/618/452 471/628/452 472/629/452
f 450/621/453 449/619/453 464/627/453 465/630/453
f 458/622/454 457/620/454 472/629/454 473/631/454
f 451/623/455 450/621/455 465/630/455 466/632/455
f 459/609/456 458/624/456 473/633/456 474/634/456
f 452/611/457 451/625/457 466/635/457 467/636/457
f 460/610/458 459/609/458 474/634/458 475/637/458
f 453/612/459 452/611/459 467/636/459 468/638/459
f 461/613/460 460/610/460 475/637/460 476/639/460
f 454/614/461 453/612/461 468/638/461 469/640/461
f 462/615/462 461/613/462 476/639/462 477/641/462
f 455/616/463 454/614/463 469/640/463 470/642/463
f 448/617/464 65/148/464 463/626/464
f 72/150/465 462/615/465 477/641/465
f 456/618/466 455/616/466 470/642/466 471/628/466
f 468/638/467 467/636/467 482/643/467 483/644/467
f 476/639/468 475/637/468 490/645/468 491/646/468
f 469/640/469 468/638/469 483/644/469 484/647/469
f 477/641/470 476/639/470 491/646/470 492/648/470
f 470/642/471 469/640/471 484/647/471 485/649/471
f 463/626/472 65/148/472 478/650/472
f 72/150/473 477/641/473 492/648/473
f 471/628/474 470/642/474 485/649/474 486/651/474
f 464/627/475 463/626/475 478/650/475 479/652/475
f 472/629/476 471/628/476 486/651/476 487/653/476
f 465/630/477 464/627/477 479/652/477 480/654/477
f 473/631/478 472/629/478 487/653/478 488/655/478
f 466/632/479 465/630/479 480/654/479 481/656/479
f 474/634/480 473/633/480 488/657/480 489/658/480
f 467/636/481 466/635/481 481/659/481 482/643/481
f 475/637/482 474/634/482 489/658/482 490/645/482
f 487/660/483 486/661/483 501/662/483 502/663/483
f 480/654/484 479/652/484 494/664/484 495/665/484
f 488/666/485 487/660/485 502/663/485 503/667/485
f 481/656/486 480/654/486 495/665/486 496/668/486
f 489/658/487 488/657/487 503/669/487 504/670/487
f 482/671/488 481/672/488 496/673/488 497/674/488
f 490/645/489 489/658/489 504/670/489 505/675/489
f 483/676/490 482/671/490 497/674/490 498/677/490
f 491/646/491 490/645/491 505/675/491 506/678/491
f 484/679/492 483/676/492 498/677/492 499/680/492
f 492/648/493 491/646/493 506/678/493 507/681/493
f 485/682/494 484/679/494 499/680/494 500/683/494
f 478/650/495 65/148/495 493/684/495
f 72/150/496 492/648/496 507/681/496
f 486/661/497 485/682/497 500/683/497 501/662/497
f 479/652/498 478/650/498 493/684/498 494/664/498
f 506/678/499 505/675/499 520/685/499 521/686/499
f 499/680/500 498/677/500 513/687/500 514/688/500
f 507/681/501 506/678/501 521/686/501 522/689/501
f 500/683/502 499/680/502 514/688/502 515/690/502
f 493/684/503 65/148/503 508/691/503
f 72/150/504 507/681/504 522/689/504
f 501/662/505 500/683/505 515/690/505 516/692/505
f 494/664/506 493/684/506 508/691/506 509/693/506
f 502/663/507 501/662/507 516/692/507 517/694/507
f 495/665/508 494/664/508 509/693/508 510/695/508
f 503/667/509 502/663/509 517/694/509 518/696/509
f 496/668/510 495/665/510 510/695/510 511/697/510
f 504/406/511 503/667/511 518/696/511 519/407/511
f 497/674/512 496/673/512 511/698/512 512/699/512
f 505/675/513 504/670/513 519/700/513 520/685/513
f 498/677/514 497/674/514 512/699/514 513/687/514
f 518/696/515 517/694/515 532/701/515 533/702/515
f 511/697/516 510/695/516 525/703/516 526/704/516
f 519/407/517 518/696/517 533/702/517 534/705/517
f 512/699/518 511/698/518 526/706/518 527/707/518
f 520/685/519 519/700/519 534/708/519 535/709/519
f 513/687/520 512/699/520 527/707/520 528/710/520
f 521/686/521 520/685/521 535/709/521 536/711/521
f 514/688/522 513/687/522 528/710/522 529/712/522
f 522/689/523 521/686/523 536/711/523 537/713/523
f 515/690/524 514/688/524 529/712/524 530/714/524
f 508/691/525 65/148/525 523/715/525
f 72/150/526 522/689/526 537/713/526
f 516/692/527 515/690/527 530/714/527 531/716/527
f 509/693/528 508/691/528 523/715/528 524/717/528
f 517/694/529 516/692/529 531/716/529 532/701/529
f 510/695/530 509/693/530 524/717/530 525/703/530
f 537/713/531 536/711/531 545/142/531 546/141/531
f 530/714/532 529/712/532 68/137/532 69/145/532
f 523/715/533 65/148/533 538/147/533
f 72/150/534 537/713/534 546/141/534
f 531/716/535 530/714/535 69/145/535 70/151/535
f 524/717/536 523/715/536 538/147/536 539/153/536
f 532/701/537 531/716/537 70/151/537 542/155/537
f 525/703/538 524/717/538 539/153/538 66/157/538
f 533/702/539 532/701/539 542/155/539 71/159/539
f 526/704/540 525/703/540 66/157/540 540/161/540
f 534/705/541 533/702/541 71/159/541 543/163/541
f 527/707/542 526/706/542 540/166/542 67/165/542
f 535/709/543 534/708/543 543/170/543 544/169/543
f 528/710/544 527/707/544 67/165/544 541/138/544
f 536/711/545 535/709/545 544/169/545 545/142/545
f 529/712/546 528/710/546 541/138/546 68/137/546
o Ammo
v 1.342862 0.151422 1.000000
v 1.000031 0.151422 1.000000
v -1.000000 -1.000000 1.233717
v -1.000000 -0.700000 1.762452
v -1.000000 -0.985317 1.397105
v -1.000000 -0.942705 1.544500
v -1.000000 -0.876336 1.661473
v -1.000000 -0.792705 1.736574
v 1.000000 -0.700000 1.762452
v 1.000000 -1.000000 1.233717
v 1.000000 -0.792705 1.736574
v 1.000000 -0.876336 1.661473
v 1.000000 -0.942705 1.544500
v 1.000000 -0.985317 1.397105
v -1.000000 0.700000 1.762452
v -1.000000 1.000000 1.233717
v -1.000000 0.792705 1.736574
v -1.000000 0.876336 1.661473
v -1.000000 0.942705 1.544500
v -1.000000 0.985317 1.397105
v 1.000000 1.000000 1.233717
v 1.000000 0.700000 1.762452
v 1.000000 0.985317 1.397105
v 1.000000 0.942705 1.544500
v 1.000000 0.876336 1.661473
v 1.000000 0.792705 1.736574
v -1.000000 -0.700000 -1.762452
v -1.000000 -1.000000 -1.233717
v -1.000000 -0.792705 -1.736574
v -1.000000 -0.876336 -1.661473
v -1.000000 -0.942705 -1.544500
v -1.000000 -0.985317 -1.397105
v 1.000000 -1.000000 -1.233717
v 1.000000 -0.700000 -1.762452
v 1.000000 -0.985317 -1.397105
v 1.000000 -0.942705 -1.544500
v 1.000000 -0.876336 -1.661473
v 1.000000 -0.792705 -1.736574
v -1.000000 1.000000 -1.233717
v -1.000000 0.700000 -1.762452
v -1.000000 0.985317 -1.397105
v -1.000000 0.942705 -1.544500
v -1.000000 0.876336 -1.661473
v -1.000000 0.792705 -1.736574
v 1.000000 0.700000 -1.762452
v 1.000000 1.000000 -1.233717
v 1.000000 0.792705 -1.736574
v 1.000000 0.876336 -1.661473
v 1.000000 0.942705 -1.544500
v 1.000000 0.985317 -1.397105
v 1.000031 0.151422 -1.000000
v 1.342862 0.151422 -1.000000
v 1.000031 -0.151422 1.000000
v 1.342862 -0.151422 1.000000
v 1.000031 -0.151422 -1.000000
v 1.342862 -0.151422 -1.000000
vn -0.0000 -0.2689 0.9632
vn -0.0000 -0.6681 0.7440
vn -0.0000 -0.8698 0.4935
vn -0.0000 -0.9607 0.2777
vn -0.0000 -0.9960 0.0895
vn -0.0000 0.2689 0.9632
vn -0.0000 0.6681 0.7440
vn -0.0000 0.8698 0.4935
vn -0.0000 0.9607 0.2777
vn -0.0000 0.9960 0.0895
vn -0.0000 -0.0000 1.0000
vn -0.0000 -0.9960 -0.0895
vn -0.0000 -0.9607 -0.2777
vn -0.0000 -0.8698 -0.4935
vn -0.0000 -0.6681 -0.7440
vn -0.0000 -0.2689 -0.9632
vn -0.0000 -0.0000 -1.0000
vn -0.0000 1.0000 -0.0000
vn -0.0000 -1.0000 -0.0000
vn -0.0000 0.2689 -0.9632
vn -0.0000 0.6681 -0.7440
vn -0.0000 0.8698 -0.4935
vn -0.0000 0.9607 -0.2777
vn -0.0000 0.9960 -0.0895
vn -1.0000 -0.0000 -0.0000
vn 1.0000 -0.0000 -0.0000
vt 0.397778 0.000000
vt 0.397778 0.354731
vt 0.381335 0.354731
vt 0.381335 0.000000
vt 0.366502 0.354731
vt 0.366502 0.000000
vt 0.354731 0.354731
vt 0.354731 0.000000
vt 1.000000 0.000000
vt 1.000000 0.354731
vt 0.985167 0.354731
vt 0.985167 0.000000
vt 0.968724 0.354731
vt 0.968724 0.000000
vt 0.646089 0.354731
vt 0.646089 0.000000
vt 0.662532 0.000000
vt 0.662532 0.354731
vt 0.677365 0.000000
vt 0.677365 0.354731
vt 0.689137 0.000000
vt 0.689137 0.354731
vt 0.689137 0.709461
vt 0.703970 0.354731
vt 0.703970 0.709461
vt 0.720413 0.354731
vt 0.720413 0.709461
vt 0.335971 0.823733
vt 0.335971 0.709461
vt 0.389685 0.709461
vt 0.389685 0.823733
vt 0.720413 0.000000
vt 0.703970 0.000000
vt 0.677365 0.709461
vt 0.662532 0.709461
vt 0.646089 0.709461
vt 0.389685 0.823733
vt 0.389685 0.709461
vt 0.443399 0.709461
vt 0.443399 0.823733
vt 0.114271 0.910732
vt -0.000000 0.910732
vt 0.000000 0.709461
vt 0.114271 0.709461
vt 0.228543 0.910732
vt 0.228543 0.709461
vt 0.397778 0.709461
vt 0.381335 0.709461
vt 0.366502 0.709461
vt 0.354731 0.709461
vt 1.000000 0.709461
vt 0.985167 0.709461
vt 0.968724 0.709461
vt 0.301521 0.000000
vt 0.317964 0.002604
vt 0.332797 0.010162
vt 0.344568 0.021934
vt 0.352126 0.036767
vt 0.354731 0.053210
vt 0.354731 0.301521
vt 0.352126 0.317964
vt 0.344568 0.332797
vt 0.332797 0.344568
vt 0.317964 0.352126
vt 0.301521 0.354731
vt 0.053210 0.354731
vt 0.036767 0.352126
vt 0.021934 0.344568
vt 0.010162 0.332797
vt 0.002604 0.317964
vt -0.000000 0.301521
vt 0.000000 0.053210
vt 0.002604 0.036767
vt 0.010162 0.021934
vt 0.021934 0.010162
vt 0.036767 0.002604
vt 0.053210 -0.000000
vt 0.301521 0.354731
vt 0.317964 0.357335
vt 0.332797 0.364893
vt 0.344568 0.376664
vt 0.352126 0.391498
vt 0.354731 0.407940
vt 0.354731 0.656252
vt 0.352126 0.672694
vt 0.344568 0.687527
vt 0.332797 0.699299
vt 0.317964 0.706857
vt 0.301521 0.709461
vt 0.053210 0.709461
vt 0.036767 0.706857
vt 0.021934 0.699299
vt 0.010162 0.687527
vt 0.002604 0.672694
vt -0.000000 0.656252
vt 0.000000 0.407940
vt 0.002604 0.391497
vt 0.010162 0.376664
vt 0.021934 0.364893
vt 0.036767 0.357335
vt 0.053210 0.354731
vt 0.282257 0.910732
vt 0.228543 0.910732
vt 0.228543 0.709461
vt 0.282257 0.709461
vt 0.335971 0.910732
vt 0.335971 0.709461
s 0
f 555/718/547 550/719/547 554/720/547 557/721/547
f 557/721/548 554/720/548 553/722/548 558/723/548
f 558/723/549 553/722/549 552/724/549 559/725/549
f 559/726/550 552/727/550 551/728/550 560/729/550
f 560/729/551 551/728/551 549/730/551 556/731/551
f 561/732/552 568/733/552 572/734/552 563/735/552
f 563/735/553 572/734/553 571/736/553 564/737/553
f 564/737/554 571/736/554 570/738/554 565/739/554
f 565/740/555 570/739/555 569/741/555 566/742/555
f 566/742/556 569/741/556 567/743/556 562/744/556
f 599/745/557 600/746/557 547/747/557 548/748/557
f 550/719/557 555/718/557 568/733/557 561/732/557
f 579/749/558 574/743/558 578/741/558 581/750/558
f 581/750/559 578/741/559 577/739/559 582/738/559
f 582/739/560 577/740/560 576/751/560 583/737/560
f 583/737/561 576/751/561 575/752/561 584/735/561
f 584/735/562 575/752/562 573/753/562 580/732/562
f 597/754/563 598/755/563 602/756/563 601/757/563
f 548/758/564 547/759/564 598/760/564 597/761/564
f 574/743/565 579/749/565 556/731/565 549/730/565
f 601/762/565 602/758/565 600/761/565 599/763/565
f 591/719/566 586/764/566 590/765/566 593/720/566
f 593/720/567 590/765/567 589/766/567 594/722/567
f 594/722/568 589/766/568 588/767/568 595/724/568
f 595/727/569 588/768/569 587/769/569 596/728/569
f 596/728/570 587/769/570 585/770/570 592/730/570
f 586/764/563 591/719/563 580/732/563 573/753/563
f 562/744/564 567/743/564 592/730/564 585/770/564
f 585/771/571 587/772/571 588/773/571 589/774/571 590/775/571 586/776/571 573/777/571 575/778/571 576/779/571 577/780/571 578/781/571 574/782/571 549/783/571 551/784/571 552/785/571 553/786/571 554/787/571 550/788/571 561/789/571 563/790/571 564/791/571 565/792/571 566/793/571 562/794/571
f 579/795/572 581/796/572 582/797/572 583/798/572 584/799/572 580/800/572 591/801/572 593/802/572 594/803/572 595/804/572 596/805/572 592/806/572 567/807/572 569/808/572 570/809/572 571/810/572 572/811/572 568/812/572 555/813/572 557/814/572 558/815/572 559/816/572 560/817/572 556/818/572
f 597/819/571 601/820/571 599/821/571 548/822/571
f 602/823/572 598/819/572 547/822/572 600/824/572
